<svg width="51" height="54" viewBox="0 0 51 54" fill="none" xmlns="http://www.w3.org/2000/svg">
<path d="M43.1593 10.6328L49.7954 32.3056L33.9833 52.0212L26.8125 29.3555L43.1593 10.6328Z" fill="#5863F8"/>
<path d="M43.1656 10.6334L26.8188 29.3561L1 18.7297L1.02864 18.6915L17.8815 1L43.1656 10.6334Z" fill="white"/>
<path d="M26.824 29.3573L33.9948 52.023L7.99461 40.7856L1.0625 18.75L26.824 29.3573Z" fill="#373A3A"/>
<path d="M1 18.7297L1.02864 18.6915L17.8815 1L43.1656 10.6334L26.8188 29.3561L33.9896 52.0219L49.8017 32.3063L43.1656 10.6334" stroke="#373A3A" stroke-width="2" stroke-linecap="round" stroke-linejoin="round"/>
<path d="M33.9948 52.023L7.99461 40.7856L1.0625 18.75" stroke="#373A3A" stroke-width="2" stroke-linecap="round" stroke-linejoin="round"/>
<path d="M26.8188 29.3568L1 18.7305" stroke="#373A3A" stroke-width="2" stroke-linecap="round" stroke-linejoin="round"/>
</svg>
