<svg width="112" height="142" viewBox="0 0 112 142" fill="none" xmlns="http://www.w3.org/2000/svg">
<path d="M111 11.639V100.217C111 106.101 106.242 110.856 100.355 110.856H52.6129C40.7581 121.656 31.0806 130.28 16.3226 141C20.2742 129.474 23.7419 120.367 26.1612 110.856H11.6451C5.75802 110.856 1 106.101 1 100.217V11.639C1 5.75533 5.75802 1 11.6451 1H100.274C106.242 1 111 5.75533 111 11.639ZM89.629 26.711V23.8094C89.629 21.3915 87.6935 19.5377 85.3548 19.5377H26.8871C24.4677 19.5377 22.6128 21.4721 22.6128 23.8094V26.711C22.6128 29.129 24.5484 30.9827 26.8871 30.9827H85.3548C87.6935 30.9827 89.629 29.0484 89.629 26.711ZM43.0161 72.7329L34.3064 59.8371L25.5161 72.7329H43.0161ZM40.4355 53.8727V41.5412H28.0967V53.8727H40.4355ZM41.7258 87.7242C41.7258 83.6137 38.3387 80.2285 34.2258 80.2285C30.1129 80.2285 26.7258 83.5331 26.7258 87.7242C26.7258 91.9153 30.1129 95.2199 34.2258 95.2199C38.3387 95.2199 41.7258 91.8347 41.7258 87.7242Z" fill="white"/>
<path d="M89.6295 23.7288V26.6303C89.6295 29.0483 87.6939 30.902 85.3552 30.902H26.8875C24.4682 30.902 22.6133 28.9677 22.6133 26.6303V23.7288C22.6133 21.3108 24.5488 19.457 26.8875 19.457H85.3552C87.6939 19.457 89.6295 21.3914 89.6295 23.7288Z" fill="#373A3A"/>
<path d="M34.3068 59.8372L43.0166 72.733H25.5166L34.3068 59.8372Z" fill="white"/>
<path d="M40.4354 41.541H28.0967V53.8726H40.4354V41.541Z" fill="white"/>
<path d="M34.3066 80.2285C38.4195 80.2285 41.8066 83.5331 41.8066 87.7242C41.8066 91.9153 38.4195 95.2199 34.3066 95.2199C30.1937 95.2199 26.8066 91.9153 26.8066 87.7242C26.8066 83.6137 30.1937 80.2285 34.3066 80.2285Z" fill="#373A3A"/>
<path d="M52.6123 110.856H100.354C106.241 110.856 110.999 106.101 110.999 100.217V11.639C110.999 5.75533 106.241 1 100.354 1H11.7252C5.8381 1 1.08008 5.75533 1.08008 11.639V100.217C1.08008 106.101 5.8381 110.856 11.7252 110.856H26.2413C23.822 120.367 20.3543 129.474 16.4027 141C31.1607 130.28 40.7575 121.737 52.6123 110.856Z" stroke="#373A3A" stroke-width="2" stroke-linecap="round" stroke-linejoin="round"/>
<path d="M85.2732 30.9826H26.8055C24.3861 30.9826 22.5312 29.0483 22.5312 26.7109V23.8093C22.5312 21.3914 24.4668 19.5376 26.8055 19.5376H85.2732C87.6926 19.5376 89.5473 21.472 89.5473 23.8093V26.7109C89.628 29.0483 87.6926 30.9826 85.2732 30.9826Z" stroke="#373A3A" stroke-width="2" stroke-linecap="round" stroke-linejoin="round"/>
<path d="M40.4354 41.541H28.0967V53.8726H40.4354V41.541Z" stroke="#373A3A" stroke-width="2" stroke-linecap="round" stroke-linejoin="round"/>
<path d="M25.5166 72.733L34.3068 59.8372L43.0166 72.733H25.5166Z" stroke="#373A3A" stroke-width="2" stroke-linecap="round" stroke-linejoin="round"/>
<path d="M41.7265 87.7241C41.7265 83.6135 38.3394 80.2284 34.2265 80.2284C30.1136 80.2284 26.7266 83.5329 26.7266 87.7241C26.7266 91.9152 30.1136 95.2198 34.2265 95.2198C38.3394 95.2198 41.7265 91.8346 41.7265 87.7241Z" stroke="#373A3A" stroke-width="2" stroke-linecap="round" stroke-linejoin="round"/>
</svg>
