<svg width="152" height="156" viewBox="0 0 152 156" fill="none" xmlns="http://www.w3.org/2000/svg">
<path d="M25.3548 143.252C22.1093 143.252 19.4847 145.877 19.4847 149.122C19.4847 152.368 22.1093 155 25.3548 155C28.6004 155 31.2324 152.368 31.2324 149.122C31.2324 145.877 28.6004 143.252 25.3548 143.252Z" fill="white"/>
<path d="M36.1486 75.0652C36.1486 76.5512 36.1856 78.0298 36.2669 79.4937C36.5552 84.8833 37.3759 90.125 38.6623 95.182L52.9902 91.5297C51.6447 86.2658 50.9349 80.7431 50.9349 75.0652C50.9349 72.6402 51.0606 70.2448 51.312 67.8864L36.6144 66.2969C36.3039 69.1802 36.1486 72.1005 36.1486 75.0652V75.0652Z" fill="#373A3A"/>
<path d="M39.0901 53.3286L53.3367 57.2765C57.5508 42.0688 67.0363 29.0199 79.6934 20.2442L71.2873 8.08984C63.8129 13.2725 57.2477 19.6675 51.8803 26.9942C46.1284 34.8309 41.7517 43.7249 39.0901 53.3286Z" fill="#4F9D69"/>
<path d="M54.9199 114.523C50.8537 108.068 47.7486 100.949 45.8263 93.3633" stroke="#373A3A" stroke-width="2" stroke-linecap="round" stroke-linejoin="round"/>
<path d="M43.9688 67.0968C44.3976 63.0601 45.1592 59.1196 46.209 55.3047" stroke="#373A3A" stroke-width="2" stroke-linecap="round" stroke-linejoin="round"/>
<path d="M75.479 14.145C87.4337 5.85731 101.954 1 117.605 1C158.512 1 191.67 34.1583 191.67 75.0647C191.67 95.8986 183.057 114.722 169.209 128.177C159.14 137.958 146.305 144.908 131.985 147.725C127.335 148.641 122.522 149.122 117.605 149.122C108.549 149.122 99.869 147.495 91.8401 144.516" stroke="#373A3A" stroke-width="2" stroke-linecap="round" stroke-linejoin="round"/>
<path d="M75.4718 14.1448L71.2873 8.08984C63.8129 13.2725 57.2477 19.6675 51.8803 26.9942C46.1284 34.8309 41.7517 43.7249 39.0901 53.3286L53.3367 57.2765C57.5508 42.0688 67.0363 29.0199 79.6934 20.2442L75.4718 14.1448Z" stroke="#373A3A" stroke-width="2" stroke-linecap="round" stroke-linejoin="round"/>
<path d="M36.2669 79.4937C36.5626 84.8833 37.3759 90.125 38.6623 95.182L52.9902 91.5297C51.6447 86.2658 50.9349 80.7431 50.9349 75.0652C50.9349 72.6402 51.0606 70.2448 51.312 67.8864L36.6144 66.2969C36.3039 69.1802 36.1486 72.1005 36.1486 75.0652C36.1486 76.5512 36.1856 78.0298 36.2669 79.4937V79.4937Z" stroke="#373A3A" stroke-width="2" stroke-linecap="round" stroke-linejoin="round"/>
<path d="M91.8397 144.516L94.4199 137.574C80.6169 132.435 68.9579 122.846 61.2024 110.566L48.6858 118.44C58.1712 133.448 72.4105 145.159 89.2743 151.436L91.8397 144.516V144.516Z" stroke="#373A3A" stroke-width="2" stroke-linecap="round" stroke-linejoin="round"/>
<path d="M51.8887 26.9944L39.9857 15.084H12.7493" stroke="#373A3A" stroke-width="2" stroke-linecap="round" stroke-linejoin="round"/>
<path d="M36.2715 79.4922H12.7464" stroke="#373A3A" stroke-width="2" stroke-linecap="round" stroke-linejoin="round"/>
<path d="M65.6699 137.773L55.179 149.122H31.2326" stroke="#373A3A" stroke-width="2" stroke-linecap="round" stroke-linejoin="round"/>
<path d="M19.4847 149.122C19.4847 145.877 22.1093 143.252 25.3548 143.252C28.6004 143.252 31.2324 145.877 31.2324 149.122C31.2324 152.368 28.6004 155 25.3548 155C22.1093 155 19.4847 152.368 19.4847 149.122Z" stroke="#373A3A" stroke-width="2" stroke-linecap="round" stroke-linejoin="round"/>
<path d="M1.0003 79.4947C1.0003 76.2492 3.63228 73.6172 6.87787 73.6172C10.1235 73.6172 12.748 76.2492 12.748 79.4947C12.748 82.7403 10.1161 85.3649 6.87787 85.3649C3.63967 85.3649 1.0003 82.7403 1.0003 79.4947Z" stroke="#373A3A" stroke-width="2" stroke-linecap="round" stroke-linejoin="round"/>
<path d="M1.0003 15.085C1.0003 11.8468 3.63228 9.21484 6.87787 9.21484C10.1235 9.21484 12.748 11.8468 12.748 15.085C12.748 18.3232 10.1161 20.9626 6.87787 20.9626C3.63967 20.9626 1.0003 18.3306 1.0003 15.085Z" stroke="#373A3A" stroke-width="2" stroke-linecap="round" stroke-linejoin="round"/>
</svg>
