<svg width="43" height="45" viewBox="0 0 43 45" fill="none" xmlns="http://www.w3.org/2000/svg">
<path d="M36.1317 9.02698L41.6608 27.0845L28.4864 43.5113L22.5117 24.6265L36.1317 9.02698Z" fill="#1C7858"/>
<path d="M36.1319 9.02646L22.5119 24.6259L1 15.7722L1.02387 15.7404L15.0655 1L36.1319 9.02646Z" fill="white"/>
<path d="M22.511 24.6263L28.4857 43.5112L6.82263 34.1483L1.04688 15.7885L22.511 24.6263Z" fill="#373A3A"/>
<path d="M1 15.7722L1.02387 15.7404L15.0655 1L36.1319 9.02646L22.5119 24.6259L28.4865 43.5108L41.661 27.084L36.1319 9.02646" stroke="#373A3A" stroke-width="1.34286" stroke-linecap="round" stroke-linejoin="round"/>
<path d="M28.4857 43.5112L6.82263 34.1483L1.04688 15.7885" stroke="#373A3A" stroke-width="1.34286" stroke-linecap="round" stroke-linejoin="round"/>
<path d="M22.5119 24.6265L1 15.7727" stroke="#373A3A" stroke-width="1.34286" stroke-linecap="round" stroke-linejoin="round"/>
</svg>
