<svg width="66" height="47" viewBox="0 0 66 47" fill="none" xmlns="http://www.w3.org/2000/svg">
<g clip-path="url(#clip0_693_5373)">
<path d="M5.77355 21.5261C8.5219 19.9588 11.4192 20.5668 14.1556 21.39L14.4536 21.4782C17.6508 22.3831 20.6276 23.4045 23.0074 21.1915" stroke="#373A3A" stroke-width="2" stroke-linecap="round" stroke-linejoin="round"/>
<path d="M14.154 21.3783C15.857 4.6648 20.304 2.22811 24.1385 2.61881C25.1484 2.72171 26.0761 3.2212 26.7181 4.00758C27.36 4.79396 27.6636 5.80295 27.5622 6.813C27.5528 6.9047 27.5441 6.99066 27.5347 7.08237C27.4478 7.60017 27.2514 8.09346 26.9588 8.52937" stroke="#373A3A" stroke-width="2" stroke-linecap="round" stroke-linejoin="round"/>
<path d="M14.4615 21.3587L14.4504 21.4676C12.7568 38.0894 8.29219 40.53 4.46918 40.1405C3.46044 40.0362 2.53427 39.5362 1.89356 38.7501C1.25285 37.964 0.949927 36.956 1.05121 35.9469C1.06055 35.8552 1.0699 35.7635 1.07924 35.6718C1.16475 35.1633 1.35416 34.6779 1.63568 34.2459C1.63568 34.2459 1.63568 34.2459 1.63568 34.2459" stroke="#373A3A" stroke-width="2" stroke-linecap="round" stroke-linejoin="round"/>
<path d="M43.7612 29.5422L51.6185 23.1328" stroke="#373A3A" stroke-width="2" stroke-linecap="round" stroke-linejoin="round"/>
<path d="M50.8914 30.2687L44.4883 22.4062" stroke="#373A3A" stroke-width="2" stroke-linecap="round" stroke-linejoin="round"/>
<path d="M41.3459 7.19894C36.5814 11.9404 33.6055 18.1854 32.9241 24.8725C32.2428 31.5597 33.8979 38.2765 37.6082 43.8815" stroke="#373A3A" stroke-width="2" stroke-linecap="round" stroke-linejoin="round"/>
<path d="M57.7734 8.87109C61.4837 14.4761 63.1389 21.1929 62.4575 27.8801C61.7762 34.5672 58.8003 40.8122 54.0358 45.5537" stroke="#373A3A" stroke-width="2" stroke-linecap="round" stroke-linejoin="round"/>
</g>
<defs>
<clipPath id="clip0_693_5373">
<rect width="61.41" height="40.796" fill="white" transform="translate(4.13672) rotate(5.81792)"/>
</clipPath>
</defs>
</svg>
