<svg width="47" height="39" viewBox="0 0 47 39" fill="none" xmlns="http://www.w3.org/2000/svg">
<g clip-path="url(#clip0_693_5369)">
<path d="M32.5523 18.2088C33.4016 18.0548 34.2774 18.1562 35.0691 18.5001C35.8608 18.8439 36.533 19.4147 37.0003 20.1404C37.4675 20.8662 37.709 21.7142 37.6943 22.5772C37.6796 23.4402 37.4094 24.2794 36.9178 24.9889C36.4261 25.6983 35.735 26.246 34.9321 26.5627C34.1291 26.8794 33.2503 26.9509 32.4067 26.7681C31.5631 26.5854 30.7927 26.1565 30.1929 25.5359C29.593 24.9153 29.1906 24.1307 29.0366 23.2814C28.8327 22.1428 29.0882 20.9698 29.7471 20.0191C30.406 19.0685 31.4146 18.4175 32.5523 18.2088V18.2088Z" fill="white"/>
<path d="M3.23013 21.1315L7.75247 20.3215L17.3906 35.7496L21.2583 5.43429L40.0455 2.06939" stroke="#373A3A" stroke-width="1.8414" stroke-linecap="round" stroke-linejoin="round"/>
<path d="M37.6242 21.7425C37.4738 20.8922 37.0745 20.1056 36.4768 19.4823C35.8791 18.8591 35.1099 18.4272 34.2667 18.2412C33.4234 18.0552 32.5441 18.1236 31.7397 18.4377C30.9353 18.7518 30.2421 19.2975 29.7479 20.0056C29.2538 20.7138 28.9808 21.5526 28.9636 22.416C28.9464 23.2794 29.1858 24.1284 29.6513 24.8557C30.1169 25.583 30.7879 26.1558 31.5791 26.5017C32.3703 26.8475 33.2463 26.9509 34.0963 26.7987C35.2329 26.5927 36.2417 25.9454 36.9027 24.9981C37.5637 24.0508 37.8231 22.8804 37.6242 21.7425V21.7425Z" stroke="#373A3A" stroke-width="1.8414" stroke-linecap="round" stroke-linejoin="round"/>
</g>
<defs>
<clipPath id="clip0_693_5369">
<rect width="41.4408" height="31" fill="white" transform="translate(0 8.30469) rotate(-10.1544)"/>
</clipPath>
</defs>
</svg>
