<svg width="1227" height="955" viewBox="0 0 1227 955" fill="none" xmlns="http://www.w3.org/2000/svg">
<g clip-path="url(#clip0_582_16700)">
<rect width="1227" height="955" rx="12" fill="white"/>
<path d="M1100.35 652.252C1097.11 652.252 1094.48 654.877 1094.48 658.122C1094.48 661.368 1097.11 664 1100.35 664C1103.6 664 1106.23 661.368 1106.23 658.122C1106.23 654.877 1103.6 652.252 1100.35 652.252Z" fill="white"/>
<path d="M1111.15 584.065C1111.15 585.551 1111.19 587.03 1111.27 588.494C1111.56 593.883 1112.38 599.125 1113.66 604.182L1127.99 600.53C1126.64 595.266 1125.93 589.743 1125.93 584.065C1125.93 581.64 1126.06 579.245 1126.31 576.886L1111.61 575.297C1111.3 578.18 1111.15 581.101 1111.15 584.065V584.065Z" fill="#373A3A"/>
<path d="M1114.09 562.329L1128.34 566.277C1132.55 551.069 1142.04 538.02 1154.69 529.244L1146.29 517.09C1138.81 522.272 1132.25 528.668 1126.88 535.994C1121.13 543.831 1116.75 552.725 1114.09 562.329Z" fill="#4F9D69"/>
<path d="M1129.92 623.523C1125.85 617.068 1122.75 609.949 1120.83 602.363" stroke="#373A3A" stroke-width="2" stroke-linecap="round" stroke-linejoin="round"/>
<path d="M1118.97 576.097C1119.4 572.06 1120.16 568.12 1121.21 564.305" stroke="#373A3A" stroke-width="2" stroke-linecap="round" stroke-linejoin="round"/>
<path d="M1150.48 523.145C1162.43 514.857 1176.95 510 1192.61 510C1233.51 510 1266.67 543.158 1266.67 584.065C1266.67 604.899 1258.06 623.722 1244.21 637.177C1234.14 646.958 1221.31 653.908 1206.98 656.725C1202.33 657.641 1197.52 658.122 1192.61 658.122C1183.55 658.122 1174.87 656.495 1166.84 653.516" stroke="#373A3A" stroke-width="2" stroke-linecap="round" stroke-linejoin="round"/>
<path d="M1150.47 523.145L1146.29 517.09C1138.81 522.272 1132.25 528.668 1126.88 535.994C1121.13 543.831 1116.75 552.725 1114.09 562.329L1128.34 566.277C1132.55 551.069 1142.04 538.02 1154.69 529.244L1150.47 523.145Z" stroke="#373A3A" stroke-width="2" stroke-linecap="round" stroke-linejoin="round"/>
<path d="M1111.27 588.494C1111.56 593.883 1112.38 599.125 1113.66 604.182L1127.99 600.53C1126.64 595.266 1125.93 589.743 1125.93 584.065C1125.93 581.64 1126.06 579.245 1126.31 576.886L1111.61 575.297C1111.3 578.18 1111.15 581.101 1111.15 584.065C1111.15 585.551 1111.19 587.03 1111.27 588.494V588.494Z" stroke="#373A3A" stroke-width="2" stroke-linecap="round" stroke-linejoin="round"/>
<path d="M1166.84 653.516L1169.42 646.574C1155.62 641.435 1143.96 631.846 1136.2 619.566L1123.69 627.44C1133.17 642.448 1147.41 654.159 1164.27 660.436L1166.84 653.516V653.516Z" stroke="#373A3A" stroke-width="2" stroke-linecap="round" stroke-linejoin="round"/>
<path d="M1126.89 535.994L1114.99 524.084H1087.75" stroke="#373A3A" stroke-width="2" stroke-linecap="round" stroke-linejoin="round"/>
<path d="M1111.27 588.492H1087.75" stroke="#373A3A" stroke-width="2" stroke-linecap="round" stroke-linejoin="round"/>
<path d="M1140.67 646.773L1130.18 658.122H1106.23" stroke="#373A3A" stroke-width="2" stroke-linecap="round" stroke-linejoin="round"/>
<path d="M1094.48 658.122C1094.48 654.877 1097.11 652.252 1100.35 652.252C1103.6 652.252 1106.23 654.877 1106.23 658.122C1106.23 661.368 1103.6 664 1100.35 664C1097.11 664 1094.48 661.368 1094.48 658.122Z" stroke="#373A3A" stroke-width="2" stroke-linecap="round" stroke-linejoin="round"/>
<path d="M1076 588.495C1076 585.249 1078.63 582.617 1081.88 582.617C1085.12 582.617 1087.75 585.249 1087.75 588.495C1087.75 591.74 1085.12 594.365 1081.88 594.365C1078.64 594.365 1076 591.74 1076 588.495Z" stroke="#373A3A" stroke-width="2" stroke-linecap="round" stroke-linejoin="round"/>
<path d="M1076 524.085C1076 520.847 1078.63 518.215 1081.88 518.215C1085.12 518.215 1087.75 520.847 1087.75 524.085C1087.75 527.323 1085.12 529.963 1081.88 529.963C1078.64 529.963 1076 527.331 1076 524.085Z" stroke="#373A3A" stroke-width="2" stroke-linecap="round" stroke-linejoin="round"/>
<path d="M194.132 744.027L199.661 762.085L186.486 778.511L180.512 759.626L194.132 744.027Z" fill="#1C7858"/>
<path d="M194.132 744.026L180.512 759.626L159 750.772L159.024 750.74L173.065 736L194.132 744.026Z" fill="white"/>
<path d="M180.511 759.626L186.486 778.511L164.823 769.148L159.047 750.788L180.511 759.626Z" fill="#373A3A"/>
<path d="M159 750.772L159.024 750.74L173.065 736L194.132 744.026L180.512 759.626L186.487 778.511L199.661 762.084L194.132 744.026" stroke="#373A3A" stroke-width="1.34286" stroke-linecap="round" stroke-linejoin="round"/>
<path d="M186.486 778.511L164.823 769.148L159.047 750.788" stroke="#373A3A" stroke-width="1.34286" stroke-linecap="round" stroke-linejoin="round"/>
<path d="M180.512 759.626L159 750.773" stroke="#373A3A" stroke-width="1.34286" stroke-linecap="round" stroke-linejoin="round"/>
<path d="M243.787 800L225.624 859.176L184.613 818.161L243.787 800Z" fill="white"/>
<path d="M184.611 818.165L173 829.775L214.015 870.786L225.626 859.177L184.611 818.165Z" fill="#373A3A"/>
<path d="M184.613 818.161L243.787 800L225.624 859.176L184.613 818.161Z" stroke="#373A3A" stroke-width="1.34286" stroke-linecap="round" stroke-linejoin="round"/>
<path d="M184.612 818.161L173.005 829.768L214.016 870.783L225.623 859.177" stroke="#373A3A" stroke-width="1.34286" stroke-linecap="round" stroke-linejoin="round"/>
<path d="M655 83.639V172.217C655 178.101 650.242 182.856 644.355 182.856H596.613C584.758 193.656 575.081 202.28 560.323 213C564.274 201.474 567.742 192.367 570.161 182.856H555.645C549.758 182.856 545 178.101 545 172.217V83.639C545 77.7553 549.758 73 555.645 73H644.274C650.242 73 655 77.7553 655 83.639ZM633.629 98.711V95.8094C633.629 93.3915 631.694 91.5377 629.355 91.5377H570.887C568.468 91.5377 566.613 93.4721 566.613 95.8094V98.711C566.613 101.129 568.548 102.983 570.887 102.983H629.355C631.694 102.983 633.629 101.048 633.629 98.711ZM587.016 144.733L578.306 131.837L569.516 144.733H587.016ZM584.435 125.873V113.541H572.097V125.873H584.435ZM585.726 159.724C585.726 155.614 582.339 152.229 578.226 152.229C574.113 152.229 570.726 155.533 570.726 159.724C570.726 163.915 574.113 167.22 578.226 167.22C582.339 167.22 585.726 163.835 585.726 159.724Z" fill="white"/>
<path d="M633.629 95.7288V98.6303C633.629 101.048 631.694 102.902 629.355 102.902H570.888C568.468 102.902 566.613 100.968 566.613 98.6303V95.7288C566.613 93.3108 568.549 91.457 570.888 91.457H629.355C631.694 91.457 633.629 93.3914 633.629 95.7288Z" fill="#373A3A"/>
<path d="M578.307 131.837L587.017 144.733H569.517L578.307 131.837Z" fill="white"/>
<path d="M584.435 113.541H572.097V125.873H584.435V113.541Z" fill="white"/>
<path d="M578.307 152.229C582.419 152.229 585.807 155.533 585.807 159.724C585.807 163.915 582.419 167.22 578.307 167.22C574.194 167.22 570.807 163.915 570.807 159.724C570.807 155.614 574.194 152.229 578.307 152.229Z" fill="#373A3A"/>
<path d="M596.612 182.856H644.354C650.241 182.856 654.999 178.101 654.999 172.217V83.639C654.999 77.7553 650.241 73 644.354 73H555.725C549.838 73 545.08 77.7553 545.08 83.639V172.217C545.08 178.101 549.838 182.856 555.725 182.856H570.241C567.822 192.367 564.354 201.474 560.403 213C575.161 202.28 584.758 193.737 596.612 182.856Z" stroke="#373A3A" stroke-width="2" stroke-linecap="round" stroke-linejoin="round"/>
<path d="M629.273 102.983H570.805C568.386 102.983 566.531 101.048 566.531 98.7109V95.8093C566.531 93.3914 568.467 91.5376 570.805 91.5376H629.273C631.693 91.5376 633.547 93.472 633.547 95.8093V98.7109C633.628 101.048 631.693 102.983 629.273 102.983Z" stroke="#373A3A" stroke-width="2" stroke-linecap="round" stroke-linejoin="round"/>
<path d="M584.435 113.541H572.097V125.873H584.435V113.541Z" stroke="#373A3A" stroke-width="2" stroke-linecap="round" stroke-linejoin="round"/>
<path d="M569.517 144.733L578.307 131.837L587.017 144.733H569.517Z" stroke="#373A3A" stroke-width="2" stroke-linecap="round" stroke-linejoin="round"/>
<path d="M585.727 159.724C585.727 155.614 582.339 152.228 578.227 152.228C574.114 152.228 570.727 155.533 570.727 159.724C570.727 163.915 574.114 167.22 578.227 167.22C582.339 167.22 585.727 163.835 585.727 159.724Z" stroke="#373A3A" stroke-width="2" stroke-linecap="round" stroke-linejoin="round"/>
<path d="M676.159 176.633L682.795 198.306L666.983 218.021L659.812 195.355L676.159 176.633Z" fill="#5863F8"/>
<path d="M676.166 176.633L659.819 195.356L634 184.73L634.029 184.692L650.882 167L676.166 176.633Z" fill="white"/>
<path d="M659.824 195.357L666.995 218.023L640.995 206.786L634.062 184.75L659.824 195.357Z" fill="#373A3A"/>
<path d="M634 184.73L634.029 184.692L650.882 167L676.166 176.633L659.819 195.356L666.99 218.022L682.802 198.306L676.166 176.633" stroke="#373A3A" stroke-width="2" stroke-linecap="round" stroke-linejoin="round"/>
<path d="M666.995 218.023L640.995 206.786L634.062 184.75" stroke="#373A3A" stroke-width="2" stroke-linecap="round" stroke-linejoin="round"/>
<path d="M659.819 195.357L634 184.73" stroke="#373A3A" stroke-width="2" stroke-linecap="round" stroke-linejoin="round"/>
<g clip-path="url(#clip1_582_16700)">
<path d="M333.552 186.209C334.402 186.055 335.277 186.156 336.069 186.5C336.861 186.844 337.533 187.415 338 188.14C338.468 188.866 338.709 189.714 338.694 190.577C338.68 191.44 338.409 192.279 337.918 192.989C337.426 193.698 336.735 194.246 335.932 194.563C335.129 194.879 334.25 194.951 333.407 194.768C332.563 194.585 331.793 194.157 331.193 193.536C330.593 192.915 330.191 192.131 330.037 191.281C329.833 190.143 330.088 188.97 330.747 188.019C331.406 187.068 332.415 186.418 333.552 186.209V186.209Z" fill="white"/>
<path d="M304.23 189.131L308.752 188.322L318.391 203.75L322.258 173.434L341.045 170.069" stroke="#373A3A" stroke-width="1.8414" stroke-linecap="round" stroke-linejoin="round"/>
<path d="M338.624 189.743C338.474 188.892 338.074 188.106 337.477 187.482C336.879 186.859 336.11 186.427 335.267 186.241C334.423 186.055 333.544 186.124 332.74 186.438C331.935 186.752 331.242 187.297 330.748 188.006C330.254 188.714 329.981 189.553 329.964 190.416C329.946 191.279 330.186 192.128 330.651 192.856C331.117 193.583 331.788 194.156 332.579 194.502C333.37 194.848 334.246 194.951 335.096 194.799C336.233 194.593 337.242 193.945 337.903 192.998C338.564 192.051 338.823 190.88 338.624 189.743V189.743Z" stroke="#373A3A" stroke-width="1.8414" stroke-linecap="round" stroke-linejoin="round"/>
</g>
<g clip-path="url(#clip2_582_16700)">
<path d="M816.774 818.526C819.522 816.959 822.419 817.567 825.156 818.39L825.454 818.478C828.651 819.383 831.628 820.405 834.007 818.192" stroke="#373A3A" stroke-width="2" stroke-linecap="round" stroke-linejoin="round"/>
<path d="M825.154 818.378C826.857 801.665 831.304 799.228 835.138 799.619C836.148 799.722 837.076 800.221 837.718 801.008C838.36 801.794 838.664 802.803 838.562 803.813C838.553 803.905 838.544 803.991 838.535 804.082C838.448 804.6 838.251 805.093 837.959 805.529" stroke="#373A3A" stroke-width="2" stroke-linecap="round" stroke-linejoin="round"/>
<path d="M825.462 818.359L825.45 818.468C823.757 835.089 819.292 837.53 815.469 837.141C814.46 837.036 813.534 836.536 812.894 835.75C812.253 834.964 811.95 833.956 812.051 832.947C812.061 832.855 812.07 832.764 812.079 832.672C812.165 832.163 812.354 831.678 812.636 831.246C812.636 831.246 812.636 831.246 812.636 831.246" stroke="#373A3A" stroke-width="2" stroke-linecap="round" stroke-linejoin="round"/>
<path d="M854.761 826.542L862.618 820.133" stroke="#373A3A" stroke-width="2" stroke-linecap="round" stroke-linejoin="round"/>
<path d="M861.891 827.269L855.488 819.406" stroke="#373A3A" stroke-width="2" stroke-linecap="round" stroke-linejoin="round"/>
<path d="M852.346 804.199C847.581 808.94 844.606 815.185 843.924 821.873C843.243 828.56 844.898 835.277 848.608 840.882" stroke="#373A3A" stroke-width="2" stroke-linecap="round" stroke-linejoin="round"/>
<path d="M868.773 805.871C872.484 811.476 874.139 818.193 873.458 824.88C872.776 831.567 869.8 837.812 865.036 842.554" stroke="#373A3A" stroke-width="2" stroke-linecap="round" stroke-linejoin="round"/>
</g>
</g>
<defs>
<clipPath id="clip0_582_16700">
<rect width="1227" height="955" fill="white"/>
</clipPath>
<clipPath id="clip1_582_16700">
<rect width="41.4408" height="31" fill="white" transform="translate(301 176.305) rotate(-10.1544)"/>
</clipPath>
<clipPath id="clip2_582_16700">
<rect width="61.41" height="40.796" fill="white" transform="translate(815.137 797) rotate(5.81792)"/>
</clipPath>
</defs>
</svg>
