<svg width="73" height="91" viewBox="0 0 73 91" fill="none" xmlns="http://www.w3.org/2000/svg">
<path d="M71.3243 7.75563V64.0645C71.3243 67.7983 68.2705 70.8202 64.5152 70.8202H33.9879C26.3896 77.7039 20.2305 83.1637 10.7751 89.9756C13.3028 82.6617 15.526 76.8588 17.0684 70.8202H7.80907C4.04861 70.8202 1 67.7983 1 64.0645V7.75563C1 4.02185 4.05377 1 7.80907 1H64.5152C68.2757 1 71.3243 4.02185 71.3243 7.75563ZM57.6185 17.3231V15.469C57.6185 13.953 56.3856 12.7289 54.8587 12.7289H17.4604C15.9387 12.7289 14.7058 13.953 14.7058 15.469V17.3231C14.7058 18.8392 15.9387 20.0633 17.4604 20.0633H54.8587C56.3856 20.0633 57.6185 18.8392 57.6185 17.3231ZM27.8288 46.5583L22.2319 38.3737L16.6299 46.5583H27.8236H27.8288ZM26.1884 34.604V26.7472H18.2754V34.604H26.1884ZM27.0086 56.1104C27.0086 53.488 24.8679 51.3625 22.2319 51.3625C19.596 51.3625 17.4501 53.488 17.4501 56.1104C17.4501 58.7328 19.5908 60.8532 22.2319 60.8532C24.873 60.8532 27.0086 58.7276 27.0086 56.1104Z" fill="white"/>
<path d="M57.6206 15.4696V17.3237C57.6206 18.8398 56.3878 20.0639 54.8609 20.0639H17.4626C15.9409 20.0639 14.708 18.8398 14.708 17.3237V15.4696C14.708 13.9536 15.9409 12.7295 17.4626 12.7295H54.8609C56.3878 12.7295 57.6206 13.9536 57.6206 15.4696V15.4696Z" fill="#373A3A"/>
<path d="M22.2387 38.3738L27.8304 46.5584H16.6367L22.2387 38.3738Z" fill="white"/>
<path d="M26.1942 26.7477H18.2812V34.6045H26.1942V26.7477Z" fill="white"/>
<path d="M22.2389 51.3629C24.8748 51.3629 27.0155 53.4885 27.0155 56.1108C27.0155 58.7332 24.8748 60.8536 22.2389 60.8536C19.6029 60.8536 17.457 58.728 17.457 56.1108C17.457 53.4936 19.5978 51.3629 22.2389 51.3629Z" fill="#373A3A"/>
<path d="M33.9879 70.8202H64.5152C68.2757 70.8202 71.3243 67.7983 71.3243 64.0645V7.75563C71.3243 4.02185 68.2705 1 64.5152 1H7.80907C4.05377 1 1 4.02185 1 7.75563V64.0645C1 67.7983 4.05377 70.8202 7.80907 70.8202H17.0684C15.5209 76.8587 13.3028 82.6668 10.7751 89.9756C20.2253 83.1637 26.3896 77.7038 33.9879 70.8202Z" stroke="#373A3A" stroke-width="1.54903" stroke-linecap="round" stroke-linejoin="round"/>
<path d="M54.8609 20.0639H17.4626C15.9409 20.0639 14.708 18.8398 14.708 17.3237V15.4696C14.708 13.9536 15.9409 12.7295 17.4626 12.7295H54.8609C56.3878 12.7295 57.6206 13.9536 57.6206 15.4696V17.3237C57.6206 18.8398 56.3878 20.0639 54.8609 20.0639Z" stroke="#373A3A" stroke-width="1.54903" stroke-linecap="round" stroke-linejoin="round"/>
<path d="M26.1942 26.7477H18.2812V34.6045H26.1942V26.7477Z" stroke="#373A3A" stroke-width="1.54903" stroke-linecap="round" stroke-linejoin="round"/>
<path d="M16.6367 46.5584L22.2387 38.3738L27.8304 46.5584H16.6367Z" stroke="#373A3A" stroke-width="1.54903" stroke-linecap="round" stroke-linejoin="round"/>
<path d="M27.0077 56.1108C27.0077 53.4885 24.867 51.3629 22.231 51.3629C19.5951 51.3629 17.4492 53.4885 17.4492 56.1108C17.4492 58.7332 19.5899 60.8536 22.231 60.8536C24.8721 60.8536 27.0077 58.728 27.0077 56.1108V56.1108Z" stroke="#373A3A" stroke-width="1.54903" stroke-linecap="round" stroke-linejoin="round"/>
</svg>
