<svg width="108" height="91" viewBox="0 0 108 91" fill="none" xmlns="http://www.w3.org/2000/svg">
<path d="M107.234 29.078V34.236L97.4777 24.48L70.6746 51.2831L58.1812 38.7897L37.6266 59.3443L29.3223 51.04V45.882L37.6266 54.1863L58.1812 33.6317L70.6746 46.1251L97.4777 19.322L107.234 29.078Z" fill="#373A3A"/>
<path d="M107.234 6.15799V29.0779L97.4777 19.3219L70.6746 46.125L58.1812 33.6316L37.6266 54.1862L29.3223 45.8818L58.1812 17.0303L70.6746 29.5237L89.177 11.0212L79.1521 1H107.234V6.15799Z" fill="#5863F8"/>
<path d="M93.7231 63.5038V69.0965C93.7222 70.6681 93.0971 72.175 91.9855 73.2859C90.8739 74.3968 89.3666 75.0208 87.795 75.0208H24.2486C23.5425 72.8284 22.2185 70.8864 20.4355 69.4281H87.795C89.3666 69.4281 90.8739 68.8041 91.9855 67.6931C93.0971 66.5822 93.7222 65.0753 93.7231 63.5038Z" fill="#373A3A"/>
<path d="M89.1753 11.0212L86.5926 13.6039L79.1504 6.15799V1L89.1753 11.0212Z" fill="#373A3A"/>
<path d="M37.6497 15.0002L40.6044 19.3624H34.6875L37.6497 15.0002Z" fill="white"/>
<path d="M29.9498 15.0002C30.387 15.0002 30.8144 15.1299 31.178 15.3728C31.5415 15.6157 31.8249 15.9609 31.9922 16.3649C32.1595 16.7688 32.2032 17.2133 32.1179 17.6421C32.0326 18.0709 31.8221 18.4648 31.5129 18.7739C31.2038 19.0831 30.8098 19.2936 30.381 19.3789C29.9522 19.4642 29.5077 19.4204 29.1038 19.2531C28.6998 19.0858 28.3547 18.8025 28.1118 18.4389C27.8689 18.0754 27.7393 17.648 27.7393 17.2108C27.7393 16.6245 27.9721 16.0623 28.3867 15.6477C28.8013 15.2331 29.3635 15.0002 29.9498 15.0002Z" fill="white"/>
<path d="M24.249 75.0209C24.9929 77.3464 25.0039 79.8443 24.2807 82.1762C23.5574 84.5082 22.1349 86.5614 20.2057 88.0578C18.2765 89.5542 15.9339 90.4214 13.4954 90.5419C11.0568 90.6624 8.64012 90.0304 6.57277 88.7315C4.50542 87.4326 2.88737 85.5296 1.93774 83.2803C0.988108 81.031 0.752681 78.5442 1.26367 76.1567C1.77466 73.7692 3.00722 71.5966 4.79431 69.933C6.58141 68.2695 8.83668 67.1955 11.2546 66.8565C11.8028 66.781 12.3555 66.7428 12.9089 66.7423C15.6534 66.738 18.3142 67.6874 20.4359 69.4282C22.2189 70.8864 23.5429 72.8284 24.249 75.0209ZM17.0059 78.6499C17.0063 78.225 16.9417 77.8026 16.8143 77.3973C16.502 76.411 15.8291 75.5789 14.93 75.0671C14.031 74.5554 12.9721 74.4016 11.9646 74.6367C10.9572 74.8717 10.0755 75.4782 9.49572 76.3349C8.91595 77.1917 8.68073 78.2357 8.83712 79.2583C8.99352 80.2809 9.52991 81.2068 10.3393 81.8511C11.1486 82.4954 12.1712 82.8107 13.2028 82.7338C14.2345 82.657 15.1992 82.1938 15.9042 81.4367C16.6092 80.6796 17.0027 79.6844 17.0059 78.6499Z" fill="white"/>
<path d="M24.2528 15.0002H19.8574V19.3956H24.2528V15.0002Z" fill="white"/>
<path d="M16.8152 77.3972C16.9426 77.8025 17.0073 78.2249 17.0068 78.6498C17.0027 79.6784 16.6109 80.6677 15.9094 81.42C15.2079 82.1724 14.2485 82.6325 13.2226 82.7084C12.1968 82.7844 11.1801 82.4706 10.3754 81.8298C9.5708 81.189 9.03744 80.2683 8.88193 79.2515C8.72641 78.2346 8.96026 77.1966 9.53657 76.3446C10.1129 75.4925 10.9893 74.8892 11.9909 74.6551C12.9925 74.421 14.0457 74.5733 14.9399 75.0816C15.8342 75.5899 16.5039 76.4168 16.8152 77.3972Z" fill="#4F9D69"/>
<path d="M12.9099 90.5613C16.0313 90.5064 19.0062 89.2279 21.1942 87.0011C23.3821 84.7743 24.608 81.7773 24.608 78.6555C24.608 75.5337 23.3821 72.5368 21.1942 70.31C19.0062 68.0832 16.0313 66.8047 12.9099 66.7498C12.3565 66.7484 11.8036 66.7866 11.2556 66.864C8.27383 67.2867 5.56299 68.8236 3.66901 71.165C1.77503 73.5065 0.838741 76.4786 1.04846 79.4829C1.25818 82.4872 2.59837 85.3004 4.7993 87.356C7.00023 89.4116 9.89834 90.5569 12.9099 90.5613Z" stroke="#373A3A" stroke-width="0.784593" stroke-linecap="round" stroke-linejoin="round"/>
<path d="M12.9096 82.7466C13.9961 82.7466 15.0381 82.315 15.8064 81.5466C16.5748 80.7783 17.0065 79.7363 17.0065 78.6497C17.007 78.2248 16.9424 77.8024 16.8149 77.397C16.5844 76.6759 16.1585 76.0327 15.5848 75.5387C15.0111 75.0447 14.3119 74.7192 13.5646 74.5981C12.8172 74.4771 12.051 74.5654 11.3508 74.8531C10.6505 75.1408 10.0435 75.6167 9.59715 76.2282C9.15076 76.8397 8.88246 77.5628 8.82179 78.3174C8.76112 79.072 8.91039 79.8287 9.25336 80.5037C9.59633 81.1786 10.1195 81.7454 10.7649 82.1413C11.4102 82.5372 12.1525 82.7467 12.9096 82.7466Z" stroke="#373A3A" stroke-width="0.784593" stroke-linecap="round" stroke-linejoin="round"/>
<path d="M11.2539 66.8566V14.2009C11.2539 13.4226 11.4073 12.6519 11.7053 11.9329C12.0032 11.2139 12.4399 10.5607 12.9904 10.0105C13.541 9.46033 14.1945 9.02402 14.9137 8.72651C15.6329 8.429 16.4037 8.27613 17.182 8.27661H81.2699" stroke="#373A3A" stroke-width="0.784593" stroke-linecap="round" stroke-linejoin="round"/>
<path d="M24.2471 75.0208H87.7935C89.365 75.0208 90.8724 74.3967 91.984 73.2858C93.0956 72.1749 93.7206 70.668 93.7216 69.0964V28.2341" stroke="#373A3A" stroke-width="0.784593" stroke-linecap="round" stroke-linejoin="round"/>
<path d="M20.4355 69.4281H87.795C89.3666 69.4281 90.8739 68.8041 91.9855 67.6931C93.0971 66.5822 93.7222 65.0753 93.7231 63.5038" stroke="#373A3A" stroke-width="0.784593" stroke-linecap="round" stroke-linejoin="round"/>
<path d="M79.1504 1V6.15799L86.5926 13.6039" stroke="#373A3A" stroke-width="0.784593" stroke-linecap="round" stroke-linejoin="round"/>
<path d="M29.3223 45.8822V51.0402L37.6266 59.3445L58.1812 38.79L70.6746 51.2833L97.4777 24.4802L107.234 34.2362V29.0782" stroke="#373A3A" stroke-width="0.784593" stroke-linecap="round" stroke-linejoin="round"/>
<path d="M29.3223 45.8818L37.6266 54.1862L58.1812 33.6316L70.6746 46.125L97.4777 19.3219L107.234 29.0779V1H79.1521L89.177 11.0212L70.6746 29.5237L58.1812 17.0303L29.3223 45.8818Z" stroke="#373A3A" stroke-width="0.784593" stroke-linecap="round" stroke-linejoin="round"/>
<path d="M24.2528 15.0002H19.8574V19.3956H24.2528V15.0002Z" stroke="#373A3A" stroke-width="0.784593" stroke-linecap="round" stroke-linejoin="round"/>
<path d="M34.6875 19.3624L37.6497 15.0002L40.6044 19.3624H34.6875Z" stroke="#373A3A" stroke-width="0.784593" stroke-linecap="round" stroke-linejoin="round"/>
<path d="M32.1408 17.1998C32.1408 16.7618 32.0107 16.3336 31.767 15.9697C31.5232 15.6058 31.177 15.3225 30.772 15.1557C30.3669 14.989 29.9215 14.9463 29.4922 15.0331C29.0629 15.1199 28.669 15.3323 28.3606 15.6433C28.0522 15.9543 27.8432 16.3499 27.7599 16.7799C27.6767 17.2099 27.7233 17.6549 27.8934 18.0585C28.0636 18.4621 28.3496 18.8061 28.7156 19.0468C29.0815 19.2874 29.5108 19.414 29.9487 19.4103C30.5318 19.4055 31.0894 19.1704 31.5 18.7564C31.9106 18.3423 32.1408 17.7829 32.1408 17.1998Z" stroke="#373A3A" stroke-width="0.784593" stroke-linecap="round" stroke-linejoin="round"/>
</svg>
