<svg width="32" height="32" viewBox="0 0 32 32" fill="none" xmlns="http://www.w3.org/2000/svg">
<path d="M30.2722 11.4166C30.7401 12.8749 31 14.3853 31 15.9999C31 24.281 24.2935 30.9997 16.0272 30.9997C7.76094 30.9997 1.05432 24.281 1.05432 15.9999C1.05432 8.39578 6.66917 2.14585 13.9476 1.15627C14.6235 1.05211 15.2994 1 16.0272 1C19.6144 1 22.9417 2.24999 25.4892 4.38538C27.6727 6.20828 29.3364 8.65617 30.2722 11.4166ZM21.1221 15.9999C21.1221 15.427 21.0181 14.9061 20.8621 14.4374C20.1863 12.3541 18.2627 10.8437 15.9232 10.8437C15.6632 10.8437 15.4553 10.8437 15.1954 10.8957C12.6999 11.2603 10.7763 13.3957 10.7763 15.9999C10.7763 18.8644 13.0638 21.1561 15.9232 21.1561C18.8346 21.1561 21.1221 18.8644 21.1221 15.9999Z" fill="white"/>
<path d="M20.9068 14.4374C21.0628 14.9582 21.1668 15.479 21.1668 15.9998C21.1668 18.8644 18.8793 21.156 16.0199 21.156C13.1605 21.156 10.8729 18.8644 10.8729 15.9998C10.8729 13.3957 12.7965 11.2082 15.292 10.8957C15.5 10.8436 15.7599 10.8436 16.0199 10.8436C18.2554 10.8436 20.231 12.354 20.9068 14.4374Z" fill="#5863F8"/>
<path d="M15.9729 30.9997C24.2391 30.9997 30.9457 24.281 30.9457 15.9999C30.9457 14.3853 30.6857 12.8749 30.2178 11.4166C29.334 8.60409 27.6184 6.20828 25.4349 4.38538C22.8354 2.24999 19.5601 1 15.9729 1C15.245 1 14.5692 1.05211 13.8933 1.15627C6.61484 2.14585 1 8.44787 1 15.9999C1 24.281 7.70662 30.9997 15.9729 30.9997Z" stroke="#373A3A" stroke-width="1.07142" stroke-linecap="round" stroke-linejoin="round"/>
<path d="M15.9798 21.156C18.8392 21.156 21.1267 18.8644 21.1267 15.9998C21.1267 15.4269 21.0227 14.9061 20.8667 14.4374C20.1909 12.354 18.2673 10.8436 15.9278 10.8436C15.6678 10.8436 15.4599 10.8436 15.2 10.8957C12.7045 11.2603 10.7809 13.3957 10.7809 15.9998C10.8329 18.8644 13.1204 21.156 15.9798 21.156Z" stroke="#373A3A" stroke-width="1.07142" stroke-linecap="round" stroke-linejoin="round"/>
</svg>
