<svg width="37" height="30" viewBox="0 0 37 30" fill="none" xmlns="http://www.w3.org/2000/svg">
<g clip-path="url(#clip0_804_4932)">
<path d="M34.6598 7.12843C35.9077 9.70879 35.7913 12.3478 34.3852 13.0308L7.00919 26.1403C8.40294 25.462 8.54339 22.8195 7.27197 20.2367C6.00055 17.6539 3.87948 16.103 2.48696 16.7696L29.8627 3.66605C31.2552 2.99941 33.4007 4.54098 34.6598 7.12843Z" fill="white"/>
<path d="M7.2722 20.2358C8.52664 22.8109 8.40378 25.4551 7.00942 26.1394C5.61506 26.8236 3.46541 25.2638 2.21869 22.6717C0.971962 20.0796 1.08758 17.4464 2.4872 16.7687C3.88681 16.0909 6.02548 17.6437 7.2722 20.2358Z" fill="#373A3A"/>
<path d="M7.01037 26.1351C8.40411 25.4567 8.54519 22.8084 7.27315 20.2315C6.00111 17.6545 3.88653 16.0984 2.48814 16.7644C1.08976 17.4304 0.95531 20.0735 2.21963 22.6674C3.48396 25.2614 5.61137 26.807 7.01037 26.1351Z" stroke="#373A3A" stroke-width="1.1702" stroke-linecap="round" stroke-linejoin="round"/>
<path d="M7.00985 26.1342L34.3859 13.0247C35.7914 12.3476 35.9195 9.70975 34.6604 7.12229C33.4014 4.53484 31.2559 2.99327 29.864 3.65403L2.48824 16.7576" stroke="#373A3A" stroke-width="1.1702" stroke-linecap="round" stroke-linejoin="round"/>
</g>
<defs>
<clipPath id="clip0_804_4932">
<rect width="34.3137" height="26.3797" fill="white" transform="translate(2.74957) rotate(5.98283)"/>
</clipPath>
</defs>
</svg>
