<svg width="37" height="33" viewBox="0 0 37 33" fill="none" xmlns="http://www.w3.org/2000/svg">
<path d="M1.01124 15.5527L0.999847 15.57L1.02832 15.5758L1.01124 15.5527Z" fill="white"/>
<path d="M8.42118 1L1.01015 15.5537L1.0269 15.5759L19.6187 17.4167L26.5048 2.31244L8.42118 1Z" fill="white"/>
<path d="M1.02838 15.5764L10.785 29.5517L29.6449 31.7484L19.6202 17.4171L1.02838 15.5764Z" fill="#373A3A"/>
<path d="M26.5058 2.3125L19.6198 17.4168L29.6445 31.748L36 16.1099L26.5058 2.3125Z" fill="#4F9D69"/>
<path d="M1.00006 15.5704L8.42226 1L26.5058 2.31244L19.6198 17.4167L29.6445 31.7479L36 16.1098L26.5058 2.31244" stroke="#373A3A" stroke-width="1.54036" stroke-linecap="round" stroke-linejoin="round"/>
<path d="M29.6449 31.747L10.785 29.5503L1.01163 15.5527" stroke="#373A3A" stroke-width="1.54036" stroke-linecap="round" stroke-linejoin="round"/>
<path d="M19.6219 17.4183L1.03015 15.5776L1.00222 15.572" stroke="#373A3A" stroke-width="1.54036" stroke-linecap="round" stroke-linejoin="round"/>
</svg>
