<svg width="376" height="403" viewBox="0 0 376 403" fill="none" xmlns="http://www.w3.org/2000/svg">
<g clip-path="url(#clip0_1529_10736)">
<path d="M79.4181 39.3964C81.9062 39.3964 83.9231 37.3817 83.9231 34.8964C83.9231 32.4112 81.9062 30.3965 79.4181 30.3965C76.9301 30.3965 74.9131 32.4112 74.9131 34.8964C74.9131 37.3817 76.9301 39.3964 79.4181 39.3964Z" stroke="#373A3A" stroke-width="0.999242" stroke-linecap="round" stroke-linejoin="round"/>
<path d="M303.93 124.559L306.17 117.131" stroke="#373A3A" stroke-width="0.999242" stroke-linecap="round" stroke-linejoin="round"/>
<path d="M310.523 43.5049C308.032 47.0572 303.153 53.0245 302.499 54.1434" stroke="#373A3A" stroke-width="0.999242" stroke-linecap="round" stroke-linejoin="round"/>
<path d="M338.886 160.858C341.8 159.813 345.521 159.158 348.612 158.333" stroke="#373A3A" stroke-width="0.999242" stroke-linecap="round" stroke-linejoin="round"/>
<path d="M368.534 218.497C370.554 222.172 372.727 225.553 375.28 228.885" stroke="#373A3A" stroke-width="0.999242" stroke-linecap="round" stroke-linejoin="round"/>
<path d="M363.615 312.536C365.262 310.873 367.178 309.424 368.775 307.724C369.467 306.985 370.11 306.129 370.936 305.523" stroke="#373A3A" stroke-width="0.999242" stroke-linecap="round" stroke-linejoin="round"/>
<path d="M21.251 158.566C22.0039 159.245 30.8119 165.31 31.6383 165.867" stroke="#373A3A" stroke-width="0.999242" stroke-linecap="round" stroke-linejoin="round"/>
<path d="M42.6621 66.4026C43.6659 63.4679 44.3086 60.313 45.6063 57.4883" stroke="#373A3A" stroke-width="0.999242" stroke-linecap="round" stroke-linejoin="round"/>
<path d="M77.7393 237.634C79.4531 239.841 81.369 241.675 83.3583 243.632" stroke="#373A3A" stroke-width="0.999242" stroke-linecap="round" stroke-linejoin="round"/>
<path d="M28.5728 287.09C31.9087 285.647 35.2201 283.997 38.4581 282.346" stroke="#373A3A" stroke-width="0.999242" stroke-linecap="round" stroke-linejoin="round"/>
<path d="M269.232 39.4951V106.713C269.232 111.171 265.609 114.778 261.153 114.778H224.929C215.913 122.995 208.604 129.513 197.384 137.644C200.384 128.914 203.022 121.986 204.852 114.778H193.865C189.403 114.778 185.785 111.171 185.785 106.713V39.4951C185.785 35.038 189.409 31.4307 193.865 31.4307H261.153C265.615 31.4307 269.232 35.038 269.232 39.4951ZM252.969 50.9162V48.7029C252.969 46.8932 251.506 45.4319 249.694 45.4319H205.317C203.511 45.4319 202.049 46.8932 202.049 48.7029V50.9162C202.049 52.726 203.511 54.1873 205.317 54.1873H249.694C251.506 54.1873 252.969 52.726 252.969 50.9162ZM217.62 85.8154L210.979 76.0451L204.332 85.8154H217.614H217.62ZM215.674 71.5451V62.1661H206.284V71.5451H215.674ZM216.647 97.2182C216.647 94.0878 214.107 91.5504 210.979 91.5504C207.851 91.5504 205.305 94.0878 205.305 97.2182C205.305 100.349 207.845 102.88 210.979 102.88C214.113 102.88 216.647 100.342 216.647 97.2182Z" fill="white"/>
<path d="M252.97 48.7027V50.916C252.97 52.7257 251.507 54.187 249.695 54.187H205.318C203.512 54.187 202.049 52.7257 202.049 50.916V48.7027C202.049 46.8929 203.512 45.4316 205.318 45.4316H249.695C251.507 45.4316 252.97 46.8929 252.97 48.7027Z" fill="#373A3A"/>
<path d="M210.985 76.0518L217.62 85.8221H204.337L210.985 76.0518Z" fill="white"/>
<path d="M215.681 62.166H206.291V71.545H215.681V62.166Z" fill="white"/>
<path d="M210.985 91.5498C214.112 91.5498 216.653 94.0872 216.653 97.2176C216.653 100.348 214.112 102.879 210.985 102.879C207.857 102.879 205.311 100.342 205.311 97.2176C205.311 94.0933 207.851 91.5498 210.985 91.5498Z" fill="#373A3A"/>
<path d="M224.929 114.778H261.153C265.615 114.778 269.232 111.171 269.232 106.713V39.4951C269.232 35.038 265.609 31.4307 261.153 31.4307H193.865C189.403 31.4307 185.785 35.038 185.785 39.4951V106.713C185.785 111.171 189.409 114.778 193.865 114.778H204.852C203.016 121.986 200.384 128.92 197.384 137.644C208.598 129.513 215.913 122.995 224.929 114.778Z" stroke="#373A3A" stroke-width="0.999242" stroke-linecap="round" stroke-linejoin="round"/>
<path d="M249.695 54.187H205.318C203.512 54.187 202.049 52.7257 202.049 50.916V48.7027C202.049 46.8929 203.512 45.4316 205.318 45.4316H249.695C251.507 45.4316 252.97 46.8929 252.97 48.7027V50.916C252.97 52.7257 251.507 54.187 249.695 54.187Z" stroke="#373A3A" stroke-width="0.999242" stroke-linecap="round" stroke-linejoin="round"/>
<path d="M215.681 62.166H206.291V71.545H215.681V62.166Z" stroke="#373A3A" stroke-width="0.999242" stroke-linecap="round" stroke-linejoin="round"/>
<path d="M204.337 85.8221L210.985 76.0518L217.62 85.8221H204.337Z" stroke="#373A3A" stroke-width="0.999242" stroke-linecap="round" stroke-linejoin="round"/>
<path d="M216.653 97.2176C216.653 94.0872 214.112 91.5498 210.985 91.5498C207.857 91.5498 205.311 94.0872 205.311 97.2176C205.311 100.348 207.851 102.879 210.985 102.879C214.119 102.879 216.653 100.342 216.653 97.2176Z" stroke="#373A3A" stroke-width="0.999242" stroke-linecap="round" stroke-linejoin="round"/>
<path d="M285.059 81.2607L285.072 81.286H285.04L285.059 81.2607Z" fill="white"/>
<path d="M276.941 65.2598L285.057 81.2603L285.039 81.2848L264.662 83.3085L257.115 66.7027L276.941 65.2598Z" fill="white"/>
<path d="M285.04 81.2852L274.347 96.6498L253.676 99.0649L264.663 83.3089L285.04 81.2852Z" fill="#373A3A"/>
<path d="M257.117 66.7031L264.664 83.309L253.677 99.065L246.711 81.8722L257.117 66.7031Z" fill="#4F9D69"/>
<path d="M285.071 81.2848L276.942 65.2598L257.117 66.7027L264.664 83.3085L253.677 99.0645L246.711 81.8717L257.117 66.7027" stroke="#373A3A" stroke-width="0.999242" stroke-linecap="round" stroke-linejoin="round"/>
<path d="M253.676 99.064L274.347 96.6489L285.058 81.2598" stroke="#373A3A" stroke-width="0.999242" stroke-linecap="round" stroke-linejoin="round"/>
<path d="M264.665 83.3089L285.042 81.2852H285.072" stroke="#373A3A" stroke-width="0.999242" stroke-linecap="round" stroke-linejoin="round"/>
<path d="M195.61 45.6276C195.61 57.3972 190.774 68.0296 182.97 75.66C177.969 81.077 174.37 87.8147 172.766 95.2862H134.271C132.662 87.8086 129.069 81.077 124.062 75.66C116.264 68.0296 111.422 57.3911 111.422 45.6276C111.422 22.4063 130.268 3.58105 153.516 3.58105C176.763 3.58105 195.604 22.4063 195.604 45.6276H195.61ZM144.873 38.8104C144.793 36.0957 145.161 33.3199 146.018 30.6175C143.294 29.3764 140.717 28.3309 138.446 27.5483C137.154 30.0245 136.481 32.6596 136.255 35.4232C139.15 36.4565 142.07 37.5998 144.879 38.8104H144.873ZM131.272 33.7479C132.245 27.426 134.712 20.9756 141.984 16.1394C132.349 18.64 125.114 23.3846 121.595 31.1556C124.472 31.7609 127.795 32.6535 131.278 33.7479H131.272Z" fill="#373A3A"/>
<path d="M171.293 95.292C173.441 95.292 175.186 97.0284 175.186 99.1744C175.186 100.251 174.751 101.223 174.047 101.92C173.343 102.623 172.37 103.057 171.293 103.057H135.742C133.594 103.057 131.855 101.32 131.855 99.1744C131.855 98.0984 132.29 97.1323 132.994 96.4292C133.698 95.7261 134.671 95.292 135.742 95.292H171.293Z" fill="white"/>
<path d="M171.293 103.058C173.441 103.058 175.186 104.8 175.186 106.946C175.186 108.016 174.751 108.994 174.047 109.691C173.343 110.395 172.37 110.829 171.293 110.829H135.742C133.594 110.829 131.855 109.092 131.855 106.946C131.855 105.876 132.29 104.898 132.994 104.195C133.698 103.492 134.671 103.058 135.742 103.058H171.293Z" fill="white"/>
<path d="M168.488 110.828C170.636 110.828 172.38 112.571 172.38 114.711C172.38 115.781 171.946 116.759 171.242 117.462C170.538 118.165 169.565 118.599 168.488 118.599H138.55C136.401 118.599 134.663 116.857 134.663 114.711C134.663 113.641 135.098 112.668 135.802 111.965C136.505 111.262 137.479 110.828 138.55 110.828H168.488Z" fill="white"/>
<path d="M140.104 118.6H166.938C165.567 124.738 160.082 129.336 153.521 129.336C146.959 129.336 141.468 124.744 140.104 118.6Z" fill="#373A3A"/>
<path d="M146.018 30.6181C145.161 33.3205 144.793 36.0902 144.873 38.811C142.07 37.5943 139.144 36.4509 136.249 35.4238C136.481 32.6602 137.154 30.025 138.44 27.5488C140.711 28.3314 143.288 29.3831 146.011 30.6181H146.018Z" fill="white"/>
<path d="M141.977 16.1338C134.705 20.9761 132.238 27.4265 131.265 33.7423C127.782 32.6418 124.458 31.7553 121.582 31.15C125.107 23.379 132.336 18.6344 141.97 16.1338H141.977Z" fill="white"/>
<path d="M171.292 95.292H172.767C174.371 87.8145 177.97 81.0829 182.971 75.6658C190.775 68.0354 195.61 57.3969 195.61 45.6334C195.61 22.4122 176.77 3.58691 153.523 3.58691C130.275 3.58691 111.429 22.4122 111.429 45.6334C111.429 57.403 116.27 68.0354 124.069 75.6658C129.069 81.0829 132.668 87.8206 134.278 95.292H171.298H171.292Z" stroke="#373A3A" stroke-width="0.999242" stroke-linecap="round" stroke-linejoin="round"/>
<path d="M171.29 95.292C173.439 95.292 175.183 97.0284 175.183 99.1744C175.183 100.251 174.749 101.223 174.045 101.92C173.341 102.623 172.368 103.057 171.29 103.057H135.74C133.591 103.057 131.853 101.32 131.853 99.1744C131.853 98.0984 132.288 97.1323 132.992 96.4292C133.695 95.7261 134.669 95.292 135.74 95.292" stroke="#373A3A" stroke-width="0.999242" stroke-linecap="round" stroke-linejoin="round"/>
<path d="M171.29 103.058C173.439 103.058 175.183 104.8 175.183 106.946C175.183 108.016 174.749 108.994 174.045 109.691C173.341 110.395 172.368 110.829 171.29 110.829H135.74C133.591 110.829 131.853 109.092 131.853 106.946C131.853 105.876 132.288 104.898 132.992 104.195C133.695 103.492 134.669 103.058 135.74 103.058" stroke="#373A3A" stroke-width="0.999242" stroke-linecap="round" stroke-linejoin="round"/>
<path d="M168.49 110.828C170.638 110.828 172.383 112.571 172.383 114.711C172.383 115.781 171.948 116.759 171.244 117.462C170.541 118.165 169.567 118.599 168.49 118.599H138.552C136.404 118.599 134.666 116.857 134.666 114.711C134.666 113.641 135.1 112.668 135.804 111.965C136.508 111.262 137.481 110.828 138.552 110.828" stroke="#373A3A" stroke-width="0.999242" stroke-linecap="round" stroke-linejoin="round"/>
<path d="M140.106 118.6C141.471 124.738 146.961 129.336 153.523 129.336C160.085 129.336 165.575 124.744 166.94 118.6" stroke="#373A3A" stroke-width="0.999242" stroke-linecap="round" stroke-linejoin="round"/>
<path d="M141.977 16.1328C132.343 18.6335 125.108 23.378 121.588 31.149C124.465 31.7543 127.789 32.6469 131.272 33.7414C132.245 27.4194 134.712 20.9691 141.983 16.1328H141.977Z" stroke="#373A3A" stroke-width="0.999242" stroke-linecap="round" stroke-linejoin="round"/>
<path d="M136.251 35.4238C139.146 36.457 142.066 37.6004 144.875 38.811C144.796 36.0963 145.163 33.3205 146.02 30.6181C143.296 29.3769 140.719 28.3314 138.448 27.5488C137.157 30.025 136.484 32.6602 136.257 35.4238H136.251Z" stroke="#373A3A" stroke-width="0.999242" stroke-linecap="round" stroke-linejoin="round"/>
<path d="M344.791 271.421C344.791 271.99 344.779 272.558 344.749 273.108C344.773 272.057 344.791 271.421 344.791 271.421Z" fill="white"/>
<path d="M315.421 243.376C313.407 242.85 311.32 242.361 309.147 241.908C309.367 243.516 309.484 245.198 309.484 246.94C309.484 251.293 308.768 255.212 307.329 258.71C309.508 259.125 311.608 259.572 313.634 260.061C315.292 254.766 315.568 249.074 315.421 243.369V243.376Z" fill="#373A3A"/>
<path d="M315.421 243.376C315.568 249.08 315.299 254.773 313.634 260.067C329.297 263.834 340.235 269.923 343.62 280.391C344.232 278.165 344.612 275.811 344.741 273.329C344.741 273.262 344.741 273.182 344.741 273.115C344.765 272.063 344.783 271.427 344.783 271.427C344.783 256.277 333.447 248.121 315.415 243.382L315.421 243.376Z" fill="white"/>
<path d="M343.628 280.39C344.24 278.164 344.62 275.81 344.748 273.328C344.675 276.868 344.51 284.45 344.51 288.577C344.51 304.155 343.947 317.796 322.37 326.606C311.144 331.186 294.214 334.457 268.714 336.01L260.444 316.114C285.706 314.568 307.337 310.752 322.37 303.293C333.412 297.815 340.892 290.362 343.634 280.396L343.628 280.39Z" fill="white"/>
<path d="M322.363 326.607C311.137 331.186 294.213 334.457 268.707 336.01L273.646 347.884C290.375 346.575 306.901 342.467 322.363 336.053V326.601V326.607Z" fill="#373A3A"/>
<path d="M273.647 347.883L292.322 392.804H322.364V336.053C306.902 342.466 290.376 346.575 273.647 347.883Z" fill="white"/>
<path d="M322.364 278.873V303.287C307.331 310.746 285.699 314.561 260.438 316.108L244.958 278.867H322.364V278.873Z" fill="white"/>
<path d="M309.153 241.913C309.374 243.521 309.49 245.203 309.49 246.945C309.49 251.298 308.774 255.217 307.335 258.715C305.389 263.465 302.114 267.421 297.523 270.594C289.542 276.115 277.912 278.867 262.628 278.867H244.963L211.916 199.371V161.855H259.286C273.566 161.855 284.522 164.588 292.167 170.048C299.806 175.508 303.632 182.918 303.632 192.279C303.632 197.959 302.261 203.034 299.531 207.491C296.795 211.948 292.975 215.458 288.06 218.019C294.757 220.141 299.996 223.687 303.791 228.64C306.674 232.406 308.462 236.826 309.153 241.907V241.913ZM276.767 254.973C280.391 252.631 282.209 249.012 282.209 244.108C282.209 234.411 275.017 229.563 260.62 229.563H238.86V258.488H260.62C267.757 258.488 273.15 257.315 276.773 254.973H276.767ZM276.345 195.966C276.345 191.399 274.613 187.981 271.166 185.694C267.702 183.408 262.628 182.264 255.931 182.264H238.854V209.845H255.931C262.622 209.845 267.696 208.677 271.166 206.335C274.613 203.994 276.345 200.539 276.345 195.966Z" fill="white"/>
<path d="M244.958 278.873L293.846 396.471H257.163L175.148 199.2H211.838L244.958 278.873Z" fill="#373A3A"/>
<path d="M256.484 253.783C259.067 251.478 260.358 248.249 260.358 244.104C260.358 241.126 259.679 238.614 258.32 236.547C255.278 231.9 248.783 229.571 238.855 229.559H260.615C275.012 229.559 282.204 234.407 282.204 244.104C282.204 249.007 280.392 252.627 276.762 254.969C273.133 257.31 267.746 258.484 260.609 258.484H238.849C245.943 258.472 251.299 257.304 254.917 254.969C255.48 254.608 256 254.217 256.477 253.783H256.484Z" fill="#373A3A"/>
<path d="M271.162 185.689C274.608 187.975 276.34 191.393 276.34 195.96C276.34 200.528 274.608 203.988 271.162 206.33C267.697 208.672 262.623 209.839 255.927 209.839H238.849V209.619C243.238 209.173 246.721 208.079 249.31 206.33C252.768 203.988 254.494 200.534 254.494 195.96C254.494 191.387 252.768 187.975 249.31 185.689C246.721 183.983 243.238 182.907 238.849 182.479V182.259H255.927C262.617 182.259 267.691 183.402 271.162 185.689Z" fill="#373A3A"/>
<path d="M260.356 244.104C260.356 248.249 259.065 251.478 256.482 253.783C250.716 253.483 244.828 253.202 238.854 252.908V235.465C245.464 235.832 251.977 236.18 258.318 236.547C259.677 238.614 260.356 241.126 260.356 244.104Z" fill="white"/>
<path d="M175.147 199.2L257.168 396.471H212.712L192.2 347.124H109.145L88.6213 396.471H44.1709L126.192 199.2H175.16H175.147ZM178.618 314.463L153.467 253.982L150.663 253.933L147.86 253.982L122.715 314.463H178.618Z" fill="white"/>
<path d="M192.193 347.126L211.18 392.81H169.007V347.126H192.193Z" fill="white"/>
<path d="M169.007 291.353L178.617 314.464H169.007V291.353Z" fill="white"/>
<path d="M192.193 347.126L211.18 392.81H169.007V347.126H192.193Z" fill="#4F9D69"/>
<path d="M169.007 291.353L178.617 314.464H169.007V291.353Z" fill="#4F9D69"/>
<path d="M153.467 253.982L169.008 291.352L159.398 314.463H122.715L147.86 253.982L150.664 253.934L153.467 253.982Z" fill="#373A3A"/>
<path d="M156.019 51.8397L146.379 91.1104L136.94 77.5616C101.151 100.398 81.1048 144.835 86.7728 182.858C89.4721 200.968 98.0109 217.623 113.454 229.79L113.264 230.255C27.8646 187.585 65.8391 104.604 126.639 62.79L118.277 50.7881L156.013 51.8336L156.019 51.8397Z" fill="white"/>
<path d="M145.82 347.126L125.303 396.473H88.6138L109.137 347.126H145.82Z" fill="#373A3A"/>
<path d="M120.463 212.958L113.461 229.803C98.0174 217.636 89.4725 200.981 86.7793 182.871C94.8896 196.035 106.538 205.744 120.463 212.965V212.958Z" fill="#373A3A"/>
<path d="M80.5721 308.9L72.272 328.862C68.1649 328.526 63.9904 328.178 59.7486 327.817L59.1426 307.622C66.0593 307.983 73.2208 308.417 80.566 308.9H80.5721Z" fill="white"/>
<path d="M211.911 199.384V161.862" stroke="#373A3A" stroke-width="0.999242" stroke-linecap="round" stroke-linejoin="round"/>
<path d="M238.854 209.613V209.834H255.931C262.621 209.834 267.695 208.666 271.166 206.324C274.612 203.982 276.344 200.528 276.344 195.955C276.344 191.381 274.612 187.97 271.166 185.683C267.702 183.396 262.627 182.253 255.931 182.253H238.854V209.613V209.613Z" stroke="#373A3A" stroke-width="0.999242" stroke-linecap="round" stroke-linejoin="round"/>
<path d="M238.854 258.483H260.614C267.751 258.483 273.143 257.309 276.767 254.968C280.39 252.626 282.208 249.006 282.208 244.103C282.208 234.406 275.016 229.558 260.62 229.558H238.86V258.483H238.854Z" stroke="#373A3A" stroke-width="0.999242" stroke-linecap="round" stroke-linejoin="round"/>
<path d="M238.854 209.613C243.242 209.167 246.725 208.072 249.314 206.324C252.773 203.982 254.499 200.528 254.499 195.954C254.499 191.381 252.773 187.969 249.314 185.683C246.725 183.977 243.242 182.901 238.854 182.473" stroke="#373A3A" stroke-width="0.999242" stroke-linecap="round" stroke-linejoin="round"/>
<path d="M238.854 258.483C245.948 258.471 251.304 257.303 254.921 254.968C255.484 254.607 256.004 254.21 256.482 253.782C259.053 251.464 260.356 248.248 260.356 244.103C260.356 241.125 259.677 238.613 258.318 236.546C255.27 231.899 248.782 229.57 238.854 229.558" stroke="#373A3A" stroke-width="0.999242" stroke-linecap="round" stroke-linejoin="round"/>
<path d="M113.271 230.261L126.18 199.201H175.147L257.162 396.472" stroke="#373A3A" stroke-width="0.999242" stroke-linecap="round" stroke-linejoin="round"/>
<path d="M80.5728 308.9L113.271 230.261" stroke="#373A3A" stroke-width="0.999242" stroke-linecap="round" stroke-linejoin="round"/>
<path d="M249.387 396.471H212.704L192.193 347.125H109.138L88.614 396.471H44.1636L80.5711 308.899" stroke="#373A3A" stroke-width="0.999242" stroke-linecap="round" stroke-linejoin="round"/>
<path d="M211.911 199.384L293.846 396.471H249.389" stroke="#373A3A" stroke-width="0.999242" stroke-linecap="round" stroke-linejoin="round"/>
<path d="M175.146 199.201H189.604" stroke="#373A3A" stroke-width="0.999242" stroke-linecap="round" stroke-linejoin="round"/>
<path d="M262.621 278.873H322.362V303.287" stroke="#373A3A" stroke-width="0.999242" stroke-linecap="round" stroke-linejoin="round"/>
<path d="M244.958 278.873H262.623" stroke="#373A3A" stroke-width="0.999242" stroke-linecap="round" stroke-linejoin="round"/>
<path d="M190.069 199.201V161.862H259.279C273.559 161.862 284.515 164.595 292.16 170.055C299.799 175.515 303.625 182.925 303.625 192.286C303.625 197.966 302.254 203.041 299.524 207.498C296.788 211.955 292.968 215.464 288.053 218.026C294.75 220.148 299.989 223.694 303.784 228.646C306.667 232.413 308.448 236.833 309.146 241.914C309.366 243.522 309.483 245.203 309.483 246.946C309.483 251.299 308.767 255.218 307.328 258.715C305.376 263.46 302.107 267.422 297.516 270.595C289.535 276.116 277.905 278.867 262.621 278.867" stroke="#373A3A" stroke-width="0.999242" stroke-linecap="round" stroke-linejoin="round"/>
<path d="M322.362 326.606V392.81H292.32" stroke="#373A3A" stroke-width="0.999242" stroke-linecap="round" stroke-linejoin="round"/>
<path d="M211.18 392.81H169.007V347.126" stroke="#373A3A" stroke-width="0.999242" stroke-linecap="round" stroke-linejoin="round"/>
<path d="M169.009 314.463V291.352L159.399 314.463" stroke="#373A3A" stroke-width="0.999242" stroke-linecap="round" stroke-linejoin="round"/>
<path d="M145.82 347.126L125.303 396.473H88.6138" stroke="#373A3A" stroke-width="0.999242" stroke-linecap="round" stroke-linejoin="round"/>
<path d="M169.008 314.463H178.618L153.467 253.982L150.664 253.934L147.86 253.982L122.715 314.463H169.008Z" stroke="#373A3A" stroke-width="0.999242" stroke-linecap="round" stroke-linejoin="round"/>
<path d="M343.639 280.427C343.639 280.427 343.639 280.402 343.626 280.39C339.801 268.572 326.353 262.329 307.329 258.716" stroke="#373A3A" stroke-width="0.999242" stroke-linecap="round" stroke-linejoin="round"/>
<path d="M256.482 253.781L238.854 252.913" stroke="#373A3A" stroke-width="0.999242" stroke-linecap="round" stroke-linejoin="round"/>
<path d="M113.271 230.262C27.8714 187.591 65.8459 104.611 126.645 62.7969L118.284 50.7949L156.02 51.8404L146.379 91.1112L136.941 77.5624C101.152 100.398 81.1055 144.836 86.7735 182.859C89.4729 200.969 98.0116 217.624 113.455 229.791" stroke="#373A3A" stroke-width="0.999242" stroke-linecap="round" stroke-linejoin="round"/>
<path d="M86.7725 182.863C94.8827 196.027 106.531 205.736 120.456 212.957" stroke="#373A3A" stroke-width="0.999242" stroke-linecap="round" stroke-linejoin="round"/>
<path d="M238.854 235.47L258.318 236.552" stroke="#373A3A" stroke-width="0.999242" stroke-linecap="round" stroke-linejoin="round"/>
<path d="M344.747 273.328C344.619 275.81 344.245 278.164 343.627 280.39C340.885 290.356 333.405 297.809 322.363 303.287C307.33 310.746 285.698 314.561 260.437 316.108" stroke="#373A3A" stroke-width="0.999242" stroke-linecap="round" stroke-linejoin="round"/>
<path d="M309.152 241.914C330.79 246.383 344.795 254.582 344.795 271.421C344.795 271.989 344.783 272.558 344.752 273.108" stroke="#373A3A" stroke-width="0.999242" stroke-linecap="round" stroke-linejoin="round"/>
<path d="M80.5728 308.901C80.5728 308.901 66.0722 307.99 59.1494 307.623L59.7554 327.818C63.9911 328.179 68.1656 328.527 72.2789 328.863" stroke="#373A3A" stroke-width="0.999242" stroke-linecap="round" stroke-linejoin="round"/>
<path d="M268.713 336.01C294.213 334.457 311.138 331.186 322.37 326.607C343.952 317.802 344.509 304.156 344.509 288.577C344.509 284.45 344.797 271.421 344.797 271.421" stroke="#373A3A" stroke-width="0.999242" stroke-linecap="round" stroke-linejoin="round"/>
<path d="M39.4745 222.828L44.053 234.934L36.4141 245.53L31.5356 232.922L39.4745 222.828Z" fill="#373A3A"/>
<path d="M39.4747 222.827L31.5358 232.922L17.9412 228.134L17.9351 228.122L26.1616 218.535L39.4747 222.827Z" fill="white"/>
<path d="M31.5366 232.921L36.415 245.528L22.6918 240.429L17.9419 228.134L31.5366 232.921Z" fill="white"/>
<path d="M17.9356 228.122L17.9417 228.134L17.9233 228.128L17.9356 228.122Z" fill="white"/>
<path d="M17.9233 228.128L26.1622 218.535L39.4753 222.827L31.5364 232.922L36.4148 245.529L44.0537 234.933L39.4753 222.827" stroke="#373A3A" stroke-width="0.999242" stroke-linecap="round" stroke-linejoin="round"/>
<path d="M36.4143 245.529L22.691 240.43L17.9351 228.122" stroke="#373A3A" stroke-width="0.999242" stroke-linecap="round" stroke-linejoin="round"/>
<path d="M31.5364 232.921L17.9233 228.128" stroke="#373A3A" stroke-width="0.999242" stroke-linecap="round" stroke-linejoin="round"/>
</g>
<defs>
<clipPath id="clip0_1529_10736">
<rect width="375.215" height="401.695" fill="white" transform="translate(0.784668 0.652344)"/>
</clipPath>
</defs>
</svg>
