<svg width="24" height="25" viewBox="0 0 24 25" fill="none" xmlns="http://www.w3.org/2000/svg">
<path fill-rule="evenodd" clip-rule="evenodd" d="M20.73 7.43152L20.59 7.18152C20.4094 6.87921 20.1547 6.62795 19.85 6.45152L13.14 2.58152C12.8362 2.40527 12.4913 2.31214 12.14 2.31152H11.85C11.4987 2.31214 11.1538 2.40527 10.85 2.58152L4.14 6.46152C3.83697 6.63678 3.58526 6.88849 3.41 7.19152L3.27 7.44152C3.09375 7.74536 3.00062 8.09026 3 8.44152V16.1915C3.00062 16.5428 3.09375 16.8877 3.27 17.1915L3.41 17.4415C3.58979 17.741 3.84049 17.9917 4.14 18.1715L10.86 22.0415C11.1623 22.2214 11.5082 22.3148 11.86 22.3115H12.14C12.4913 22.3109 12.8362 22.2178 13.14 22.0415L19.85 18.1615C20.156 17.9902 20.4087 17.7375 20.58 17.4315L20.73 17.1815C20.9041 16.8768 20.9971 16.5325 21 16.1815V8.43152C20.9994 8.08026 20.9063 7.73536 20.73 7.43152ZM11.85 4.31152H12.14L18 7.69152L12 11.1515L6 7.69152L11.85 4.31152ZM13 19.8115L18.85 16.4315L19 16.1815V9.42152L13 12.8915V19.8115Z" fill="black"/>
</svg>
