<svg width="200" height="302" viewBox="0 0 200 302" fill="none" xmlns="http://www.w3.org/2000/svg">
<path d="M163.452 66.6176C163.707 61.8155 167.33 66.6915 168.801 65.3755C169.947 64.3478 167.485 61.6048 168.631 60.5771C169.777 59.5493 172.236 62.2924 173.382 61.2647C174.528 60.2369 172.069 57.4939 173.215 56.4662C174.361 55.4385 176.82 58.1815 177.966 57.1538C178.846 56.3627 177.6 54.5624 177.493 53.3018" stroke="#373A3A" stroke-width="0.805666" stroke-linecap="round" stroke-linejoin="round"/>
<path d="M188.236 159.703L190.672 155.581" stroke="#373A3A" stroke-width="0.805666" stroke-linecap="round" stroke-linejoin="round"/>
<path d="M154.887 51.7802L157.139 47.4697" stroke="#373A3A" stroke-width="0.805666" stroke-linecap="round" stroke-linejoin="round"/>
<path d="M70.0068 1L71.3192 5.87237" stroke="#373A3A" stroke-width="0.805666" stroke-linecap="round" stroke-linejoin="round"/>
<path d="M20.5444 29.6699L26.7255 30.6052" stroke="#373A3A" stroke-width="0.805666" stroke-linecap="round" stroke-linejoin="round"/>
<path d="M25.228 117.357L26.5404 111.55" stroke="#373A3A" stroke-width="0.805666" stroke-linecap="round" stroke-linejoin="round"/>
<path d="M66.8244 132.157L63.4492 137.965" stroke="#373A3A" stroke-width="0.805666" stroke-linecap="round" stroke-linejoin="round"/>
<path d="M42.2349 169.301L47.6691 170.236" stroke="#373A3A" stroke-width="0.805666" stroke-linecap="round" stroke-linejoin="round"/>
<path d="M206.231 118.41V136.876H155.522C153.097 136.876 151.134 134.909 151.134 132.488V113.634L157.285 111.265C161.263 109.73 164.328 106.47 165.61 102.403C166.893 98.3332 166.254 93.897 163.873 90.3666C161.755 87.228 159.733 84.2854 157.762 81.4795H206.231V118.407V118.41ZM190.967 105.361C191.314 104.559 191.492 103.627 191.492 102.566C191.492 100.315 190.593 98.555 188.797 97.2907C187 96.0227 184.612 95.3868 181.636 95.3868C179.104 95.3868 176.912 95.8415 175.063 96.7473C173.215 97.653 171.747 98.9321 170.66 100.588L175.355 103.342C175.998 102.437 176.793 101.734 177.74 101.228C178.682 100.721 179.765 100.47 180.982 100.47C182.198 100.47 183.263 100.747 184.028 101.302C184.789 101.86 185.174 102.614 185.174 103.572C185.174 104.248 184.971 104.847 184.571 105.376C184.172 105.904 183.544 106.559 182.69 107.335C181.525 108.396 180.642 109.364 180.032 110.244C179.425 111.124 179.122 112.237 179.122 113.582H184.978C184.978 112.758 185.196 112.048 185.636 111.468C186.076 110.887 186.775 110.167 187.732 109.316C188.534 108.592 189.185 107.952 189.691 107.398C190.198 106.843 190.623 106.163 190.97 105.364L190.967 105.361ZM185.788 119.793C185.788 118.81 185.44 117.989 184.738 117.331C184.043 116.669 183.148 116.34 182.061 116.34C180.974 116.34 180.083 116.669 179.385 117.331C178.686 117.989 178.335 118.813 178.335 119.793C178.335 120.773 178.69 121.608 179.399 122.296C180.109 122.98 181 123.324 182.057 123.324C183.115 123.324 184.002 122.98 184.715 122.296C185.425 121.608 185.78 120.776 185.78 119.793H185.788Z" fill="white"/>
<path d="M200.919 1.9248V36.0129H138.82V1.9248H200.919ZM192.575 14.6418C192.575 13.7767 191.873 13.0743 191.007 13.0743C190.142 13.0743 189.44 13.7767 189.44 14.6418C189.44 15.5068 190.139 16.2092 191.007 16.2092C191.876 16.2092 192.575 15.5105 192.575 14.6418ZM173.281 24.4272C173.281 23.5584 172.583 22.8598 171.714 22.8598C170.845 22.8598 170.146 23.5584 170.146 24.4272C170.146 25.2959 170.849 25.9946 171.714 25.9946C172.579 25.9946 173.281 25.2922 173.281 24.4272ZM164.908 18.967C164.908 13.7102 160.646 9.44408 155.385 9.44408C150.125 9.44408 145.866 13.7102 145.866 18.967C145.866 24.2239 150.128 28.49 155.385 28.49C160.642 28.49 164.908 24.2276 164.908 18.967Z" fill="white"/>
<path d="M191.004 16.2081C191.87 16.2081 192.571 15.5064 192.571 14.6407C192.571 13.775 191.87 13.0732 191.004 13.0732C190.138 13.0732 189.437 13.775 189.437 14.6407C189.437 15.5064 190.138 16.2081 191.004 16.2081Z" fill="white"/>
<path d="M191.492 102.57C191.492 103.631 191.315 104.562 190.967 105.364C190.62 106.167 190.195 106.847 189.688 107.398C189.182 107.956 188.531 108.592 187.729 109.316C186.772 110.17 186.069 110.887 185.633 111.468C185.193 112.048 184.975 112.758 184.975 113.582H179.119C179.119 112.237 179.422 111.128 180.029 110.244C180.639 109.364 181.522 108.396 182.687 107.335C183.541 106.562 184.169 105.908 184.568 105.375C184.968 104.847 185.171 104.248 185.171 103.571C185.171 102.618 184.786 101.86 184.025 101.302C183.263 100.747 182.247 100.47 180.979 100.47C179.711 100.47 178.683 100.721 177.737 101.228C176.794 101.734 175.999 102.437 175.352 103.342L170.657 100.588C171.744 98.9319 173.212 97.6529 175.06 96.7471C176.909 95.8414 179.101 95.3867 181.633 95.3867C184.609 95.3867 186.993 96.0226 188.794 97.2906C190.59 98.5549 191.489 100.315 191.489 102.566L191.492 102.57Z" fill="#4F9D69"/>
<path d="M184.735 117.331C185.434 117.989 185.785 118.813 185.785 119.793C185.785 120.772 185.43 121.608 184.72 122.295C184.007 122.979 183.119 123.323 182.062 123.323C181.005 123.323 180.114 122.979 179.404 122.295C178.694 121.608 178.339 120.776 178.339 119.793C178.339 118.809 178.687 117.989 179.389 117.331C180.088 116.669 180.979 116.34 182.066 116.34C183.153 116.34 184.044 116.669 184.742 117.331H184.735Z" fill="#4F9D69"/>
<path d="M171.708 25.9943C172.573 25.9943 173.275 25.2925 173.275 24.4268C173.275 23.5611 172.573 22.8594 171.708 22.8594C170.842 22.8594 170.14 23.5611 170.14 24.4268C170.14 25.2925 170.842 25.9943 171.708 25.9943Z" fill="white"/>
<path d="M166.529 162.994L168.44 169.238L163.885 174.92L161.819 168.388L166.529 162.994Z" fill="#373A3A"/>
<path d="M166.53 162.993L161.82 168.387L154.393 165.329H154.382L154.386 165.318L159.243 160.217L166.53 162.993Z" fill="white"/>
<path d="M103.132 117.664C103.188 117.427 103.291 117.198 103.447 116.984C103.938 116.307 104.811 116.03 105.602 116.292L112.045 118.448C112.511 118.603 113.025 118.573 113.469 118.355L118.692 115.815C118.988 115.668 118.999 115.254 118.714 115.095L113.613 112.278C113.18 112.037 112.892 111.638 112.777 111.191C112.681 110.814 112.711 110.403 112.892 110.026C113.214 109.353 113.931 108.962 114.67 109.058L120.988 109.871C122.093 110.015 123.213 109.841 124.226 109.372L142.592 100.873C143.457 100.474 144.093 99.7049 144.322 98.7844C144.555 97.8602 144.355 96.8842 143.786 96.1264L137.028 87.1284L153.298 75.2432C154.777 77.2653 156.255 79.3318 157.767 81.4797C159.738 84.2892 161.76 87.2282 163.878 90.3668C166.263 93.9009 166.898 98.3333 165.616 102.404C164.333 106.47 161.272 109.731 157.291 111.265C155.128 112.097 124.555 123.874 121.768 124.921C112.899 128.251 114.389 127.383 109.602 128.263C108.153 128.529 106.663 128.155 105.513 127.239L101.173 123.771C100.33 123.098 100.138 121.967 100.585 121.083L99.9237 120.54C99.0771 119.845 98.9403 118.607 99.6168 117.749C100.186 117.028 101.169 116.784 102.009 117.157L103.136 117.664H103.132Z" fill="white"/>
<path d="M161.817 168.387L163.884 174.92L156.391 171.685L154.391 165.33L161.817 168.387Z" fill="#4F9D69"/>
<path d="M155.387 9.44824C160.647 9.44824 164.91 13.7143 164.91 18.9712C164.91 24.228 160.647 28.4941 155.387 28.4941C150.126 28.4941 145.868 24.2317 145.868 18.9712C145.868 13.7106 150.13 9.44824 155.387 9.44824V9.44824ZM160.677 18.9305C160.677 16.9749 159.405 15.389 157.838 15.389C156.27 15.389 154.991 16.9749 154.991 18.9305C154.991 20.8861 156.267 22.472 157.838 22.472C159.409 22.472 160.677 20.8861 160.677 18.9305Z" fill="white"/>
<path d="M157.832 15.3926C159.399 15.3926 160.671 16.9785 160.671 18.9341C160.671 20.8897 159.399 22.4756 157.832 22.4756C156.264 22.4756 154.985 20.8897 154.985 18.9341C154.985 16.9785 156.261 15.3926 157.832 15.3926Z" fill="white"/>
<path d="M157.809 301.509H117.063L116.294 291.55C120.609 292.977 121.015 297.868 121.015 297.868H157.495C157.673 298.91 157.784 300.112 157.813 301.509H157.809Z" fill="#373A3A"/>
<path d="M135.001 84.4446C135.36 90.304 135.622 97.3797 135.437 104.185L124.217 109.376C123.208 109.842 122.084 110.015 120.979 109.875L115.937 109.228C116.569 108.74 117.168 108.215 117.726 107.653C121.064 104.315 123.127 99.7049 123.127 94.6145C123.127 89.524 121.064 84.9104 117.726 81.5759C114.909 78.7552 111.175 76.844 107.016 76.319C107.582 76.0861 108.092 75.7275 108.51 75.258C109.926 75.3653 111.279 74.6 111.911 73.3061C112.621 73.5649 113.197 73.7682 113.652 73.9309C114.469 74.2192 115.371 73.9753 115.929 73.3209C116.717 72.4004 116.565 71.0104 115.597 70.2859L109.194 66.5373C106.739 64.7 103.748 63.7056 100.68 63.7056H58.5217L55.2944 56.9478C57.287 56.0088 59.2648 55.1068 61.2611 54.2418C63.2573 53.3693 65.2684 52.5302 67.3275 51.7095C74.0815 49.0108 81.294 47.6504 88.5656 47.6504H95.645V49.1069C95.645 54.7963 110.879 56.6706 110.879 49.1069V47.6504H119.445C126.968 47.6504 134.095 51.0071 138.897 56.7926C144.117 63.0882 148.683 68.9365 153.285 75.2507L137.016 87.1358L134.997 84.4483L135.001 84.4446Z" fill="#5863F8"/>
<path d="M132.267 124.924L143.494 280.638H115.465L104.696 132.399L93.9278 280.638H65.895L77.1221 124.924H102.615L105.517 127.242C106.667 128.159 108.157 128.532 109.606 128.266C114.393 127.386 112.907 128.255 121.772 124.924H132.275H132.267Z" fill="#373A3A"/>
<path d="M133.718 120.352C133.319 122.059 132.838 123.601 132.265 124.924H121.763C124.55 123.878 128.361 122.414 133.718 120.352Z" fill="#5863F8"/>
<path d="M124.095 286.12C125.215 286.12 126.121 287.466 126.121 289.118C126.121 290.771 125.215 292.116 124.095 292.116C122.975 292.116 122.069 290.774 122.069 289.118C122.069 287.462 122.975 286.12 124.095 286.12Z" fill="white"/>
<path d="M117.582 94.6702L115.744 91.6869L113.907 94.6702H117.578H117.582ZM123.131 94.6148C123.131 99.7052 121.068 104.315 117.73 107.653L104.691 94.6148L117.73 81.5762C121.068 84.9107 123.131 89.5243 123.131 94.6148Z" fill="white"/>
<path d="M118.708 115.101C118.993 115.26 118.982 115.678 118.686 115.822L113.462 118.362C113.019 118.576 112.509 118.609 112.039 118.454L105.596 116.299C104.804 116.033 103.928 116.314 103.44 116.99C103.285 117.201 103.181 117.434 103.126 117.67L101.999 117.164C101.159 116.791 100.172 117.035 99.6067 117.755C98.9302 118.613 99.067 119.852 99.9135 120.547L100.575 121.09C100.128 121.97 100.32 123.105 101.163 123.778L102.605 124.927H77.1117C73.097 115.645 73.6293 94.5655 74.487 81.6896C81.6403 81.6452 87.0746 81.2681 89.1743 78.0482C89.7991 77.0908 90.8046 76.4475 91.9322 76.2479C93.799 75.9152 95.6068 75.4124 97.2149 74.7285C99.5439 75.3644 101.577 75.8671 103.204 76.2405C98.7047 76.5991 94.6604 78.5732 91.6512 81.5824C88.313 84.9169 86.2502 89.5305 86.2502 94.621C86.2502 99.7115 88.313 104.325 91.6512 107.66C94.9857 110.998 99.5993 113.061 104.69 113.061C107.588 113.061 110.331 112.391 112.771 111.205C112.886 111.652 113.174 112.051 113.606 112.292L118.708 115.109V115.101Z" fill="#5863F8"/>
<path d="M110.885 40.6451C109.148 42.4196 106.771 43.5767 104.124 43.6876C103.85 43.6987 103.569 43.7061 103.296 43.7061C103.022 43.7061 102.741 43.6987 102.468 43.6876C99.7948 43.5767 97.3993 42.3974 95.6544 40.5971C93.9059 38.7894 92.8079 36.3347 92.7266 33.6471L92.6748 31.9207C92.2386 32.1019 91.758 32.2017 91.2552 32.2017C89.222 32.2017 87.5732 30.5529 87.5732 28.5234C87.5732 26.8746 88.6564 25.4809 90.1499 25.0114C90.4974 24.9042 90.8671 24.8451 91.2552 24.8451C91.6804 24.8451 92.0907 24.919 92.4715 25.0521L95.3106 20.335H111.273L114.113 25.0521C114.493 24.919 114.904 24.8451 115.329 24.8451C115.717 24.8451 116.087 24.9042 116.434 25.0114C117.928 25.4809 119.007 26.8746 119.007 28.5234C119.007 30.5529 117.362 32.2017 115.329 32.2017C114.826 32.2017 114.345 32.1019 113.909 31.9207L113.857 33.6471C113.776 36.3569 112.663 38.83 110.882 40.6451H110.885Z" fill="white"/>
<path d="M117.579 94.6708H113.908L115.742 91.6875L117.579 94.6708Z" fill="white"/>
<path d="M111.98 10.7305C115.751 10.7305 119.84 15.0335 116.435 25.0075C116.088 24.9003 115.718 24.8411 115.33 24.8411C114.905 24.8411 114.494 24.9151 114.113 25.0482L111.274 20.331H95.3116L92.4725 25.0482C92.0917 24.9151 91.6813 24.8411 91.2562 24.8411C90.8681 24.8411 90.4984 24.9003 90.1509 25.0075C86.7461 15.0335 90.8385 10.7305 94.6055 10.7305H111.977H111.98Z" fill="#373A3A"/>
<path d="M74.4917 81.6838C73.464 81.6838 48.0892 81.6838 48.0892 81.6838C45.3351 81.6838 42.7769 80.9815 40.8805 79.4732C39.6125 78.4676 38.6365 77.0961 38.0968 75.3401C37.6791 73.976 37.5534 72.5823 37.6902 71.2293C37.9489 68.6748 39.1356 66.2756 41.0579 64.5344C41.6827 63.9688 42.3851 63.4697 43.1577 63.0594C45.5532 61.784 47.8674 60.5862 50.1373 59.4513C51.8785 58.5789 53.5938 57.7434 55.298 56.9375L58.5253 63.6952H100.684C103.752 63.6952 106.743 64.6934 109.197 66.527L115.6 70.2755C116.569 71.0001 116.72 72.3901 115.933 73.3106C115.371 73.9649 114.469 74.2089 113.656 73.9206C113.201 73.7616 108.081 71.8984 105.049 70.7561C103.903 70.3236 102.632 70.6859 101.822 71.6101C101.301 72.209 100.669 72.7561 99.9516 73.2478C99.1383 73.806 98.2178 74.2976 97.2159 74.7154C95.6115 75.3993 93.8001 75.8984 91.9332 76.2348C90.8057 76.4381 89.7965 77.0776 89.1754 78.0351C87.0793 81.255 81.6413 81.6321 74.488 81.6764L74.4917 81.6838Z" fill="white"/>
<path d="M110.885 47.6426V49.0991C110.885 56.6627 95.6504 54.7885 95.6504 49.0991V40.5928C97.3953 42.3931 99.7908 43.5724 102.464 43.6833C102.737 43.6944 103.014 43.7018 103.292 43.7018C103.569 43.7018 103.846 43.6944 104.12 43.6833C106.767 43.5724 109.144 42.4153 110.881 40.6408V47.6389L110.885 47.6426Z" fill="white"/>
<path d="M105.048 70.7665C108.079 71.9088 110.327 72.7369 111.913 73.3062C111.281 74.6001 109.928 75.3542 108.512 75.2581C108.334 75.247 108.16 75.2211 107.983 75.1768C106.286 74.7812 103.713 74.1749 99.9536 73.2581C100.671 72.7665 101.303 72.2193 101.824 71.6204C102.634 70.6962 103.905 70.334 105.051 70.7665H105.048Z" fill="white"/>
<path d="M107.984 75.1762C108.162 75.2169 108.335 75.2465 108.513 75.2576C108.095 75.7271 107.581 76.0857 107.019 76.3186C106.258 76.2261 105.478 76.1744 104.69 76.1744C104.191 76.1744 103.692 76.1966 103.204 76.2335C101.581 75.8601 99.5443 75.3611 97.2153 74.7215C98.2135 74.3038 99.1377 73.8121 99.951 73.2539C103.714 74.1707 106.287 74.777 107.98 75.1725L107.984 75.1762Z" fill="white"/>
<path d="M104.694 94.6148L91.6559 107.653C88.3177 104.319 86.2549 99.7052 86.2549 94.6148C86.2549 89.5243 88.3177 84.9107 91.6559 81.5762L104.694 94.6148Z" fill="white"/>
<path d="M93.0939 291.555L92.325 301.514H51.5752C51.6048 300.116 51.7157 298.915 51.8931 297.873H88.3731C88.3731 297.873 88.7834 292.985 93.0976 291.555H93.0939Z" fill="#373A3A"/>
<path d="M85.2924 286.12C86.4089 286.12 87.3146 287.466 87.3146 289.118C87.3146 290.771 86.4089 292.116 85.2924 292.116C84.176 292.116 83.2666 290.774 83.2666 289.118C83.2666 287.462 84.1723 286.12 85.2924 286.12Z" fill="white"/>
<path d="M81.1911 39.4252C82.1364 39.4252 82.9027 38.6589 82.9027 37.7136C82.9027 36.7683 82.1364 36.002 81.1911 36.002C80.2458 36.002 79.4795 36.7683 79.4795 37.7136C79.4795 38.6589 80.2458 39.4252 81.1911 39.4252Z" fill="#373A3A"/>
<path d="M76.1723 40.0005C77.4341 38.7387 77.4341 36.6929 76.1723 35.4312C74.9106 34.1694 72.8648 34.1694 71.603 35.4312C70.3412 36.6929 70.3412 38.7387 71.603 40.0005C72.8648 41.2623 74.9106 41.2623 76.1723 40.0005Z" fill="white"/>
<path d="M61.2669 81.6865V90.2594C61.2669 92.6808 59.3002 94.6475 56.8788 94.6475H2.3881C-0.0333054 94.6475 -2 92.6808 -2 90.2594V48.0863C-2 45.6649 -0.0333054 43.6982 2.3881 43.6982H56.8788C58.7014 43.6982 60.2651 44.8073 60.9268 46.3932C61.1449 46.9108 61.2669 47.4875 61.2669 48.0863V54.2341C59.2707 55.1029 57.2929 56.0012 55.3003 56.9402C53.5961 57.7461 51.8808 58.5815 50.1396 59.454C49.171 56.8773 47.8661 55.1213 46.1064 55.1213C42.4724 55.1213 41.7479 60.112 41.0603 64.5408C39.1379 66.282 37.9476 68.6812 37.6925 71.2357C33.7221 70.7329 36.0141 61.1323 30.3617 61.1323C24.7093 61.1323 27.371 75.5794 21.1493 75.5794C18.532 75.5794 17.4821 74.5702 16.7871 73.402C15.8333 71.7939 15.5524 69.8826 12.8094 69.8826C10.399 69.8826 8.8427 72.3632 7.89632 74.8068C6.98691 77.1616 6.64311 79.4795 6.64311 79.4795H40.8791C42.7793 80.9878 45.3375 81.6902 48.0879 81.6902H61.2632L61.2669 81.6865ZM19.1161 50.6371C19.1161 49.9126 18.5283 49.3248 17.8037 49.3248C17.0792 49.3248 16.4951 49.9126 16.4951 50.6371C16.4951 51.3617 17.0829 51.9458 17.8037 51.9458C18.5246 51.9458 19.1161 51.358 19.1161 50.6371ZM13.741 50.6371C13.741 49.9126 13.1532 49.3248 12.4286 49.3248C11.704 49.3248 11.1199 49.9126 11.1199 50.6371C11.1199 51.3617 11.7077 51.9458 12.4286 51.9458C13.1495 51.9458 13.741 51.358 13.741 50.6371ZM8.36581 50.6371C8.36581 49.9126 7.77802 49.3248 7.05715 49.3248C6.33627 49.3248 5.74478 49.9126 5.74478 50.6371C5.74478 51.3617 6.33257 51.9458 7.05715 51.9458C7.78172 51.9458 8.36581 51.358 8.36581 50.6371Z" fill="white"/>
<path d="M46.1023 55.1209C47.8619 55.1209 49.1669 56.8806 50.1355 59.4535C47.8656 60.5884 45.5552 61.7862 43.1559 63.0616C42.3833 63.4719 41.6772 63.971 41.0562 64.5366C41.7438 60.1079 42.4683 55.1172 46.1023 55.1172V55.1209Z" fill="#373A3A"/>
<path d="M47.903 140.984C48.6793 142.274 48.2653 143.941 46.9751 144.714C45.6812 145.49 44.014 145.072 43.2413 143.786L36.0474 131.657C36.8237 132.947 38.4946 133.357 39.7811 132.585C41.0232 131.838 41.4484 130.259 40.7904 128.995L47.903 140.98V140.984Z" fill="white"/>
<path d="M47.8547 9.72558L47.8621 9.74036H47.8436L38.6164 11.781L34.2505 4.57594L43.2559 2.83105L47.8547 9.72558Z" fill="white"/>
<path d="M47.8387 9.74316L44.2417 16.6968L34.8999 18.9334L38.6152 11.7801L47.8387 9.74316Z" fill="#373A3A"/>
<path d="M40.8811 79.48H6.6377C6.6377 79.48 6.9815 77.1621 7.89091 74.8073C8.83359 72.3637 10.3936 69.8831 12.8039 69.8831C15.5507 69.8831 15.8279 71.7907 16.7817 73.4025C17.4767 74.5707 18.5266 75.5799 21.1439 75.5799C27.3656 75.5799 24.5598 61.1328 30.3563 61.1328C36.1529 61.1328 33.7167 70.7334 37.6871 71.2362C37.5503 72.5892 37.676 73.9829 38.0937 75.347C38.6335 77.103 39.6094 78.4708 40.8774 79.48H40.8811Z" fill="#373A3A"/>
<path d="M40.7932 128.999C41.4513 130.263 41.0224 131.842 39.784 132.588C38.4938 133.361 36.8266 132.951 36.0502 131.66C35.2776 130.367 35.688 128.703 36.9818 127.923C38.272 127.15 39.9393 127.568 40.7119 128.858L40.7969 129.002L40.7932 128.999Z" fill="white"/>
<path d="M34.2529 4.5752L38.6188 11.7802L34.9035 18.9335L30.7705 11.4254L34.2529 4.5752Z" fill="#5863F8"/>
<path d="M17.8043 49.3223C18.5288 49.3223 19.1166 49.9101 19.1166 50.6346C19.1166 51.3592 18.5288 51.9433 17.8043 51.9433C17.0797 51.9433 16.4956 51.3555 16.4956 50.6346C16.4956 49.9137 17.0834 49.3223 17.8043 49.3223Z" fill="white"/>
<path d="M12.4278 49.3223C13.1524 49.3223 13.7402 49.9101 13.7402 50.6346C13.7402 51.3592 13.1524 51.9433 12.4278 51.9433C11.7032 51.9433 11.1191 51.3555 11.1191 50.6346C11.1191 49.9137 11.7069 49.3223 12.4278 49.3223Z" fill="white"/>
<path d="M7.05846 49.3223C7.77933 49.3223 8.36712 49.9101 8.36712 50.6346C8.36712 51.3592 7.77933 51.9433 7.05846 51.9433C6.33758 51.9433 5.74609 51.3555 5.74609 50.6346C5.74609 49.9137 6.33388 49.3223 7.05846 49.3223Z" fill="white"/>
<path d="M29.0278 301.476H174.926" stroke="#373A3A" stroke-width="0.805666" stroke-linecap="round" stroke-linejoin="round"/>
<path d="M181.233 301.476H187.636" stroke="#373A3A" stroke-width="0.805666" stroke-linecap="round" stroke-linejoin="round"/>
<path d="M121.764 124.924H132.267L143.491 280.638H115.461L104.693 132.399L93.9242 280.638H65.8877L77.1145 124.924H102.608" stroke="#373A3A" stroke-width="0.805666" stroke-linecap="round" stroke-linejoin="round"/>
<path d="M93.9244 280.827L92.3237 301.511" stroke="#373A3A" stroke-width="0.805666" stroke-linecap="round" stroke-linejoin="round"/>
<path d="M115.462 280.827L117.063 301.511" stroke="#373A3A" stroke-width="0.805666" stroke-linecap="round" stroke-linejoin="round"/>
<path d="M65.888 280.827C64.0544 294.428 53.8401 286.483 51.8882 297.873C51.7108 298.916 51.5999 300.117 51.5703 301.514" stroke="#373A3A" stroke-width="0.805666" stroke-linecap="round" stroke-linejoin="round"/>
<path d="M143.495 280.827C145.332 294.428 155.546 286.483 157.494 297.873C157.672 298.916 157.783 300.117 157.812 301.514" stroke="#373A3A" stroke-width="0.805666" stroke-linecap="round" stroke-linejoin="round"/>
<path d="M51.8857 297.868H88.3657C88.3657 297.868 88.7761 292.98 93.0902 291.55" stroke="#373A3A" stroke-width="0.805666" stroke-linecap="round" stroke-linejoin="round"/>
<path d="M157.491 297.868H121.011C121.011 297.868 120.604 292.98 116.29 291.55" stroke="#373A3A" stroke-width="0.805666" stroke-linecap="round" stroke-linejoin="round"/>
<path d="M87.3146 289.121C87.3146 287.465 86.4089 286.123 85.2924 286.123C84.176 286.123 83.2666 287.469 83.2666 289.121C83.2666 290.774 84.1723 292.119 85.2924 292.119C86.4126 292.119 87.3146 290.777 87.3146 289.121Z" stroke="#373A3A" stroke-width="0.805666" stroke-linecap="round" stroke-linejoin="round"/>
<path d="M122.069 289.121C122.069 287.465 122.975 286.123 124.095 286.123C125.215 286.123 126.121 287.469 126.121 289.121C126.121 290.774 125.215 292.119 124.095 292.119C122.975 292.119 122.069 290.777 122.069 289.121Z" stroke="#373A3A" stroke-width="0.805666" stroke-linecap="round" stroke-linejoin="round"/>
<path d="M77.1132 124.925C73.0984 115.643 73.6308 94.5636 74.4884 81.6877C74.4884 81.6692 74.4884 81.6581 74.4884 81.6396" stroke="#373A3A" stroke-width="0.805666" stroke-linecap="round" stroke-linejoin="round"/>
<path d="M132.27 124.924C132.843 123.605 133.324 122.059 133.723 120.352" stroke="#373A3A" stroke-width="0.805666" stroke-linecap="round" stroke-linejoin="round"/>
<path d="M135.435 104.186C135.62 97.38 135.358 90.3043 134.999 84.4449C134.522 76.6225 133.872 70.959 133.872 70.959" stroke="#373A3A" stroke-width="0.805666" stroke-linecap="round" stroke-linejoin="round"/>
<path d="M111.544 124.149L104.032 119.764C103.275 119.324 102.946 118.459 103.134 117.664C103.19 117.428 103.293 117.199 103.448 116.984C103.94 116.308 104.812 116.031 105.604 116.293L112.047 118.448C112.513 118.603 113.027 118.574 113.47 118.356L118.694 115.816C118.99 115.668 119.001 115.254 118.716 115.095L113.614 112.278C113.182 112.038 112.894 111.639 112.779 111.191C112.683 110.814 112.712 110.404 112.894 110.027C113.215 109.354 113.932 108.962 114.672 109.058L120.99 109.872C122.095 110.016 123.215 109.842 124.228 109.373L142.594 100.874C143.459 100.474 144.095 99.7055 144.324 98.785C144.557 97.8608 144.357 96.8848 143.788 96.127L135.012 84.4414" stroke="#373A3A" stroke-width="0.805666" stroke-linecap="round" stroke-linejoin="round"/>
<path d="M107.323 126.614L99.9149 120.544C99.0683 119.849 98.9315 118.611 99.608 117.753C100.177 117.032 101.161 116.788 102 117.162L103.127 117.668" stroke="#373A3A" stroke-width="0.805666" stroke-linecap="round" stroke-linejoin="round"/>
<path d="M100.576 121.087C100.129 121.967 100.321 123.102 101.164 123.775L105.504 127.242C106.653 128.159 108.143 128.532 109.592 128.266C114.38 127.386 112.89 128.255 121.759 124.924C124.546 123.878 155.115 112.104 157.281 111.268C161.259 109.734 164.323 106.474 165.606 102.407C166.889 98.3369 166.25 93.9008 163.869 90.3703C161.751 87.2318 159.732 84.2891 157.758 81.4832C156.246 79.3354 154.764 77.2689 153.289 75.2468C148.679 68.9363 144.117 63.0843 138.901 56.7887C134.098 51.0032 126.971 47.6465 119.448 47.6465H110.883" stroke="#373A3A" stroke-width="0.805666" stroke-linecap="round" stroke-linejoin="round"/>
<path d="M40.8779 79.4815C42.7781 80.9897 45.3363 81.6921 48.0867 81.6921C48.0867 81.6921 73.4615 81.6921 74.4892 81.6921C81.6425 81.6589 87.0768 81.2707 89.1765 78.0508C89.8013 77.0933 90.8068 76.4501 91.9344 76.2505C93.8012 75.9178 95.609 75.4113 97.2171 74.7311C98.2152 74.3096 99.1394 73.8217 99.9527 73.2635C100.67 72.7718 101.302 72.2247 101.823 71.6258C102.633 70.7016 103.905 70.3393 105.051 70.7718C108.082 71.9141 113.198 73.7736 113.657 73.9363C114.474 74.2246 115.376 73.9806 115.934 73.3263C116.721 72.4058 116.57 71.0158 115.601 70.2912L109.198 66.5427C106.744 64.7054 103.753 63.7109 100.685 63.7109H56.6263" stroke="#373A3A" stroke-width="0.805666" stroke-linecap="round" stroke-linejoin="round"/>
<path d="M41.0579 64.542C39.1356 66.2832 37.9452 68.6824 37.6902 71.2369C37.5534 72.5899 37.6791 73.9836 38.0968 75.3477C38.6365 77.1037 39.6125 78.4715 40.8805 79.4807" stroke="#373A3A" stroke-width="0.805666" stroke-linecap="round" stroke-linejoin="round"/>
<path d="M95.6545 47.6445H88.5752C81.3036 47.6445 74.0911 49.0049 67.3371 51.7036C65.278 52.5243 63.2669 53.3672 61.2706 54.2359C59.2744 55.1047 57.2966 56.003 55.304 56.942C53.5998 57.7479 51.8845 58.5833 50.1433 59.4558C47.8735 60.5907 45.563 61.7885 43.1637 63.0639C42.3911 63.4742 41.685 63.9733 41.064 64.5389" stroke="#373A3A" stroke-width="0.805666" stroke-linecap="round" stroke-linejoin="round"/>
<path d="M137.019 87.1286L153.292 75.2471" stroke="#373A3A" stroke-width="0.805666" stroke-linecap="round" stroke-linejoin="round"/>
<path d="M99.9526 73.2568C103.716 74.1736 106.289 74.7799 107.982 75.1755C108.16 75.2161 108.333 75.242 108.511 75.2568C109.927 75.3529 111.28 74.5988 111.912 73.3049" stroke="#373A3A" stroke-width="0.805666" stroke-linecap="round" stroke-linejoin="round"/>
<path d="M97.2197 74.7256C99.5487 75.3614 101.582 75.8642 103.209 76.2376" stroke="#373A3A" stroke-width="0.805666" stroke-linecap="round" stroke-linejoin="round"/>
<path d="M107.017 76.3235C107.582 76.0906 108.096 75.7283 108.514 75.2588" stroke="#373A3A" stroke-width="0.805666" stroke-linecap="round" stroke-linejoin="round"/>
<path d="M55.2959 56.9434L58.5232 63.7011" stroke="#373A3A" stroke-width="0.805666" stroke-linecap="round" stroke-linejoin="round"/>
<path d="M95.6507 40.5932C97.3956 42.3972 99.7911 43.5728 102.464 43.6837C102.737 43.6948 103.015 43.7022 103.292 43.7022C103.569 43.7022 103.847 43.6948 104.12 43.6837C106.767 43.5728 109.144 42.4157 110.882 40.6412C112.663 38.8261 113.776 36.353 113.857 33.6432L113.909 31.9168C114.345 32.0979 114.826 32.1978 115.329 32.1978C117.362 32.1978 119.007 30.549 119.007 28.5195C119.007 26.8707 117.928 25.4733 116.434 25.0075C116.087 24.9003 115.717 24.8411 115.329 24.8411C114.904 24.8411 114.493 24.9151 114.113 25.0482L111.273 20.3311H95.3106L92.4715 25.0482C92.0907 24.9151 91.6804 24.8411 91.2552 24.8411C90.8671 24.8411 90.4974 24.9003 90.1499 25.0075C88.6527 25.4733 87.5732 26.8707 87.5732 28.5195C87.5732 30.549 89.222 32.1978 91.2552 32.1978C91.758 32.1978 92.2386 32.0979 92.6748 31.9168L92.7266 33.6432C92.8079 36.3308 93.9022 38.7818 95.6544 40.5932H95.6507Z" stroke="#373A3A" stroke-width="0.805666" stroke-linecap="round" stroke-linejoin="round"/>
<path d="M90.1509 25.0075C86.7461 15.0335 90.8385 10.7305 94.6055 10.7305H111.977C115.747 10.7305 119.836 15.0335 116.431 25.0075" stroke="#373A3A" stroke-width="0.805666" stroke-linecap="round" stroke-linejoin="round"/>
<path d="M91.9084 27.3557C91.657 27.1634 91.3464 27.0488 91.01 27.0488C90.1894 27.0488 89.5239 27.7179 89.5239 28.5349C89.5239 28.912 89.6644 29.2521 89.8899 29.5146" stroke="#373A3A" stroke-width="0.805666" stroke-linecap="round" stroke-linejoin="round"/>
<path d="M117.138 29.1875C117.231 28.9916 117.29 28.7698 117.29 28.5369C117.29 27.7199 116.624 27.0508 115.804 27.0508C115.689 27.0508 115.574 27.0656 115.467 27.0914" stroke="#373A3A" stroke-width="0.805666" stroke-linecap="round" stroke-linejoin="round"/>
<path d="M95.6504 40.5928V49.0991C95.6504 54.7885 110.885 56.6627 110.885 49.0991V40.6187" stroke="#373A3A" stroke-width="0.805666" stroke-linecap="round" stroke-linejoin="round"/>
<path d="M99.9505 28.6963C99.5845 28.2934 99.0558 28.042 98.468 28.042C98.0096 28.042 97.5808 28.1973 97.2407 28.4597" stroke="#373A3A" stroke-width="1.2085" stroke-linecap="round" stroke-linejoin="round"/>
<path d="M106.635 28.6963C107.001 28.2934 107.529 28.042 108.117 28.042C108.576 28.042 109.001 28.1973 109.345 28.4597" stroke="#373A3A" stroke-width="1.2085" stroke-linecap="round" stroke-linejoin="round"/>
<path d="M96.0459 25.2691C98.8 25.0029 100.586 25.0029 100.586 25.0029" stroke="#373A3A" stroke-width="1.2085" stroke-linecap="round" stroke-linejoin="round"/>
<path d="M110.537 25.2691C107.783 25.0029 105.997 25.0029 105.997 25.0029" stroke="#373A3A" stroke-width="1.2085" stroke-linecap="round" stroke-linejoin="round"/>
<path d="M100.14 36.0137C102.062 36.3242 106.631 36.0137 106.631 36.0137" stroke="#373A3A" stroke-width="0.805666" stroke-linecap="round" stroke-linejoin="round"/>
<path d="M103.282 25.7266C103.548 28.3698 106.421 32.8577 102.92 32.8244" stroke="#373A3A" stroke-width="0.805666" stroke-linecap="round" stroke-linejoin="round"/>
<path d="M115.937 109.229C116.569 108.741 117.168 108.216 117.726 107.654C121.064 104.316 123.127 99.7059 123.127 94.6154C123.127 89.5249 121.064 84.915 117.726 81.5768C114.905 78.7561 111.175 76.8375 107.016 76.32C106.255 76.2238 105.475 76.1758 104.687 76.1758C104.188 76.1758 103.689 76.198 103.201 76.2349C98.7021 76.5898 94.6578 78.5676 91.6486 81.5768C88.3141 84.9113 86.2476 89.5249 86.2476 94.6154C86.2476 99.7059 88.3104 104.316 91.6486 107.654C94.9831 110.988 99.5967 113.055 104.687 113.055C107.585 113.055 110.328 112.386 112.768 111.199" stroke="#373A3A" stroke-width="0.805666" stroke-linecap="round" stroke-linejoin="round"/>
<path d="M91.6553 107.653L117.732 81.5762" stroke="#373A3A" stroke-width="0.805666" stroke-linecap="round" stroke-linejoin="round"/>
<path d="M117.732 107.653L91.6553 81.5762" stroke="#373A3A" stroke-width="0.805666" stroke-linecap="round" stroke-linejoin="round"/>
<path d="M113.062 96.0423L115.743 91.6875L118.423 96.0423" stroke="#373A3A" stroke-width="0.805666" stroke-linecap="round" stroke-linejoin="round"/>
<path d="M113.908 94.6719H117.579" stroke="#373A3A" stroke-width="0.805666" stroke-linecap="round" stroke-linejoin="round"/>
<path d="M90.4102 94.6152H97.8259" stroke="#373A3A" stroke-width="0.805666" stroke-linecap="round" stroke-linejoin="round"/>
<path d="M95.3579 92.1484L97.8274 94.6142L95.3579 97.0837" stroke="#373A3A" stroke-width="0.805666" stroke-linecap="round" stroke-linejoin="round"/>
<path d="M60.9258 46.3965C61.1402 46.914 61.2659 47.4907 61.2659 48.0896V54.2374" stroke="#373A3A" stroke-width="0.805666" stroke-linecap="round" stroke-linejoin="round"/>
<path d="M61.2669 81.6865V90.2594C61.2669 92.6808 59.3002 94.6475 56.8788 94.6475H2.3881C-0.0333054 94.6475 -2 92.6808 -2 90.2594V48.0863C-2 45.6649 -0.0333054 43.6982 2.3881 43.6982H56.8788C58.7014 43.6982 60.2651 44.811 60.9268 46.3932" stroke="#373A3A" stroke-width="0.805666" stroke-linecap="round" stroke-linejoin="round"/>
<path d="M157.762 81.4844H216.245C218.667 81.4844 220.634 83.4511 220.634 85.8725V132.493C220.634 134.914 218.667 136.881 216.245 136.881H155.522C153.097 136.881 151.134 134.914 151.134 132.493V113.639" stroke="#373A3A" stroke-width="0.805666" stroke-linecap="round" stroke-linejoin="round"/>
<path d="M200.919 1.9248H138.82V36.0129H200.919V1.9248Z" stroke="#373A3A" stroke-width="0.805666" stroke-linecap="round" stroke-linejoin="round"/>
<path d="M164.91 18.9712C164.91 13.7143 160.647 9.44824 155.387 9.44824C150.126 9.44824 145.868 13.7143 145.868 18.9712C145.868 24.228 150.13 28.4941 155.387 28.4941C160.644 28.4941 164.91 24.2317 164.91 18.9712Z" stroke="#373A3A" stroke-width="0.805666" stroke-linecap="round" stroke-linejoin="round"/>
<path d="M172.706 23.2156L178.333 16.3691L184.957 22.7978L190.07 15.9033" stroke="#373A3A" stroke-width="0.805666" stroke-linecap="round" stroke-linejoin="round"/>
<path d="M191.004 16.2081C191.87 16.2081 192.571 15.5064 192.571 14.6407C192.571 13.775 191.87 13.0732 191.004 13.0732C190.138 13.0732 189.437 13.775 189.437 14.6407C189.437 15.5064 190.138 16.2081 191.004 16.2081Z" stroke="#373A3A" stroke-width="0.805666" stroke-linecap="round" stroke-linejoin="round"/>
<path d="M171.708 25.9943C172.573 25.9943 173.275 25.2925 173.275 24.4268C173.275 23.5611 172.573 22.8594 171.708 22.8594C170.842 22.8594 170.14 23.5611 170.14 24.4268C170.14 25.2925 170.842 25.9943 171.708 25.9943Z" stroke="#373A3A" stroke-width="0.805666" stroke-linecap="round" stroke-linejoin="round"/>
<path d="M60.9223 46.3986C65.2957 45.9143 68.6893 42.2138 68.6893 37.7148C68.6893 32.8905 64.7818 28.9756 59.9538 28.9756C55.1258 28.9756 51.2183 32.8868 51.2183 37.7148C51.2183 40.0327 52.1203 42.1399 53.5953 43.7036" stroke="#373A3A" stroke-width="0.805666" stroke-linecap="round" stroke-linejoin="round"/>
<path d="M76.1723 40.0005C77.4341 38.7387 77.4341 36.6929 76.1723 35.4312C74.9106 34.1694 72.8648 34.1694 71.603 35.4312C70.3412 36.6929 70.3412 38.7387 71.603 40.0005C72.8648 41.2623 74.9106 41.2623 76.1723 40.0005Z" stroke="#373A3A" stroke-width="0.805666" stroke-linecap="round" stroke-linejoin="round"/>
<path d="M81.1911 39.4252C82.1364 39.4252 82.9027 38.6589 82.9027 37.7136C82.9027 36.7683 82.1364 36.002 81.1911 36.002C80.2458 36.002 79.4795 36.7683 79.4795 37.7136C79.4795 38.6589 80.2458 39.4252 81.1911 39.4252Z" stroke="#373A3A" stroke-width="0.805666" stroke-linecap="round" stroke-linejoin="round"/>
<path d="M40.7119 128.858C39.9393 127.568 38.2683 127.15 36.9818 127.923C35.688 128.703 35.2776 130.37 36.0502 131.66C36.8266 132.951 38.4975 133.361 39.784 132.588C41.0261 131.842 41.4513 130.263 40.7932 128.999" stroke="#373A3A" stroke-width="0.805666" stroke-linecap="round" stroke-linejoin="round"/>
<path d="M36.0474 131.661L43.2413 143.79C44.014 145.076 45.6849 145.494 46.9751 144.718C48.2653 143.945 48.6793 142.274 47.903 140.988L40.709 128.858" stroke="#373A3A" stroke-width="0.805666" stroke-linecap="round" stroke-linejoin="round"/>
<path d="M180.026 110.248C180.636 109.368 181.519 108.4 182.684 107.339C183.538 106.566 184.166 105.912 184.565 105.379C184.965 104.851 185.168 104.252 185.168 103.575C185.168 102.622 184.783 101.864 184.022 101.305C183.26 100.751 182.244 100.474 180.976 100.474C179.708 100.474 178.68 100.725 177.734 101.232C176.791 101.738 175.996 102.44 175.349 103.346L170.654 100.592C171.741 98.9359 173.209 97.6568 175.057 96.7511C176.906 95.8453 179.098 95.3906 181.63 95.3906C184.606 95.3906 186.99 96.0265 188.791 97.2945C190.587 98.5588 191.486 100.318 191.486 102.57C191.486 103.631 191.308 104.562 190.961 105.365C190.613 106.167 190.188 106.847 189.682 107.398C189.175 107.956 188.525 108.592 187.722 109.316C186.765 110.17 186.063 110.888 185.626 111.468C185.186 112.048 184.968 112.758 184.968 113.583H179.113C179.113 112.237 179.416 111.128 180.022 110.244L180.026 110.248Z" stroke="#373A3A" stroke-width="0.805666" stroke-linecap="round" stroke-linejoin="round"/>
<path d="M179.403 122.295C178.693 121.608 178.338 120.776 178.338 119.793C178.338 118.809 178.685 117.989 179.388 117.331C180.086 116.669 180.977 116.34 182.064 116.34C183.151 116.34 184.042 116.669 184.741 117.331C185.439 117.989 185.791 118.813 185.791 119.793C185.791 120.772 185.436 121.608 184.726 122.295C184.012 122.979 183.125 123.323 182.068 123.323C181.011 123.323 180.12 122.979 179.41 122.295H179.403Z" stroke="#373A3A" stroke-width="0.805666" stroke-linecap="round" stroke-linejoin="round"/>
<path d="M154.382 165.329L154.386 165.318L159.243 160.217L166.53 162.993L161.82 168.387L163.886 174.919L168.441 169.237L166.53 162.993" stroke="#373A3A" stroke-width="0.805666" stroke-linecap="round" stroke-linejoin="round"/>
<path d="M163.884 174.92L156.391 171.685L154.391 165.33" stroke="#373A3A" stroke-width="0.805666" stroke-linecap="round" stroke-linejoin="round"/>
<path d="M161.82 168.387L154.393 165.33H154.382" stroke="#373A3A" stroke-width="0.805666" stroke-linecap="round" stroke-linejoin="round"/>
<path d="M47.8645 9.74036L47.8571 9.72558L43.2583 2.83105L34.2529 4.57594L38.6188 11.781L34.9035 18.9343L30.7705 11.4261L34.2529 4.57594" stroke="#373A3A" stroke-width="0.805666" stroke-linecap="round" stroke-linejoin="round"/>
<path d="M34.8999 18.9334L44.2417 16.6968L47.8387 9.74316" stroke="#373A3A" stroke-width="0.805666" stroke-linecap="round" stroke-linejoin="round"/>
<path d="M38.6147 11.7809L47.8604 9.74023" stroke="#373A3A" stroke-width="0.805666" stroke-linecap="round" stroke-linejoin="round"/>
<path d="M150.429 15.3955H153.986L152.207 22.7743" stroke="#373A3A" stroke-width="0.805666" stroke-linecap="round" stroke-linejoin="round"/>
<path d="M150.866 18.9561H153.121" stroke="#373A3A" stroke-width="0.805666" stroke-linecap="round" stroke-linejoin="round"/>
<path d="M160.671 18.9312C160.671 20.8868 159.399 22.4727 157.832 22.4727C156.264 22.4727 154.985 20.8868 154.985 18.9312C154.985 16.9756 156.261 15.3896 157.832 15.3896C159.403 15.3896 160.671 16.9756 160.671 18.9312Z" stroke="#373A3A" stroke-width="0.805666" stroke-linecap="round" stroke-linejoin="round"/>
<path d="M50.1355 59.4528C49.1669 56.8761 47.8619 55.1201 46.1023 55.1201C42.4683 55.1201 41.7438 60.1108 41.0562 64.5396" stroke="#373A3A" stroke-width="0.805666" stroke-linecap="round" stroke-linejoin="round"/>
<path d="M37.6871 71.2362C33.7167 70.7334 36.0087 61.1328 30.3563 61.1328C24.7039 61.1328 27.3656 75.5799 21.1439 75.5799C18.5266 75.5799 17.4767 74.5707 16.7817 73.4025C15.8279 71.7944 15.547 69.8831 12.8039 69.8831C10.3936 69.8831 8.83729 72.3637 7.89091 74.8073C6.9815 77.1621 6.6377 79.48 6.6377 79.48H40.8774" stroke="#373A3A" stroke-width="0.805666" stroke-linecap="round" stroke-linejoin="round"/>
<path d="M8.36712 50.6376C8.36712 49.913 7.77933 49.3252 7.05846 49.3252C6.33758 49.3252 5.74609 49.913 5.74609 50.6376C5.74609 51.3621 6.33388 51.9462 7.05846 51.9462C7.78303 51.9462 8.36712 51.3584 8.36712 50.6376Z" stroke="#373A3A" stroke-width="0.805666" stroke-linecap="round" stroke-linejoin="round"/>
<path d="M13.7402 50.6376C13.7402 49.913 13.1524 49.3252 12.4278 49.3252C11.7032 49.3252 11.1191 49.913 11.1191 50.6376C11.1191 51.3621 11.7069 51.9462 12.4278 51.9462C13.1487 51.9462 13.7402 51.3584 13.7402 50.6376Z" stroke="#373A3A" stroke-width="0.805666" stroke-linecap="round" stroke-linejoin="round"/>
<path d="M19.1166 50.6376C19.1166 49.913 18.5288 49.3252 17.8043 49.3252C17.0797 49.3252 16.4956 49.913 16.4956 50.6376C16.4956 51.3621 17.0834 51.9462 17.8043 51.9462C18.5251 51.9462 19.1166 51.3584 19.1166 50.6376Z" stroke="#373A3A" stroke-width="0.805666" stroke-linecap="round" stroke-linejoin="round"/>
</svg>
