<svg width="58" height="61" viewBox="0 0 58 61" fill="none" xmlns="http://www.w3.org/2000/svg">
<g filter="url(#filter0_d_1522_6686)">
<path d="M46.4519 10.5742L52.9551 31.8129L37.4598 51.1335L30.4326 28.9218L46.4519 10.5742Z" fill="#5863F8"/>
<path d="M46.4542 10.5742L30.4349 28.9218L5.1333 18.5083L5.16137 18.4709L21.6766 1.13379L46.4542 10.5742Z" fill="white"/>
<path d="M30.4344 28.9221L37.4616 51.1339L11.9822 40.1216L5.18896 18.5273L30.4344 28.9221Z" fill="#373A3A"/>
<path d="M5.1333 18.5083L5.16137 18.4709L21.6766 1.13379L46.4542 10.5742L30.4349 28.9218L37.462 51.1336L52.9574 31.8129L46.4542 10.5742" stroke="#373A3A" stroke-width="2" stroke-linecap="round" stroke-linejoin="round"/>
<path d="M37.4635 51.1339L11.9842 40.1216L5.19092 18.5273" stroke="#373A3A" stroke-width="2" stroke-linecap="round" stroke-linejoin="round"/>
<path d="M30.4349 28.9213L5.1333 18.5078" stroke="#373A3A" stroke-width="2" stroke-linecap="round" stroke-linejoin="round"/>
</g>
<defs>
<filter id="filter0_d_1522_6686" x="0.132812" y="0.133789" width="57.8247" height="60" filterUnits="userSpaceOnUse" color-interpolation-filters="sRGB">
<feFlood flood-opacity="0" result="BackgroundImageFix"/>
<feColorMatrix in="SourceAlpha" type="matrix" values="0 0 0 0 0 0 0 0 0 0 0 0 0 0 0 0 0 0 127 0" result="hardAlpha"/>
<feOffset dy="4"/>
<feGaussianBlur stdDeviation="2"/>
<feComposite in2="hardAlpha" operator="out"/>
<feColorMatrix type="matrix" values="0 0 0 0 0 0 0 0 0 0 0 0 0 0 0 0 0 0 0.25 0"/>
<feBlend mode="normal" in2="BackgroundImageFix" result="effect1_dropShadow_1522_6686"/>
<feBlend mode="normal" in="SourceGraphic" in2="effect1_dropShadow_1522_6686" result="shape"/>
</filter>
</defs>
</svg>
