<svg width="60" height="53" viewBox="0 0 60 53" fill="none" xmlns="http://www.w3.org/2000/svg">
<path d="M58.0297 24.7988L58.0483 24.827L58.002 24.8363L58.0297 24.7988Z" fill="white"/>
<path d="M45.9788 1.13379L58.0301 24.7998L58.0028 24.836L27.7703 27.8293L16.5728 3.26798L45.9788 1.13379Z" fill="white"/>
<path d="M58.0022 24.8359L42.1367 47.5615L11.4683 51.1336L27.7696 27.8292L58.0022 24.8359Z" fill="#373A3A"/>
<path d="M16.5719 3.26855L27.7695 27.8299L11.4681 51.1342L1.1333 25.7047L16.5719 3.26855Z" fill="#4F9D69"/>
<path d="M58.0474 24.827L45.978 1.13379L16.5719 3.26798L27.7695 27.8293L11.4681 51.1336L1.1333 25.7042L16.5719 3.26798" stroke="#373A3A" stroke-width="2" stroke-linecap="round" stroke-linejoin="round"/>
<path d="M11.4683 51.1326L42.1367 47.5606L58.0294 24.7988" stroke="#373A3A" stroke-width="2" stroke-linecap="round" stroke-linejoin="round"/>
<path d="M27.77 27.8285L58.0025 24.8352L58.0479 24.8262" stroke="#373A3A" stroke-width="2" stroke-linecap="round" stroke-linejoin="round"/>
</svg>
