<svg width="200" height="310" viewBox="0 0 200 310" fill="none" xmlns="http://www.w3.org/2000/svg">
<g clip-path="url(#clip0_1524_7358)">
<path d="M32.5018 146.769C32.077 138.696 25.9745 146.891 23.5058 144.679C21.5795 142.951 25.718 138.338 23.7876 136.61C21.8613 134.882 17.7229 139.495 15.7925 137.767C13.862 136.038 18.0005 131.426 16.0742 129.693C14.148 127.965 10.0096 132.578 8.07915 130.85C6.59453 129.521 8.6974 126.489 8.87404 124.37" stroke="#373A3A" stroke-width="1.07335" stroke-linecap="round" stroke-linejoin="round"/>
<path d="M55.8174 242.206L58.9549 236.752" stroke="#373A3A" stroke-width="1.07335" stroke-linecap="round" stroke-linejoin="round"/>
<path d="M-1.57861 160.253L5.73515 160.535" stroke="#373A3A" stroke-width="1.07335" stroke-linecap="round" stroke-linejoin="round"/>
<path d="M17.2258 50.0672L16.6328 43.3018" stroke="#373A3A" stroke-width="1.07335" stroke-linecap="round" stroke-linejoin="round"/>
<path d="M51.4087 41.6412L54.4957 37.0117" stroke="#373A3A" stroke-width="1.07335" stroke-linecap="round" stroke-linejoin="round"/>
<path d="M127.266 5.56055L131.661 9.95453" stroke="#373A3A" stroke-width="1.07335" stroke-linecap="round" stroke-linejoin="round"/>
<path d="M207.797 36.9815C207.797 37.4692 207.671 37.9654 207.41 38.4195L204.74 43.0448C204.584 43.3139 204.391 43.5493 204.168 43.747C203.259 44.5543 201.909 44.7393 200.799 44.1002C199.638 43.4316 199.121 42.0777 199.462 40.8415C199.525 40.6102 199.617 40.3831 199.743 40.1645L202.414 35.5393C202.477 35.4257 202.549 35.3206 202.629 35.2197V35.2113C203.507 34.0886 205.093 33.7564 206.355 34.4839C207.28 35.0179 207.797 35.985 207.797 36.9815Z" fill="white"/>
<path d="M204.169 43.7462L183.8 83.8681C175.654 82.2661 168.349 78.3178 162.625 72.7507L174.413 52.0842C175.654 49.9062 176.192 47.3959 175.952 44.9025L174.914 34.05C174.851 33.3941 175.078 32.7423 175.536 32.2672C175.99 31.792 176.634 31.5397 177.29 31.5776C179.115 31.6785 180.65 32.9862 181.041 34.7732L182.48 41.3579C182.581 41.8246 182.963 42.182 183.439 42.2493C183.91 42.3166 184.377 42.0853 184.608 41.6648L197.254 18.6437C197.944 17.3907 199.496 16.9072 200.775 17.5463C201.885 18.1013 202.402 19.3964 201.982 20.5653L197.595 32.6582C197.507 32.7675 197.423 32.8895 197.351 33.0156L194.681 37.6409C193.886 39.02 194.357 40.7818 195.736 41.5765C197.002 42.3082 198.596 41.9676 199.462 40.8407C199.122 42.0769 199.639 43.4308 200.8 44.0994C201.91 44.7385 203.264 44.5577 204.169 43.7462Z" fill="white"/>
<path d="M201.288 31.961C202.445 32.6296 202.962 33.9793 202.63 35.2113V35.2197C202.546 35.3206 202.474 35.4257 202.411 35.5393L199.74 40.1645C199.614 40.3831 199.522 40.6102 199.459 40.8415C198.592 41.9683 196.998 42.3089 195.732 41.5773C194.353 40.7826 193.882 39.0208 194.677 37.6416L197.347 33.0164C197.419 32.8902 197.503 32.7683 197.591 32.659C198.475 31.5615 200.035 31.2378 201.288 31.961Z" fill="white"/>
<path d="M193.768 292.228V309.363H132.125V292.228C133.681 292.228 135.048 291.417 135.826 290.193H190.067C190.841 291.417 192.212 292.228 193.768 292.228ZM188.288 300.175C188.288 299.322 187.594 298.628 186.741 298.628C185.887 298.628 185.197 299.322 185.197 300.175C185.197 301.029 185.887 301.719 186.741 301.719C187.594 301.719 188.288 301.029 188.288 300.175ZM181.252 300.175C181.252 299.322 180.562 298.628 179.709 298.628C178.855 298.628 178.165 299.322 178.165 300.175C178.165 301.029 178.855 301.719 179.709 301.719C180.562 301.719 181.252 301.029 181.252 300.175ZM174.22 300.175C174.22 299.322 173.53 298.628 172.677 298.628C171.823 298.628 171.129 299.322 171.129 300.175C171.129 301.029 171.823 301.719 172.677 301.719C173.53 301.719 174.22 301.029 174.22 300.175Z" fill="white"/>
<path d="M193.768 270.716V283.473C192.212 283.473 190.845 284.285 190.072 285.508H190.067L135.826 285.504C135.048 284.285 133.681 283.473 132.125 283.473V270.716C133.681 270.716 135.048 269.904 135.826 268.681H190.072C190.845 269.904 192.212 270.716 193.768 270.716ZM188.288 277.094C188.288 276.241 187.594 275.547 186.741 275.547C185.887 275.547 185.197 276.241 185.197 277.094C185.197 277.948 185.887 278.638 186.741 278.638C187.594 278.638 188.288 277.948 188.288 277.094ZM181.252 277.094C181.252 276.241 180.562 275.547 179.709 275.547C178.855 275.547 178.165 276.241 178.165 277.094C178.165 277.948 178.855 278.638 179.709 278.638C180.562 278.638 181.252 277.948 181.252 277.094ZM174.22 277.094C174.22 276.241 173.53 275.547 172.677 275.547C171.823 275.547 171.129 276.241 171.129 277.094C171.129 277.948 171.823 278.638 172.677 278.638C173.53 278.638 174.22 277.948 174.22 277.094Z" fill="white"/>
<path d="M193.768 244.822V261.957C192.212 261.957 190.845 262.768 190.072 263.996H190.067L135.826 263.992C135.048 262.768 133.681 261.957 132.125 261.957V244.822H193.768ZM188.288 254.014C188.288 253.16 187.594 252.467 186.741 252.467C185.887 252.467 185.197 253.16 185.197 254.014C185.197 254.867 185.887 255.557 186.741 255.557C187.594 255.557 188.288 254.867 188.288 254.014ZM181.252 254.014C181.252 253.16 180.562 252.467 179.709 252.467C178.855 252.467 178.165 253.16 178.165 254.014C178.165 254.867 178.855 255.557 179.709 255.557C180.562 255.557 181.252 254.867 181.252 254.014ZM174.22 254.014C174.22 253.16 173.53 252.467 172.677 252.467C171.823 252.467 171.129 253.16 171.129 254.014C171.129 254.867 171.823 255.557 172.677 255.557C173.53 255.557 174.22 254.867 174.22 254.014Z" fill="white"/>
<path d="M190.066 290.192H135.825C136.254 289.515 136.507 288.716 136.507 287.85C136.507 286.984 136.254 286.181 135.825 285.504H190.071C189.637 286.185 189.389 286.988 189.389 287.85C189.389 288.712 189.637 289.519 190.066 290.192Z" fill="#373A3A"/>
<path d="M190.066 263.994H190.071C189.637 264.675 189.389 265.478 189.389 266.34C189.389 267.202 189.637 268.005 190.071 268.682H135.825C136.258 268.005 136.507 267.202 136.507 266.34C136.507 265.478 136.254 264.671 135.825 263.994H190.066Z" fill="#373A3A"/>
<path d="M188.621 239.482V244.822H143.258L144.154 239.482H188.621Z" fill="white"/>
<path d="M114.637 166.299C115.743 178.674 117.792 203.927 117.792 221.587C117.792 239.247 97.5536 290.613 97.5536 290.613C97.5116 290.735 97.4737 290.861 97.4401 290.983H66.0737L78.6573 240.786C82.3583 226.024 82.9723 210.659 80.4657 195.648L75.2254 164.243C83.4013 159.689 84.0911 153.453 82.7621 143.593L129.484 129.478L172.529 128.889C177.155 128.826 181.58 130.798 184.629 134.284C187.674 137.77 189.037 142.416 188.355 146.995L176.436 226.94C176.436 226.94 176.432 226.957 176.432 226.965H146.243L156.127 167.901C156.337 166.652 155.959 165.382 155.101 164.453C154.243 163.524 153.006 163.04 151.744 163.15L114.637 166.299Z" fill="#373A3A"/>
<path d="M186.742 252.468C187.596 252.468 188.289 253.162 188.289 254.015C188.289 254.869 187.596 255.558 186.742 255.558C185.888 255.558 185.198 254.869 185.198 254.015C185.198 253.162 185.888 252.468 186.742 252.468Z" fill="white"/>
<path d="M186.742 275.548C187.596 275.548 188.289 276.242 188.289 277.095C188.289 277.949 187.596 278.638 186.742 278.638C185.888 278.638 185.198 277.949 185.198 277.095C185.198 276.242 185.888 275.548 186.742 275.548Z" fill="white"/>
<path d="M186.742 298.626C187.596 298.626 188.289 299.32 188.289 300.173C188.289 301.027 187.596 301.716 186.742 301.716C185.888 301.716 185.198 301.027 185.198 300.173C185.198 299.32 185.888 298.626 186.742 298.626Z" fill="white"/>
<path d="M183.807 83.8684L177.119 97.0461C174.121 102.958 167.181 105.704 160.944 103.45L146.018 98.0595L153.929 75.2108L155.658 76.1316C157.815 77.2753 160.49 76.5016 161.701 74.3782L162.631 72.751C168.355 78.3181 175.66 82.2664 183.807 83.8684Z" fill="white"/>
<path d="M179.705 252.468C180.558 252.468 181.248 253.162 181.248 254.015C181.248 254.869 180.558 255.558 179.705 255.558C178.851 255.558 178.161 254.869 178.161 254.015C178.161 253.162 178.851 252.468 179.705 252.468Z" fill="white"/>
<path d="M179.705 275.548C180.558 275.548 181.248 276.242 181.248 277.095C181.248 277.949 180.558 278.638 179.705 278.638C178.851 278.638 178.161 277.949 178.161 277.095C178.161 276.242 178.851 275.548 179.705 275.548Z" fill="white"/>
<path d="M179.705 298.626C180.558 298.626 181.248 299.32 181.248 300.173C181.248 301.027 180.558 301.716 179.705 301.716C178.851 301.716 178.161 301.027 178.161 300.173C178.161 299.32 178.851 298.626 179.705 298.626Z" fill="white"/>
<path d="M172.677 252.468C173.53 252.468 174.22 253.162 174.22 254.015C174.22 254.869 173.53 255.558 172.677 255.558C171.823 255.558 171.129 254.869 171.129 254.015C171.129 253.162 171.823 252.468 172.677 252.468Z" fill="white"/>
<path d="M172.677 275.548C173.53 275.548 174.22 276.242 174.22 277.095C174.22 277.949 173.53 278.638 172.677 278.638C171.823 278.638 171.129 277.949 171.129 277.095C171.129 276.242 171.823 275.548 172.677 275.548Z" fill="white"/>
<path d="M172.677 298.626C173.53 298.626 174.22 299.32 174.22 300.173C174.22 301.027 173.53 301.716 172.677 301.716C171.823 301.716 171.129 301.027 171.129 300.173C171.129 299.32 171.823 298.626 172.677 298.626Z" fill="white"/>
<path d="M128.654 91.7895L129.483 129.477L82.7615 143.588L72.3019 146.75L69.4714 130.431C71.3388 127.303 71.7509 123.355 70.2327 119.739L65.8209 109.227H77.1847C80.339 109.227 82.8919 106.67 82.8919 103.517V77.6699C82.8919 74.5163 80.339 71.9598 77.1847 71.9598H60.1011C60.4838 69.9247 61.388 67.9947 62.7591 66.3759C65.0764 63.647 68.4831 62.0744 72.0622 62.0996C76.7305 62.1375 81.1634 62.129 85.4322 62.0828C85.4322 68.9618 102.772 69.8826 102.772 61.6918C105.401 61.6035 108.009 61.5067 110.624 61.4016C121.24 60.9769 131.636 63.3695 141.019 68.3563L153.922 75.2101L146.011 98.0588L128.654 91.7895Z" fill="#4F9D69"/>
<path d="M110.58 304.271V309.362H61.4736L62.748 304.271H110.58Z" fill="white"/>
<path d="M109.249 18.4084C112.727 20.0693 114.464 25.5271 109.846 30.762V25.7794C109.846 25.0604 109.552 24.4044 109.081 23.9293C108.605 23.4584 107.954 23.164 107.23 23.164C106.229 23.164 105.287 23.6854 104.808 24.56C103.899 26.2083 102.141 27.3267 100.123 27.3267C98.1038 27.3267 96.35 26.2083 95.4373 24.56C94.9579 23.6854 94.0158 23.164 93.0191 23.164H91.6732C87.6231 23.164 84.3384 26.4479 84.3384 30.4971V34.046H81.6552C81.1379 34.046 80.65 34.1595 80.2042 34.3655C78.6018 27.886 77.3065 18.6986 81.8991 16.3439C83.3417 15.2969 86.1511 15.9402 87.7493 15.4777C92.4975 14.0943 91.4629 10.1713 98.9702 10.8609C103.996 11.3192 104.278 16.0327 109.249 18.4084Z" fill="#373A3A"/>
<path d="M109.843 30.7628V44.525C109.843 49.1124 106.886 53.0102 102.773 54.4146C101.713 54.7804 100.573 54.978 99.3874 54.978H93.6592C90.1012 54.978 87.0058 52.9766 85.4328 50.05C84.7305 48.7423 84.3351 47.2455 84.3351 45.6603V42.759H81.6519C79.6794 42.759 78.0223 41.0897 77.8079 38.8822C77.6102 36.8807 78.6448 35.0726 80.2009 34.3704C80.6467 34.1644 81.1346 34.0509 81.6519 34.0509H84.3351V30.5021C84.3351 26.4529 87.6198 23.1689 91.6699 23.1689H93.0158C94.0125 23.1689 94.9546 23.6903 95.4341 24.5649C96.3467 26.2132 98.1005 27.3317 100.119 27.3317C102.138 27.3317 103.896 26.2132 104.804 24.5649C105.284 23.6903 106.226 23.1689 107.227 23.1689C107.95 23.1689 108.602 23.4633 109.077 23.9342C109.548 24.4094 109.843 25.0653 109.843 25.7843V30.767V30.7628Z" fill="white"/>
<path d="M102.776 54.4144V61.6928C102.776 69.8837 85.4355 68.9629 85.4355 62.0839V50.0498C87.0085 52.9805 90.1039 54.9778 93.662 54.9778H99.3902C100.576 54.9778 101.716 54.7802 102.776 54.4144Z" fill="white"/>
<path d="M82.8971 77.671V103.518C82.8971 106.671 80.3442 109.228 77.1899 109.228H37.7612C34.6069 109.228 32.0498 106.671 32.0498 103.518V89.785C33.69 90.6595 35.5616 91.1557 37.5467 91.1557H45.8488C47.426 91.1557 48.8012 89.9363 48.8517 88.3595C48.898 86.7281 47.59 85.391 45.9708 85.391H50.0545C51.6317 85.391 53.007 84.1758 53.0574 82.599C53.1037 80.9633 51.7957 79.6262 50.1765 79.6262H50.0545C51.6317 79.6262 53.007 78.4111 53.0574 76.8343C53.1037 75.2028 51.7957 73.8615 50.1765 73.8615H41.6136C41.6136 73.3401 41.8281 72.8608 42.173 72.5202C42.5179 72.1754 42.9931 71.9609 43.5188 71.9609H77.1899C80.3442 71.9609 82.8971 74.5174 82.8971 77.671ZM60.9684 91.6014C61.5025 91.0674 61.5025 90.2012 60.9684 89.6672L58.4576 87.157C57.9235 86.623 57.0571 86.623 56.5229 87.157L54.0121 89.6672C53.4822 90.2012 53.4822 91.0674 54.0121 91.6014L56.5229 94.1117C57.0571 94.6415 57.9235 94.6415 58.4576 94.1117L60.9684 91.6014Z" fill="white"/>
<path d="M82.759 143.593C84.088 153.453 83.3982 159.689 75.2223 164.242L72.2993 146.751L82.759 143.593Z" fill="#373A3A"/>
<path d="M70.229 119.739C71.7473 123.356 71.3351 127.304 69.4678 130.432C68.2103 132.53 66.2967 134.267 63.87 135.284C57.8221 137.82 50.8616 134.973 48.3214 128.927L40.0571 109.228H65.8172L70.229 119.739Z" fill="white"/>
<path d="M60.969 89.6676C61.5031 90.2016 61.5031 91.0678 60.969 91.6018L58.4581 94.112C57.924 94.6418 57.0576 94.6418 56.5235 94.112L54.0127 91.6018C53.4828 91.0678 53.4828 90.2016 54.0127 89.6676L56.5235 87.1573C57.0576 86.6233 57.924 86.6233 58.4581 87.1573L60.969 89.6676Z" fill="#373A3A"/>
<path d="M45.9639 85.3899C47.5832 85.3899 48.8911 86.727 48.8449 88.3585C48.7944 89.9353 47.4191 91.1546 45.842 91.1546H37.5399C35.5548 91.1546 33.6832 90.6585 32.043 89.7839C28.2662 87.7698 25.726 83.7459 25.8564 79.1374C26.0288 72.7714 31.4121 67.7761 37.7838 67.7761H41.6068C42.6246 67.7761 43.8989 67.5239 45.0008 67.1833C45.9597 66.8805 47.0448 67.28 47.5705 68.2471C47.7766 68.6339 47.8313 69.0712 47.7976 69.5085C47.7262 70.3453 47.3939 71.1568 46.6453 71.9599H43.512C42.9863 71.9599 42.511 72.1743 42.1662 72.5191C41.8213 72.8597 41.6068 73.3391 41.6068 73.8604H50.1697C51.7889 73.8604 53.0969 75.2018 53.0506 76.8332C53.0001 78.41 51.6249 79.6252 50.0477 79.6252H50.1697C51.7889 79.6252 53.0969 80.9623 53.0506 82.5979C53.0001 84.1747 51.6249 85.3899 50.0477 85.3899H45.9639Z" fill="white"/>
<path d="M45.5764 179.985L51.3761 195.068L41.0973 209.885L34.8687 194.113L45.5764 179.985Z" fill="#373A3A"/>
<path d="M45.579 179.985L34.8713 194.113L16.0043 187.84H15.9959L15.9707 187.835L15.9833 187.806L27.1033 174.376L45.579 179.985Z" fill="white"/>
<path d="M34.8649 194.113L41.0936 209.885L22.0206 203.179L15.998 187.84L34.8649 194.113Z" fill="#4F9D69"/>
<path d="M85.4328 50.0461C84.7304 48.7384 84.3351 47.2415 84.3351 45.6563V42.7551H81.6518C79.6793 42.7551 78.0223 41.0858 77.8078 38.8783C77.6101 36.8768 78.6489 35.0771 80.2008 34.3665C80.6466 34.1605 81.1345 34.047 81.6518 34.047H84.3351V30.4982C84.3351 26.449 87.6197 23.165 91.6699 23.165H93.0157C94.0125 23.165 94.9545 23.6864 95.434 24.561C96.3466 26.2093 98.1004 27.3278 100.119 27.3278C102.138 27.3278 103.896 26.2093 104.804 24.561C105.284 23.6864 106.226 23.165 107.227 23.165C107.95 23.165 108.602 23.4594 109.077 23.9303C109.548 24.4054 109.843 25.0614 109.843 25.7804V44.5253C109.843 49.1127 106.882 53.0063 102.773 54.4149C101.713 54.7807 100.573 54.9783 99.3874 54.9783H93.6592C90.1011 54.9783 87.0057 52.981 85.4328 50.0503V50.0461Z" stroke="#373A3A" stroke-width="1.07335" stroke-linecap="round" stroke-linejoin="round"/>
<path d="M82.7632 143.594L72.3036 146.751L69.4731 130.433" stroke="#373A3A" stroke-width="1.07335" stroke-linecap="round" stroke-linejoin="round"/>
<path d="M128.484 84.126L129.481 129.479L82.7593 143.59" stroke="#373A3A" stroke-width="1.07335" stroke-linecap="round" stroke-linejoin="round"/>
<path d="M60.1011 71.9609C60.4838 69.9257 61.388 67.9958 62.7591 66.3769C65.0764 63.648 68.4831 62.0754 72.0622 62.1007C76.7305 62.1385 81.1634 62.1301 85.4322 62.0839V50.0498" stroke="#373A3A" stroke-width="1.07335" stroke-linecap="round" stroke-linejoin="round"/>
<path d="M98.8829 33.5C98.3572 36.9101 102.714 42.1871 97.6128 41.6446" stroke="#373A3A" stroke-width="1.07335" stroke-linecap="round" stroke-linejoin="round"/>
<path d="M93.23 38.0588V35.498" stroke="#373A3A" stroke-width="1.61003" stroke-linecap="round" stroke-linejoin="round"/>
<path d="M103.282 38.0588V35.498" stroke="#373A3A" stroke-width="1.61003" stroke-linecap="round" stroke-linejoin="round"/>
<path d="M89.8936 33.1716C92.745 31.9564 94.4273 31.9102 94.4273 31.9102" stroke="#373A3A" stroke-width="1.61003" stroke-linecap="round" stroke-linejoin="round"/>
<path d="M106.164 33.1716C103.317 31.9564 101.634 31.9102 101.634 31.9102" stroke="#373A3A" stroke-width="1.61003" stroke-linecap="round" stroke-linejoin="round"/>
<path d="M94.9995 45.1357C95.9164 46.7378 98.0907 46.9858 99.2473 46.4602" stroke="#373A3A" stroke-width="1.07335" stroke-linecap="round" stroke-linejoin="round"/>
<path d="M80.2042 34.3655C78.6018 27.886 77.3065 18.6986 81.8991 16.3439C83.3417 15.2969 86.1511 15.9402 87.7493 15.4777C92.4975 14.0943 91.4629 10.1713 98.9702 10.8609C103.996 11.3192 104.278 16.0327 109.249 18.4084C112.727 20.0693 114.464 25.5271 109.846 30.762" stroke="#373A3A" stroke-width="1.07335" stroke-linecap="round" stroke-linejoin="round"/>
<path d="M82.6921 36.4551C81.1024 36.4551 79.542 38.0445 81.0729 39.9366" stroke="#373A3A" stroke-width="1.07335" stroke-linecap="round" stroke-linejoin="round"/>
<path d="M129.482 129.478L172.528 128.889C177.154 128.826 181.579 130.798 184.628 134.284C187.673 137.77 189.036 142.416 188.354 146.995L176.435 226.94C176.435 226.94 176.431 226.957 176.431 226.965C175.476 233.277 180.624 238.634 188.619 239.483V244.823" stroke="#373A3A" stroke-width="1.07335" stroke-linecap="round" stroke-linejoin="round"/>
<path d="M143.259 244.823L156.129 167.901C156.339 166.653 155.96 165.383 155.102 164.453C154.245 163.524 153.008 163.041 151.746 163.15L114.639 166.299" stroke="#373A3A" stroke-width="1.07335" stroke-linecap="round" stroke-linejoin="round"/>
<path d="M72.3076 146.751L80.4709 195.648C82.9775 210.659 82.3635 226.023 78.6624 240.786L61.4736 309.362H110.58V304.27C102.223 301.928 95.6956 297.277 97.4452 290.983C97.4789 290.861 97.5167 290.735 97.5588 290.613C97.5588 290.613 117.797 239.462 117.797 221.587C117.797 203.713 115.753 178.674 114.642 166.299C114.23 161.707 113.949 158.89 113.949 158.89" stroke="#373A3A" stroke-width="1.07335" stroke-linecap="round" stroke-linejoin="round"/>
<path d="M85.4355 62.0834C85.4355 68.9624 102.776 69.8833 102.776 61.6924" stroke="#373A3A" stroke-width="1.07335" stroke-linecap="round" stroke-linejoin="round"/>
<path d="M110.573 304.271H62.7417" stroke="#373A3A" stroke-width="1.07335" stroke-linecap="round" stroke-linejoin="round"/>
<path d="M97.4401 290.982H66.0737" stroke="#373A3A" stroke-width="1.07335" stroke-linecap="round" stroke-linejoin="round"/>
<path d="M82.7652 143.589C84.0942 153.453 83.4045 159.689 75.2285 164.243" stroke="white" stroke-width="1.07335" stroke-linecap="round" stroke-linejoin="round"/>
<path d="M38.943 79.6262H50.0545C51.6317 79.6262 53.007 78.4111 53.0574 76.8343C53.1037 75.2028 51.7957 73.8615 50.1765 73.8615H41.6136C41.6136 73.3401 41.8281 72.8608 42.173 72.5202C42.5179 72.1754 42.9931 71.9609 43.5188 71.9609H77.1899C80.3442 71.9609 82.8971 74.5174 82.8971 77.671V103.518C82.8971 106.671 80.3442 109.228 77.1899 109.228H37.7612C34.6069 109.228 32.0498 106.671 32.0498 103.518V89.7849" stroke="#373A3A" stroke-width="1.07335" stroke-linecap="round" stroke-linejoin="round"/>
<path d="M38.9404 85.3907H50.052C51.6291 85.3907 53.0044 84.1755 53.0549 82.5988C53.1011 80.9631 51.7931 79.626 50.1739 79.626H50.052" stroke="#373A3A" stroke-width="1.07335" stroke-linecap="round" stroke-linejoin="round"/>
<path d="M46.6453 71.9599C47.3939 71.1568 47.7261 70.3453 47.7976 69.5085C47.8313 69.0712 47.7766 68.6339 47.5705 68.2471C47.0448 67.28 45.9597 66.8805 45.0008 67.1833C43.8989 67.5239 42.6246 67.7761 41.6068 67.7761H37.7838C31.4121 67.7761 26.0288 72.7714 25.8564 79.1374C25.726 83.7459 28.2662 87.7698 32.043 89.7839C33.6832 90.6585 35.5548 91.1546 37.5399 91.1546H45.842C47.4191 91.1546 48.7944 89.9353 48.8449 88.3585C48.8911 86.727 47.5832 85.3899 45.9639 85.3899" stroke="#373A3A" stroke-width="1.07335" stroke-linecap="round" stroke-linejoin="round"/>
<path d="M65.8172 109.228L70.229 119.739C71.7473 123.356 71.3393 127.304 69.4678 130.432C68.2103 132.53 66.2967 134.267 63.87 135.284C57.8221 137.82 50.8616 134.973 48.3214 128.927L40.0571 109.228" stroke="#373A3A" stroke-width="1.07335" stroke-linecap="round" stroke-linejoin="round"/>
<path d="M56.5235 94.112L54.0127 91.6018C53.4828 91.0678 53.4828 90.2016 54.0127 89.6676L56.5235 87.1573C57.0576 86.6233 57.924 86.6233 58.4581 87.1573L60.969 89.6676C61.5031 90.2016 61.5031 91.0678 60.969 91.6018L58.4581 94.112C57.924 94.6418 57.0576 94.6418 56.5235 94.112Z" stroke="#373A3A" stroke-width="1.07335" stroke-linecap="round" stroke-linejoin="round"/>
<path d="M188.618 239.482H144.151" stroke="#373A3A" stroke-width="1.07335" stroke-linecap="round" stroke-linejoin="round"/>
<path d="M146.245 226.965H176.433" stroke="#373A3A" stroke-width="1.07335" stroke-linecap="round" stroke-linejoin="round"/>
<path d="M190.072 268.68C190.85 269.904 192.212 270.715 193.768 270.715V283.472C192.212 283.472 190.85 284.284 190.072 285.508C189.638 286.185 189.39 286.988 189.39 287.85C189.39 288.712 189.638 289.515 190.067 290.192C190.845 291.415 192.212 292.227 193.768 292.227V309.361H132.125V292.227C133.681 292.227 135.048 291.415 135.826 290.192C136.255 289.515 136.507 288.716 136.507 287.85C136.507 286.983 136.255 286.18 135.826 285.503C135.048 284.284 133.681 283.472 132.125 283.472V270.715C133.681 270.715 135.048 269.904 135.826 268.68C136.259 268.003 136.507 267.2 136.507 266.338C136.507 265.476 136.255 264.669 135.826 263.992C135.048 262.768 133.681 261.957 132.125 261.957V244.822H193.768V261.957C192.212 261.957 190.85 262.772 190.072 263.996C189.643 264.673 189.39 265.476 189.39 266.338C189.39 267.2 189.638 268.003 190.072 268.68Z" stroke="#373A3A" stroke-width="1.07335" stroke-linecap="round" stroke-linejoin="round"/>
<path d="M135.825 263.994H190.066" stroke="#373A3A" stroke-width="1.07335" stroke-linecap="round" stroke-linejoin="round"/>
<path d="M190.071 268.681H135.825" stroke="#373A3A" stroke-width="1.07335" stroke-linecap="round" stroke-linejoin="round"/>
<path d="M135.825 285.504H190.066" stroke="#373A3A" stroke-width="1.07335" stroke-linecap="round" stroke-linejoin="round"/>
<path d="M190.066 290.193H135.825" stroke="#373A3A" stroke-width="1.07335" stroke-linecap="round" stroke-linejoin="round"/>
<path d="M174.22 254.015C174.22 253.162 173.53 252.468 172.677 252.468C171.823 252.468 171.129 253.162 171.129 254.015C171.129 254.869 171.823 255.558 172.677 255.558C173.53 255.558 174.22 254.869 174.22 254.015Z" stroke="#373A3A" stroke-width="1.07335" stroke-linecap="round" stroke-linejoin="round"/>
<path d="M181.248 254.015C181.248 253.162 180.558 252.468 179.705 252.468C178.851 252.468 178.161 253.162 178.161 254.015C178.161 254.869 178.851 255.558 179.705 255.558C180.558 255.558 181.248 254.869 181.248 254.015Z" stroke="#373A3A" stroke-width="1.07335" stroke-linecap="round" stroke-linejoin="round"/>
<path d="M188.289 254.015C188.289 253.162 187.596 252.468 186.742 252.468C185.888 252.468 185.198 253.162 185.198 254.015C185.198 254.869 185.888 255.558 186.742 255.558C187.596 255.558 188.289 254.869 188.289 254.015Z" stroke="#373A3A" stroke-width="1.07335" stroke-linecap="round" stroke-linejoin="round"/>
<path d="M174.22 277.095C174.22 276.242 173.53 275.548 172.677 275.548C171.823 275.548 171.129 276.242 171.129 277.095C171.129 277.949 171.823 278.638 172.677 278.638C173.53 278.638 174.22 277.949 174.22 277.095Z" stroke="#373A3A" stroke-width="1.07335" stroke-linecap="round" stroke-linejoin="round"/>
<path d="M181.248 277.095C181.248 276.242 180.558 275.548 179.705 275.548C178.851 275.548 178.161 276.242 178.161 277.095C178.161 277.949 178.851 278.638 179.705 278.638C180.558 278.638 181.248 277.949 181.248 277.095Z" stroke="#373A3A" stroke-width="1.07335" stroke-linecap="round" stroke-linejoin="round"/>
<path d="M188.289 277.095C188.289 276.242 187.596 275.548 186.742 275.548C185.888 275.548 185.198 276.242 185.198 277.095C185.198 277.949 185.888 278.638 186.742 278.638C187.596 278.638 188.289 277.949 188.289 277.095Z" stroke="#373A3A" stroke-width="1.07335" stroke-linecap="round" stroke-linejoin="round"/>
<path d="M174.22 300.173C174.22 299.32 173.53 298.626 172.677 298.626C171.823 298.626 171.129 299.32 171.129 300.173C171.129 301.027 171.823 301.716 172.677 301.716C173.53 301.716 174.22 301.027 174.22 300.173Z" stroke="#373A3A" stroke-width="1.07335" stroke-linecap="round" stroke-linejoin="round"/>
<path d="M181.248 300.173C181.248 299.32 180.558 298.626 179.705 298.626C178.851 298.626 178.161 299.32 178.161 300.173C178.161 301.027 178.851 301.716 179.705 301.716C180.558 301.716 181.248 301.027 181.248 300.173Z" stroke="#373A3A" stroke-width="1.07335" stroke-linecap="round" stroke-linejoin="round"/>
<path d="M188.289 300.173C188.289 299.32 187.596 298.626 186.742 298.626C185.888 298.626 185.198 299.32 185.198 300.173C185.198 301.027 185.888 301.716 186.742 301.716C187.596 301.716 188.289 301.027 188.289 300.173Z" stroke="#373A3A" stroke-width="1.07335" stroke-linecap="round" stroke-linejoin="round"/>
<path d="M15.9707 187.835L15.9833 187.806L27.1033 174.376L45.579 179.985L34.8712 194.113L41.0999 209.885L51.3787 195.068L45.579 179.985" stroke="#373A3A" stroke-width="1.07335" stroke-linecap="round" stroke-linejoin="round"/>
<path d="M41.0936 209.885L22.0206 203.179L15.998 187.84" stroke="#373A3A" stroke-width="1.07335" stroke-linecap="round" stroke-linejoin="round"/>
<path d="M34.8712 194.114L16.0043 187.84H15.9959L15.9707 187.836" stroke="#373A3A" stroke-width="1.07335" stroke-linecap="round" stroke-linejoin="round"/>
<path d="M61.4683 309.363H45.1206" stroke="#373A3A" stroke-width="1.07335" stroke-linecap="round" stroke-linejoin="round"/>
<path d="M110.571 309.363H132.121" stroke="#373A3A" stroke-width="1.07335" stroke-linecap="round" stroke-linejoin="round"/>
<path d="M193.772 309.363H222.338" stroke="#373A3A" stroke-width="1.07335" stroke-linecap="round" stroke-linejoin="round"/>
<path d="M197.593 32.6592L201.98 20.5663C202.401 19.3974 201.883 18.1023 200.773 17.5473C199.494 16.9081 197.942 17.3917 197.253 18.6447L184.606 41.6658C184.375 42.0863 183.908 42.3175 183.437 42.2503C182.962 42.183 182.579 41.8256 182.478 41.3589L181.04 34.7742C180.648 32.9872 179.113 31.6795 177.288 31.5786C176.632 31.5407 175.989 31.793 175.534 32.2681C175.076 32.7433 174.849 33.395 174.912 34.051L175.951 44.9035C176.19 47.3969 175.652 49.9072 174.411 52.0852L161.693 74.3789C160.482 76.5023 157.807 77.276 155.65 76.1323L141.018 68.3577C131.635 63.3708 121.238 60.9783 110.623 61.403C108.007 61.5081 105.4 61.6048 102.771 61.6931V54.4147" stroke="#373A3A" stroke-width="1.07335" stroke-linecap="round" stroke-linejoin="round"/>
<path d="M128.66 91.7907L160.943 103.451C167.18 105.704 174.119 102.959 177.118 97.0467L204.174 43.7471" stroke="#373A3A" stroke-width="1.07335" stroke-linecap="round" stroke-linejoin="round"/>
<path d="M199.459 40.8415C198.592 41.9683 196.998 42.3089 195.732 41.5773C194.353 40.7826 193.882 39.0208 194.677 37.6416L197.347 33.0164C197.419 32.8902 197.503 32.7683 197.591 32.659C198.475 31.5615 200.035 31.2378 201.288 31.961C202.445 32.6296 202.962 33.9793 202.63 35.2113" stroke="#373A3A" stroke-width="1.07335" stroke-linecap="round" stroke-linejoin="round"/>
<path d="M204.168 43.747C203.259 44.5543 201.909 44.7393 200.799 44.1002C199.638 43.4316 199.121 42.0777 199.462 40.8415C199.525 40.6102 199.617 40.3831 199.743 40.1645L202.414 35.5393C202.477 35.4257 202.549 35.3206 202.629 35.2197V35.2113C203.507 34.0886 205.093 33.7564 206.355 34.4839C207.28 35.0179 207.797 35.985 207.797 36.9815C207.797 37.4692 207.671 37.9654 207.41 38.4195L204.74 43.0448C204.584 43.3139 204.391 43.5493 204.168 43.747Z" stroke="#373A3A" stroke-width="1.07335" stroke-linecap="round" stroke-linejoin="round"/>
<path d="M153.929 75.2109L146.018 98.0596" stroke="#373A3A" stroke-width="1.07335" stroke-linecap="round" stroke-linejoin="round"/>
</g>
<defs>
<clipPath id="clip0_1524_7358">
<rect width="263.888" height="309.782" fill="white" transform="translate(-2)"/>
</clipPath>
</defs>
</svg>
