<svg width="40" height="41" viewBox="0 0 40 41" fill="none" xmlns="http://www.w3.org/2000/svg">
<path d="M16.5854 5.18908C16.9735 5.18908 17.3457 5.34326 17.6202 5.61771C17.8946 5.89215 18.0488 6.26438 18.0488 6.6525V22.2623H33.6585C34.0122 22.2623 34.3538 22.3903 34.6204 22.6228C34.8869 22.8552 35.0602 23.1763 35.1083 23.5266L35.122 23.7257C35.122 33.4232 27.2585 40.311 17.561 40.311C12.9035 40.311 8.43681 38.4609 5.14349 35.1675C1.85017 31.8742 0 27.4075 0 22.7501C0 13.0525 6.88781 5.18908 16.5854 5.18908ZM22.439 0.311035C27.0965 0.311035 31.5632 2.1612 34.8565 5.45453C38.1498 8.74785 40 13.2146 40 17.872C40 18.2601 39.8458 18.6324 39.5714 18.9068C39.2969 19.1812 38.9247 19.3354 38.5366 19.3354H22.439C22.0509 19.3354 21.6787 19.1812 21.4042 18.9068C21.1298 18.6324 20.9756 18.2601 20.9756 17.872V1.77445C20.9756 1.38633 21.1298 1.0141 21.4042 0.739659C21.6787 0.465216 22.0509 0.311035 22.439 0.311035Z" fill="#4F9D69"/>
</svg>
