<svg width="40" height="41" viewBox="0 0 40 41" fill="none" xmlns="http://www.w3.org/2000/svg">
<path d="M30.7672 1.85222C30.7677 1.54755 30.6778 1.24957 30.5088 0.996072C30.3397 0.742572 30.0993 0.544963 29.8178 0.428296C29.5364 0.311629 29.2266 0.281158 28.9278 0.340747C28.629 0.400336 28.3547 0.547301 28.1395 0.76301L21.9858 6.91674C21.843 7.05987 21.7299 7.22974 21.6528 7.41663C21.5757 7.60353 21.5362 7.80378 21.5366 8.00594V16.5996L19.2566 18.8765C18.8005 18.7555 18.3227 18.7407 17.86 18.8335C17.3973 18.9262 16.9621 19.1239 16.5879 19.4113C16.2136 19.6988 15.9104 20.0683 15.7015 20.4914C15.4925 20.9145 15.3835 21.3799 15.3828 21.8518C15.383 22.2897 15.4767 22.7225 15.6576 23.1213C15.8384 23.5201 16.1023 23.8757 16.4316 24.1643C16.7609 24.4529 17.148 24.6679 17.5671 24.7949C17.9861 24.922 18.4274 24.9581 18.8616 24.9009C19.2957 24.8437 19.7126 24.6945 20.0845 24.4633C20.4563 24.2321 20.7745 23.9241 21.0178 23.5601C21.2612 23.196 21.424 22.7842 21.4954 22.3522C21.5668 21.9202 21.5452 21.4779 21.4319 21.0549L23.7119 18.775H32.3056C32.5077 18.7753 32.708 18.7358 32.8949 18.6588C33.0818 18.5817 33.2517 18.4685 33.3948 18.3257L39.5485 12.172C39.7642 11.9569 39.9112 11.6825 39.9708 11.3837C40.0304 11.0849 39.9999 10.7752 39.8832 10.4937C39.7666 10.2122 39.569 9.97178 39.3155 9.80277C39.062 9.63376 38.764 9.54383 38.4593 9.54438H30.7672V1.85222ZM36.7486 19.3226C37.278 23.1539 36.5908 27.0546 34.784 30.4742C32.9772 33.8939 30.142 36.6597 26.6787 38.3813C23.2154 40.1028 19.2988 40.6932 15.4819 40.069C11.6649 39.4449 8.14045 37.6377 5.4059 34.9026C2.67134 32.1675 0.864851 28.6426 0.241428 24.8256C-0.381994 21.0086 0.209139 17.0921 1.93138 13.6291C3.65363 10.1661 6.42 7.33147 9.83999 5.52533C13.26 3.71918 17.1609 3.03276 20.992 3.56296L19.8135 4.74139C19.3845 5.16992 19.0441 5.6788 18.8118 6.23895C18.5795 6.7991 18.4598 7.39954 18.4597 8.00594C15.7212 8.00594 13.0443 8.81799 10.7673 10.3394C8.4904 11.8608 6.71574 14.0232 5.66778 16.5532C4.61981 19.0832 4.34562 21.8672 4.87987 24.553C5.41411 27.2389 6.7328 29.706 8.66918 31.6423C10.6056 33.5787 13.0727 34.8974 15.7585 35.4317C18.4443 35.9659 21.2283 35.6917 23.7583 34.6438C26.2883 33.5958 28.4507 31.8211 29.9721 29.5442C31.4935 27.2672 32.3056 24.5903 32.3056 21.8518C33.5292 21.8507 34.7024 21.3638 35.5671 20.498L36.7486 19.3226ZM18.4597 11.0828C16.3298 11.0828 14.2477 11.7144 12.4768 12.8977C10.7058 14.081 9.32551 15.7629 8.51043 17.7307C7.69534 19.6985 7.48208 21.8638 7.89761 23.9528C8.31313 26.0417 9.33878 27.9606 10.8449 29.4667C12.3509 30.9727 14.2698 31.9984 16.3588 32.4139C18.4478 32.8294 20.613 32.6162 22.5808 31.8011C24.5486 30.986 26.2305 29.6057 27.4138 27.8348C28.5971 26.0638 29.2287 23.9817 29.2287 21.8518H24.9857L24.6011 22.2364C24.5272 23.4185 24.1137 24.5541 23.4102 25.5069C22.7068 26.4598 21.7434 27.1894 20.6356 27.6082C19.5277 28.027 18.3226 28.1173 17.1647 27.8681C16.0069 27.6189 14.9455 27.0409 14.1081 26.2035C13.2706 25.366 12.6926 24.3046 12.4434 23.1468C12.1942 21.9889 12.2845 20.7838 12.7033 19.676C13.1221 18.5681 13.8518 17.6047 14.8046 16.9013C15.7575 16.1979 16.893 15.7844 18.0751 15.7104L18.4597 15.3258V11.0828Z" fill="#4F9D69"/>
</svg>
