<svg width="36" height="41" viewBox="0 0 36 41" fill="none" xmlns="http://www.w3.org/2000/svg">
<path d="M14.25 0.311035C13.2554 0.311035 12.3016 0.706123 11.5983 1.40938C10.8951 2.11265 10.5 3.06647 10.5 4.06104V6.56104C10.5 7.5556 10.8951 8.50942 11.5983 9.21269C12.3016 9.91595 13.2554 10.311 14.25 10.311H21.75C22.7446 10.311 23.6984 9.91595 24.4017 9.21269C25.1049 8.50942 25.5 7.5556 25.5 6.56104V4.06104C25.5 3.06647 25.1049 2.11265 24.4017 1.40938C23.6984 0.706123 22.7446 0.311035 21.75 0.311035L14.25 0.311035ZM21.75 2.81104C22.0815 2.81104 22.3995 2.94273 22.6339 3.17715C22.8683 3.41157 23 3.72951 23 4.06104V6.56104C23 6.89256 22.8683 7.2105 22.6339 7.44492C22.3995 7.67934 22.0815 7.81104 21.75 7.81104H14.25C13.9185 7.81104 13.6005 7.67934 13.3661 7.44492C13.1317 7.2105 13 6.89256 13 6.56104V4.06104C13 3.72951 13.1317 3.41157 13.3661 3.17715C13.6005 2.94273 13.9185 2.81104 14.25 2.81104H21.75Z" fill="#4F9D69"/>
<path d="M8 4.06104H5.5C4.17392 4.06104 2.90215 4.58782 1.96447 5.5255C1.02678 6.46318 0.5 7.73495 0.5 9.06104V35.311C0.5 36.6371 1.02678 37.9089 1.96447 38.8466C2.90215 39.7842 4.17392 40.311 5.5 40.311H30.5C31.8261 40.311 33.0979 39.7842 34.0355 38.8466C34.9732 37.9089 35.5 36.6371 35.5 35.311V9.06104C35.5 7.73495 34.9732 6.46318 34.0355 5.5255C33.0979 4.58782 31.8261 4.06104 30.5 4.06104H28V6.56104C28 7.3818 27.8383 8.19452 27.5242 8.95281C27.2102 9.71109 26.7498 10.4001 26.1694 10.9805C25.5891 11.5608 24.9001 12.0212 24.1418 12.3353C23.3835 12.6494 22.5708 12.811 21.75 12.811H14.25C12.5924 12.811 11.0027 12.1526 9.83058 10.9805C8.65848 9.80835 8 8.21864 8 6.56104V4.06104ZM23 20.311C23 19.648 23.2634 19.0121 23.7322 18.5433C24.2011 18.0744 24.837 17.811 25.5 17.811C26.163 17.811 26.7989 18.0744 27.2678 18.5433C27.7366 19.0121 28 19.648 28 20.311V32.811C28 33.4741 27.7366 34.11 27.2678 34.5788C26.7989 35.0476 26.163 35.311 25.5 35.311C24.837 35.311 24.2011 35.0476 23.7322 34.5788C23.2634 34.11 23 33.4741 23 32.811V20.311ZM8 30.311C8 29.648 8.26339 29.0121 8.73223 28.5433C9.20107 28.0744 9.83696 27.811 10.5 27.811C11.163 27.811 11.7989 28.0744 12.2678 28.5433C12.7366 29.0121 13 29.648 13 30.311V32.811C13 33.4741 12.7366 34.11 12.2678 34.5788C11.7989 35.0476 11.163 35.311 10.5 35.311C9.83696 35.311 9.20107 35.0476 8.73223 34.5788C8.26339 34.11 8 33.4741 8 32.811V30.311ZM18 22.811C18.663 22.811 19.2989 23.0744 19.7678 23.5433C20.2366 24.0121 20.5 24.648 20.5 25.311V32.811C20.5 33.4741 20.2366 34.11 19.7678 34.5788C19.2989 35.0476 18.663 35.311 18 35.311C17.337 35.311 16.7011 35.0476 16.2322 34.5788C15.7634 34.11 15.5 33.4741 15.5 32.811V25.311C15.5 24.648 15.7634 24.0121 16.2322 23.5433C16.7011 23.0744 17.337 22.811 18 22.811Z" fill="#4F9D69"/>
</svg>
