<svg width="40" height="41" viewBox="0 0 40 41" fill="none" xmlns="http://www.w3.org/2000/svg">
<g clip-path="url(#clip0_1531_11996)">
<path d="M36 8.31104H34V24.311C34 25.411 33.1 26.311 32 26.311H8V28.311C8 30.511 9.8 32.311 12 32.311H32L40 40.311V12.311C40 10.111 38.2 8.31104 36 8.31104ZM30 18.311V4.31104C30 2.11104 28.2 0.311035 26 0.311035H4C1.8 0.311035 0 2.11104 0 4.31104V30.311L8 22.311H26C28.2 22.311 30 20.511 30 18.311Z" fill="#4F9D69"/>
</g>
<defs>
<clipPath id="clip0_1531_11996">
<rect width="40" height="40" fill="white" transform="translate(0 0.311035)"/>
</clipPath>
</defs>
</svg>
