<svg width="45" height="41" viewBox="0 0 45 41" fill="none" xmlns="http://www.w3.org/2000/svg">
<path fill-rule="evenodd" clip-rule="evenodd" d="M0 4.75548C0 3.57674 0.468252 2.44628 1.30175 1.61278C2.13524 0.779288 3.2657 0.311035 4.44444 0.311035H16.7111C17.3773 0.311118 18.0349 0.460943 18.6353 0.749431C19.2357 1.03792 19.7637 1.45769 20.18 1.9777L23.2911 5.86659H40C41.1787 5.86659 42.3092 6.33484 43.1427 7.16834C43.9762 8.00183 44.4444 9.1323 44.4444 10.311V35.8666C44.4444 37.0453 43.9762 38.1758 43.1427 39.0093C42.3092 39.8428 41.1787 40.311 40 40.311H4.44444C3.2657 40.311 2.13524 39.8428 1.30175 39.0093C0.468252 38.1758 0 37.0453 0 35.8666V4.75548ZM20.6511 16.251C21.0678 15.8344 21.633 15.6004 22.2222 15.6004C22.8115 15.6004 23.3766 15.8344 23.7933 16.251L28.5067 20.9644C28.7189 21.1694 28.8882 21.4146 29.0047 21.6857C29.1211 21.9568 29.1824 22.2484 29.185 22.5435C29.1876 22.8385 29.1313 23.1312 29.0196 23.4043C28.9079 23.6774 28.7429 23.9255 28.5342 24.1341C28.3256 24.3428 28.0774 24.5078 27.8043 24.6195C27.5312 24.7313 27.2386 24.7875 26.9436 24.7849C26.6485 24.7824 26.3569 24.7211 26.0858 24.6046C25.8146 24.4881 25.5694 24.3188 25.3644 24.1066L24.4444 23.1866V29.1999C24.4444 29.7893 24.2103 30.3545 23.7936 30.7713C23.3768 31.188 22.8116 31.4221 22.2222 31.4221C21.6329 31.4221 21.0676 31.188 20.6509 30.7713C20.2341 30.3545 20 29.7893 20 29.1999V23.1866L19.08 24.1066C18.875 24.3188 18.6298 24.4881 18.3587 24.6046C18.0876 24.7211 17.796 24.7824 17.5009 24.7849C17.2058 24.7875 16.9132 24.7313 16.6401 24.6195C16.367 24.5078 16.1189 24.3428 15.9102 24.1341C15.7016 23.9255 15.5366 23.6774 15.4248 23.4043C15.3131 23.1312 15.2569 22.8385 15.2594 22.5435C15.262 22.2484 15.3233 21.9568 15.4398 21.6857C15.5562 21.4146 15.7255 21.1694 15.9378 20.9644L20.6489 16.251H20.6511Z" fill="#4F9D69"/>
</svg>
