<svg width="94" height="92" viewBox="0 0 94 92" fill="none" xmlns="http://www.w3.org/2000/svg">
<g clip-path="url(#clip0_1534_12052)">
<path d="M87.2377 9.43555C88.2963 9.43555 89.3311 9.74947 90.2113 10.3376C91.0915 10.9257 91.7774 11.7616 92.1825 12.7396C92.5876 13.7176 92.6937 14.7938 92.4872 15.832C92.2807 16.8703 91.771 17.8239 91.0225 18.5725C90.274 19.321 89.3201 19.8308 88.2818 20.0373C87.2436 20.2438 86.1675 20.1378 85.1895 19.7327C84.2115 19.3276 83.3757 18.6416 82.7876 17.7614C82.1995 16.8812 81.8853 15.8465 81.8853 14.7879C81.8842 14.0847 82.0223 13.3882 82.2908 12.7384C82.5594 12.0885 82.9533 11.498 83.4505 11.0008C83.9477 10.5035 84.5384 10.1094 85.1883 9.84084C85.8382 9.57225 86.5345 9.43446 87.2377 9.43555Z" fill="white"/>
<path d="M87.2377 80.2192C88.2986 80.2176 89.3362 80.5309 90.219 81.1193C91.1018 81.7076 91.7903 82.5448 92.1971 83.5246C92.6039 84.5045 92.7104 85.583 92.5038 86.6236C92.2973 87.6643 91.7869 88.6202 91.0367 89.3703C90.2865 90.1205 89.3306 90.6312 88.29 90.8378C87.2493 91.0444 86.1706 90.9375 85.1907 90.5308C84.2109 90.124 83.374 89.4356 82.7856 88.5528C82.1972 87.67 81.8836 86.6324 81.8853 85.5715C81.8853 84.152 82.4492 82.7906 83.4529 81.7869C84.4567 80.7831 85.8182 80.2192 87.2377 80.2192Z" fill="white"/>
<path d="M47.1828 9.76713L30.3127 31.7737L0.82959 21.7662L18.3635 0.830078L47.1828 9.76713Z" fill="white"/>
<path d="M16.4545 80.2192C17.5154 80.2176 18.553 80.5309 19.4358 81.1193C20.3186 81.7076 21.0067 82.5448 21.4135 83.5246C21.8203 84.5045 21.9272 85.583 21.7206 86.6236C21.5141 87.6643 21.0032 88.6202 20.2531 89.3703C19.5029 90.1205 18.547 90.6312 17.5063 90.8378C16.4657 91.0444 15.3874 90.9375 14.4075 90.5308C13.4277 90.124 12.5904 89.4356 12.002 88.5528C11.4136 87.67 11.1004 86.6324 11.1021 85.5715C11.1021 84.152 11.666 82.7906 12.6697 81.7869C13.6734 80.7831 15.035 80.2192 16.4545 80.2192Z" fill="#373A3A"/>
<path d="M1.41935 25.4878L1.40171 25.5146L1.4458 25.5235L1.41935 25.4878Z" fill="white"/>
<path d="M12.893 2.95312L1.41758 25.4884L1.44352 25.5229L30.2315 28.3731L40.894 4.98535L12.893 2.95312Z" fill="white"/>
<path d="M1.44585 25.5234L16.5533 47.1632L45.7563 50.5646L30.2338 28.3737L1.44585 25.5234Z" fill="#373A3A"/>
<path d="M40.8962 4.98535L30.2337 28.3731L45.7562 50.564L55.5972 26.3495L40.8962 4.98535Z" fill="#4F9D69"/>
<path d="M1.40243 25.5142L12.8951 2.95312L40.8962 4.98534L30.2337 28.3731L45.7562 50.564L55.5972 26.3495L40.8962 4.98534" stroke="#373A3A" stroke-width="2.32792" stroke-linecap="round" stroke-linejoin="round"/>
<path d="M45.7563 50.5634L16.5533 47.162L1.41991 25.4878" stroke="#373A3A" stroke-width="2.32792" stroke-linecap="round" stroke-linejoin="round"/>
<path d="M30.2363 28.3726L1.44834 25.5223L1.4051 25.5137" stroke="#373A3A" stroke-width="2.32792" stroke-linecap="round" stroke-linejoin="round"/>
<path d="M49.0752 14.7871H81.8859" stroke="#373A3A" stroke-width="1.65962" stroke-linecap="round" stroke-linejoin="round"/>
<path d="M87.2368 20.1387V80.2169" stroke="#373A3A" stroke-width="1.65962" stroke-linecap="round" stroke-linejoin="round"/>
<path d="M81.8868 85.5708H21.8086" stroke="#373A3A" stroke-width="1.65962" stroke-linecap="round" stroke-linejoin="round"/>
<path d="M16.4536 80.2191V48.064" stroke="#373A3A" stroke-width="1.65962" stroke-linecap="round" stroke-linejoin="round"/>
<path d="M87.2377 20.14C88.2963 20.14 89.3311 19.8261 90.2113 19.238C91.0915 18.6499 91.7774 17.814 92.1825 16.836C92.5876 15.858 92.6937 14.7819 92.4872 13.7437C92.2807 12.7054 91.771 11.7516 91.0225 11.0031C90.274 10.2546 89.3201 9.74491 88.2818 9.53839C87.2436 9.33187 86.1675 9.43788 85.1895 9.84298C84.2115 10.2481 83.3757 10.934 82.7876 11.8142C82.1995 12.6944 81.8853 13.7292 81.8853 14.7878C81.8853 16.2073 82.4492 17.5686 83.4529 18.5724C84.4566 19.5761 85.8182 20.14 87.2377 20.14V20.14Z" stroke="#373A3A" stroke-width="1.65962" stroke-linecap="round" stroke-linejoin="round"/>
<path d="M21.8066 85.5695C21.8049 84.5113 21.4897 83.4773 20.9006 82.5982C20.3115 81.7192 19.4752 81.0345 18.497 80.6307C17.5189 80.2268 16.4428 80.122 15.4051 80.3294C14.3674 80.5369 13.4146 81.0473 12.6669 81.7962C11.9192 82.545 11.41 83.4987 11.2042 84.5367C10.9984 85.5747 11.1052 86.6505 11.5105 87.628C11.9159 88.6056 12.6017 89.441 13.4817 90.0287C14.3617 90.6165 15.3963 90.9302 16.4545 90.9302C17.1581 90.9302 17.8548 90.7914 18.5047 90.5219C19.1547 90.2525 19.745 89.8575 20.2422 89.3596C20.7393 88.8617 21.1333 88.2707 21.4018 87.6203C21.6703 86.97 21.8077 86.2731 21.8066 85.5695Z" stroke="#373A3A" stroke-width="1.65962" stroke-linecap="round" stroke-linejoin="round"/>
<path d="M81.8853 85.5715C81.8853 86.6301 82.1995 87.6649 82.7876 88.5451C83.3757 89.4253 84.2115 90.1113 85.1895 90.5164C86.1675 90.9215 87.2436 91.0275 88.2818 90.821C89.3201 90.6145 90.274 90.1047 91.0225 89.3562C91.771 88.6076 92.2807 87.654 92.4872 86.6157C92.6937 85.5775 92.5876 84.5013 92.1825 83.5233C91.7774 82.5453 91.0915 81.7094 90.2113 81.1213C89.3311 80.5332 88.2963 80.2192 87.2377 80.2192C85.8189 80.2214 84.4586 80.786 83.4553 81.7893C82.4521 82.7926 81.8874 84.1526 81.8853 85.5715V85.5715Z" stroke="#373A3A" stroke-width="1.65962" stroke-linecap="round" stroke-linejoin="round"/>
</g>
<defs>
<clipPath id="clip0_1534_12052">
<rect width="93.42" height="91.7521" fill="white"/>
</clipPath>
</defs>
</svg>
