<svg width="66" height="47" viewBox="0 0 66 47" fill="none" xmlns="http://www.w3.org/2000/svg">
<g clip-path="url(#clip0_1534_12074)">
<path d="M5.77208 21.5261C8.52043 19.9588 11.4177 20.5668 14.1542 21.39L14.4521 21.4782C17.6493 22.3831 20.6261 23.4045 23.0059 21.1915" stroke="#373A3A" stroke-width="2" stroke-linecap="round" stroke-linejoin="round"/>
<path d="M14.1526 21.3783C15.8555 4.6648 20.3025 2.22811 24.137 2.61881C25.1469 2.72171 26.0747 3.2212 26.7166 4.00758C27.3585 4.79396 27.6621 5.80295 27.5607 6.813C27.5514 6.9047 27.5426 6.99066 27.5333 7.08237C27.4463 7.60017 27.25 8.09346 26.9573 8.52937" stroke="#373A3A" stroke-width="2" stroke-linecap="round" stroke-linejoin="round"/>
<path d="M14.4601 21.3587L14.449 21.4676C12.7554 38.0894 8.29073 40.53 4.46772 40.1405C3.45897 40.0362 2.53281 39.5362 1.8921 38.7501C1.25139 37.964 0.948462 36.956 1.04975 35.9469C1.05909 35.8552 1.06843 35.7635 1.07778 35.6718C1.16328 35.1633 1.35269 34.6779 1.63421 34.2459C1.63421 34.2459 1.63421 34.2459 1.63421 34.2459" stroke="#373A3A" stroke-width="2" stroke-linecap="round" stroke-linejoin="round"/>
<path d="M43.7597 29.5422L51.617 23.1328" stroke="#373A3A" stroke-width="2" stroke-linecap="round" stroke-linejoin="round"/>
<path d="M50.8899 30.2687L44.4868 22.4062" stroke="#373A3A" stroke-width="2" stroke-linecap="round" stroke-linejoin="round"/>
<path d="M41.3444 7.19894C36.5799 11.9404 33.604 18.1854 32.9227 24.8725C32.2413 31.5597 33.8965 38.2765 37.6068 43.8815" stroke="#373A3A" stroke-width="2" stroke-linecap="round" stroke-linejoin="round"/>
<path d="M57.772 8.87109C61.4823 14.4761 63.1374 21.1929 62.4561 27.8801C61.7747 34.5672 58.7988 40.8122 54.0343 45.5537" stroke="#373A3A" stroke-width="2" stroke-linecap="round" stroke-linejoin="round"/>
</g>
<defs>
<clipPath id="clip0_1534_12074">
<rect width="61.41" height="40.796" fill="white" transform="translate(4.13525) rotate(5.81792)"/>
</clipPath>
</defs>
</svg>
