<svg width="108" height="88" viewBox="0 0 108 88" fill="none" xmlns="http://www.w3.org/2000/svg">
<path d="M20.5419 45.4374C20.5419 44.6113 20.5625 43.7893 20.6077 42.9754C20.768 39.9792 21.2242 37.0651 21.9394 34.2538L29.9048 36.2842C29.1567 39.2106 28.7622 42.2808 28.7622 45.4374C28.7622 46.7855 28.832 48.1172 28.9718 49.4283L20.8009 50.312C20.6282 48.7091 20.5419 47.0856 20.5419 45.4374Z" fill="#373A3A"/>
<path d="M22.1777 57.5216L30.0979 55.3268C32.4407 63.7813 37.714 71.0356 44.7505 75.9143L40.0773 82.6714C35.922 79.7902 32.2722 76.2349 29.2882 72.1618C26.0905 67.8051 23.6574 62.8606 22.1777 57.5216Z" fill="#4F9D69"/>
<path d="M30.9756 23.5015C28.715 27.0896 26.9888 31.0477 25.9201 35.2646" stroke="#373A3A" stroke-width="1.11187" stroke-linecap="round" stroke-linejoin="round"/>
<path d="M24.8874 49.8672C25.1258 52.1113 25.5492 54.302 26.1328 56.4229" stroke="#373A3A" stroke-width="1.11187" stroke-linecap="round" stroke-linejoin="round"/>
<path d="M42.4053 79.305C49.0514 83.9124 57.1237 86.6128 65.8248 86.6128C88.5661 86.6128 107 68.1789 107 45.4376C107 33.8553 102.212 23.3909 94.5135 15.9105C88.9155 10.4728 81.7803 6.60931 73.819 5.04336C71.2337 4.5337 68.558 4.26654 65.8248 4.26654C60.7899 4.26654 55.9646 5.17077 51.5011 6.82715" stroke="#373A3A" stroke-width="1.11187" stroke-linecap="round" stroke-linejoin="round"/>
<path d="M42.4036 79.3052L40.0773 82.6714C35.922 79.7902 32.2722 76.2349 29.2882 72.1618C26.0905 67.8051 23.6574 62.8606 22.1777 57.5216L30.0979 55.3268C32.4407 63.7813 37.714 71.0356 44.7505 75.9143L42.4036 79.3052Z" stroke="#373A3A" stroke-width="1.11187" stroke-linecap="round" stroke-linejoin="round"/>
<path d="M20.6077 42.9754C20.7721 39.9792 21.2242 37.0651 21.9394 34.2538L29.9048 36.2842C29.1567 39.2106 28.7622 42.2808 28.7622 45.4374C28.7622 46.7855 28.832 48.1172 28.9718 49.4283L20.8009 50.312C20.6282 48.7091 20.5419 47.0856 20.5419 45.4374C20.5419 44.6113 20.5625 43.7893 20.6077 42.9754V42.9754Z" stroke="#373A3A" stroke-width="1.11187" stroke-linecap="round" stroke-linejoin="round"/>
<path d="M51.5006 6.8275L52.9351 10.6869C45.2615 13.5434 38.7798 18.8743 34.4683 25.7012L27.5098 21.3239C32.7831 12.9803 40.6992 6.46992 50.0744 2.98043L51.5006 6.8275Z" stroke="#373A3A" stroke-width="1.11187" stroke-linecap="round" stroke-linejoin="round"/>
<path d="M29.2905 72.1623L22.6732 78.7837H7.53155" stroke="#373A3A" stroke-width="1.11187" stroke-linecap="round" stroke-linejoin="round"/>
<path d="M20.6084 42.9761H7.52999" stroke="#373A3A" stroke-width="1.11187" stroke-linecap="round" stroke-linejoin="round"/>
<path d="M36.9517 10.5752L31.1194 4.26616H17.8067" stroke="#373A3A" stroke-width="1.11187" stroke-linecap="round" stroke-linejoin="round"/>
<path d="M11.2781 4.26733C11.2781 6.07167 12.7372 7.53076 14.5415 7.53076C16.3459 7.53076 17.8091 6.07167 17.8091 4.26733C17.8091 2.46298 16.3459 0.999781 14.5415 0.999781C12.7372 0.999781 11.2781 2.46298 11.2781 4.26733Z" stroke="#373A3A" stroke-width="1.11187" stroke-linecap="round" stroke-linejoin="round"/>
<path d="M1.00026 42.9751C1.00026 44.7795 2.46347 46.2427 4.26781 46.2427C6.07216 46.2427 7.53125 44.7795 7.53125 42.9751C7.53125 41.1708 6.06805 39.7117 4.26781 39.7117C2.46758 39.7117 1.00026 41.1708 1.00026 42.9751Z" stroke="#373A3A" stroke-width="1.11187" stroke-linecap="round" stroke-linejoin="round"/>
<path d="M1.00026 78.7825C1.00026 80.5827 2.46347 82.0459 4.26781 82.0459C6.07216 82.0459 7.53125 80.5827 7.53125 78.7825C7.53125 76.9822 6.06805 75.5149 4.26781 75.5149C2.46758 75.5149 1.00026 76.9781 1.00026 78.7825Z" stroke="#373A3A" stroke-width="1.11187" stroke-linecap="round" stroke-linejoin="round"/>
</svg>
