<svg width="279" height="440" viewBox="0 0 279 440" fill="none" xmlns="http://www.w3.org/2000/svg">
<g clip-path="url(#clip0_713_6684)">
<path d="M132.758 402.542C134.156 402.542 135.434 402.656 136.612 402.763C151.964 404.208 150.204 411.376 167.999 414.334C168.293 414.207 168.594 414.093 168.896 413.986C172.637 412.647 176.725 412.152 180.025 410.466C180.499 410.222 180.957 409.95 181.396 409.649C181.249 407.207 181.075 404.851 180.881 402.569C180.145 393.808 178.926 385.095 177.227 376.469C170.22 371.785 166.333 366.391 158.549 366.391C148.511 366.391 142.889 372.28 130.355 374.421C130.988 383.826 131.789 393.2 132.758 402.542Z" fill="#373A3A"/>
<path d="M130.444 194.48C131.274 207.631 134.159 218.024 134.159 241.386C134.159 257.173 128.959 298.317 128.959 335.077C128.959 341.89 129.09 348.712 129.354 355.542C142.598 353.535 148.219 347.351 158.545 347.351C164.006 347.351 167.553 350.028 171.608 353.227C177.631 358.012 184.839 363.981 201.215 363.981C207.933 364.028 214.634 363.282 221.178 361.759C220.542 358.895 219.9 356.151 219.291 353.434C217.704 346.748 216.49 339.978 215.657 333.157C214.924 326.678 214.571 320.162 214.599 313.642C214.599 234.741 229.951 221.959 231.771 199.279C208.349 201.286 188.613 201.286 166.71 199.279C155.44 198.215 143.621 196.622 130.444 194.48Z" fill="#373A3A"/>
<path d="M158.546 347.34C148.22 347.34 142.598 353.537 129.354 355.531C126.519 355.953 123.655 356.159 120.788 356.147C113.448 356.138 106.205 354.47 99.6006 351.268C100.551 354.166 101.541 357.572 101.541 359.299C101.541 359.627 101.541 360.396 101.541 360.51C101.655 363.873 100.815 367.2 99.1186 370.107C105.854 373.457 113.272 375.207 120.795 375.22C123.999 375.234 127.198 374.976 130.358 374.45C142.893 372.302 148.487 366.419 158.552 366.419C166.335 366.419 170.224 371.847 177.23 376.498C182.491 379.998 189.497 383.05 201.222 383.05C210.35 383.05 218.421 381.979 224.785 380.152C234.061 377.475 239.709 373.212 239.709 368.327V349.274C239.709 352.379 236.724 355.538 231.531 358.134C228.227 359.725 224.757 360.946 221.185 361.775C214.641 363.298 207.941 364.044 201.222 363.997C184.846 363.997 177.659 358.027 171.616 353.242C167.553 350.017 164.007 347.34 158.546 347.34Z" fill="white"/>
<path d="M180.87 402.57C181.064 404.852 181.238 407.208 181.385 409.651C182.242 409.065 183.005 408.352 183.647 407.536C184.664 406.185 185.388 404.638 185.775 402.992C184.33 402.798 182.71 402.651 180.87 402.57Z" fill="#373A3A"/>
<path d="M177.225 376.496C178.923 385.122 180.143 393.835 180.879 402.596C182.713 402.676 184.332 402.823 185.784 403.017C195.749 404.409 197.757 408.518 205.332 411.67C208.792 413.109 213.397 414.347 220.457 415.017C222.752 415.237 225.296 415.411 228.146 415.505C227.727 403.665 226.61 391.859 224.8 380.15C218.436 381.97 210.365 383.048 201.237 383.048C189.492 383.048 182.485 379.996 177.225 376.496Z" fill="#373A3A"/>
<path d="M215.672 333.172C216.505 339.993 217.718 346.763 219.306 353.449C223.585 354.423 227.703 356.001 231.539 358.134C236.732 355.537 239.717 352.379 239.717 349.273C239.703 341.397 227.952 335.293 215.672 333.172Z" fill="white"/>
<path d="M11.5561 156.016L10.0837 155.421C9.54997 155.198 8.97713 155.085 8.39889 155.088C7.82065 155.092 7.24887 155.211 6.71766 155.44C6.18646 155.668 5.70675 156.001 5.30667 156.418C4.9066 156.836 4.5944 157.329 4.38878 157.87C4.0794 158.672 4.01992 159.548 4.21821 160.384C4.4165 161.221 4.86337 161.977 5.4998 162.554L5.80075 162.829C5.17168 162.755 4.54273 162.715 3.91366 162.702C3.36268 162.675 2.81403 162.792 2.3223 163.042C1.83055 163.292 1.41276 163.666 1.10966 164.127C0.721146 164.753 0.574669 165.499 0.697929 166.225C0.821182 166.951 1.20568 167.607 1.77888 168.069C8.08965 173.135 14.4069 177.84 22.4509 183.655C24.879 185.421 27.8007 186.378 30.8028 186.392H68.2793V155.313L60.3826 156.103C59.2622 156.217 58.1345 155.971 57.1636 155.4C46.9245 149.377 44.0803 141.822 40.9349 143.649C40.557 143.884 40.2426 144.208 40.0197 144.593C39.7967 144.978 39.6723 145.413 39.657 145.857C39.3826 150.087 40.5068 154.082 41.9054 157.99H41.8718C40.4351 158.139 38.9837 157.965 37.6225 157.482L17.6461 150.415C16.7516 150.075 15.7727 150.026 14.8487 150.274C13.9506 150.518 13.1511 151.036 12.5609 151.756C11.9708 152.475 11.6195 153.361 11.5561 154.29C11.5135 154.864 11.5135 155.441 11.5561 156.016Z" fill="white"/>
<path d="M130.479 179.814C130.352 182.805 130.225 184.451 130.225 187.543C130.225 189.979 130.312 192.274 130.445 194.483C143.622 196.624 155.454 198.217 166.711 199.261C164.462 165.338 165.954 137.96 168.518 112.697L144.968 90.3585C144.403 89.8339 143.949 89.2009 143.634 88.4972C143.319 87.7936 143.149 87.0337 143.134 86.2629C143.129 85.381 143.205 84.5007 143.362 83.6328C138.305 84.2154 133.495 86.1345 129.427 89.1926C125.358 92.2508 122.178 96.3376 120.213 101.033C115.234 112.958 112.41 128.036 111.072 147.778C111.003 148.826 110.559 149.814 109.822 150.563C109.085 151.311 108.103 151.769 107.056 151.853C95.6795 152.764 80.9966 154.156 68.2747 155.4V186.486H112.497C119.098 186.497 125.483 184.128 130.479 179.814Z" fill="white"/>
<path d="M109.482 431.492C109.482 432.088 109.482 432.703 109.482 433.339C109.488 435.165 109.604 436.988 109.83 438.8H159.064C158.842 436.988 158.726 435.165 158.716 433.339C158.716 432.67 158.716 432.088 158.716 431.492H109.482Z" fill="white"/>
<path d="M118.371 414.503C122.387 412.682 127.105 412.354 130.786 410.487C132.105 409.839 133.278 408.929 134.232 407.81C135.397 406.346 136.21 404.633 136.608 402.805C151.96 404.25 150.2 411.418 167.994 414.376C163.136 416.423 159.12 420.439 158.719 431.534H109.484C109.872 420.7 113.693 416.604 118.371 414.503Z" fill="white"/>
<path d="M146.15 78.1831C144.701 79.6586 143.729 81.5355 143.36 83.5703C143.203 84.4382 143.127 85.3186 143.132 86.2004C143.147 86.9712 143.317 87.7311 143.632 88.4348C143.947 89.1384 144.401 89.7714 144.966 90.296L174.004 117.895L196.088 92.7721L187.174 85.7654C185.258 84.2676 183.777 82.2853 182.884 80.0235C182.215 78.2634 181.545 76.4565 180.983 74.6362C179.411 69.6304 178.407 64.551 178.454 60.0806C178.483 59.1385 178.137 58.2234 177.492 57.5359C176.847 56.8484 175.956 56.4447 175.014 56.4133H174.86C171.333 56.4133 170.443 61.1581 170.443 64.6715C170.443 66.7996 170.952 69.0817 171.193 73.2175L148.921 55.7173C148.406 55.3048 147.797 55.0256 147.149 54.9044C146.5 54.7831 145.832 54.8235 145.203 55.022C144.574 55.2204 144.003 55.5709 143.541 56.0424C143.08 56.5138 142.742 57.0917 142.557 57.7249C142.19 58.9244 142.157 60.201 142.462 61.4177C142.766 62.6345 143.395 63.7454 144.283 64.6313L147.027 67.3751L146.947 67.422C146.113 68.0236 145.421 68.8003 144.919 69.6977C144.417 70.5952 144.118 71.5916 144.042 72.617C143.966 73.6425 144.115 74.6721 144.48 75.6336C144.844 76.5952 145.414 77.4653 146.15 78.1831Z" fill="white"/>
<path d="M159.124 38.5352C156.889 45.9769 155.196 53.8269 155.457 60.8805L171.19 73.2477C170.949 69.1119 170.441 66.8299 170.441 64.7018C170.441 61.1883 171.331 56.4436 174.858 56.4436H175.012C175.954 56.475 176.845 56.8787 177.489 57.5662C178.134 58.2537 178.48 59.1688 178.451 60.1109C178.405 64.5813 179.408 69.6607 180.981 74.6665C193.536 73.154 194.606 56.2026 196.607 48.3393C195.149 48.2322 193.582 49.5706 192.19 51.3909C191.869 51.8139 191.467 52.1689 191.008 52.4355C190.548 52.702 190.04 52.8747 189.514 52.9435C188.447 53.0799 187.369 52.7888 186.515 52.1338C183.711 49.9722 180.573 47.6031 175.607 46.3985C171.967 45.53 168.172 45.5437 164.538 46.4387C163.502 46.6925 162.408 46.5316 161.49 45.9903C160.571 45.449 159.9 44.57 159.619 43.5409C159.195 41.9082 159.028 40.2193 159.124 38.5352Z" fill="#373A3A"/>
<path d="M158.722 431.492C158.722 432.088 158.722 432.703 158.722 433.339C158.731 435.165 158.847 436.988 159.07 438.8H226.661C226.916 438.802 227.169 438.753 227.405 438.657C227.641 438.562 227.856 438.42 228.038 438.241C228.219 438.062 228.363 437.849 228.463 437.614C228.562 437.38 228.613 437.128 228.615 436.873C228.615 436.873 228.615 433.239 228.615 431.519L158.722 431.492Z" fill="white"/>
<path d="M159.129 38.5326C159.053 40.2163 159.22 41.9022 159.624 43.5384C159.904 44.5675 160.575 45.4464 161.494 45.9878C162.413 46.5291 163.507 46.69 164.543 46.4361C168.177 45.5412 171.972 45.5274 175.612 46.396C180.578 47.6006 183.716 49.9696 186.52 52.1312C187.374 52.7862 188.451 53.0773 189.518 52.941C190.045 52.8721 190.553 52.6994 191.012 52.4329C191.472 52.1664 191.874 51.8114 192.195 51.3884C193.587 49.5681 195.153 48.2296 196.612 48.3367C194.605 56.2001 193.54 73.1515 180.986 74.6639C181.555 76.4842 182.197 78.2911 182.886 80.0512C183.779 82.313 185.26 84.2953 187.176 85.7931L191.82 89.4471C196.666 87.5465 199.389 84.0264 199.57 82.2596L200.541 52.941C208.973 52.6264 211.415 44.5155 204.168 41.698L195.729 40.286C197.596 30.1339 194.056 23.9971 173.825 20.1357C171.234 19.7028 168.732 18.8411 166.424 17.5859C164.503 23.1204 161.505 30.5889 159.129 38.5192V38.5326Z" fill="white"/>
<path d="M161.763 4.44147C160.424 7.05144 159.4 13.563 166.447 17.585C168.756 18.8402 171.257 19.7019 173.849 20.1348C194.079 23.9962 197.62 30.1329 195.753 40.285L204.191 41.6971C209.846 30.9092 210.214 21.8747 198.53 20.1348C197.713 14.4597 190.358 7.8679 183.338 10.7656C181.685 5.27801 177.349 4.78277 175.609 6.78375C173.32 -1.80907 164.138 -0.142707 161.763 4.44147Z" fill="#373A3A"/>
<path d="M168.518 112.695C165.955 137.958 164.463 165.336 166.711 199.259C188.615 201.307 208.377 201.267 231.773 199.259C231.887 197.834 231.947 196.375 231.947 194.849C231.876 184.271 230.909 173.717 229.056 163.302V163.242C223.76 162.746 218.784 160.483 214.929 156.817L168.518 112.695ZM173.136 168.294C173.135 167.517 173.364 166.757 173.795 166.11C174.226 165.463 174.839 164.959 175.556 164.66C176.274 164.362 177.064 164.283 177.827 164.434C178.589 164.585 179.29 164.958 179.84 165.508C180.39 166.057 180.765 166.757 180.917 167.519C181.069 168.281 180.991 169.071 180.694 169.789C180.397 170.508 179.894 171.122 179.248 171.553C178.601 171.985 177.842 172.216 177.064 172.216C176.024 172.216 175.025 171.803 174.289 171.068C173.552 170.333 173.138 169.335 173.136 168.294ZM173.236 150.526C173.235 149.749 173.464 148.989 173.895 148.342C174.326 147.695 174.939 147.191 175.657 146.892C176.374 146.594 177.165 146.515 177.927 146.666C178.69 146.817 179.39 147.191 179.94 147.74C180.49 148.289 180.865 148.989 181.017 149.751C181.169 150.513 181.092 151.303 180.795 152.022C180.498 152.74 179.994 153.354 179.348 153.786C178.702 154.218 177.942 154.448 177.165 154.448C176.124 154.448 175.126 154.035 174.39 153.3C173.653 152.565 173.238 151.567 173.236 150.526Z" fill="white"/>
<path d="M167.996 414.336C168.291 414.208 168.592 414.088 168.893 413.988C172.621 412.602 176.723 412.154 180.022 410.467C180.496 410.224 180.954 409.951 181.394 409.651C182.251 409.065 183.014 408.352 183.656 407.536C184.673 406.185 185.397 404.638 185.784 402.992C195.749 404.384 197.757 408.493 205.332 411.645C211.73 414.322 220.443 415.078 220.457 414.991C222.752 415.212 225.295 415.386 228.146 415.48C228.354 420.405 228.487 425.719 228.541 431.468H158.721C159.122 420.399 163.151 416.41 167.996 414.336Z" fill="white"/>
<path d="M196.088 92.7986L174.003 117.921L214.96 156.837C218.814 160.503 223.79 162.765 229.087 163.261C233.23 163.655 237.401 162.888 241.133 161.046C245.868 158.712 249.651 154.812 251.838 150.007C254.025 145.203 254.482 139.789 253.132 134.685L246.333 109.094C244.881 103.583 241.957 98.5713 237.875 94.595C233.792 90.6186 228.705 87.8277 223.158 86.5213C215.377 84.6676 207.506 83.2223 199.574 82.1914V82.245C199.394 84.0117 196.67 87.5318 191.825 89.4324L196.088 92.7986Z" fill="white"/>
<path d="M130.479 179.814C130.352 182.805 130.225 184.451 130.225 187.543C130.225 189.979 130.312 192.274 130.445 194.483C143.622 196.624 155.454 198.217 166.711 199.261C164.462 165.338 165.954 137.96 168.518 112.697L144.968 90.3585C144.403 89.8339 143.949 89.2009 143.634 88.4972C143.319 87.7936 143.149 87.0337 143.134 86.2629C143.129 85.381 143.205 84.5007 143.362 83.6328C138.305 84.2154 133.495 86.1345 129.427 89.1926C125.358 92.2508 122.178 96.3376 120.213 101.033C115.234 112.958 112.41 128.036 111.072 147.778C111.003 148.826 110.559 149.814 109.822 150.563C109.085 151.311 108.103 151.769 107.056 151.853C95.6795 152.764 80.9966 154.156 68.2747 155.4V186.486H112.497C119.098 186.497 125.483 184.128 130.479 179.814Z" fill="#4F9D69"/>
<path d="M168.518 112.695C165.955 137.958 164.463 165.336 166.711 199.259C188.615 201.307 208.377 201.267 231.773 199.259C231.887 197.834 231.947 196.375 231.947 194.849C231.876 184.271 230.909 173.717 229.056 163.302V163.242C223.76 162.746 218.784 160.483 214.929 156.817L168.518 112.695Z" fill="#4F9D69"/>
<path d="M196.088 92.7986L174.003 117.921L214.96 156.837C218.814 160.503 223.79 162.765 229.087 163.261C233.23 163.655 237.401 162.888 241.133 161.046C245.868 158.712 249.651 154.812 251.838 150.007C254.025 145.203 254.482 139.789 253.132 134.685L246.333 109.094C244.881 103.583 241.957 98.5713 237.875 94.595C233.792 90.6186 228.705 87.8277 223.158 86.5213C215.377 84.6676 207.506 83.2223 199.574 82.1914V82.245C199.394 84.0117 196.67 87.5318 191.825 89.4324L196.088 92.7986Z" fill="#4F9D69"/>
<path d="M277.317 248.977L277.31 248.99L277.33 248.983L277.317 248.977Z" fill="white"/>
<path d="M228.146 415.507C225.296 415.413 222.752 415.239 220.457 415.018C213.397 414.349 208.792 413.078 205.332 411.672C197.757 408.514 195.756 404.398 185.784 403.019C184.332 402.819 182.713 402.678 180.879 402.598" stroke="#373A3A" stroke-width="1.33845" stroke-linecap="round" stroke-linejoin="round"/>
<path d="M231.771 199.294C208.349 201.302 188.613 201.302 166.71 199.294C155.453 198.25 143.621 196.657 130.444 194.516" stroke="#373A3A" stroke-width="1.33845" stroke-linecap="round" stroke-linejoin="round"/>
<path d="M165.37 232.543C165.37 235.595 165.323 238.399 165.283 240.975C164.708 274.282 162.031 270.421 162.031 290.304C162.031 318.692 166.756 335.255 171.607 353.244" stroke="white" stroke-width="1.33845" stroke-linecap="round" stroke-linejoin="round"/>
<path d="M180.869 402.57C181.064 404.852 181.238 407.208 181.385 409.651" stroke="#373A3A" stroke-width="1.33845" stroke-linecap="round" stroke-linejoin="round"/>
<path d="M177.223 376.496C178.918 385.123 180.138 393.836 180.877 402.596" stroke="white" stroke-width="1.33845" stroke-linecap="round" stroke-linejoin="round"/>
<path d="M167.994 414.337C150.2 411.379 151.966 404.198 136.608 402.766C135.43 402.659 134.152 402.578 132.753 402.545C131.803 393.203 131.002 383.833 130.35 374.438" stroke="#373A3A" stroke-width="1.33845" stroke-linecap="round" stroke-linejoin="round"/>
<path d="M129.341 355.558C129.087 348.741 128.956 341.919 128.947 335.093C128.947 298.286 134.146 257.176 134.146 241.402C134.146 218.039 131.249 207.646 130.432 194.496C130.292 192.288 130.211 189.992 130.211 187.556C130.211 184.464 130.339 182.818 130.466 179.827C130.58 177.083 130.686 173.215 130.686 166.068V160.045C130.686 133.697 132.821 130.599 132.901 118.098" stroke="#373A3A" stroke-width="1.33845" stroke-linecap="round" stroke-linejoin="round"/>
<path d="M156.278 214.934C157.884 223.265 158.286 233.94 165.279 240.973" stroke="white" stroke-width="1.33845" stroke-linecap="round" stroke-linejoin="round"/>
<path d="M235.955 124.119L187.175 85.7927C185.26 84.295 183.779 82.3127 182.886 80.0508C182.216 78.2907 181.547 76.4838 180.985 74.6635C179.412 69.6578 178.409 64.5784 178.456 60.1079C178.484 59.1658 178.138 58.2507 177.494 57.5633C176.849 56.8758 175.958 56.4721 175.016 56.4406H174.862C171.335 56.4406 170.445 61.1854 170.445 64.6988C170.445 66.827 170.953 69.109 171.194 73.2448L148.922 55.7446C148.408 55.3322 147.799 55.053 147.15 54.9317C146.502 54.8104 145.834 54.8508 145.204 55.0493C144.575 55.2478 144.005 55.5982 143.543 56.0697C143.082 56.5411 142.743 57.119 142.558 57.7523C142.192 58.9518 142.159 60.2284 142.463 61.4451C142.767 62.6618 143.397 63.7728 144.285 64.6587L159.256 79.6292" stroke="#373A3A" stroke-width="1.33845" stroke-linecap="round" stroke-linejoin="round"/>
<path d="M147.027 67.3711L146.947 67.4179C146.114 68.0209 145.423 68.7985 144.921 69.6965C144.42 70.5945 144.121 71.5911 144.045 72.6167C143.97 73.6423 144.119 74.672 144.482 75.634C144.846 76.5959 145.415 77.4668 146.151 78.1857L154.576 86.2164" stroke="#373A3A" stroke-width="1.33845" stroke-linecap="round" stroke-linejoin="round"/>
<path d="M146.15 78.1836C144.701 79.6591 143.729 81.536 143.36 83.5708C143.203 84.4387 143.127 85.3191 143.132 86.2009V86.2009C143.147 86.9717 143.317 87.7316 143.632 88.4353C143.947 89.1389 144.401 89.7719 144.966 90.2965L214.96 156.811C218.814 160.477 223.79 162.74 229.087 163.235C233.23 163.626 237.4 162.859 241.133 161.02C245.868 158.686 249.651 154.786 251.838 149.981C254.025 145.177 254.482 139.763 253.132 134.659L246.333 109.095C244.881 103.584 241.957 98.5721 237.875 94.5958C233.792 90.6194 228.705 87.8286 223.158 86.5221C215.377 84.6684 207.506 83.2231 199.574 82.1922" stroke="#373A3A" stroke-width="1.33845" stroke-linecap="round" stroke-linejoin="round"/>
<path d="M166.419 17.585C159.399 13.5697 160.396 7.05144 161.735 4.44147C164.117 -0.142707 173.292 -1.80907 175.554 6.78375C177.294 4.77608 181.631 5.27801 183.284 10.7656C190.304 7.8679 197.659 14.4597 198.475 20.1348C210.16 21.8747 209.792 30.9092 204.137 41.6971L195.698 40.285C197.565 30.1329 194.025 23.9962 173.794 20.1348C171.213 19.6959 168.721 18.8345 166.419 17.585V17.585Z" stroke="#373A3A" stroke-width="1.33845" stroke-linecap="round" stroke-linejoin="round"/>
<path d="M204.168 41.6992C211.415 44.5166 208.973 52.6276 200.541 52.9422L199.57 82.2608C199.389 84.0275 196.666 87.5477 191.82 89.4483" stroke="#373A3A" stroke-width="1.33845" stroke-linecap="round" stroke-linejoin="round"/>
<path d="M159.123 38.5352C156.888 45.9769 155.195 53.8269 155.456 60.8805" stroke="#373A3A" stroke-width="1.33845" stroke-linecap="round" stroke-linejoin="round"/>
<path d="M166.42 17.5859C164.499 23.1204 161.501 30.5889 159.125 38.5192" stroke="#373A3A" stroke-width="1.33845" stroke-linecap="round" stroke-linejoin="round"/>
<path d="M180.914 74.6704H180.981C193.536 73.1579 194.606 56.2065 196.607 48.3432C195.149 48.2361 193.582 49.5745 192.19 51.3948C191.869 51.8178 191.467 52.1729 191.008 52.4394C190.548 52.7059 190.04 52.8786 189.514 52.9474C188.447 53.0838 187.369 52.7927 186.515 52.1377C183.711 49.9761 180.573 47.607 175.607 46.4024C171.967 45.5339 168.172 45.5476 164.538 46.4426C163.502 46.6964 162.408 46.5356 161.49 45.9942C160.571 45.4529 159.9 44.5739 159.619 43.5448C159.215 41.9086 159.048 40.2228 159.124 38.5391" stroke="#373A3A" stroke-width="1.33845" stroke-linecap="round" stroke-linejoin="round"/>
<path d="M178.572 44.568C175.942 43.5106 173.888 43.2697 173.888 39.6559C173.888 37.5813 174.858 35.8279 175.106 33.7266" stroke="#373A3A" stroke-width="1.33845" stroke-linecap="round" stroke-linejoin="round"/>
<path d="M183.455 37.8711C183.234 38.4801 183.228 39.2095 182.953 39.7985" stroke="#373A3A" stroke-width="2.67689" stroke-linecap="round" stroke-linejoin="round"/>
<path d="M168.561 34.6719C168.413 35.1604 168.333 35.6891 168.146 36.1642" stroke="#373A3A" stroke-width="2.67689" stroke-linecap="round" stroke-linejoin="round"/>
<path d="M189.068 35.7778C187.589 34.0981 185.561 33.1478 183.641 32.0703" stroke="#373A3A" stroke-width="1.33845" stroke-linecap="round" stroke-linejoin="round"/>
<path d="M172.443 29.4591C171.817 29.3617 171.183 29.3259 170.549 29.352C169.313 29.3221 168.077 29.4549 166.875 29.7469" stroke="#373A3A" stroke-width="1.33845" stroke-linecap="round" stroke-linejoin="round"/>
<path d="M204.174 48.8661C204.174 48.5984 204.174 48.324 204.174 48.0429C204.171 47.3854 203.981 46.7424 203.625 46.1892C203.115 45.4089 202.38 44.8021 201.517 44.4492" stroke="#373A3A" stroke-width="1.33845" stroke-linecap="round" stroke-linejoin="round"/>
<path d="M203.623 46.1875C202.395 46.6286 201.347 47.461 200.638 48.5566" stroke="#373A3A" stroke-width="1.33845" stroke-linecap="round" stroke-linejoin="round"/>
<path d="M196.088 92.8008L174.004 117.923" stroke="#373A3A" stroke-width="1.33845" stroke-linecap="round" stroke-linejoin="round"/>
<path d="M168.518 112.695C165.954 137.958 164.462 165.336 166.711 199.259" stroke="#373A3A" stroke-width="1.33845" stroke-linecap="round" stroke-linejoin="round"/>
<path d="M30.6777 163.844L10.0926 155.418C9.55886 155.196 8.98569 155.083 8.40745 155.086C7.82921 155.089 7.25776 155.209 6.72655 155.437C6.19535 155.666 5.71531 155.998 5.31524 156.416C4.91516 156.833 4.60296 157.327 4.39734 157.868C4.08796 158.669 4.02848 159.546 4.22677 160.382C4.42506 161.218 4.87193 161.975 5.50836 162.552L5.80964 162.826" stroke="#373A3A" stroke-width="1.33845" stroke-linecap="round" stroke-linejoin="round"/>
<path d="M45.491 173.608C38.1295 168.509 33.5589 168.569 25.381 171.915C17.0692 166.347 11.3607 163.49 5.80619 162.834C5.17712 162.76 4.54784 162.72 3.91877 162.707C3.36779 162.68 2.81948 162.798 2.32774 163.048C1.836 163.298 1.41787 163.671 1.11477 164.132C0.726263 164.758 0.579782 165.504 0.703041 166.23C0.8263 166.956 1.21079 167.612 1.78399 168.074C8.09476 173.14 14.4123 177.845 22.4564 183.66C24.8844 185.426 27.8062 186.383 30.8083 186.397H112.453C119.044 186.433 125.427 184.096 130.436 179.812" stroke="#373A3A" stroke-width="1.33845" stroke-linecap="round" stroke-linejoin="round"/>
<path d="M143.361 83.5742C138.305 84.1568 133.495 86.0759 129.427 89.1341C125.358 92.1922 122.178 96.279 120.213 100.974C115.234 112.9 112.41 127.977 111.071 147.719C111.002 148.767 110.559 149.756 109.822 150.504C109.085 151.252 108.103 151.71 107.056 151.795C95.6792 152.705 62.8873 155.884 60.3777 156.131C59.2573 156.246 58.1296 155.999 57.1587 155.429C46.9196 149.406 44.0754 141.85 40.9301 143.677C40.5521 143.912 40.2377 144.236 40.0148 144.622C39.7918 145.007 39.6671 145.441 39.6517 145.886C39.3774 150.115 40.5016 154.11 41.9002 158.019H41.8669C40.4302 158.167 38.9784 157.993 37.6173 157.51L17.6409 150.443C16.7464 150.103 15.7678 150.054 14.8438 150.302C13.9457 150.546 13.1458 151.064 12.5557 151.784C11.9656 152.504 11.6147 153.389 11.5512 154.318C11.5079 154.897 11.5079 155.479 11.5512 156.058" stroke="#373A3A" stroke-width="1.33845" stroke-linecap="round" stroke-linejoin="round"/>
<path d="M68.2754 155.312V186.391" stroke="#373A3A" stroke-width="1.33845" stroke-linecap="round" stroke-linejoin="round"/>
<path d="M185.779 402.992C185.392 404.638 184.668 406.185 183.651 407.536C183.009 408.352 182.246 409.065 181.389 409.651C180.949 409.951 180.491 410.224 180.017 410.467C176.718 412.154 172.656 412.656 168.888 413.988C168.587 414.095 168.286 414.208 167.991 414.336C163.146 416.41 159.097 420.399 158.716 431.494C158.716 432.09 158.716 432.706 158.716 433.341C158.725 435.167 158.842 436.99 159.064 438.802" stroke="#373A3A" stroke-width="1.33845" stroke-linecap="round" stroke-linejoin="round"/>
<path d="M136.603 402.763C136.205 404.592 135.392 406.304 134.227 407.769C133.273 408.887 132.1 409.798 130.78 410.446C127.1 412.333 122.408 412.668 118.366 414.461C113.682 416.562 109.847 420.658 109.479 431.453C109.479 432.048 109.479 432.664 109.479 433.3C109.485 435.125 109.601 436.949 109.827 438.761H226.606C226.861 438.762 227.114 438.714 227.35 438.618C227.586 438.522 227.801 438.381 227.982 438.202C228.164 438.023 228.308 437.81 228.408 437.575C228.507 437.34 228.559 437.088 228.561 436.833C228.561 436.833 228.561 433.199 228.561 431.479C228.507 425.731 228.373 420.417 228.166 415.492C227.743 403.651 226.626 391.846 224.82 380.137" stroke="#373A3A" stroke-width="1.33845" stroke-linecap="round" stroke-linejoin="round"/>
<path d="M221.18 361.772C220.544 358.908 219.901 356.164 219.292 353.447C217.709 346.76 216.495 339.991 215.658 333.17C214.926 326.691 214.573 320.175 214.601 313.655C214.601 234.754 229.946 221.972 231.773 199.292C231.887 197.866 231.947 196.407 231.947 194.881C231.877 184.292 230.91 173.727 229.056 163.301" stroke="#373A3A" stroke-width="1.33845" stroke-linecap="round" stroke-linejoin="round"/>
<path d="M228.541 431.492H109.486" stroke="#373A3A" stroke-width="1.33845" stroke-linecap="round" stroke-linejoin="round"/>
<path d="M219.292 353.449C223.571 354.423 227.69 356.001 231.525 358.134" stroke="#373A3A" stroke-width="1.33845" stroke-linecap="round" stroke-linejoin="round"/>
<path d="M239.702 349.273C239.702 352.379 236.718 355.537 231.524 358.134C228.22 359.724 224.75 360.945 221.178 361.774C214.634 363.297 207.934 364.043 201.215 363.996C184.839 363.996 177.659 358.027 171.609 353.242C167.554 350.043 164.007 347.366 158.546 347.366C148.22 347.366 142.598 353.563 129.354 355.557C126.519 355.98 123.655 356.185 120.788 356.173C113.448 356.164 106.205 354.496 99.6006 351.294C100.551 354.192 101.541 357.598 101.541 359.325C101.541 359.653 101.541 360.423 101.541 360.536C101.655 363.9 100.815 367.227 99.1186 370.133C105.854 373.483 113.272 375.233 120.795 375.246C123.999 375.26 127.198 375.002 130.358 374.476C142.893 372.328 148.487 366.446 158.552 366.446C166.335 366.446 170.23 371.866 177.23 376.524C182.491 380.017 189.497 383.076 201.222 383.076C210.35 383.076 218.421 382.005 224.785 380.178C234.061 377.501 239.709 373.238 239.709 368.353V349.273C239.709 341.397 227.958 335.32 215.664 333.172" stroke="#373A3A" stroke-width="1.33845" stroke-linecap="round" stroke-linejoin="round"/>
<path d="M226.612 438.801H254.873" stroke="#373A3A" stroke-width="1.33845" stroke-linecap="round" stroke-linejoin="round"/>
<path d="M109.803 438.801H46.7486" stroke="#373A3A" stroke-width="1.33845" stroke-linecap="round" stroke-linejoin="round"/>
<path d="M40.6348 438.863H33.7819" stroke="#373A3A" stroke-width="1.33845" stroke-linecap="round" stroke-linejoin="round"/>
<path d="M213.787 224.675H212.91C200.804 224.675 198.596 221.255 198.495 200.797" stroke="white" stroke-width="1.33845" stroke-linecap="round" stroke-linejoin="round"/>
<path d="M67.7526 241.5L59.007 264.65L73.5985 284.912L82.917 260.803L67.7526 241.5Z" fill="#373A3A"/>
<path d="M67.7457 241.501L82.9102 260.804L108.878 251.649L108.89 251.626L93.1757 233.293L67.7457 241.501Z" fill="white"/>
<path d="M82.9219 260.803L73.6034 284.912L99.8167 275.161L108.89 251.648L82.9219 260.803Z" fill="white"/>
<path d="M108.913 251.638L93.1757 233.293L67.7458 241.501L82.9102 260.804L73.5918 284.913L59.0002 264.651L67.7458 241.501" stroke="#373A3A" stroke-width="2" stroke-linecap="round" stroke-linejoin="round"/>
<path d="M73.5917 284.912L99.805 275.161L108.89 251.625" stroke="#373A3A" stroke-width="2" stroke-linecap="round" stroke-linejoin="round"/>
<path d="M82.9102 260.803L108.913 251.637" stroke="#373A3A" stroke-width="2" stroke-linecap="round" stroke-linejoin="round"/>
</g>
<defs>
<clipPath id="clip0_713_6684">
<rect width="278.002" height="439.532" fill="white" transform="matrix(-1 0 0 1 278.002 0)"/>
</clipPath>
</defs>
</svg>
