<svg width="139" height="247" viewBox="0 0 139 247" fill="none" xmlns="http://www.w3.org/2000/svg">
<path d="M43.1632 10.6328L49.7993 32.3056L33.9872 52.0212L26.8164 29.3555L43.1632 10.6328Z" fill="#5863F8"/>
<path d="M43.1656 10.6334L26.8188 29.3561L1 18.7297L1.02864 18.6915L17.8815 1L43.1656 10.6334Z" fill="white"/>
<path d="M26.8201 29.3573L33.9909 52.023L7.9907 40.7856L1.05859 18.75L26.8201 29.3573Z" fill="#373A3A"/>
<path d="M1 18.7297L1.02864 18.6915L17.8815 1L43.1656 10.6334L26.8188 29.3561L33.9896 52.0219L49.8017 32.3063L43.1656 10.6334" stroke="#373A3A" stroke-width="2" stroke-linecap="round" stroke-linejoin="round"/>
<path d="M33.9909 52.023L7.9907 40.7856L1.05859 18.75" stroke="#373A3A" stroke-width="2" stroke-linecap="round" stroke-linejoin="round"/>
<path d="M26.8188 29.3568L1 18.7305" stroke="#373A3A" stroke-width="2" stroke-linecap="round" stroke-linejoin="round"/>
<g clip-path="url(#clip0_713_6753)">
<path d="M103.029 126.887V208.222C103.029 213.615 98.6304 217.98 93.2218 217.98H49.2539C38.3102 227.923 29.4394 235.81 15.8211 245.649C19.4616 235.085 22.6637 226.703 24.8851 217.98H11.5491C6.13303 217.98 1.74219 213.615 1.74219 208.222V126.887C1.74219 121.494 6.14046 117.129 11.5491 117.129H93.2218C98.6379 117.129 103.029 121.494 103.029 126.887ZM83.2885 140.707V138.029C83.2885 135.839 81.5128 134.071 79.3137 134.071H25.4498C23.2581 134.071 21.4824 135.839 21.4824 138.029V140.707C21.4824 142.897 23.2581 144.665 25.4498 144.665H79.3137C81.5128 144.665 83.2885 142.897 83.2885 140.707ZM40.3831 182.935L32.3221 171.113L24.2536 182.935H40.3756H40.3831ZM38.0205 165.668V154.319H26.6236V165.668H38.0205ZM39.2018 196.733C39.2018 192.945 36.1185 189.875 32.3221 189.875C28.5256 189.875 25.4349 192.945 25.4349 196.733C25.4349 200.521 28.5181 203.583 32.3221 203.583C36.126 203.583 39.2018 200.513 39.2018 196.733Z" fill="white"/>
<path d="M83.2905 138.028V140.706C83.2905 142.896 81.5148 144.664 79.3157 144.664H25.4517C23.26 144.664 21.4844 142.896 21.4844 140.706V138.028C21.4844 135.838 23.26 134.07 25.4517 134.07H79.3157C81.5148 134.07 83.2905 135.838 83.2905 138.028Z" fill="#373A3A"/>
<path d="M32.3302 171.113L40.3838 182.935H24.2617L32.3302 171.113Z" fill="white"/>
<path d="M38.0297 154.32H26.6328V165.669H38.0297V154.32Z" fill="white"/>
<path d="M32.3325 189.875C36.1289 189.875 39.2122 192.945 39.2122 196.733C39.2122 200.521 36.1289 203.584 32.3325 203.584C28.536 203.584 25.4453 200.514 25.4453 196.733C25.4453 192.953 28.5286 189.875 32.3325 189.875Z" fill="#373A3A"/>
<path d="M49.2539 217.98H93.2218C98.6379 217.98 103.029 213.615 103.029 208.222V126.887C103.029 121.494 98.6304 117.129 93.2218 117.129H11.5491C6.14046 117.129 1.74219 121.494 1.74219 126.887V208.222C1.74219 213.615 6.14046 217.98 11.5491 217.98H24.8851C22.6563 226.703 19.4616 235.092 15.8211 245.649C29.432 235.81 38.3102 227.923 49.2539 217.98Z" stroke="#373A3A" stroke-width="2" stroke-linecap="round" stroke-linejoin="round"/>
<path d="M79.3157 144.664H25.4517C23.26 144.664 21.4844 142.896 21.4844 140.706V138.028C21.4844 135.838 23.26 134.07 25.4517 134.07H79.3157C81.5148 134.07 83.2905 135.838 83.2905 138.028V140.706C83.2905 142.896 81.5148 144.664 79.3157 144.664Z" stroke="#373A3A" stroke-width="2" stroke-linecap="round" stroke-linejoin="round"/>
<path d="M38.0297 154.32H26.6328V165.669H38.0297V154.32Z" stroke="#373A3A" stroke-width="2" stroke-linecap="round" stroke-linejoin="round"/>
<path d="M24.2617 182.935L32.3302 171.113L40.3838 182.935H24.2617Z" stroke="#373A3A" stroke-width="2" stroke-linecap="round" stroke-linejoin="round"/>
<path d="M39.2005 196.733C39.2005 192.945 36.1172 189.875 32.3208 189.875C28.5243 189.875 25.4336 192.945 25.4336 196.733C25.4336 200.521 28.5168 203.584 32.3208 203.584C36.1247 203.584 39.2005 200.514 39.2005 196.733V196.733Z" stroke="#373A3A" stroke-width="2" stroke-linecap="round" stroke-linejoin="round"/>
<path d="M122.241 177.422L122.257 177.445L122.219 177.453L122.241 177.422Z" fill="white"/>
<path d="M112.385 158.062L122.244 177.423L122.222 177.453L97.4887 179.902L88.3281 159.808L112.385 158.062Z" fill="white"/>
<path d="M122.217 177.453L109.238 196.045L84.1484 198.967L97.4844 179.902L122.217 177.453Z" fill="#373A3A"/>
<path d="M88.3255 159.809L97.4861 179.902L84.1501 198.967L75.6953 178.163L88.3255 159.809Z" fill="#4F9D69"/>
<path d="M122.256 177.446L112.382 158.062L88.3255 159.808L97.4861 179.902L84.1501 198.967L75.6953 178.163L88.3255 159.808" stroke="#373A3A" stroke-width="2" stroke-linecap="round" stroke-linejoin="round"/>
<path d="M84.1484 198.965L109.238 196.043L122.24 177.422" stroke="#373A3A" stroke-width="2" stroke-linecap="round" stroke-linejoin="round"/>
<path d="M97.4844 179.901L122.217 177.453L122.254 177.445" stroke="#373A3A" stroke-width="2" stroke-linecap="round" stroke-linejoin="round"/>
</g>
<path d="M103.49 11.4801L112.501 85.1087L47.5995 60.2353L103.49 11.4801Z" fill="white"/>
<path d="M47.3133 60.086L40.4023 78.8477L105.523 103.631L112.434 84.8689L47.3133 60.086Z" fill="#373A3A"/>
<path d="M47.5995 60.2314L103.49 11.4762L112.501 85.1048L47.5995 60.2314Z" stroke="#373A3A" stroke-width="2" stroke-linecap="round" stroke-linejoin="round"/>
<path d="M47.4873 60.2336L40.4506 78.6006L105.352 103.474L112.388 85.107" stroke="#373A3A" stroke-width="2" stroke-linecap="round" stroke-linejoin="round"/>
<defs>
<clipPath id="clip0_713_6753">
<rect width="122" height="130" fill="white" transform="translate(1 116.391)"/>
</clipPath>
</defs>
</svg>
