<svg width="408" height="130" viewBox="0 0 408 130" fill="none" xmlns="http://www.w3.org/2000/svg">
<rect x="1" y="1" width="406" height="128" rx="3.9342" fill="white"/>
<mask id="mask0_670_5796" style="mask-type:alpha" maskUnits="userSpaceOnUse" x="17" y="18" width="95" height="95">
<circle cx="64.4346" cy="65.1182" r="47.1182" fill="#D9D9D9"/>
</mask>
<g mask="url(#mask0_670_5796)">
<circle cx="64.4346" cy="65.1182" r="46.4381" fill="#0038B8" fill-opacity="0.2" stroke="#0038B8" stroke-width="1.3602"/>
<g clip-path="url(#clip0_670_5796)">
<path d="M100.375 24.1035L105.197 28.9259" stroke="#373A3A" stroke-width="0.821527" stroke-linecap="round" stroke-linejoin="round"/>
<path d="M101.901 118.739L102.811 160.101L51.5457 175.588L40.0689 179.058L36.9632 161.148C39.0121 157.715 39.4644 153.382 37.7985 149.413L32.9576 137.876H45.4266C48.8876 137.876 51.6888 135.071 51.6888 131.61L34.7981 113.037C34.7981 109.576 31.9969 106.77 28.5359 106.77L26.6816 96.9763C27.1016 94.7428 28.0937 92.6246 29.5981 90.8479C32.1408 87.853 35.8788 86.1271 39.8059 86.1548C44.9282 86.1963 49.7921 86.1871 54.476 86.1363C54.476 93.686 73.5025 94.6966 73.5025 85.7072C76.3867 85.6102 79.2478 85.5041 82.1181 85.3887C93.7657 84.9227 105.173 87.5484 115.469 93.0215L129.627 100.543L120.946 125.62L101.901 118.739Z" fill="#00E098"/>
<path d="M80.6043 38.2039C84.4207 40.0267 86.3266 46.0166 81.2596 51.7619V46.2935C81.2596 45.5044 80.9366 44.7845 80.4197 44.263C79.8983 43.7462 79.183 43.4231 78.3893 43.4231C77.291 43.4231 76.2573 43.9954 75.7312 44.9552C74.7344 46.7642 72.8055 47.9917 70.5904 47.9917C68.3753 47.9917 66.451 46.7642 65.4496 44.9552C64.9235 43.9954 63.8899 43.4231 62.7962 43.4231H61.3195C56.8755 43.4231 53.2714 47.0272 53.2714 51.4712V55.366H50.3272C49.7596 55.366 49.2243 55.4906 48.7351 55.7167C46.9769 48.6055 45.5556 38.5223 50.5949 35.9381C52.1777 34.789 55.2603 35.4951 57.0139 34.9874C62.2239 33.4692 61.0887 29.1637 69.326 29.9205C74.8406 30.4235 75.1497 35.5966 80.6043 38.2039Z" fill="#373A3A"/>
<path d="M81.2588 51.7629V66.8668C81.2588 71.9015 78.0146 76.1793 73.5015 77.7206C72.3386 78.1221 71.088 78.339 69.7866 78.339H63.5014C59.5973 78.339 56.2009 76.1424 54.475 72.9306C53.7044 71.4954 53.2706 69.8525 53.2706 68.1128V64.9286H50.3264C48.1621 64.9286 46.3439 63.0966 46.1085 60.6739C45.8917 58.4773 47.0269 56.493 48.7343 55.7223C49.2235 55.4962 49.7588 55.3716 50.3264 55.3716H53.2706V51.4768C53.2706 47.0328 56.8747 43.4287 61.3186 43.4287H62.7953C63.889 43.4287 64.9227 44.0009 65.4488 44.9608C66.4502 46.7698 68.3745 47.9973 70.5896 47.9973C72.8046 47.9973 74.7336 46.7698 75.7304 44.9608C76.2564 44.0009 77.2901 43.4287 78.3884 43.4287C79.1822 43.4287 79.8974 43.7517 80.4189 44.2686C80.9358 44.7901 81.2588 45.5099 81.2588 46.2991V51.7675V51.7629Z" fill="white"/>
<path d="M73.503 77.7188V85.7068C73.503 94.6963 54.4766 93.6857 54.4766 86.136V72.9287C56.2025 76.1452 59.5989 78.3372 63.5029 78.3372H69.7882C71.0895 78.3372 72.3401 78.1203 73.503 77.7188Z" fill="white"/>
<path d="M11.1717 111.716C12.9484 111.716 14.3835 113.183 14.3328 114.974C14.2774 116.704 12.7684 118.042 11.0379 118.042H1.92844C-0.249702 118.042 -2.30325 117.498 -4.10299 116.538C-8.24699 114.328 -11.0343 109.911 -10.8912 104.854C-10.702 97.8669 -4.79519 92.3846 2.19609 92.3846H6.39087C7.50763 92.3846 8.90589 92.1078 10.1149 91.734C11.1671 91.4017 12.3577 91.8401 12.9345 92.9015C13.1606 93.326 13.2206 93.806 13.1837 94.2859C13.1053 95.2042 12.7407 96.0949 11.9193 96.9763H8.48133C7.90449 96.9763 7.38303 97.2116 7.00462 97.59C6.62622 97.9638 6.39087 98.4899 6.39087 99.0621H15.7864C17.5631 99.0621 18.9983 100.534 18.9475 102.325C18.8921 104.055 17.3831 105.389 15.6526 105.389H15.7864C17.5631 105.389 18.9983 106.856 18.9475 108.651C18.8921 110.382 17.3831 111.716 15.6526 111.716H11.1717Z" fill="white"/>
<path d="M54.4749 72.9257C53.7043 71.4905 53.2705 69.8477 53.2705 68.1079V64.9238H50.3263C48.162 64.9238 46.3438 63.0917 46.1085 60.669C45.8916 58.4724 47.0314 56.4973 48.7342 55.7174C49.2234 55.4913 49.7587 55.3667 50.3263 55.3667H53.2705V51.4719C53.2705 47.0279 56.8746 43.4238 61.3185 43.4238H62.7953C63.8889 43.4238 64.9226 43.9961 65.4487 44.9559C66.4501 46.7649 68.3744 47.9924 70.5895 47.9924C72.8046 47.9924 74.7335 46.7649 75.7303 44.9559C76.2564 43.9961 77.2901 43.4238 78.3884 43.4238C79.1821 43.4238 79.8974 43.7469 80.4188 44.2637C80.9357 44.7852 81.2587 45.5051 81.2587 46.2942V66.8666C81.2587 71.9012 78.0099 76.1744 73.5014 77.7204C72.3385 78.1218 71.0879 78.3387 69.7865 78.3387H63.5013C59.5973 78.3387 56.2008 76.1467 54.4749 72.9303V72.9257Z" stroke="#373A3A" stroke-width="0.821527" stroke-linecap="round" stroke-linejoin="round"/>
<path d="M101.716 110.327L102.81 160.101L51.5449 175.588" stroke="#373A3A" stroke-width="0.821527" stroke-linecap="round" stroke-linejoin="round"/>
<path d="M26.6816 96.9769C27.1016 94.7434 28.0937 92.6253 29.5981 90.8486C32.1408 87.8537 35.8788 86.1278 39.8059 86.1554C44.9282 86.197 49.7921 86.1877 54.476 86.137V72.9297" stroke="#373A3A" stroke-width="0.821527" stroke-linecap="round" stroke-linejoin="round"/>
<path d="M69.2296 54.7666C68.6527 58.5091 73.4336 64.3006 67.8359 63.7053" stroke="#373A3A" stroke-width="0.821527" stroke-linecap="round" stroke-linejoin="round"/>
<path d="M63.0312 59.7674V56.957" stroke="#373A3A" stroke-width="1.23229" stroke-linecap="round" stroke-linejoin="round"/>
<path d="M74.0605 59.7674V56.957" stroke="#373A3A" stroke-width="1.23229" stroke-linecap="round" stroke-linejoin="round"/>
<path d="M59.377 54.4039C62.5057 53.0703 64.3516 53.0195 64.3516 53.0195" stroke="#373A3A" stroke-width="1.23229" stroke-linecap="round" stroke-linejoin="round"/>
<path d="M77.2181 54.4039C74.0939 53.0703 72.248 53.0195 72.248 53.0195" stroke="#373A3A" stroke-width="1.23229" stroke-linecap="round" stroke-linejoin="round"/>
<path d="M64.9707 67.5352C65.9767 69.2934 68.3625 69.5656 69.6316 68.9888" stroke="#373A3A" stroke-width="0.821527" stroke-linecap="round" stroke-linejoin="round"/>
<path d="M48.7351 55.7167C46.9769 48.6055 45.5556 38.5223 50.5949 35.9381C52.1777 34.789 55.2603 35.4951 57.0139 34.9874C62.2239 33.4692 61.0887 29.1637 69.326 29.9205C74.8406 30.4235 75.1497 35.5966 80.6043 38.2039C84.4207 40.0267 86.3266 46.0166 81.2596 51.7619" stroke="#373A3A" stroke-width="0.821527" stroke-linecap="round" stroke-linejoin="round"/>
<path d="M51.4642 58.0098C49.7199 58.0098 48.0078 59.7541 49.6876 61.8307" stroke="#373A3A" stroke-width="0.821527" stroke-linecap="round" stroke-linejoin="round"/>
<path d="M54.4766 86.1362C54.4766 93.6859 73.503 94.6965 73.503 85.707" stroke="#373A3A" stroke-width="0.821527" stroke-linecap="round" stroke-linejoin="round"/>
<path d="M3.46094 111.716H15.653C17.3835 111.716 18.8925 110.383 18.9479 108.652C18.9987 106.857 17.5635 105.39 15.7868 105.39H15.653" stroke="#373A3A" stroke-width="0.821527" stroke-linecap="round" stroke-linejoin="round"/>
<path d="M177.545 53.8446L182.358 40.5726C182.82 39.2898 182.252 37.8684 181.034 37.2593C179.631 36.5578 177.928 37.0885 177.171 38.4637L163.295 63.7293C163.041 64.1907 162.529 64.4445 162.012 64.3707C161.491 64.2969 161.071 63.9046 160.96 63.3924L159.382 56.1658C158.953 54.2045 157.268 52.7693 155.265 52.6586C154.545 52.617 153.839 52.8939 153.341 53.4154C152.838 53.9368 152.589 54.6521 152.658 55.372L153.798 67.2826C154.061 70.0191 153.47 72.7741 152.109 75.1645L138.154 99.6317C136.825 101.962 133.89 102.811 131.523 101.556L115.468 93.0234C105.173 87.5504 93.7651 84.9246 82.1176 85.3907C79.2473 85.5061 76.3861 85.6122 73.502 85.7091V77.7211" stroke="#373A3A" stroke-width="0.821527" stroke-linecap="round" stroke-linejoin="round"/>
<path d="M101.898 118.742L137.321 131.539C144.165 134.012 151.779 130.999 155.069 124.511L184.756 66.0146" stroke="#373A3A" stroke-width="0.821527" stroke-linecap="round" stroke-linejoin="round"/>
</g>
<circle cx="64.4326" cy="65.1182" r="46.4381" stroke="#0038B8" stroke-width="1.3602"/>
</g>
<g clip-path="url(#clip1_670_5796)">
<path d="M373.644 51.7286C383.046 51.7286 390.667 44.1072 390.667 34.7056C390.667 25.3041 383.046 17.6826 373.644 17.6826C364.243 17.6826 356.621 25.3041 356.621 34.7056C356.621 44.1072 364.243 51.7286 373.644 51.7286Z" fill="#F5F5F5"/>
</g>
<path d="M141.865 41.272L138.073 39.736C137.785 41.608 136.465 42.832 134.761 42.832C132.505 42.832 130.825 40.864 130.825 38.2C130.825 35.56 132.529 33.472 134.665 33.472C136.273 33.472 137.617 34.648 137.977 36.376L141.673 34.936C140.737 32.056 137.905 30.112 134.665 30.112C130.273 30.112 126.985 33.568 126.985 38.2C126.985 42.808 130.345 46.288 134.761 46.288C138.121 46.288 141.025 44.224 141.865 41.272ZM150.166 40.336V40.528C150.166 42.16 149.062 43.168 147.814 43.168C146.95 43.168 146.47 42.712 146.47 42.064C146.47 41.488 146.854 41.056 147.526 40.912L149.35 40.528C149.806 40.432 150.166 40.384 150.166 40.336ZM142.918 42.736C142.918 44.8 144.574 46.288 146.854 46.288C148.366 46.288 149.638 45.64 150.406 44.608L150.934 46H153.574L153.526 43.6V38.224C153.526 35.608 151.342 33.712 148.342 33.712C146.014 33.712 143.95 35.152 143.398 37.168L146.662 38.32C146.758 37.432 147.526 36.784 148.486 36.784C149.47 36.784 150.166 37.384 150.166 38.224C150.166 38.416 150.022 38.608 149.734 38.656L145.798 39.472C144.118 39.832 142.918 41.2 142.918 42.736ZM169.842 39.136V46H173.202V38.416C173.202 35.656 171.546 33.712 169.218 33.712C167.682 33.712 166.242 34.552 165.618 35.872C164.97 34.504 163.794 33.712 162.306 33.712C160.794 33.712 159.474 34.528 158.97 35.68L158.322 34H155.73V46H159.09V39.616C159.09 38.08 159.954 36.976 161.154 36.976C162.21 36.976 162.882 37.864 162.882 39.232V46H166.194V39.616C166.194 38.056 167.01 36.976 168.162 36.976C169.17 36.976 169.842 37.84 169.842 39.136ZM180.842 46.288C183.434 46.288 185.642 44.848 186.41 42.832L183.05 41.776C182.786 42.592 181.874 43.168 180.89 43.168C179.594 43.168 178.586 42.208 178.322 40.768H186.554C186.578 40.576 186.602 40.336 186.602 40C186.602 36.352 184.154 33.712 180.794 33.712C177.338 33.712 174.842 36.352 174.842 40C174.842 43.648 177.362 46.288 180.842 46.288ZM178.394 38.848C178.73 37.648 179.618 36.832 180.77 36.832C181.922 36.832 182.858 37.696 183.098 38.848H178.394ZM188.332 46H191.692V39.952C191.692 38.464 192.724 37.456 194.188 37.456C194.548 37.456 194.932 37.504 195.148 37.6L195.724 34C195.34 33.808 194.932 33.712 194.476 33.712C193.18 33.712 192.172 34.456 191.572 35.728L190.924 34H188.332V46ZM202.406 46.288C205.934 46.288 208.502 43.648 208.502 40C208.502 36.352 205.934 33.712 202.406 33.712C198.878 33.712 196.31 36.352 196.31 40C196.31 43.648 198.878 46.288 202.406 46.288ZM199.766 39.976C199.766 38.176 200.87 36.88 202.406 36.88C203.942 36.88 205.046 38.176 205.046 39.976C205.046 41.776 203.942 43.072 202.406 43.072C200.87 43.072 199.766 41.776 199.766 39.976ZM218.046 39.472V46H221.406V38.896C221.406 35.896 219.702 33.712 217.23 33.712C215.646 33.712 214.11 34.6 213.534 35.872L212.814 34H210.222V46H213.582V39.856C213.582 38.2 214.614 36.976 215.982 36.976C217.206 36.976 218.046 38.008 218.046 39.472ZM228.506 46H232.058V41.464L233.834 39.28L237.722 46H242.042L235.922 36.736L241.082 30.4H236.762L232.058 37.24V30.4H228.506V46ZM243.389 34V46H246.749V34H243.389ZM243.005 30.832C243.005 32.056 243.869 32.944 245.069 32.944C246.269 32.944 247.133 32.056 247.133 30.832C247.133 29.608 246.269 28.72 245.069 28.72C243.869 28.72 243.005 29.608 243.005 30.832ZM256.976 39.472V46H260.336V38.896C260.336 35.896 258.632 33.712 256.16 33.712C254.576 33.712 253.04 34.6 252.464 35.872L251.744 34H249.152V46H252.512V39.856C252.512 38.2 253.544 36.976 254.912 36.976C256.136 36.976 256.976 38.008 256.976 39.472ZM267.719 50.992C271.247 50.992 273.767 48.472 273.767 44.944V34H271.175L270.575 35.608C269.687 34.408 268.415 33.712 266.903 33.712C264.095 33.712 262.055 36.16 262.055 39.568C262.055 42.856 264.167 45.232 267.095 45.232C268.439 45.232 269.591 44.656 270.407 43.672V45.424C270.407 46.912 269.351 48.016 267.911 48.016C266.639 48.016 265.607 47.128 265.415 45.904L261.863 46.816C262.295 49.216 264.767 50.992 267.719 50.992ZM265.607 39.952C265.607 38.224 266.639 36.976 268.055 36.976C269.471 36.976 270.503 38.224 270.503 39.952C270.503 41.68 269.471 42.928 268.055 42.928C266.639 42.928 265.607 41.68 265.607 39.952Z" fill="#373A3A"/>
<g clip-path="url(#clip2_670_5796)">
<path d="M286.364 44.9144L287.93 38.146L282.679 33.5936L289.616 32.9914L292.313 26.6084L295.011 32.9914L301.948 33.5936L296.697 38.146L298.263 44.9144L292.313 41.3254L286.364 44.9144Z" fill="#F4B656"/>
</g>
<path d="M310.98 46.288C314.34 46.288 316.74 43.936 316.74 40.72C316.74 37.696 314.724 35.632 311.748 35.632C310.404 35.632 309.156 36.016 308.292 36.784L308.58 33.712H315.876V30.4H306.66L305.604 38.032L308.964 38.8C309.252 38.032 309.972 37.552 310.788 37.552C312.036 37.552 312.948 38.632 312.948 40.24C312.948 41.776 312.084 42.928 310.74 42.928C309.42 42.928 308.58 41.872 308.58 40.432L304.836 40.816C304.836 43.984 307.452 46.288 310.98 46.288Z" fill="#F4B656"/>
<g clip-path="url(#clip3_670_5796)">
<mask id="mask1_670_5796" style="mask-type:luminance" maskUnits="userSpaceOnUse" x="126" y="51" width="17" height="16">
<path d="M134.312 67C138.731 67 142.312 63.4183 142.312 59C142.312 54.5817 138.731 51 134.312 51C129.894 51 126.312 54.5817 126.312 59C126.312 63.4183 129.894 67 134.312 67Z" fill="white"/>
</mask>
<g mask="url(#mask1_670_5796)">
<path d="M126.312 51L126.562 51.6875L126.312 52.4062V53.125L127.312 54.8125L126.312 56.5V57.5L127.312 59L126.312 60.5V61.5L127.312 63.1875L126.312 64.875V67L127 66.75L127.719 67H128.438L130.125 66L131.812 67H132.812L134.312 66L135.812 67H136.812L138.5 66L140.188 67H142.312L142.062 66.3125L142.312 65.5938V64.875L141.312 63.1875L142.312 61.5V60.5L141.312 59L142.312 57.5V56.5L141.312 54.8125L142.312 53.125V51L141.625 51.25L140.906 51H140.188L138.5 52L136.812 51H135.812L134.312 52L132.812 51H131.812L130.125 52L128.438 51H126.312Z" fill="#EEEEEE"/>
<path d="M136.812 51V54.375L140.188 51H136.812ZM142.312 53.125L138.938 56.5H142.312V53.125ZM126.312 56.5H129.688L126.312 53.125V56.5ZM128.438 51L131.812 54.375V51H128.438ZM131.812 67V63.625L128.438 67H131.812ZM126.312 64.875L129.688 61.5H126.312V64.875ZM142.312 61.5H138.938L142.312 64.875V61.5ZM140.188 67L136.812 63.625V67H140.188Z" fill="#0052B4"/>
<path d="M126.312 51V52.4062L130.406 56.5H131.812L126.312 51ZM132.812 51V57.5H126.312V60.5H132.812V67H135.812V60.5H142.312V57.5H135.812V51H132.812ZM140.906 51L136.812 55.0938V56.5L142.312 51H140.906ZM131.812 61.5L126.312 67H127.719L131.812 62.9062V61.5ZM136.812 61.5L142.312 67V65.5938L138.219 61.5H136.812Z" fill="#D80027"/>
</g>
</g>
<path opacity="0.7" d="M148.81 63.5V54.7727H149.867V62.5625H153.923V63.5H148.81ZM158.082 63.6364C157.492 63.6364 156.973 63.4957 156.527 63.2145C156.084 62.9332 155.737 62.5398 155.487 62.0341C155.24 61.5284 155.117 60.9375 155.117 60.2614C155.117 59.5795 155.24 58.9844 155.487 58.4759C155.737 57.9673 156.084 57.5724 156.527 57.2912C156.973 57.0099 157.492 56.8693 158.082 56.8693C158.673 56.8693 159.19 57.0099 159.634 57.2912C160.08 57.5724 160.426 57.9673 160.673 58.4759C160.923 58.9844 161.048 59.5795 161.048 60.2614C161.048 60.9375 160.923 61.5284 160.673 62.0341C160.426 62.5398 160.08 62.9332 159.634 63.2145C159.19 63.4957 158.673 63.6364 158.082 63.6364ZM158.082 62.733C158.531 62.733 158.901 62.6179 159.19 62.3878C159.48 62.1577 159.695 61.8551 159.834 61.4801C159.973 61.1051 160.043 60.6989 160.043 60.2614C160.043 59.8239 159.973 59.4162 159.834 59.0384C159.695 58.6605 159.48 58.3551 159.19 58.1222C158.901 57.8892 158.531 57.7727 158.082 57.7727C157.634 57.7727 157.264 57.8892 156.975 58.1222C156.685 58.3551 156.47 58.6605 156.331 59.0384C156.192 59.4162 156.122 59.8239 156.122 60.2614C156.122 60.6989 156.192 61.1051 156.331 61.4801C156.47 61.8551 156.685 62.1577 156.975 62.3878C157.264 62.6179 157.634 62.733 158.082 62.733ZM163.589 59.5625V63.5H162.584V56.9545H163.555V57.9773H163.64C163.794 57.6449 164.027 57.3778 164.339 57.1761C164.652 56.9716 165.055 56.8693 165.549 56.8693C165.993 56.8693 166.38 56.9602 166.713 57.142C167.045 57.321 167.304 57.5938 167.488 57.9602C167.673 58.3239 167.765 58.7841 167.765 59.3409V63.5H166.76V59.4091C166.76 58.8949 166.626 58.4943 166.359 58.2074C166.092 57.9176 165.726 57.7727 165.26 57.7727C164.939 57.7727 164.652 57.8423 164.399 57.9815C164.149 58.1207 163.951 58.3239 163.807 58.5909C163.662 58.858 163.589 59.1818 163.589 59.5625ZM172.075 63.6364C171.529 63.6364 171.048 63.4986 170.63 63.223C170.212 62.9446 169.886 62.5526 169.65 62.0469C169.414 61.5384 169.296 60.9375 169.296 60.2443C169.296 59.5568 169.414 58.9602 169.65 58.4545C169.886 57.9489 170.214 57.5582 170.634 57.2827C171.055 57.0071 171.541 56.8693 172.092 56.8693C172.518 56.8693 172.854 56.9403 173.102 57.0824C173.352 57.2216 173.542 57.3807 173.673 57.5597C173.806 57.7358 173.91 57.8807 173.984 57.9943H174.069V54.7727H175.075V63.5H174.103V62.4943H173.984C173.91 62.6136 173.805 62.7642 173.668 62.946C173.532 63.125 173.337 63.2855 173.085 63.4276C172.832 63.5668 172.495 63.6364 172.075 63.6364ZM172.211 62.733C172.614 62.733 172.955 62.6278 173.234 62.4176C173.512 62.2045 173.724 61.9105 173.869 61.5355C174.014 61.1577 174.086 60.7216 174.086 60.2273C174.086 59.7386 174.015 59.3111 173.873 58.9446C173.731 58.5753 173.521 58.2884 173.242 58.0838C172.964 57.8764 172.62 57.7727 172.211 57.7727C171.785 57.7727 171.43 57.8821 171.146 58.1009C170.864 58.3168 170.653 58.6108 170.511 58.983C170.372 59.3523 170.302 59.767 170.302 60.2273C170.302 60.6932 170.373 61.1165 170.515 61.4972C170.66 61.875 170.873 62.1761 171.154 62.4006C171.438 62.6222 171.791 62.733 172.211 62.733ZM179.715 63.6364C179.124 63.6364 178.606 63.4957 178.16 63.2145C177.717 62.9332 177.37 62.5398 177.12 62.0341C176.873 61.5284 176.749 60.9375 176.749 60.2614C176.749 59.5795 176.873 58.9844 177.12 58.4759C177.37 57.9673 177.717 57.5724 178.16 57.2912C178.606 57.0099 179.124 56.8693 179.715 56.8693C180.306 56.8693 180.823 57.0099 181.266 57.2912C181.712 57.5724 182.059 57.9673 182.306 58.4759C182.556 58.9844 182.681 59.5795 182.681 60.2614C182.681 60.9375 182.556 61.5284 182.306 62.0341C182.059 62.5398 181.712 62.9332 181.266 63.2145C180.823 63.4957 180.306 63.6364 179.715 63.6364ZM179.715 62.733C180.164 62.733 180.533 62.6179 180.823 62.3878C181.113 62.1577 181.328 61.8551 181.467 61.4801C181.606 61.1051 181.676 60.6989 181.676 60.2614C181.676 59.8239 181.606 59.4162 181.467 59.0384C181.328 58.6605 181.113 58.3551 180.823 58.1222C180.533 57.8892 180.164 57.7727 179.715 57.7727C179.266 57.7727 178.897 57.8892 178.607 58.1222C178.318 58.3551 178.103 58.6605 177.964 59.0384C177.825 59.4162 177.755 59.8239 177.755 60.2614C177.755 60.6989 177.825 61.1051 177.964 61.4801C178.103 61.8551 178.318 62.1577 178.607 62.3878C178.897 62.6179 179.266 62.733 179.715 62.733ZM185.222 59.5625V63.5H184.216V56.9545H185.188V57.9773H185.273C185.427 57.6449 185.66 57.3778 185.972 57.1761C186.285 56.9716 186.688 56.8693 187.182 56.8693C187.625 56.8693 188.013 56.9602 188.346 57.142C188.678 57.321 188.937 57.5938 189.121 57.9602C189.306 58.3239 189.398 58.7841 189.398 59.3409V63.5H188.392V59.4091C188.392 58.8949 188.259 58.4943 187.992 58.2074C187.725 57.9176 187.358 57.7727 186.892 57.7727C186.571 57.7727 186.285 57.8423 186.032 57.9815C185.782 58.1207 185.584 58.3239 185.439 58.5909C185.294 58.858 185.222 59.1818 185.222 59.5625ZM192.736 62.3068L192.668 62.767C192.619 63.0909 192.546 63.4375 192.446 63.8068C192.35 64.1761 192.249 64.5241 192.144 64.8509C192.038 65.1776 191.952 65.4375 191.884 65.6307H191.117C191.153 65.4489 191.202 65.2088 191.261 64.9105C191.321 64.6122 191.381 64.2784 191.44 63.9091C191.503 63.5426 191.554 63.1676 191.594 62.7841L191.645 62.3068H192.736ZM203.838 54.7727H204.895V60.5511C204.895 61.1477 204.754 61.6804 204.473 62.1491C204.194 62.6151 203.801 62.983 203.292 63.2528C202.784 63.5199 202.187 63.6534 201.503 63.6534C200.818 63.6534 200.221 63.5199 199.713 63.2528C199.204 62.983 198.809 62.6151 198.528 62.1491C198.25 61.6804 198.111 61.1477 198.111 60.5511V54.7727H199.167V60.4659C199.167 60.892 199.261 61.2713 199.449 61.6037C199.636 61.9332 199.903 62.1932 200.25 62.3835C200.599 62.571 201.017 62.6648 201.503 62.6648C201.988 62.6648 202.406 62.571 202.755 62.3835C203.105 62.1932 203.372 61.9332 203.557 61.6037C203.744 61.2713 203.838 60.892 203.838 60.4659V54.7727ZM207.874 59.5625V63.5H206.869V56.9545H207.84V57.9773H207.926C208.079 57.6449 208.312 57.3778 208.624 57.1761C208.937 56.9716 209.34 56.8693 209.835 56.8693C210.278 56.8693 210.666 56.9602 210.998 57.142C211.33 57.321 211.589 57.5938 211.774 57.9602C211.958 58.3239 212.051 58.7841 212.051 59.3409V63.5H211.045V59.4091C211.045 58.8949 210.911 58.4943 210.644 58.2074C210.377 57.9176 210.011 57.7727 209.545 57.7727C209.224 57.7727 208.937 57.8423 208.684 57.9815C208.434 58.1207 208.237 58.3239 208.092 58.5909C207.947 58.858 207.874 59.1818 207.874 59.5625ZM213.888 63.5V56.9545H214.894V63.5H213.888ZM214.4 55.8636C214.204 55.8636 214.035 55.7969 213.892 55.6634C213.753 55.5298 213.684 55.3693 213.684 55.1818C213.684 54.9943 213.753 54.8338 213.892 54.7003C214.035 54.5668 214.204 54.5 214.4 54.5C214.596 54.5 214.763 54.5668 214.902 54.7003C215.044 54.8338 215.116 54.9943 215.116 55.1818C215.116 55.3693 215.044 55.5298 214.902 55.6634C214.763 55.7969 214.596 55.8636 214.4 55.8636ZM219.582 56.9545V57.8068H216.19V56.9545H219.582ZM217.179 55.3864H218.185V61.625C218.185 61.9091 218.226 62.1222 218.308 62.2642C218.394 62.4034 218.502 62.4972 218.632 62.5455C218.766 62.5909 218.906 62.6136 219.054 62.6136C219.165 62.6136 219.256 62.608 219.327 62.5966C219.398 62.5824 219.455 62.571 219.497 62.5625L219.702 63.4659C219.634 63.4915 219.538 63.517 219.416 63.5426C219.294 63.571 219.139 63.5852 218.952 63.5852C218.668 63.5852 218.389 63.5241 218.117 63.402C217.847 63.2798 217.622 63.0938 217.443 62.8438C217.267 62.5938 217.179 62.2784 217.179 61.8977V55.3864ZM223.769 63.6364C223.139 63.6364 222.595 63.4972 222.137 63.2188C221.683 62.9375 221.332 62.5455 221.085 62.0426C220.84 61.5369 220.718 60.9489 220.718 60.2784C220.718 59.608 220.84 59.017 221.085 58.5057C221.332 57.9915 221.676 57.5909 222.116 57.304C222.559 57.0142 223.076 56.8693 223.667 56.8693C224.008 56.8693 224.345 56.9261 224.677 57.0398C225.009 57.1534 225.312 57.3381 225.585 57.5938C225.857 57.8466 226.075 58.1818 226.237 58.5994C226.399 59.017 226.479 59.5312 226.479 60.142V60.5682H221.434V59.6989H225.457C225.457 59.3295 225.383 59 225.235 58.7102C225.09 58.4205 224.883 58.1918 224.613 58.0241C224.346 57.8565 224.031 57.7727 223.667 57.7727C223.266 57.7727 222.92 57.8722 222.627 58.071C222.337 58.267 222.114 58.5227 221.958 58.8381C221.802 59.1534 221.724 59.4915 221.724 59.8523V60.4318C221.724 60.9261 221.809 61.3452 221.979 61.6889C222.153 62.0298 222.393 62.2898 222.7 62.4688C223.006 62.6449 223.363 62.733 223.769 62.733C224.033 62.733 224.272 62.696 224.485 62.6222C224.701 62.5455 224.887 62.4318 225.043 62.2812C225.2 62.1278 225.32 61.9375 225.406 61.7102L226.377 61.983C226.275 62.3125 226.103 62.6023 225.862 62.8523C225.62 63.0994 225.322 63.2926 224.967 63.4318C224.612 63.5682 224.212 63.6364 223.769 63.6364ZM230.481 63.6364C229.935 63.6364 229.454 63.4986 229.036 63.223C228.619 62.9446 228.292 62.5526 228.056 62.0469C227.82 61.5384 227.703 60.9375 227.703 60.2443C227.703 59.5568 227.82 58.9602 228.056 58.4545C228.292 57.9489 228.62 57.5582 229.041 57.2827C229.461 57.0071 229.947 56.8693 230.498 56.8693C230.924 56.8693 231.261 56.9403 231.508 57.0824C231.758 57.2216 231.948 57.3807 232.079 57.5597C232.212 57.7358 232.316 57.8807 232.39 57.9943H232.475V54.7727H233.481V63.5H232.509V62.4943H232.39C232.316 62.6136 232.211 62.7642 232.075 62.946C231.938 63.125 231.744 63.2855 231.491 63.4276C231.238 63.5668 230.901 63.6364 230.481 63.6364ZM230.617 62.733C231.021 62.733 231.362 62.6278 231.64 62.4176C231.918 62.2045 232.13 61.9105 232.275 61.5355C232.42 61.1577 232.492 60.7216 232.492 60.2273C232.492 59.7386 232.421 59.3111 232.279 58.9446C232.137 58.5753 231.927 58.2884 231.649 58.0838C231.37 57.8764 231.026 57.7727 230.617 57.7727C230.191 57.7727 229.836 57.8821 229.552 58.1009C229.271 58.3168 229.059 58.6108 228.917 58.983C228.778 59.3523 228.708 59.767 228.708 60.2273C228.708 60.6932 228.779 61.1165 228.921 61.4972C229.066 61.875 229.279 62.1761 229.56 62.4006C229.845 62.6222 230.197 62.733 230.617 62.733ZM238.974 63.5V54.7727H240.031V59.1023H240.133L244.053 54.7727H245.434L241.769 58.7102L245.434 63.5H244.156L241.122 59.4432L240.031 60.6705V63.5H238.974ZM247.076 63.5V56.9545H248.081V63.5H247.076ZM247.587 55.8636C247.391 55.8636 247.222 55.7969 247.08 55.6634C246.941 55.5298 246.871 55.3693 246.871 55.1818C246.871 54.9943 246.941 54.8338 247.08 54.7003C247.222 54.5668 247.391 54.5 247.587 54.5C247.783 54.5 247.951 54.5668 248.09 54.7003C248.232 54.8338 248.303 54.9943 248.303 55.1818C248.303 55.3693 248.232 55.5298 248.09 55.6634C247.951 55.7969 247.783 55.8636 247.587 55.8636ZM250.929 59.5625V63.5H249.923V56.9545H250.895V57.9773H250.98C251.134 57.6449 251.367 57.3778 251.679 57.1761C251.992 56.9716 252.395 56.8693 252.889 56.8693C253.332 56.8693 253.72 56.9602 254.053 57.142C254.385 57.321 254.644 57.5938 254.828 57.9602C255.013 58.3239 255.105 58.7841 255.105 59.3409V63.5H254.1V59.4091C254.1 58.8949 253.966 58.4943 253.699 58.2074C253.432 57.9176 253.065 57.7727 252.6 57.7727C252.278 57.7727 251.992 57.8423 251.739 57.9815C251.489 58.1207 251.291 58.3239 251.146 58.5909C251.002 58.858 250.929 59.1818 250.929 59.5625ZM259.585 66.0909C259.099 66.0909 258.682 66.0284 258.332 65.9034C257.983 65.7812 257.691 65.6193 257.459 65.4176C257.228 65.2188 257.045 65.0057 256.909 64.7784L257.71 64.2159C257.801 64.3352 257.916 64.4716 258.055 64.625C258.194 64.7812 258.385 64.9162 258.626 65.0298C258.87 65.1463 259.19 65.2045 259.585 65.2045C260.113 65.2045 260.549 65.0767 260.893 64.821C261.237 64.5653 261.409 64.1648 261.409 63.6193V62.2898H261.324C261.25 62.4091 261.145 62.5568 261.008 62.733C260.875 62.9062 260.682 63.0611 260.429 63.1974C260.179 63.331 259.841 63.3977 259.415 63.3977C258.886 63.3977 258.412 63.2727 257.991 63.0227C257.574 62.7727 257.243 62.4091 256.998 61.9318C256.757 61.4545 256.636 60.875 256.636 60.1932C256.636 59.5227 256.754 58.9389 256.99 58.4418C257.226 57.9418 257.554 57.5554 257.974 57.2827C258.395 57.0071 258.88 56.8693 259.432 56.8693C259.858 56.8693 260.196 56.9403 260.446 57.0824C260.699 57.2216 260.892 57.3807 261.025 57.5597C261.162 57.7358 261.267 57.8807 261.341 57.9943H261.443V56.9545H262.415V63.6875C262.415 64.25 262.287 64.7074 262.031 65.0597C261.778 65.4148 261.437 65.6747 261.008 65.8395C260.582 66.0071 260.108 66.0909 259.585 66.0909ZM259.551 62.4943C259.954 62.4943 260.295 62.402 260.574 62.2173C260.852 62.0327 261.064 61.767 261.209 61.4205C261.353 61.0739 261.426 60.6591 261.426 60.1761C261.426 59.7045 261.355 59.2884 261.213 58.9276C261.071 58.5668 260.861 58.2841 260.582 58.0795C260.304 57.875 259.96 57.7727 259.551 57.7727C259.125 57.7727 258.77 57.8807 258.486 58.0966C258.204 58.3125 257.993 58.6023 257.851 58.9659C257.711 59.3295 257.642 59.733 257.642 60.1761C257.642 60.6307 257.713 61.0327 257.855 61.3821C258 61.7287 258.213 62.0014 258.494 62.2003C258.778 62.3963 259.13 62.4943 259.551 62.4943ZM266.727 63.6364C266.182 63.6364 265.7 63.4986 265.282 63.223C264.865 62.9446 264.538 62.5526 264.302 62.0469C264.066 61.5384 263.949 60.9375 263.949 60.2443C263.949 59.5568 264.066 58.9602 264.302 58.4545C264.538 57.9489 264.866 57.5582 265.287 57.2827C265.707 57.0071 266.193 56.8693 266.744 56.8693C267.17 56.8693 267.507 56.9403 267.754 57.0824C268.004 57.2216 268.194 57.3807 268.325 57.5597C268.459 57.7358 268.562 57.8807 268.636 57.9943H268.721V54.7727H269.727V63.5H268.755V62.4943H268.636C268.562 62.6136 268.457 62.7642 268.321 62.946C268.184 63.125 267.99 63.2855 267.737 63.4276C267.484 63.5668 267.147 63.6364 266.727 63.6364ZM266.863 62.733C267.267 62.733 267.608 62.6278 267.886 62.4176C268.165 62.2045 268.376 61.9105 268.521 61.5355C268.666 61.1577 268.738 60.7216 268.738 60.2273C268.738 59.7386 268.667 59.3111 268.525 58.9446C268.383 58.5753 268.173 58.2884 267.895 58.0838C267.616 57.8764 267.272 57.7727 266.863 57.7727C266.437 57.7727 266.082 57.8821 265.798 58.1009C265.517 58.3168 265.305 58.6108 265.163 58.983C265.024 59.3523 264.954 59.767 264.954 60.2273C264.954 60.6932 265.025 61.1165 265.167 61.4972C265.312 61.875 265.525 62.1761 265.807 62.4006C266.091 62.6222 266.443 62.733 266.863 62.733ZM274.368 63.6364C273.777 63.6364 273.258 63.4957 272.812 63.2145C272.369 62.9332 272.022 62.5398 271.772 62.0341C271.525 61.5284 271.402 60.9375 271.402 60.2614C271.402 59.5795 271.525 58.9844 271.772 58.4759C272.022 57.9673 272.369 57.5724 272.812 57.2912C273.258 57.0099 273.777 56.8693 274.368 56.8693C274.959 56.8693 275.476 57.0099 275.919 57.2912C276.365 57.5724 276.711 57.9673 276.959 58.4759C277.209 58.9844 277.334 59.5795 277.334 60.2614C277.334 60.9375 277.209 61.5284 276.959 62.0341C276.711 62.5398 276.365 62.9332 275.919 63.2145C275.476 63.4957 274.959 63.6364 274.368 63.6364ZM274.368 62.733C274.816 62.733 275.186 62.6179 275.476 62.3878C275.765 62.1577 275.98 61.8551 276.119 61.4801C276.258 61.1051 276.328 60.6989 276.328 60.2614C276.328 59.8239 276.258 59.4162 276.119 59.0384C275.98 58.6605 275.765 58.3551 275.476 58.1222C275.186 57.8892 274.816 57.7727 274.368 57.7727C273.919 57.7727 273.549 57.8892 273.26 58.1222C272.97 58.3551 272.755 58.6605 272.616 59.0384C272.477 59.4162 272.407 59.8239 272.407 60.2614C272.407 60.6989 272.477 61.1051 272.616 61.4801C272.755 61.8551 272.97 62.1577 273.26 62.3878C273.549 62.6179 273.919 62.733 274.368 62.733ZM278.869 63.5V56.9545H279.84V57.9773H279.926C280.062 57.6278 280.282 57.3565 280.586 57.1634C280.89 56.9673 281.255 56.8693 281.681 56.8693C282.113 56.8693 282.472 56.9673 282.759 57.1634C283.049 57.3565 283.275 57.6278 283.437 57.9773H283.505C283.673 57.6392 283.924 57.3707 284.259 57.1719C284.595 56.9702 284.997 56.8693 285.465 56.8693C286.051 56.8693 286.529 57.0526 286.901 57.419C287.274 57.7827 287.46 58.3494 287.46 59.1193V63.5H286.454V59.1193C286.454 58.6364 286.322 58.2912 286.058 58.0838C285.793 57.8764 285.482 57.7727 285.124 57.7727C284.664 57.7727 284.308 57.9119 284.055 58.1903C283.802 58.4659 283.676 58.8153 283.676 59.2386V63.5H282.653V59.017C282.653 58.6449 282.532 58.3452 282.291 58.1179C282.049 57.8878 281.738 57.7727 281.357 57.7727C281.096 57.7727 280.852 57.8423 280.624 57.9815C280.4 58.1207 280.218 58.3139 280.079 58.5611C279.943 58.8054 279.874 59.0881 279.874 59.4091V63.5H278.869Z" fill="#373A3A"/>
<path d="M126.892 81.1611V80.3941C126.892 80.1611 126.933 79.914 127.016 79.6526C127.101 79.3884 127.223 79.1341 127.382 78.8898C127.544 78.6427 127.739 78.4282 127.966 78.2464L128.511 78.6895C128.332 78.9452 128.176 79.2123 128.043 79.4907C127.912 79.7662 127.847 80.0617 127.847 80.377V81.1611H126.892ZM129.074 81.1611V80.3941C129.074 80.1611 129.115 79.914 129.197 79.6526C129.283 79.3884 129.405 79.1341 129.564 78.8898C129.726 78.6427 129.92 78.4282 130.148 78.2464L130.693 78.6895C130.514 78.9452 130.358 79.2123 130.224 79.4907C130.094 79.7662 130.028 80.0617 130.028 80.377V81.1611H129.074ZM131.462 79.3714V78.4339H138.008V79.3714H135.263V87.1611H134.207V79.3714H131.462ZM140.508 83.2236V87.1611H139.502V78.4339H140.508V81.6384H140.593C140.747 81.3003 140.977 81.0319 141.284 80.833C141.593 80.6313 142.005 80.5305 142.52 80.5305C142.966 80.5305 143.356 80.6199 143.691 80.7989C144.027 80.9751 144.287 81.2464 144.471 81.6128C144.659 81.9765 144.752 82.4395 144.752 83.002V87.1611H143.747V83.0702C143.747 82.5503 143.612 82.1483 143.342 81.8643C143.075 81.5773 142.704 81.4339 142.23 81.4339C141.9 81.4339 141.605 81.5035 141.343 81.6427C141.085 81.7819 140.88 81.985 140.73 82.252C140.582 82.5191 140.508 82.843 140.508 83.2236ZM149.337 87.2975C148.706 87.2975 148.162 87.1583 147.705 86.8799C147.25 86.5986 146.899 86.2066 146.652 85.7037C146.408 85.1981 146.286 84.61 146.286 83.9395C146.286 83.2691 146.408 82.6782 146.652 82.1668C146.899 81.6526 147.243 81.252 147.683 80.9651C148.126 80.6753 148.643 80.5305 149.234 80.5305C149.575 80.5305 149.912 80.5873 150.244 80.7009C150.577 80.8145 150.879 80.9992 151.152 81.2549C151.425 81.5077 151.642 81.843 151.804 82.2606C151.966 82.6782 152.047 83.1924 152.047 83.8032V84.2293H147.001V83.36H151.024C151.024 82.9907 150.95 82.6611 150.803 82.3714C150.658 82.0816 150.45 81.8529 150.18 81.6853C149.913 81.5177 149.598 81.4339 149.234 81.4339C148.834 81.4339 148.487 81.5333 148.195 81.7322C147.905 81.9282 147.682 82.1839 147.526 82.4992C147.369 82.8145 147.291 83.1526 147.291 83.5134V84.093C147.291 84.5873 147.376 85.0063 147.547 85.3501C147.72 85.691 147.96 85.9509 148.267 86.1299C148.574 86.306 148.93 86.3941 149.337 86.3941C149.601 86.3941 149.839 86.3572 150.053 86.2833C150.268 86.2066 150.455 86.093 150.611 85.9424C150.767 85.789 150.888 85.5986 150.973 85.3714L151.945 85.6441C151.842 85.9736 151.67 86.2634 151.429 86.5134C151.188 86.7606 150.889 86.9537 150.534 87.093C150.179 87.2293 149.78 87.2975 149.337 87.2975ZM157.088 87.1611V78.4339H160.037C160.719 78.4339 161.278 78.5503 161.716 78.7833C162.153 79.0134 162.477 79.3302 162.688 79.7336C162.898 80.137 163.003 80.5958 163.003 81.11C163.003 81.6242 162.898 82.0802 162.688 82.4779C162.477 82.8756 162.155 83.1881 161.72 83.4154C161.286 83.6398 160.73 83.752 160.054 83.752H157.668V82.7975H160.02C160.486 82.7975 160.861 82.7293 161.145 82.593C161.432 82.4566 161.639 82.2634 161.767 82.0134C161.898 81.7606 161.963 81.4594 161.963 81.11C161.963 80.7606 161.898 80.4552 161.767 80.1938C161.636 79.9324 161.428 79.7307 161.141 79.5887C160.854 79.4438 160.474 79.3714 160.003 79.3714H158.145V87.1611H157.088ZM161.196 83.2407L163.344 87.1611H162.116L160.003 83.2407H161.196ZM167.301 87.2975C166.671 87.2975 166.127 87.1583 165.669 86.8799C165.215 86.5986 164.864 86.2066 164.617 85.7037C164.373 85.1981 164.25 84.61 164.25 83.9395C164.25 83.2691 164.373 82.6782 164.617 82.1668C164.864 81.6526 165.208 81.252 165.648 80.9651C166.091 80.6753 166.608 80.5305 167.199 80.5305C167.54 80.5305 167.877 80.5873 168.209 80.7009C168.542 80.8145 168.844 80.9992 169.117 81.2549C169.39 81.5077 169.607 81.843 169.769 82.2606C169.931 82.6782 170.012 83.1924 170.012 83.8032V84.2293H164.966V83.36H168.989C168.989 82.9907 168.915 82.6611 168.767 82.3714C168.623 82.0816 168.415 81.8529 168.145 81.6853C167.878 81.5177 167.563 81.4339 167.199 81.4339C166.799 81.4339 166.452 81.5333 166.159 81.7322C165.87 81.9282 165.647 82.1839 165.49 82.4992C165.334 82.8145 165.256 83.1526 165.256 83.5134V84.093C165.256 84.5873 165.341 85.0063 165.512 85.3501C165.685 85.691 165.925 85.9509 166.232 86.1299C166.539 86.306 166.895 86.3941 167.301 86.3941C167.566 86.3941 167.804 86.3572 168.017 86.2833C168.233 86.2066 168.419 86.093 168.576 85.9424C168.732 85.789 168.853 85.5986 168.938 85.3714L169.909 85.6441C169.807 85.9736 169.635 86.2634 169.394 86.5134C169.152 86.7606 168.854 86.9537 168.499 87.093C168.144 87.2293 167.745 87.2975 167.301 87.2975ZM176.695 80.6157L174.274 87.1611H173.251L170.831 80.6157H171.922L173.729 85.8316H173.797L175.604 80.6157H176.695ZM178.022 87.1611V80.6157H179.028V87.1611H178.022ZM178.533 79.5248C178.337 79.5248 178.168 79.458 178.026 79.3245C177.887 79.191 177.817 79.0305 177.817 78.843C177.817 78.6555 177.887 78.4949 178.026 78.3614C178.168 78.2279 178.337 78.1611 178.533 78.1611C178.729 78.1611 178.897 78.2279 179.036 78.3614C179.178 78.4949 179.249 78.6555 179.249 78.843C179.249 79.0305 179.178 79.191 179.036 79.3245C178.897 79.458 178.729 79.5248 178.533 79.5248ZM185.506 82.0816L184.603 82.3373C184.546 82.1867 184.462 82.0404 184.351 81.8983C184.243 81.7535 184.096 81.6341 183.908 81.5404C183.721 81.4466 183.48 81.3998 183.188 81.3998C182.787 81.3998 182.453 81.4921 182.186 81.6768C181.922 81.8586 181.79 82.0901 181.79 82.3714C181.79 82.6214 181.881 82.8188 182.063 82.9637C182.245 83.1086 182.529 83.2293 182.915 83.3259L183.887 83.5645C184.472 83.7066 184.908 83.9239 185.195 84.2165C185.482 84.5063 185.625 84.8799 185.625 85.3373C185.625 85.7123 185.517 86.0475 185.301 86.343C185.088 86.6384 184.79 86.8714 184.407 87.0418C184.023 87.2123 183.577 87.2975 183.069 87.2975C182.401 87.2975 181.848 87.1526 181.411 86.8628C180.973 86.5731 180.696 86.1498 180.58 85.593L181.534 85.3543C181.625 85.7066 181.797 85.9708 182.05 86.1469C182.306 86.3231 182.64 86.4111 183.051 86.4111C183.52 86.4111 183.892 86.3117 184.168 86.1128C184.446 85.9111 184.586 85.6697 184.586 85.3884C184.586 85.1611 184.506 84.9708 184.347 84.8174C184.188 84.6611 183.944 84.5447 183.614 84.468L182.523 84.2123C181.924 84.0702 181.483 83.8501 181.202 83.5518C180.924 83.2506 180.784 82.8742 180.784 82.4225C180.784 82.0532 180.888 81.7265 181.096 81.4424C181.306 81.1583 181.591 80.9353 181.952 80.7733C182.316 80.6114 182.728 80.5305 183.188 80.5305C183.836 80.5305 184.344 80.6725 184.713 80.9566C185.086 81.2407 185.35 81.6157 185.506 82.0816ZM187.139 87.1611V80.6157H188.145V87.1611H187.139ZM187.651 79.5248C187.455 79.5248 187.286 79.458 187.143 79.3245C187.004 79.191 186.935 79.0305 186.935 78.843C186.935 78.6555 187.004 78.4949 187.143 78.3614C187.286 78.2279 187.455 78.1611 187.651 78.1611C187.847 78.1611 188.014 78.2279 188.153 78.3614C188.295 78.4949 188.366 78.6555 188.366 78.843C188.366 79.0305 188.295 79.191 188.153 79.3245C188.014 79.458 187.847 79.5248 187.651 79.5248ZM192.646 87.2975C192.055 87.2975 191.537 87.1569 191.091 86.8756C190.647 86.5944 190.301 86.2009 190.051 85.6952C189.804 85.1895 189.68 84.5986 189.68 83.9225C189.68 83.2407 189.804 82.6455 190.051 82.137C190.301 81.6285 190.647 81.2336 191.091 80.9523C191.537 80.6711 192.055 80.5305 192.646 80.5305C193.237 80.5305 193.754 80.6711 194.197 80.9523C194.643 81.2336 194.99 81.6285 195.237 82.137C195.487 82.6455 195.612 83.2407 195.612 83.9225C195.612 84.5986 195.487 85.1895 195.237 85.6952C194.99 86.2009 194.643 86.5944 194.197 86.8756C193.754 87.1569 193.237 87.2975 192.646 87.2975ZM192.646 86.3941C193.095 86.3941 193.464 86.279 193.754 86.0489C194.044 85.8188 194.258 85.5162 194.397 85.1412C194.537 84.7662 194.606 84.36 194.606 83.9225C194.606 83.485 194.537 83.0773 194.397 82.6995C194.258 82.3216 194.044 82.0162 193.754 81.7833C193.464 81.5503 193.095 81.4339 192.646 81.4339C192.197 81.4339 191.828 81.5503 191.538 81.7833C191.248 82.0162 191.034 82.3216 190.895 82.6995C190.755 83.0773 190.686 83.485 190.686 83.9225C190.686 84.36 190.755 84.7662 190.895 85.1412C191.034 85.5162 191.248 85.8188 191.538 86.0489C191.828 86.279 192.197 86.3941 192.646 86.3941ZM198.153 83.2236V87.1611H197.147V80.6157H198.119V81.6384H198.204C198.357 81.306 198.59 81.039 198.903 80.8373C199.215 80.6327 199.619 80.5305 200.113 80.5305C200.556 80.5305 200.944 80.6214 201.276 80.8032C201.609 80.9822 201.867 81.2549 202.052 81.6214C202.237 81.985 202.329 82.4452 202.329 83.002V87.1611H201.323V83.0702C201.323 82.556 201.19 82.1555 200.923 81.8685C200.656 81.5787 200.289 81.4339 199.823 81.4339C199.502 81.4339 199.215 81.5035 198.962 81.6427C198.712 81.7819 198.515 81.985 198.37 82.252C198.225 82.5191 198.153 82.843 198.153 83.2236ZM207.201 79.3714V78.4339H213.746V79.3714H211.002V87.1611H209.945V79.3714H207.201ZM216.951 87.2975C216.36 87.2975 215.841 87.1569 215.395 86.8756C214.952 86.5944 214.605 86.2009 214.355 85.6952C214.108 85.1895 213.985 84.5986 213.985 83.9225C213.985 83.2407 214.108 82.6455 214.355 82.137C214.605 81.6285 214.952 81.2336 215.395 80.9523C215.841 80.6711 216.36 80.5305 216.951 80.5305C217.542 80.5305 218.059 80.6711 218.502 80.9523C218.948 81.2336 219.294 81.6285 219.542 82.137C219.792 82.6455 219.917 83.2407 219.917 83.9225C219.917 84.5986 219.792 85.1895 219.542 85.6952C219.294 86.2009 218.948 86.5944 218.502 86.8756C218.059 87.1569 217.542 87.2975 216.951 87.2975ZM216.951 86.3941C217.4 86.3941 217.769 86.279 218.059 86.0489C218.348 85.8188 218.563 85.5162 218.702 85.1412C218.841 84.7662 218.911 84.36 218.911 83.9225C218.911 83.485 218.841 83.0773 218.702 82.6995C218.563 82.3216 218.348 82.0162 218.059 81.7833C217.769 81.5503 217.4 81.4339 216.951 81.4339C216.502 81.4339 216.132 81.5503 215.843 81.7833C215.553 82.0162 215.338 82.3216 215.199 82.6995C215.06 83.0773 214.99 83.485 214.99 83.9225C214.99 84.36 215.06 84.7662 215.199 85.1412C215.338 85.5162 215.553 85.8188 215.843 86.0489C216.132 86.279 216.502 86.3941 216.951 86.3941ZM224.111 87.2975C223.52 87.2975 223.001 87.1569 222.555 86.8756C222.112 86.5944 221.766 86.2009 221.516 85.6952C221.268 85.1895 221.145 84.5986 221.145 83.9225C221.145 83.2407 221.268 82.6455 221.516 82.137C221.766 81.6285 222.112 81.2336 222.555 80.9523C223.001 80.6711 223.52 80.5305 224.111 80.5305C224.702 80.5305 225.219 80.6711 225.662 80.9523C226.108 81.2336 226.455 81.6285 226.702 82.137C226.952 82.6455 227.077 83.2407 227.077 83.9225C227.077 84.5986 226.952 85.1895 226.702 85.6952C226.455 86.2009 226.108 86.5944 225.662 86.8756C225.219 87.1569 224.702 87.2975 224.111 87.2975ZM224.111 86.3941C224.56 86.3941 224.929 86.279 225.219 86.0489C225.509 85.8188 225.723 85.5162 225.862 85.1412C226.001 84.7662 226.071 84.36 226.071 83.9225C226.071 83.485 226.001 83.0773 225.862 82.6995C225.723 82.3216 225.509 82.0162 225.219 81.7833C224.929 81.5503 224.56 81.4339 224.111 81.4339C223.662 81.4339 223.293 81.5503 223.003 81.7833C222.713 82.0162 222.499 82.3216 222.359 82.6995C222.22 83.0773 222.151 83.485 222.151 83.9225C222.151 84.36 222.22 84.7662 222.359 85.1412C222.499 85.5162 222.713 85.8188 223.003 86.0489C223.293 86.279 223.662 86.3941 224.111 86.3941ZM229.618 78.4339V87.1611H228.612V78.4339H229.618ZM234.835 87.1611V80.6157H235.84V87.1611H234.835ZM235.346 79.5248C235.15 79.5248 234.981 79.458 234.839 79.3245C234.7 79.191 234.63 79.0305 234.63 78.843C234.63 78.6555 234.7 78.4949 234.839 78.3614C234.981 78.2279 235.15 78.1611 235.346 78.1611C235.542 78.1611 235.71 78.2279 235.849 78.3614C235.991 78.4949 236.062 78.6555 236.062 78.843C236.062 79.0305 235.991 79.191 235.849 79.3245C235.71 79.458 235.542 79.5248 235.346 79.5248ZM242.319 82.0816L241.415 82.3373C241.358 82.1867 241.275 82.0404 241.164 81.8983C241.056 81.7535 240.908 81.6341 240.721 81.5404C240.533 81.4466 240.293 81.3998 240 81.3998C239.6 81.3998 239.266 81.4921 238.999 81.6768C238.735 81.8586 238.603 82.0901 238.603 82.3714C238.603 82.6214 238.694 82.8188 238.875 82.9637C239.057 83.1086 239.341 83.2293 239.728 83.3259L240.699 83.5645C241.284 83.7066 241.721 83.9239 242.007 84.2165C242.294 84.5063 242.438 84.8799 242.438 85.3373C242.438 85.7123 242.33 86.0475 242.114 86.343C241.901 86.6384 241.603 86.8714 241.219 87.0418C240.836 87.2123 240.39 87.2975 239.881 87.2975C239.213 87.2975 238.661 87.1526 238.223 86.8628C237.786 86.5731 237.509 86.1498 237.392 85.593L238.347 85.3543C238.438 85.7066 238.61 85.9708 238.863 86.1469C239.118 86.3231 239.452 86.4111 239.864 86.4111C240.333 86.4111 240.705 86.3117 240.98 86.1128C241.259 85.9111 241.398 85.6697 241.398 85.3884C241.398 85.1611 241.319 84.9708 241.159 84.8174C241 84.6611 240.756 84.5447 240.426 84.468L239.336 84.2123C238.736 84.0702 238.296 83.8501 238.015 83.5518C237.736 83.2506 237.597 82.8742 237.597 82.4225C237.597 82.0532 237.701 81.7265 237.908 81.4424C238.118 81.1583 238.404 80.9353 238.765 80.7733C239.128 80.6114 239.54 80.5305 240 80.5305C240.648 80.5305 241.157 80.6725 241.526 80.9566C241.898 81.2407 242.162 81.6157 242.319 82.0816ZM247.327 87.1611V80.6157H248.298V81.6384H248.384C248.52 81.289 248.74 81.0177 249.044 80.8245C249.348 80.6285 249.713 80.5305 250.139 80.5305C250.571 80.5305 250.93 80.6285 251.217 80.8245C251.507 81.0177 251.733 81.289 251.895 81.6384H251.963C252.131 81.3003 252.382 81.0319 252.717 80.833C253.053 80.6313 253.455 80.5305 253.923 80.5305C254.509 80.5305 254.987 80.7137 255.359 81.0802C255.732 81.4438 255.918 82.0106 255.918 82.7805V87.1611H254.912V82.7805C254.912 82.2975 254.78 81.9523 254.516 81.7449C254.251 81.5376 253.94 81.4339 253.582 81.4339C253.122 81.4339 252.766 81.5731 252.513 81.8515C252.26 82.127 252.134 82.4765 252.134 82.8998V87.1611H251.111V82.6782C251.111 82.306 250.99 82.0063 250.749 81.779C250.507 81.5489 250.196 81.4339 249.815 81.4339C249.554 81.4339 249.31 81.5035 249.082 81.6427C248.858 81.7819 248.676 81.9751 248.537 82.2222C248.401 82.4665 248.332 82.7492 248.332 83.0702V87.1611H247.327ZM258.17 89.6157C257.999 89.6157 257.847 89.6015 257.714 89.5731C257.58 89.5475 257.488 89.5219 257.437 89.4964L257.692 88.61C257.937 88.6725 258.153 88.6952 258.34 88.6782C258.528 88.6611 258.694 88.5773 258.839 88.4268C258.987 88.279 259.121 88.039 259.244 87.7066L259.431 87.1952L257.011 80.6157H258.102L259.908 85.8316H259.977L261.783 80.6157H262.874L260.096 88.1157C259.971 88.4537 259.816 88.7336 259.631 88.9552C259.447 89.1796 259.232 89.3458 258.988 89.4537C258.746 89.5617 258.474 89.6157 258.17 89.6157ZM268.582 78.4339V87.1611H267.577V78.4339H268.582ZM270.424 87.1611V80.6157H271.43V87.1611H270.424ZM270.936 79.5248C270.74 79.5248 270.571 79.458 270.429 79.3245C270.289 79.191 270.22 79.0305 270.22 78.843C270.22 78.6555 270.289 78.4949 270.429 78.3614C270.571 78.2279 270.74 78.1611 270.936 78.1611C271.132 78.1611 271.299 78.2279 271.439 78.3614C271.581 78.4949 271.652 78.6555 271.652 78.843C271.652 79.0305 271.581 79.191 271.439 79.3245C271.299 79.458 271.132 79.5248 270.936 79.5248ZM276.187 80.6157V81.468H272.658V80.6157H276.187ZM273.715 87.1611V79.7123C273.715 79.3373 273.803 79.0248 273.979 78.7748C274.156 78.5248 274.384 78.3373 274.665 78.2123C274.947 78.0873 275.244 78.0248 275.556 78.0248C275.803 78.0248 276.005 78.0447 276.161 78.0844C276.317 78.1242 276.434 78.1611 276.511 78.1952L276.221 79.0645C276.17 79.0475 276.099 79.0262 276.008 79.0006C275.92 78.9751 275.803 78.9623 275.658 78.9623C275.326 78.9623 275.086 79.0461 274.938 79.2137C274.793 79.3813 274.721 79.627 274.721 79.9509V87.1611H273.715ZM280.071 87.2975C279.44 87.2975 278.896 87.1583 278.439 86.8799C277.984 86.5986 277.634 86.2066 277.386 85.7037C277.142 85.1981 277.02 84.61 277.02 83.9395C277.02 83.2691 277.142 82.6782 277.386 82.1668C277.634 81.6526 277.977 81.252 278.418 80.9651C278.861 80.6753 279.378 80.5305 279.969 80.5305C280.31 80.5305 280.646 80.5873 280.979 80.7009C281.311 80.8145 281.614 80.9992 281.886 81.2549C282.159 81.5077 282.376 81.843 282.538 82.2606C282.7 82.6782 282.781 83.1924 282.781 83.8032V84.2293H277.736V83.36H281.759C281.759 82.9907 281.685 82.6611 281.537 82.3714C281.392 82.0816 281.185 81.8529 280.915 81.6853C280.648 81.5177 280.332 81.4339 279.969 81.4339C279.568 81.4339 279.222 81.5333 278.929 81.7322C278.639 81.9282 278.416 82.1839 278.26 82.4992C278.104 82.8145 278.026 83.1526 278.026 83.5134V84.093C278.026 84.5873 278.111 85.0063 278.281 85.3501C278.455 85.691 278.695 85.9509 279.001 86.1299C279.308 86.306 279.665 86.3941 280.071 86.3941C280.335 86.3941 280.574 86.3572 280.787 86.2833C281.003 86.2066 281.189 86.093 281.345 85.9424C281.501 85.789 281.622 85.5986 281.707 85.3714L282.679 85.6441C282.577 85.9736 282.405 86.2634 282.163 86.5134C281.922 86.7606 281.624 86.9537 281.268 87.093C280.913 87.2293 280.514 87.2975 280.071 87.2975ZM292.322 82.0816L291.419 82.3373C291.362 82.1867 291.278 82.0404 291.168 81.8983C291.06 81.7535 290.912 81.6341 290.724 81.5404C290.537 81.4466 290.297 81.3998 290.004 81.3998C289.604 81.3998 289.27 81.4921 289.003 81.6768C288.739 81.8586 288.607 82.0901 288.607 82.3714C288.607 82.6214 288.697 82.8188 288.879 82.9637C289.061 83.1086 289.345 83.2293 289.732 83.3259L290.703 83.5645C291.288 83.7066 291.724 83.9239 292.011 84.2165C292.298 84.5063 292.442 84.8799 292.442 85.3373C292.442 85.7123 292.334 86.0475 292.118 86.343C291.905 86.6384 291.607 86.8714 291.223 87.0418C290.839 87.2123 290.393 87.2975 289.885 87.2975C289.217 87.2975 288.665 87.1526 288.227 86.8628C287.79 86.5731 287.513 86.1498 287.396 85.593L288.351 85.3543C288.442 85.7066 288.614 85.9708 288.866 86.1469C289.122 86.3231 289.456 86.4111 289.868 86.4111C290.337 86.4111 290.709 86.3117 290.984 86.1128C291.263 85.9111 291.402 85.6697 291.402 85.3884C291.402 85.1611 291.322 84.9708 291.163 84.8174C291.004 84.6611 290.76 84.5447 290.43 84.468L289.339 84.2123C288.74 84.0702 288.3 83.8501 288.018 83.5518C287.74 83.2506 287.601 82.8742 287.601 82.4225C287.601 82.0532 287.705 81.7265 287.912 81.4424C288.122 81.1583 288.408 80.9353 288.768 80.7733C289.132 80.6114 289.544 80.5305 290.004 80.5305C290.652 80.5305 291.161 80.6725 291.53 80.9566C291.902 81.2407 292.166 81.6157 292.322 82.0816ZM295.882 87.3145C295.467 87.3145 295.091 87.2364 294.752 87.0802C294.414 86.9211 294.146 86.6924 293.947 86.3941C293.748 86.093 293.649 85.7293 293.649 85.3032C293.649 84.9282 293.723 84.6242 293.87 84.3912C294.018 84.1555 294.216 83.9708 294.463 83.8373C294.71 83.7037 294.983 83.6043 295.281 83.539C295.582 83.4708 295.885 83.4168 296.189 83.377C296.586 83.3259 296.909 83.2876 297.156 83.262C297.406 83.2336 297.588 83.1867 297.701 83.1214C297.818 83.056 297.876 82.9424 297.876 82.7805V82.7464C297.876 82.3259 297.761 81.9992 297.531 81.7662C297.304 81.5333 296.958 81.4168 296.495 81.4168C296.015 81.4168 295.639 81.5219 295.366 81.7322C295.093 81.9424 294.902 82.1668 294.791 82.4055L293.836 82.0645C294.007 81.6668 294.234 81.3572 294.518 81.1356C294.805 80.9111 295.118 80.7549 295.456 80.6668C295.797 80.5759 296.132 80.5305 296.461 80.5305C296.672 80.5305 296.913 80.556 297.186 80.6072C297.461 80.6555 297.727 80.7563 297.983 80.9097C298.241 81.0631 298.456 81.2947 298.626 81.6043C298.797 81.914 298.882 82.3287 298.882 82.8486V87.1611H297.876V86.2748H297.825C297.757 86.4168 297.643 86.5688 297.484 86.7307C297.325 86.8927 297.113 87.0305 296.849 87.1441C296.585 87.2577 296.262 87.3145 295.882 87.3145ZM296.035 86.4111C296.433 86.4111 296.768 86.333 297.041 86.1768C297.316 86.0205 297.524 85.8188 297.663 85.5716C297.805 85.3245 297.876 85.0645 297.876 84.7918V83.8714C297.833 83.9225 297.74 83.9694 297.595 84.012C297.453 84.0518 297.288 84.0873 297.1 84.1185C296.916 84.1469 296.735 84.1725 296.559 84.1952C296.386 84.2151 296.245 84.2322 296.137 84.2464C295.876 84.2805 295.632 84.3358 295.404 84.4126C295.18 84.4864 294.998 84.5986 294.859 84.7492C294.723 84.8969 294.654 85.0986 294.654 85.3543C294.654 85.7037 294.784 85.968 295.042 86.1469C295.304 86.3231 295.635 86.4111 296.035 86.4111ZM305.835 80.6157L303.415 87.1611H302.392L299.972 80.6157H301.062L302.869 85.8316H302.938L304.744 80.6157H305.835ZM309.673 87.2975C309.042 87.2975 308.498 87.1583 308.04 86.8799C307.586 86.5986 307.235 86.2066 306.988 85.7037C306.744 85.1981 306.621 84.61 306.621 83.9395C306.621 83.2691 306.744 82.6782 306.988 82.1668C307.235 81.6526 307.579 81.252 308.019 80.9651C308.462 80.6753 308.979 80.5305 309.57 80.5305C309.911 80.5305 310.248 80.5873 310.58 80.7009C310.913 80.8145 311.215 80.9992 311.488 81.2549C311.761 81.5077 311.978 81.843 312.14 82.2606C312.302 82.6782 312.383 83.1924 312.383 83.8032V84.2293H307.337V83.36H311.36C311.36 82.9907 311.286 82.6611 311.138 82.3714C310.994 82.0816 310.786 81.8529 310.516 81.6853C310.249 81.5177 309.934 81.4339 309.57 81.4339C309.17 81.4339 308.823 81.5333 308.531 81.7322C308.241 81.9282 308.018 82.1839 307.862 82.4992C307.705 82.8145 307.627 83.1526 307.627 83.5134V84.093C307.627 84.5873 307.712 85.0063 307.883 85.3501C308.056 85.691 308.296 85.9509 308.603 86.1299C308.91 86.306 309.266 86.3941 309.673 86.3941C309.937 86.3941 310.175 86.3572 310.388 86.2833C310.604 86.2066 310.79 86.093 310.947 85.9424C311.103 85.789 311.224 85.5986 311.309 85.3714L312.281 85.6441C312.178 85.9736 312.006 86.2634 311.765 86.5134C311.523 86.7606 311.225 86.9537 310.87 87.093C310.515 87.2293 310.116 87.2975 309.673 87.2975ZM313.913 87.1611V80.6157H314.884V81.6043H314.952C315.072 81.2805 315.288 81.0177 315.6 80.816C315.913 80.6143 316.265 80.5134 316.657 80.5134C316.731 80.5134 316.823 80.5148 316.934 80.5177C317.045 80.5205 317.129 80.5248 317.185 80.5305V81.5532C317.151 81.5447 317.073 81.5319 316.951 81.5148C316.832 81.4949 316.705 81.485 316.572 81.485C316.254 81.485 315.969 81.5518 315.719 81.6853C315.472 81.816 315.276 81.9978 315.131 82.2307C314.989 82.4608 314.918 82.7236 314.918 83.0191V87.1611H313.913ZM319.707 78.4339L319.622 84.7066H318.633L318.548 78.4339H319.707ZM319.127 87.2293C318.917 87.2293 318.737 87.154 318.586 87.0035C318.436 86.8529 318.36 86.6725 318.36 86.4623C318.36 86.252 318.436 86.0716 318.586 85.9211C318.737 85.7705 318.917 85.6952 319.127 85.6952C319.338 85.6952 319.518 85.7705 319.669 85.9211C319.819 86.0716 319.895 86.252 319.895 86.4623C319.895 86.6015 319.859 86.7293 319.788 86.8458C319.72 86.9623 319.627 87.056 319.511 87.127C319.397 87.1952 319.27 87.2293 319.127 87.2293ZM325.587 87.1611H324.479L327.683 78.4339H328.774L331.979 87.1611H330.871L328.263 79.8145H328.195L325.587 87.1611ZM325.996 83.752H330.462V84.6895H325.996V83.752ZM333.338 87.1611V78.4339H334.344V81.6555H334.429C334.503 81.5418 334.605 81.3969 334.736 81.2208C334.869 81.0418 335.06 80.8827 335.307 80.7435C335.557 80.6015 335.895 80.5305 336.321 80.5305C336.872 80.5305 337.358 80.6682 337.778 80.9438C338.199 81.2194 338.527 81.61 338.763 82.1157C338.999 82.6214 339.116 83.218 339.116 83.9055C339.116 84.5986 338.999 85.1995 338.763 85.708C338.527 86.2137 338.2 86.6057 337.783 86.8841C337.365 87.1597 336.884 87.2975 336.338 87.2975C335.918 87.2975 335.581 87.2279 335.328 87.0887C335.075 86.9466 334.881 86.7861 334.744 86.6072C334.608 86.4253 334.503 86.2748 334.429 86.1555H334.31V87.1611H333.338ZM334.327 83.8884C334.327 84.3827 334.399 84.8188 334.544 85.1966C334.689 85.5716 334.901 85.8657 335.179 86.0787C335.457 86.289 335.798 86.3941 336.202 86.3941C336.622 86.3941 336.973 86.2833 337.254 86.0617C337.538 85.8373 337.751 85.5361 337.893 85.1583C338.038 84.7776 338.111 84.3543 338.111 83.8884C338.111 83.4282 338.04 83.0134 337.898 82.6441C337.759 82.2719 337.547 81.9779 337.263 81.762C336.982 81.5432 336.628 81.4339 336.202 81.4339C335.793 81.4339 335.449 81.5376 335.17 81.7449C334.892 81.9495 334.682 82.2364 334.54 82.6057C334.398 82.9722 334.327 83.3998 334.327 83.8884ZM345.291 82.0816L344.388 82.3373C344.331 82.1867 344.247 82.0404 344.136 81.8983C344.028 81.7535 343.881 81.6341 343.693 81.5404C343.506 81.4466 343.266 81.3998 342.973 81.3998C342.572 81.3998 342.239 81.4921 341.972 81.6768C341.707 81.8586 341.575 82.0901 341.575 82.3714C341.575 82.6214 341.666 82.8188 341.848 82.9637C342.03 83.1086 342.314 83.2293 342.7 83.3259L343.672 83.5645C344.257 83.7066 344.693 83.9239 344.98 84.2165C345.267 84.5063 345.411 84.8799 345.411 85.3373C345.411 85.7123 345.303 86.0475 345.087 86.343C344.874 86.6384 344.575 86.8714 344.192 87.0418C343.808 87.2123 343.362 87.2975 342.854 87.2975C342.186 87.2975 341.634 87.1526 341.196 86.8628C340.759 86.5731 340.482 86.1498 340.365 85.593L341.32 85.3543C341.411 85.7066 341.582 85.9708 341.835 86.1469C342.091 86.3231 342.425 86.4111 342.837 86.4111C343.305 86.4111 343.678 86.3117 343.953 86.1128C344.232 85.9111 344.371 85.6697 344.371 85.3884C344.371 85.1611 344.291 84.9708 344.132 84.8174C343.973 84.6611 343.729 84.5447 343.399 84.468L342.308 84.2123C341.709 84.0702 341.268 83.8501 340.987 83.5518C340.709 83.2506 340.57 82.8742 340.57 82.4225C340.57 82.0532 340.673 81.7265 340.881 81.4424C341.091 81.1583 341.376 80.9353 341.737 80.7733C342.101 80.6114 342.513 80.5305 342.973 80.5305C343.621 80.5305 344.129 80.6725 344.499 80.9566C344.871 81.2407 345.135 81.6157 345.291 82.0816ZM349.583 87.2975C348.993 87.2975 348.474 87.1569 348.028 86.8756C347.585 86.5944 347.238 86.2009 346.988 85.6952C346.741 85.1895 346.618 84.5986 346.618 83.9225C346.618 83.2407 346.741 82.6455 346.988 82.137C347.238 81.6285 347.585 81.2336 348.028 80.9523C348.474 80.6711 348.993 80.5305 349.583 80.5305C350.174 80.5305 350.691 80.6711 351.135 80.9523C351.581 81.2336 351.927 81.6285 352.174 82.137C352.424 82.6455 352.549 83.2407 352.549 83.9225C352.549 84.5986 352.424 85.1895 352.174 85.6952C351.927 86.2009 351.581 86.5944 351.135 86.8756C350.691 87.1569 350.174 87.2975 349.583 87.2975ZM349.583 86.3941C350.032 86.3941 350.402 86.279 350.691 86.0489C350.981 85.8188 351.196 85.5162 351.335 85.1412C351.474 84.7662 351.544 84.36 351.544 83.9225C351.544 83.485 351.474 83.0773 351.335 82.6995C351.196 82.3216 350.981 82.0162 350.691 81.7833C350.402 81.5503 350.032 81.4339 349.583 81.4339C349.135 81.4339 348.765 81.5503 348.475 81.7833C348.186 82.0162 347.971 82.3216 347.832 82.6995C347.693 83.0773 347.623 83.485 347.623 83.9225C347.623 84.36 347.693 84.7662 347.832 85.1412C347.971 85.5162 348.186 85.8188 348.475 86.0489C348.765 86.279 349.135 86.3941 349.583 86.3941ZM355.09 78.4339V87.1611H354.085V78.4339H355.09ZM361.057 84.485V80.6157H362.063V87.1611H361.057V86.0532H360.989C360.836 86.3856 360.597 86.6682 360.273 86.9012C359.949 87.1313 359.54 87.2464 359.046 87.2464C358.637 87.2464 358.273 87.1569 357.955 86.9779C357.637 86.7961 357.387 86.5233 357.205 86.1597C357.023 85.7932 356.932 85.3316 356.932 84.7748V80.6157H357.938V84.7066C357.938 85.1839 358.071 85.5645 358.338 85.8486C358.608 86.1327 358.952 86.2748 359.37 86.2748C359.62 86.2748 359.874 86.2108 360.132 86.083C360.394 85.9552 360.613 85.7591 360.789 85.4949C360.968 85.2307 361.057 84.8941 361.057 84.485ZM366.751 80.6157V81.468H363.359V80.6157H366.751ZM364.348 79.0475H365.354V85.2861C365.354 85.5702 365.395 85.7833 365.477 85.9253C365.563 86.0645 365.67 86.1583 365.801 86.2066C365.935 86.252 366.075 86.2748 366.223 86.2748C366.334 86.2748 366.425 86.2691 366.496 86.2577C366.567 86.2435 366.624 86.2322 366.666 86.2236L366.871 87.127C366.803 87.1526 366.707 87.1782 366.585 87.2037C366.463 87.2322 366.308 87.2464 366.121 87.2464C365.837 87.2464 365.558 87.1853 365.286 87.0631C365.016 86.941 364.791 86.7549 364.612 86.5049C364.436 86.2549 364.348 85.9395 364.348 85.5589V79.0475ZM370.938 87.2975C370.308 87.2975 369.763 87.1583 369.306 86.8799C368.852 86.5986 368.501 86.2066 368.254 85.7037C368.009 85.1981 367.887 84.61 367.887 83.9395C367.887 83.2691 368.009 82.6782 368.254 82.1668C368.501 81.6526 368.844 81.252 369.285 80.9651C369.728 80.6753 370.245 80.5305 370.836 80.5305C371.177 80.5305 371.513 80.5873 371.846 80.7009C372.178 80.8145 372.481 80.9992 372.754 81.2549C373.026 81.5077 373.244 81.843 373.406 82.2606C373.567 82.6782 373.648 83.1924 373.648 83.8032V84.2293H368.603V83.36H372.626C372.626 82.9907 372.552 82.6611 372.404 82.3714C372.259 82.0816 372.052 81.8529 371.782 81.6853C371.515 81.5177 371.2 81.4339 370.836 81.4339C370.435 81.4339 370.089 81.5333 369.796 81.7322C369.506 81.9282 369.283 82.1839 369.127 82.4992C368.971 82.8145 368.893 83.1526 368.893 83.5134V84.093C368.893 84.5873 368.978 85.0063 369.148 85.3501C369.322 85.691 369.562 85.9509 369.869 86.1299C370.175 86.306 370.532 86.3941 370.938 86.3941C371.202 86.3941 371.441 86.3572 371.654 86.2833C371.87 86.2066 372.056 86.093 372.212 85.9424C372.369 85.789 372.489 85.5986 372.575 85.3714L373.546 85.6441C373.444 85.9736 373.272 86.2634 373.031 86.5134C372.789 86.7606 372.491 86.9537 372.136 87.093C371.781 87.2293 371.381 87.2975 370.938 87.2975ZM376.184 78.4339V87.1611H375.178V78.4339H376.184ZM378.674 89.6157C378.503 89.6157 378.351 89.6015 378.218 89.5731C378.084 89.5475 377.992 89.5219 377.941 89.4964L378.196 88.61C378.441 88.6725 378.657 88.6952 378.844 88.6782C379.032 88.6611 379.198 88.5773 379.343 88.4268C379.49 88.279 379.625 88.039 379.748 87.7066L379.935 87.1952L377.515 80.6157H378.605L380.412 85.8316H380.48L382.287 80.6157H383.378L380.6 88.1157C380.475 88.4537 380.32 88.7336 380.135 88.9552C379.951 89.1796 379.736 89.3458 379.492 89.4537C379.25 89.5617 378.978 89.6157 378.674 89.6157ZM128.239 93.4339V102.161H127.233V93.4339H128.239ZM132.74 102.297C132.149 102.297 131.63 102.157 131.184 101.876C130.741 101.594 130.395 101.201 130.145 100.695C129.897 100.19 129.774 99.5986 129.774 98.9225C129.774 98.2407 129.897 97.6455 130.145 97.137C130.395 96.6285 130.741 96.2336 131.184 95.9523C131.63 95.6711 132.149 95.5305 132.74 95.5305C133.331 95.5305 133.848 95.6711 134.291 95.9523C134.737 96.2336 135.083 96.6285 135.331 97.137C135.581 97.6455 135.706 98.2407 135.706 98.9225C135.706 99.5986 135.581 100.19 135.331 100.695C135.083 101.201 134.737 101.594 134.291 101.876C133.848 102.157 133.331 102.297 132.74 102.297ZM132.74 101.394C133.189 101.394 133.558 101.279 133.848 101.049C134.137 100.819 134.352 100.516 134.491 100.141C134.63 99.7662 134.7 99.36 134.7 98.9225C134.7 98.485 134.63 98.0773 134.491 97.6995C134.352 97.3216 134.137 97.0162 133.848 96.7833C133.558 96.5503 133.189 96.4339 132.74 96.4339C132.291 96.4339 131.922 96.5503 131.632 96.7833C131.342 97.0162 131.127 97.3216 130.988 97.6995C130.849 98.0773 130.779 98.485 130.779 98.9225C130.779 99.36 130.849 99.7662 130.988 100.141C131.127 100.516 131.342 100.819 131.632 101.049C131.922 101.279 132.291 101.394 132.74 101.394ZM142.359 95.6157L139.938 102.161H138.915L136.495 95.6157H137.586L139.393 100.832H139.461L141.268 95.6157H142.359ZM143.686 102.161V95.6157H144.692V102.161H143.686ZM144.197 94.5248C144.001 94.5248 143.832 94.458 143.69 94.3245C143.551 94.191 143.482 94.0305 143.482 93.843C143.482 93.6555 143.551 93.4949 143.69 93.3614C143.832 93.2279 144.001 93.1611 144.197 93.1611C144.393 93.1611 144.561 93.2279 144.7 93.3614C144.842 93.4949 144.913 93.6555 144.913 93.843C144.913 94.0305 144.842 94.191 144.7 94.3245C144.561 94.458 144.393 94.5248 144.197 94.5248ZM147.539 98.2236V102.161H146.534V95.6157H147.505V96.6384H147.591C147.744 96.306 147.977 96.039 148.289 95.8373C148.602 95.6327 149.005 95.5305 149.5 95.5305C149.943 95.5305 150.331 95.6214 150.663 95.8032C150.995 95.9822 151.254 96.2549 151.439 96.6214C151.623 96.985 151.716 97.4452 151.716 98.002V102.161H150.71V98.0702C150.71 97.556 150.576 97.1555 150.309 96.8685C150.042 96.5787 149.676 96.4339 149.21 96.4339C148.889 96.4339 148.602 96.5035 148.349 96.6427C148.099 96.7819 147.902 96.985 147.757 97.252C147.612 97.5191 147.539 97.843 147.539 98.2236ZM156.195 104.752C155.71 104.752 155.292 104.69 154.942 104.565C154.593 104.442 154.302 104.28 154.069 104.079C153.839 103.88 153.656 103.667 153.519 103.44L154.32 102.877C154.411 102.996 154.526 103.133 154.665 103.286C154.805 103.442 154.995 103.577 155.237 103.691C155.481 103.807 155.8 103.866 156.195 103.866C156.724 103.866 157.16 103.738 157.504 103.482C157.847 103.226 158.019 102.826 158.019 102.28V100.951H157.934C157.86 101.07 157.755 101.218 157.619 101.394C157.485 101.567 157.292 101.722 157.039 101.859C156.789 101.992 156.451 102.059 156.025 102.059C155.496 102.059 155.022 101.934 154.602 101.684C154.184 101.434 153.853 101.07 153.609 100.593C153.367 100.116 153.246 99.5361 153.246 98.8543C153.246 98.1839 153.364 97.6001 153.6 97.1029C153.836 96.6029 154.164 96.2165 154.585 95.9438C155.005 95.6682 155.491 95.5305 156.042 95.5305C156.468 95.5305 156.806 95.6015 157.056 95.7435C157.309 95.8827 157.502 96.0418 157.636 96.2208C157.772 96.3969 157.877 96.5418 157.951 96.6555H158.053V95.6157H159.025V102.349C159.025 102.911 158.897 103.369 158.641 103.721C158.388 104.076 158.048 104.336 157.619 104.501C157.192 104.668 156.718 104.752 156.195 104.752ZM156.161 101.155C156.565 101.155 156.906 101.063 157.184 100.878C157.462 100.694 157.674 100.428 157.819 100.082C157.964 99.735 158.036 99.3202 158.036 98.8373C158.036 98.3657 157.965 97.9495 157.823 97.5887C157.681 97.2279 157.471 96.9452 157.192 96.7407C156.914 96.5361 156.57 96.4339 156.161 96.4339C155.735 96.4339 155.38 96.5418 155.096 96.7577C154.815 96.9736 154.603 97.2634 154.461 97.627C154.322 97.9907 154.252 98.3941 154.252 98.8373C154.252 99.2918 154.323 99.6938 154.465 100.043C154.61 100.39 154.823 100.663 155.104 100.861C155.388 101.057 155.741 101.155 156.161 101.155ZM167.087 95.6157V96.468H163.695V95.6157H167.087ZM164.684 94.0475H165.69V100.286C165.69 100.57 165.731 100.783 165.813 100.925C165.898 101.065 166.006 101.158 166.137 101.207C166.271 101.252 166.411 101.275 166.559 101.275C166.67 101.275 166.761 101.269 166.832 101.258C166.903 101.244 166.96 101.232 167.002 101.224L167.207 102.127C167.138 102.153 167.043 102.178 166.921 102.204C166.799 102.232 166.644 102.246 166.457 102.246C166.173 102.246 165.894 102.185 165.621 102.063C165.352 101.941 165.127 101.755 164.948 101.505C164.772 101.255 164.684 100.94 164.684 100.559V94.0475ZM169.746 98.2236V102.161H168.741V93.4339H169.746V96.6384H169.832C169.985 96.3003 170.215 96.0319 170.522 95.833C170.832 95.6313 171.244 95.5305 171.758 95.5305C172.204 95.5305 172.594 95.6199 172.93 95.7989C173.265 95.9751 173.525 96.2464 173.71 96.6128C173.897 96.9765 173.991 97.4395 173.991 98.002V102.161H172.985V98.0702C172.985 97.5503 172.85 97.1483 172.58 96.8643C172.313 96.5773 171.942 96.4339 171.468 96.4339C171.138 96.4339 170.843 96.5035 170.582 96.6427C170.323 96.7819 170.119 96.985 169.968 97.252C169.82 97.5191 169.746 97.843 169.746 98.2236ZM178.575 102.297C177.944 102.297 177.4 102.158 176.943 101.88C176.488 101.599 176.137 101.207 175.89 100.704C175.646 100.198 175.524 99.61 175.524 98.9395C175.524 98.2691 175.646 97.6782 175.89 97.1668C176.137 96.6526 176.481 96.252 176.922 95.9651C177.365 95.6753 177.882 95.5305 178.473 95.5305C178.814 95.5305 179.15 95.5873 179.483 95.7009C179.815 95.8145 180.118 95.9992 180.39 96.2549C180.663 96.5077 180.88 96.843 181.042 97.2606C181.204 97.6782 181.285 98.1924 181.285 98.8032V99.2293H176.24V98.36H180.262C180.262 97.9907 180.189 97.6611 180.041 97.3714C179.896 97.0816 179.689 96.8529 179.419 96.6853C179.152 96.5177 178.836 96.4339 178.473 96.4339C178.072 96.4339 177.725 96.5333 177.433 96.7322C177.143 96.9282 176.92 97.1839 176.764 97.4992C176.608 97.8145 176.529 98.1526 176.529 98.5134V99.093C176.529 99.5873 176.615 100.006 176.785 100.35C176.958 100.691 177.199 100.951 177.505 101.13C177.812 101.306 178.169 101.394 178.575 101.394C178.839 101.394 179.078 101.357 179.291 101.283C179.507 101.207 179.693 101.093 179.849 100.942C180.005 100.789 180.126 100.599 180.211 100.371L181.183 100.644C181.081 100.974 180.909 101.263 180.667 101.513C180.426 101.761 180.127 101.954 179.772 102.093C179.417 102.229 179.018 102.297 178.575 102.297ZM188.934 102.297C188.304 102.297 187.76 102.158 187.302 101.88C186.848 101.599 186.497 101.207 186.25 100.704C186.005 100.198 185.883 99.61 185.883 98.9395C185.883 98.2691 186.005 97.6782 186.25 97.1668C186.497 96.6526 186.841 96.252 187.281 95.9651C187.724 95.6753 188.241 95.5305 188.832 95.5305C189.173 95.5305 189.51 95.5873 189.842 95.7009C190.174 95.8145 190.477 95.9992 190.75 96.2549C191.022 96.5077 191.24 96.843 191.402 97.2606C191.564 97.6782 191.645 98.1924 191.645 98.8032V99.2293H186.599V98.36H190.622C190.622 97.9907 190.548 97.6611 190.4 97.3714C190.255 97.0816 190.048 96.8529 189.778 96.6853C189.511 96.5177 189.196 96.4339 188.832 96.4339C188.431 96.4339 188.085 96.5333 187.792 96.7322C187.502 96.9282 187.279 97.1839 187.123 97.4992C186.967 97.8145 186.889 98.1526 186.889 98.5134V99.093C186.889 99.5873 186.974 100.006 187.145 100.35C187.318 100.691 187.558 100.951 187.865 101.13C188.172 101.306 188.528 101.394 188.934 101.394C189.199 101.394 189.437 101.357 189.65 101.283C189.866 101.207 190.052 101.093 190.208 100.942C190.365 100.789 190.485 100.599 190.571 100.371L191.542 100.644C191.44 100.974 191.268 101.263 191.027 101.513C190.785 101.761 190.487 101.954 190.132 102.093C189.777 102.229 189.377 102.297 188.934 102.297ZM193.749 95.6157L195.317 98.2918L196.885 95.6157H198.044L195.93 98.8884L198.044 102.161H196.885L195.317 99.6214L193.749 102.161H192.589L194.669 98.8884L192.589 95.6157H193.749ZM201.405 102.315C200.99 102.315 200.614 102.236 200.276 102.08C199.938 101.921 199.669 101.692 199.471 101.394C199.272 101.093 199.172 100.729 199.172 100.303C199.172 99.9282 199.246 99.6242 199.394 99.3912C199.542 99.1555 199.739 98.9708 199.986 98.8373C200.233 98.7037 200.506 98.6043 200.804 98.539C201.105 98.4708 201.408 98.4168 201.712 98.377C202.11 98.3259 202.432 98.2876 202.679 98.262C202.929 98.2336 203.111 98.1867 203.225 98.1214C203.341 98.056 203.4 97.9424 203.4 97.7805V97.7464C203.4 97.3259 203.284 96.9992 203.054 96.7662C202.827 96.5333 202.482 96.4168 202.019 96.4168C201.539 96.4168 201.162 96.5219 200.89 96.7322C200.617 96.9424 200.425 97.1668 200.314 97.4055L199.36 97.0645C199.53 96.6668 199.757 96.3572 200.042 96.1356C200.328 95.9111 200.641 95.7549 200.979 95.6668C201.32 95.5759 201.655 95.5305 201.985 95.5305C202.195 95.5305 202.436 95.556 202.709 95.6072C202.985 95.6555 203.25 95.7563 203.506 95.9097C203.765 96.0631 203.979 96.2947 204.15 96.6043C204.32 96.914 204.405 97.3287 204.405 97.8486V102.161H203.4V101.275H203.348C203.28 101.417 203.167 101.569 203.007 101.731C202.848 101.893 202.637 102.03 202.373 102.144C202.108 102.258 201.786 102.315 201.405 102.315ZM201.559 101.411C201.956 101.411 202.292 101.333 202.564 101.177C202.84 101.021 203.047 100.819 203.186 100.572C203.328 100.324 203.4 100.065 203.4 99.7918V98.8714C203.357 98.9225 203.263 98.9694 203.118 99.012C202.976 99.0518 202.811 99.0873 202.624 99.1185C202.439 99.1469 202.259 99.1725 202.083 99.1952C201.909 99.2151 201.769 99.2322 201.661 99.2464C201.4 99.2805 201.155 99.3358 200.928 99.4126C200.703 99.4864 200.522 99.5986 200.382 99.7492C200.246 99.8969 200.178 100.099 200.178 100.354C200.178 100.704 200.307 100.968 200.566 101.147C200.827 101.323 201.158 101.411 201.559 101.411ZM206.241 102.161V95.6157H207.212V96.6384H207.298C207.434 96.289 207.654 96.0177 207.958 95.8245C208.262 95.6285 208.627 95.5305 209.053 95.5305C209.485 95.5305 209.844 95.6285 210.131 95.8245C210.421 96.0177 210.647 96.289 210.809 96.6384H210.877C211.045 96.3003 211.296 96.0319 211.631 95.833C211.967 95.6313 212.369 95.5305 212.837 95.5305C213.423 95.5305 213.901 95.7137 214.273 96.0802C214.646 96.4438 214.832 97.0106 214.832 97.7805V102.161H213.826V97.7805C213.826 97.2975 213.694 96.9523 213.43 96.7449C213.165 96.5376 212.854 96.4339 212.496 96.4339C212.036 96.4339 211.68 96.5731 211.427 96.8515C211.174 97.127 211.048 97.4765 211.048 97.8998V102.161H210.025V97.6782C210.025 97.306 209.904 97.0063 209.663 96.779C209.421 96.5489 209.11 96.4339 208.729 96.4339C208.468 96.4339 208.224 96.5035 207.996 96.6427C207.772 96.7819 207.59 96.9751 207.451 97.2222C207.315 97.4665 207.246 97.7492 207.246 98.0702V102.161H206.241ZM220.182 102.161V93.4339H221.188V96.6555H221.273C221.347 96.5418 221.449 96.3969 221.58 96.2208C221.713 96.0418 221.903 95.8827 222.151 95.7435C222.401 95.6015 222.739 95.5305 223.165 95.5305C223.716 95.5305 224.202 95.6682 224.622 95.9438C225.043 96.2194 225.371 96.61 225.607 97.1157C225.842 97.6214 225.96 98.218 225.96 98.9055C225.96 99.5986 225.842 100.199 225.607 100.708C225.371 101.214 225.044 101.606 224.626 101.884C224.209 102.16 223.727 102.297 223.182 102.297C222.761 102.297 222.425 102.228 222.172 102.089C221.919 101.947 221.724 101.786 221.588 101.607C221.452 101.425 221.347 101.275 221.273 101.155H221.153V102.161H220.182ZM221.17 98.8884C221.17 99.3827 221.243 99.8188 221.388 100.197C221.533 100.572 221.744 100.866 222.023 101.079C222.301 101.289 222.642 101.394 223.045 101.394C223.466 101.394 223.817 101.283 224.098 101.062C224.382 100.837 224.595 100.536 224.737 100.158C224.882 99.7776 224.955 99.3543 224.955 98.8884C224.955 98.4282 224.884 98.0134 224.741 97.6441C224.602 97.2719 224.391 96.9779 224.107 96.762C223.825 96.5432 223.472 96.4339 223.045 96.4339C222.636 96.4339 222.293 96.5376 222.014 96.7449C221.736 96.9495 221.526 97.2364 221.384 97.6057C221.241 97.9722 221.17 98.3998 221.17 98.8884ZM229.425 102.315C229.01 102.315 228.634 102.236 228.295 102.08C227.957 101.921 227.689 101.692 227.49 101.394C227.291 101.093 227.192 100.729 227.192 100.303C227.192 99.9282 227.266 99.6242 227.413 99.3912C227.561 99.1555 227.759 98.9708 228.006 98.8373C228.253 98.7037 228.526 98.6043 228.824 98.539C229.125 98.4708 229.428 98.4168 229.732 98.377C230.129 98.3259 230.452 98.2876 230.699 98.262C230.949 98.2336 231.131 98.1867 231.244 98.1214C231.361 98.056 231.419 97.9424 231.419 97.7805V97.7464C231.419 97.3259 231.304 96.9992 231.074 96.7662C230.847 96.5333 230.501 96.4168 230.038 96.4168C229.558 96.4168 229.182 96.5219 228.909 96.7322C228.636 96.9424 228.445 97.1668 228.334 97.4055L227.379 97.0645C227.55 96.6668 227.777 96.3572 228.061 96.1356C228.348 95.9111 228.661 95.7549 228.999 95.6668C229.339 95.5759 229.675 95.5305 230.004 95.5305C230.214 95.5305 230.456 95.556 230.729 95.6072C231.004 95.6555 231.27 95.7563 231.526 95.9097C231.784 96.0631 231.999 96.2947 232.169 96.6043C232.339 96.914 232.425 97.3287 232.425 97.8486V102.161H231.419V101.275H231.368C231.3 101.417 231.186 101.569 231.027 101.731C230.868 101.893 230.656 102.03 230.392 102.144C230.128 102.258 229.805 102.315 229.425 102.315ZM229.578 101.411C229.976 101.411 230.311 101.333 230.584 101.177C230.859 101.021 231.067 100.819 231.206 100.572C231.348 100.324 231.419 100.065 231.419 99.7918V98.8714C231.376 98.9225 231.283 98.9694 231.138 99.012C230.996 99.0518 230.831 99.0873 230.643 99.1185C230.459 99.1469 230.278 99.1725 230.102 99.1952C229.929 99.2151 229.788 99.2322 229.68 99.2464C229.419 99.2805 229.175 99.3358 228.947 99.4126C228.723 99.4864 228.541 99.5986 228.402 99.7492C228.266 99.8969 228.197 100.099 228.197 100.354C228.197 100.704 228.327 100.968 228.585 101.147C228.847 101.323 229.178 101.411 229.578 101.411ZM238.897 97.0816L237.993 97.3373C237.936 97.1867 237.853 97.0404 237.742 96.8983C237.634 96.7535 237.486 96.6341 237.299 96.5404C237.111 96.4466 236.871 96.3998 236.578 96.3998C236.178 96.3998 235.844 96.4921 235.577 96.6768C235.313 96.8586 235.181 97.0901 235.181 97.3714C235.181 97.6214 235.272 97.8188 235.453 97.9637C235.635 98.1086 235.919 98.2293 236.306 98.3259L237.277 98.5645C237.863 98.7066 238.299 98.9239 238.586 99.2165C238.873 99.5063 239.016 99.8799 239.016 100.337C239.016 100.712 238.908 101.047 238.692 101.343C238.479 101.638 238.181 101.871 237.797 102.042C237.414 102.212 236.968 102.297 236.459 102.297C235.792 102.297 235.239 102.153 234.801 101.863C234.364 101.573 234.087 101.15 233.971 100.593L234.925 100.354C235.016 100.707 235.188 100.971 235.441 101.147C235.696 101.323 236.03 101.411 236.442 101.411C236.911 101.411 237.283 101.312 237.559 101.113C237.837 100.911 237.976 100.67 237.976 100.388C237.976 100.161 237.897 99.9708 237.738 99.8174C237.578 99.6611 237.334 99.5447 237.005 99.468L235.914 99.2123C235.314 99.0702 234.874 98.8501 234.593 98.5518C234.314 98.2506 234.175 97.8742 234.175 97.4225C234.175 97.0532 234.279 96.7265 234.486 96.4424C234.696 96.1583 234.982 95.9353 235.343 95.7733C235.706 95.6114 236.118 95.5305 236.578 95.5305C237.226 95.5305 237.735 95.6725 238.104 95.9566C238.476 96.2407 238.74 96.6157 238.897 97.0816ZM243.274 102.297C242.643 102.297 242.099 102.158 241.642 101.88C241.188 101.599 240.837 101.207 240.589 100.704C240.345 100.198 240.223 99.61 240.223 98.9395C240.223 98.2691 240.345 97.6782 240.589 97.1668C240.837 96.6526 241.18 96.252 241.621 95.9651C242.064 95.6753 242.581 95.5305 243.172 95.5305C243.513 95.5305 243.849 95.5873 244.182 95.7009C244.514 95.8145 244.817 95.9992 245.089 96.2549C245.362 96.5077 245.58 96.843 245.741 97.2606C245.903 97.6782 245.984 98.1924 245.984 98.8032V99.2293H240.939V98.36H244.962C244.962 97.9907 244.888 97.6611 244.74 97.3714C244.595 97.0816 244.388 96.8529 244.118 96.6853C243.851 96.5177 243.536 96.4339 243.172 96.4339C242.771 96.4339 242.425 96.5333 242.132 96.7322C241.842 96.9282 241.619 97.1839 241.463 97.4992C241.307 97.8145 241.229 98.1526 241.229 98.5134V99.093C241.229 99.5873 241.314 100.006 241.484 100.35C241.658 100.691 241.898 100.951 242.205 101.13C242.511 101.306 242.868 101.394 243.274 101.394C243.538 101.394 243.777 101.357 243.99 101.283C244.206 101.207 244.392 101.093 244.548 100.942C244.705 100.789 244.825 100.599 244.911 100.371L245.882 100.644C245.78 100.974 245.608 101.263 245.366 101.513C245.125 101.761 244.827 101.954 244.472 102.093C244.116 102.229 243.717 102.297 243.274 102.297ZM249.986 102.297C249.44 102.297 248.959 102.16 248.541 101.884C248.124 101.606 247.797 101.214 247.561 100.708C247.325 100.199 247.207 99.5986 247.207 98.9055C247.207 98.218 247.325 97.6214 247.561 97.1157C247.797 96.61 248.125 96.2194 248.545 95.9438C248.966 95.6682 249.452 95.5305 250.003 95.5305C250.429 95.5305 250.766 95.6015 251.013 95.7435C251.263 95.8827 251.453 96.0418 251.584 96.2208C251.717 96.3969 251.821 96.5418 251.895 96.6555H251.98V93.4339H252.986V102.161H252.014V101.155H251.895C251.821 101.275 251.716 101.425 251.58 101.607C251.443 101.786 251.249 101.947 250.996 102.089C250.743 102.228 250.406 102.297 249.986 102.297ZM250.122 101.394C250.526 101.394 250.866 101.289 251.145 101.079C251.423 100.866 251.635 100.572 251.78 100.197C251.925 99.8188 251.997 99.3827 251.997 98.8884C251.997 98.3998 251.926 97.9722 251.784 97.6057C251.642 97.2364 251.432 96.9495 251.153 96.7449C250.875 96.5376 250.531 96.4339 250.122 96.4339C249.696 96.4339 249.341 96.5432 249.057 96.762C248.776 96.9779 248.564 97.2719 248.422 97.6441C248.283 98.0134 248.213 98.4282 248.213 98.8884C248.213 99.3543 248.284 99.7776 248.426 100.158C248.571 100.536 248.784 100.837 249.065 101.062C249.349 101.283 249.702 101.394 250.122 101.394ZM258.342 104.616V95.6157H259.314V96.6555H259.433C259.507 96.5418 259.609 96.3969 259.74 96.2208C259.874 96.0418 260.064 95.8827 260.311 95.7435C260.561 95.6015 260.899 95.5305 261.325 95.5305C261.876 95.5305 262.362 95.6682 262.783 95.9438C263.203 96.2194 263.531 96.61 263.767 97.1157C264.003 97.6214 264.121 98.218 264.121 98.9055C264.121 99.5986 264.003 100.199 263.767 100.708C263.531 101.214 263.205 101.606 262.787 101.884C262.369 102.16 261.888 102.297 261.342 102.297C260.922 102.297 260.585 102.228 260.332 102.089C260.08 101.947 259.885 101.786 259.749 101.607C259.612 101.425 259.507 101.275 259.433 101.155H259.348V104.616H258.342ZM259.331 98.8884C259.331 99.3827 259.403 99.8188 259.548 100.197C259.693 100.572 259.905 100.866 260.183 101.079C260.462 101.289 260.803 101.394 261.206 101.394C261.626 101.394 261.977 101.283 262.259 101.062C262.543 100.837 262.756 100.536 262.898 100.158C263.043 99.7776 263.115 99.3543 263.115 98.8884C263.115 98.4282 263.044 98.0134 262.902 97.6441C262.763 97.2719 262.551 96.9779 262.267 96.762C261.986 96.5432 261.632 96.4339 261.206 96.4339C260.797 96.4339 260.453 96.5376 260.175 96.7449C259.896 96.9495 259.686 97.2364 259.544 97.6057C259.402 97.9722 259.331 98.3998 259.331 98.8884ZM265.655 102.161V95.6157H266.626V96.6043H266.695C266.814 96.2805 267.03 96.0177 267.342 95.816C267.655 95.6143 268.007 95.5134 268.399 95.5134C268.473 95.5134 268.565 95.5148 268.676 95.5177C268.787 95.5205 268.871 95.5248 268.928 95.5305V96.5532C268.893 96.5447 268.815 96.5319 268.693 96.5148C268.574 96.4949 268.447 96.485 268.314 96.485C267.996 96.485 267.712 96.5518 267.462 96.6853C267.214 96.816 267.018 96.9978 266.874 97.2307C266.732 97.4608 266.661 97.7236 266.661 98.0191V102.161H265.655ZM272.665 102.297C272.034 102.297 271.49 102.158 271.033 101.88C270.578 101.599 270.227 101.207 269.98 100.704C269.736 100.198 269.614 99.61 269.614 98.9395C269.614 98.2691 269.736 97.6782 269.98 97.1668C270.227 96.6526 270.571 96.252 271.011 95.9651C271.455 95.6753 271.972 95.5305 272.562 95.5305C272.903 95.5305 273.24 95.5873 273.572 95.7009C273.905 95.8145 274.207 95.9992 274.48 96.2549C274.753 96.5077 274.97 96.843 275.132 97.2606C275.294 97.6782 275.375 98.1924 275.375 98.8032V99.2293H270.33V98.36H274.352C274.352 97.9907 274.278 97.6611 274.131 97.3714C273.986 97.0816 273.778 96.8529 273.509 96.6853C273.241 96.5177 272.926 96.4339 272.562 96.4339C272.162 96.4339 271.815 96.5333 271.523 96.7322C271.233 96.9282 271.01 97.1839 270.854 97.4992C270.697 97.8145 270.619 98.1526 270.619 98.5134V99.093C270.619 99.5873 270.705 100.006 270.875 100.35C271.048 100.691 271.288 100.951 271.595 101.13C271.902 101.306 272.259 101.394 272.665 101.394C272.929 101.394 273.168 101.357 273.381 101.283C273.597 101.207 273.783 101.093 273.939 100.942C274.095 100.789 274.216 100.599 274.301 100.371L275.273 100.644C275.17 100.974 274.999 101.263 274.757 101.513C274.516 101.761 274.217 101.954 273.862 102.093C273.507 102.229 273.108 102.297 272.665 102.297ZM276.905 104.616V95.6157H277.876V96.6555H277.996C278.07 96.5418 278.172 96.3969 278.303 96.2208C278.436 96.0418 278.626 95.8827 278.874 95.7435C279.124 95.6015 279.462 95.5305 279.888 95.5305C280.439 95.5305 280.925 95.6682 281.345 95.9438C281.766 96.2194 282.094 96.61 282.33 97.1157C282.565 97.6214 282.683 98.218 282.683 98.9055C282.683 99.5986 282.565 100.199 282.33 100.708C282.094 101.214 281.767 101.606 281.349 101.884C280.932 102.16 280.45 102.297 279.905 102.297C279.484 102.297 279.148 102.228 278.895 102.089C278.642 101.947 278.447 101.786 278.311 101.607C278.175 101.425 278.07 101.275 277.996 101.155H277.911V104.616H276.905ZM277.893 98.8884C277.893 99.3827 277.966 99.8188 278.111 100.197C278.256 100.572 278.467 100.866 278.746 101.079C279.024 101.289 279.365 101.394 279.768 101.394C280.189 101.394 280.54 101.283 280.821 101.062C281.105 100.837 281.318 100.536 281.46 100.158C281.605 99.7776 281.678 99.3543 281.678 98.8884C281.678 98.4282 281.607 98.0134 281.464 97.6441C281.325 97.2719 281.114 96.9779 280.83 96.762C280.548 96.5432 280.195 96.4339 279.768 96.4339C279.359 96.4339 279.016 96.5376 278.737 96.7449C278.459 96.9495 278.249 97.2364 278.107 97.6057C277.964 97.9722 277.893 98.3998 277.893 98.8884ZM290.507 95.6157V96.468H286.979V95.6157H290.507ZM288.036 102.161V94.7123C288.036 94.3373 288.124 94.0248 288.3 93.7748C288.476 93.5248 288.705 93.3373 288.986 93.2123C289.267 93.0873 289.564 93.0248 289.876 93.0248C290.124 93.0248 290.325 93.0447 290.482 93.0844C290.638 93.1242 290.754 93.1611 290.831 93.1952L290.541 94.0645C290.49 94.0475 290.419 94.0262 290.328 94.0006C290.24 93.9751 290.124 93.9623 289.979 93.9623C289.646 93.9623 289.406 94.0461 289.259 94.2137C289.114 94.3813 289.041 94.627 289.041 94.9509V102.161H288.036ZM294.306 102.297C293.715 102.297 293.197 102.157 292.751 101.876C292.308 101.594 291.961 101.201 291.711 100.695C291.464 100.19 291.34 99.5986 291.34 98.9225C291.34 98.2407 291.464 97.6455 291.711 97.137C291.961 96.6285 292.308 96.2336 292.751 95.9523C293.197 95.6711 293.715 95.5305 294.306 95.5305C294.897 95.5305 295.414 95.6711 295.857 95.9523C296.303 96.2336 296.65 96.6285 296.897 97.137C297.147 97.6455 297.272 98.2407 297.272 98.9225C297.272 99.5986 297.147 100.19 296.897 100.695C296.65 101.201 296.303 101.594 295.857 101.876C295.414 102.157 294.897 102.297 294.306 102.297ZM294.306 101.394C294.755 101.394 295.124 101.279 295.414 101.049C295.704 100.819 295.918 100.516 296.058 100.141C296.197 99.7662 296.266 99.36 296.266 98.9225C296.266 98.485 296.197 98.0773 296.058 97.6995C295.918 97.3216 295.704 97.0162 295.414 96.7833C295.124 96.5503 294.755 96.4339 294.306 96.4339C293.857 96.4339 293.488 96.5503 293.198 96.7833C292.908 97.0162 292.694 97.3216 292.555 97.6995C292.415 98.0773 292.346 98.485 292.346 98.9225C292.346 99.36 292.415 99.7662 292.555 100.141C292.694 100.516 292.908 100.819 293.198 101.049C293.488 101.279 293.857 101.394 294.306 101.394ZM298.807 102.161V95.6157H299.779V96.6043H299.847C299.966 96.2805 300.182 96.0177 300.495 95.816C300.807 95.6143 301.159 95.5134 301.551 95.5134C301.625 95.5134 301.718 95.5148 301.828 95.5177C301.939 95.5205 302.023 95.5248 302.08 95.5305V96.5532C302.046 96.5447 301.968 96.5319 301.846 96.5148C301.726 96.4949 301.6 96.485 301.466 96.485C301.148 96.485 300.864 96.5518 300.614 96.6853C300.367 96.816 300.171 96.9978 300.026 97.2307C299.884 97.4608 299.813 97.7236 299.813 98.0191V102.161H298.807ZM307.84 93.4339V102.161H306.783V93.4339H307.84ZM315.925 96.1611C315.831 95.8742 315.708 95.6171 315.554 95.3898C315.404 95.1597 315.223 94.9637 315.013 94.8018C314.806 94.6398 314.57 94.5162 314.306 94.431C314.042 94.3458 313.752 94.3032 313.436 94.3032C312.919 94.3032 312.449 94.4367 312.026 94.7037C311.603 94.9708 311.266 95.3643 311.016 95.8841C310.766 96.404 310.641 97.0418 310.641 97.7975C310.641 98.5532 310.767 99.191 311.02 99.7108C311.273 100.231 311.615 100.624 312.047 100.891C312.479 101.158 312.965 101.292 313.505 101.292C314.005 101.292 314.445 101.185 314.826 100.972C315.209 100.756 315.507 100.452 315.721 100.06C315.936 99.6654 316.044 99.2009 316.044 98.6668L316.368 98.735H313.743V97.7975H317.067V98.735C317.067 99.4537 316.914 100.079 316.607 100.61C316.303 101.141 315.882 101.553 315.346 101.846C314.811 102.136 314.198 102.28 313.505 102.28C312.732 102.28 312.053 102.099 311.468 101.735C310.885 101.371 310.431 100.854 310.104 100.184C309.78 99.5134 309.618 98.718 309.618 97.7975C309.618 97.1072 309.711 96.4864 309.895 95.9353C310.083 95.3813 310.347 94.9097 310.688 94.5205C311.029 94.1313 311.432 93.833 311.898 93.6256C312.364 93.4182 312.877 93.3145 313.436 93.3145C313.897 93.3145 314.326 93.3841 314.723 93.5233C315.124 93.6597 315.48 93.8543 315.793 94.1072C316.108 94.3572 316.371 94.6569 316.581 95.0063C316.792 95.3529 316.936 95.7378 317.016 96.1611H315.925ZM325.9 96.1611H324.843C324.781 95.8572 324.671 95.5901 324.515 95.36C324.362 95.1299 324.174 94.9367 323.952 94.7805C323.734 94.6214 323.491 94.502 323.224 94.4225C322.957 94.343 322.678 94.3032 322.388 94.3032C321.86 94.3032 321.381 94.4367 320.952 94.7037C320.526 94.9708 320.187 95.3643 319.934 95.8841C319.684 96.404 319.559 97.0418 319.559 97.7975C319.559 98.5532 319.684 99.191 319.934 99.7108C320.187 100.231 320.526 100.624 320.952 100.891C321.381 101.158 321.86 101.292 322.388 101.292C322.678 101.292 322.957 101.252 323.224 101.172C323.491 101.093 323.734 100.975 323.952 100.819C324.174 100.66 324.362 100.465 324.515 100.235C324.671 100.002 324.781 99.735 324.843 99.4339H325.9C325.82 99.8799 325.675 100.279 325.465 100.631C325.255 100.984 324.994 101.283 324.681 101.53C324.369 101.775 324.018 101.961 323.629 102.089C323.242 102.217 322.829 102.28 322.388 102.28C321.644 102.28 320.982 102.099 320.403 101.735C319.823 101.371 319.367 100.854 319.035 100.184C318.702 99.5134 318.536 98.718 318.536 97.7975C318.536 96.877 318.702 96.0816 319.035 95.4111C319.367 94.7407 319.823 94.2236 320.403 93.86C320.982 93.4964 321.644 93.3145 322.388 93.3145C322.829 93.3145 323.242 93.3785 323.629 93.5063C324.018 93.6341 324.369 93.8216 324.681 94.0688C324.994 94.3131 325.255 94.6114 325.465 94.9637C325.675 95.3131 325.82 95.7123 325.9 96.1611ZM332.38 95.6157C332.329 95.1839 332.122 94.8486 331.758 94.61C331.395 94.3714 330.949 94.252 330.42 94.252C330.034 94.252 329.696 94.3145 329.406 94.4395C329.119 94.5645 328.895 94.7364 328.733 94.9552C328.574 95.1739 328.494 95.4225 328.494 95.7009C328.494 95.9339 328.549 96.1341 328.66 96.3018C328.774 96.4665 328.919 96.6043 329.095 96.7151C329.271 96.8231 329.456 96.9126 329.649 96.9836C329.842 97.0518 330.02 97.1072 330.181 97.1498L331.068 97.3884C331.295 97.4481 331.548 97.5305 331.826 97.6356C332.108 97.7407 332.376 97.8841 332.632 98.066C332.89 98.2449 333.103 98.4751 333.271 98.7563C333.439 99.0376 333.522 99.3827 333.522 99.7918C333.522 100.263 333.399 100.69 333.152 101.07C332.907 101.451 332.549 101.753 332.078 101.978C331.609 102.202 331.039 102.315 330.369 102.315C329.744 102.315 329.203 102.214 328.745 102.012C328.291 101.81 327.933 101.529 327.672 101.168C327.413 100.807 327.267 100.388 327.233 99.9111H328.324C328.352 100.241 328.463 100.513 328.656 100.729C328.852 100.942 329.099 101.101 329.397 101.207C329.699 101.309 330.022 101.36 330.369 101.36C330.772 101.36 331.135 101.295 331.456 101.164C331.777 101.03 332.031 100.846 332.218 100.61C332.406 100.371 332.5 100.093 332.5 99.7748C332.5 99.485 332.419 99.2492 332.257 99.0674C332.095 98.8856 331.882 98.7378 331.618 98.6242C331.353 98.5106 331.068 98.4111 330.761 98.3259L329.687 98.0191C329.005 97.8231 328.466 97.5432 328.068 97.1796C327.67 96.816 327.471 96.3401 327.471 95.752C327.471 95.2634 327.603 94.8373 327.868 94.4736C328.135 94.1072 328.493 93.8231 328.941 93.6214C329.393 93.4168 329.897 93.3145 330.454 93.3145C331.017 93.3145 331.517 93.4154 331.954 93.6171C332.392 93.816 332.738 94.0887 332.994 94.4353C333.252 94.7819 333.389 95.1753 333.403 95.6157H332.38ZM335.26 102.161V93.4339H340.527V94.3714H336.317V97.3202H340.254V98.2577H336.317V101.224H340.595V102.161H335.26ZM345.807 93.4339H347.068L350.034 100.678H350.136L353.102 93.4339H354.364V102.161H353.375V95.5305H353.29L350.562 102.161H349.608L346.881 95.5305H346.795V102.161H345.807V93.4339ZM358.272 102.315C357.858 102.315 357.481 102.236 357.143 102.08C356.805 101.921 356.537 101.692 356.338 101.394C356.139 101.093 356.039 100.729 356.039 100.303C356.039 99.9282 356.113 99.6242 356.261 99.3912C356.409 99.1555 356.606 98.9708 356.853 98.8373C357.1 98.7037 357.373 98.6043 357.672 98.539C357.973 98.4708 358.275 98.4168 358.579 98.377C358.977 98.3259 359.299 98.2876 359.547 98.262C359.797 98.2336 359.978 98.1867 360.092 98.1214C360.208 98.056 360.267 97.9424 360.267 97.7805V97.7464C360.267 97.3259 360.152 96.9992 359.922 96.7662C359.694 96.5333 359.349 96.4168 358.886 96.4168C358.406 96.4168 358.029 96.5219 357.757 96.7322C357.484 96.9424 357.292 97.1668 357.181 97.4055L356.227 97.0645C356.397 96.6668 356.625 96.3572 356.909 96.1356C357.196 95.9111 357.508 95.7549 357.846 95.6668C358.187 95.5759 358.522 95.5305 358.852 95.5305C359.062 95.5305 359.304 95.556 359.576 95.6072C359.852 95.6555 360.118 95.7563 360.373 95.9097C360.632 96.0631 360.846 96.2947 361.017 96.6043C361.187 96.914 361.272 97.3287 361.272 97.8486V102.161H360.267V101.275H360.216C360.147 101.417 360.034 101.569 359.875 101.731C359.716 101.893 359.504 102.03 359.24 102.144C358.975 102.258 358.653 102.315 358.272 102.315ZM358.426 101.411C358.824 101.411 359.159 101.333 359.431 101.177C359.707 101.021 359.914 100.819 360.054 100.572C360.196 100.324 360.267 100.065 360.267 99.7918V98.8714C360.224 98.9225 360.13 98.9694 359.985 99.012C359.843 99.0518 359.679 99.0873 359.491 99.1185C359.306 99.1469 359.126 99.1725 358.95 99.1952C358.777 99.2151 358.636 99.2322 358.528 99.2464C358.267 99.2805 358.022 99.3358 357.795 99.4126C357.571 99.4864 357.389 99.5986 357.25 99.7492C357.113 99.8969 357.045 100.099 357.045 100.354C357.045 100.704 357.174 100.968 357.433 101.147C357.694 101.323 358.025 101.411 358.426 101.411ZM365.955 95.6157V96.468H362.562V95.6157H365.955ZM363.551 94.0475H364.557V100.286C364.557 100.57 364.598 100.783 364.68 100.925C364.766 101.065 364.874 101.158 365.004 101.207C365.138 101.252 365.278 101.275 365.426 101.275C365.537 101.275 365.628 101.269 365.699 101.258C365.77 101.244 365.827 101.232 365.869 101.224L366.074 102.127C366.006 102.153 365.911 102.178 365.788 102.204C365.666 102.232 365.511 102.246 365.324 102.246C365.04 102.246 364.761 102.185 364.489 102.063C364.219 101.941 363.994 101.755 363.815 101.505C363.639 101.255 363.551 100.94 363.551 100.559V94.0475ZM368.614 98.2236V102.161H367.608V93.4339H368.614V96.6384H368.699C368.852 96.3003 369.082 96.0319 369.389 95.833C369.699 95.6313 370.111 95.5305 370.625 95.5305C371.071 95.5305 371.462 95.6199 371.797 95.7989C372.132 95.9751 372.392 96.2464 372.577 96.6128C372.764 96.9765 372.858 97.4395 372.858 98.002V102.161H371.852V98.0702C371.852 97.5503 371.717 97.1483 371.447 96.8643C371.18 96.5773 370.81 96.4339 370.335 96.4339C370.006 96.4339 369.71 96.5035 369.449 96.6427C369.19 96.7819 368.986 96.985 368.835 97.252C368.688 97.5191 368.614 97.843 368.614 98.2236ZM379.334 97.0816L378.431 97.3373C378.374 97.1867 378.29 97.0404 378.179 96.8983C378.071 96.7535 377.924 96.6341 377.736 96.5404C377.549 96.4466 377.309 96.3998 377.016 96.3998C376.615 96.3998 376.282 96.4921 376.015 96.6768C375.75 96.8586 375.618 97.0901 375.618 97.3714C375.618 97.6214 375.709 97.8188 375.891 97.9637C376.073 98.1086 376.357 98.2293 376.743 98.3259L377.715 98.5645C378.3 98.7066 378.736 98.9239 379.023 99.2165C379.31 99.5063 379.453 99.8799 379.453 100.337C379.453 100.712 379.346 101.047 379.13 101.343C378.917 101.638 378.618 101.871 378.235 102.042C377.851 102.212 377.405 102.297 376.897 102.297C376.229 102.297 375.676 102.153 375.239 101.863C374.801 101.573 374.525 101.15 374.408 100.593L375.363 100.354C375.453 100.707 375.625 100.971 375.878 101.147C376.134 101.323 376.468 101.411 376.88 101.411C377.348 101.411 377.721 101.312 377.996 101.113C378.275 100.911 378.414 100.67 378.414 100.388C378.414 100.161 378.334 99.9708 378.175 99.8174C378.016 99.6611 377.772 99.5447 377.442 99.468L376.351 99.2123C375.752 99.0702 375.311 98.8501 375.03 98.5518C374.752 98.2506 374.613 97.8742 374.613 97.4225C374.613 97.0532 374.716 96.7265 374.924 96.4424C375.134 96.1583 375.419 95.9353 375.78 95.7733C376.144 95.6114 376.556 95.5305 377.016 95.5305C377.664 95.5305 378.172 95.6725 378.542 95.9566C378.914 96.2407 379.178 96.6157 379.334 97.0816ZM382.297 93.4339L382.212 99.7066H381.223L381.138 93.4339H382.297ZM381.717 102.229C381.507 102.229 381.327 102.154 381.176 102.003C381.026 101.853 380.95 101.672 380.95 101.462C380.95 101.252 381.026 101.072 381.176 100.921C381.327 100.771 381.507 100.695 381.717 100.695C381.928 100.695 382.108 100.771 382.259 100.921C382.409 101.072 382.484 101.252 382.484 101.462C382.484 101.601 382.449 101.729 382.378 101.846C382.31 101.962 382.217 102.056 382.101 102.127C381.987 102.195 381.859 102.229 381.717 102.229ZM385.194 93.4339V94.2009C385.194 94.4339 385.151 94.6824 385.066 94.9466C384.983 95.208 384.861 95.4623 384.699 95.7094C384.54 95.9537 384.347 96.1668 384.12 96.3486L383.574 95.9055C383.753 95.6498 383.908 95.3841 384.039 95.1086C384.172 94.8302 384.239 94.5333 384.239 94.218V93.4339H385.194ZM387.375 93.4339V94.2009C387.375 94.4339 387.333 94.6824 387.248 94.9466C387.165 95.208 387.043 95.4623 386.881 95.7094C386.722 95.9537 386.529 96.1668 386.301 96.3486L385.756 95.9055C385.935 95.6498 386.09 95.3841 386.221 95.1086C386.354 94.8302 386.421 94.5333 386.421 94.218V93.4339H387.375Z" fill="#373A3A"/>
<rect x="1" y="1" width="406" height="128" rx="3.9342" stroke="#5863F8" stroke-width="2"/>
<defs>
<clipPath id="clip0_670_5796">
<rect width="289.55" height="339.984" fill="white" transform="translate(-41.459 18)"/>
</clipPath>
<clipPath id="clip1_670_5796">
<rect width="34.046" height="34.046" fill="white" transform="translate(356.621 17.6826)"/>
</clipPath>
<clipPath id="clip2_670_5796">
<rect width="23.1233" height="23.1233" fill="white" transform="translate(280.753 26.4385)"/>
</clipPath>
<clipPath id="clip3_670_5796">
<rect width="16" height="16" fill="white" transform="translate(126.312 51)"/>
</clipPath>
</defs>
</svg>
