<svg width="24" height="24" viewBox="0 0 24 24" fill="none" xmlns="http://www.w3.org/2000/svg">
<g id="material-symbols:arrow-back-rounded">
<path id="Vector" d="M13.125 19.2996L19.725 12.6996C19.825 12.5996 19.896 12.4913 19.938 12.3746C19.9793 12.2579 20 12.1329 20 11.9996C20 11.8663 19.9793 11.7413 19.938 11.6246C19.896 11.5079 19.825 11.3996 19.725 11.2996L13.125 4.69959C12.9417 4.51626 12.7127 4.42026 12.438 4.41159C12.1627 4.40359 11.925 4.49959 11.725 4.69959C11.525 4.88293 11.4207 5.11193 11.412 5.38659C11.404 5.66193 11.5 5.89959 11.7 6.09959L16.6 10.9996H5.425C5.14167 10.9996 4.904 11.0953 4.712 11.2866C4.52067 11.4786 4.425 11.7163 4.425 11.9996C4.425 12.2829 4.52067 12.5203 4.712 12.7116C4.904 12.9036 5.14167 12.9996 5.425 12.9996H16.6L11.7 17.8996C11.5167 18.0829 11.4207 18.3163 11.412 18.5996C11.404 18.8829 11.5 19.1163 11.7 19.2996C11.8833 19.4996 12.1167 19.5996 12.4 19.5996C12.6833 19.5996 12.925 19.4996 13.125 19.2996Z" fill="#373A3A"/>
</g>
</svg>
