<svg width="1200" height="48" viewBox="0 0 1200 48" fill="none" xmlns="http://www.w3.org/2000/svg">
<path d="M0 4C0 1.79086 1.79086 0 4 0H1196C1198.21 0 1200 1.79086 1200 4V48H0V4Z" fill="#FAFAFA"/>
<path d="M80 16C80 13.7909 81.7909 12 84 12H1094C1096.21 12 1098 13.7909 1098 16V32C1098 34.2091 1096.21 36 1094 36H84C81.7908 36 80 34.2091 80 32V16Z" fill="white"/>
<path d="M91.0327 18.707V22.1128C91.0327 22.3081 91.0278 22.5059 91.0181 22.7061C91.0083 22.9014 90.9912 23.082 90.9668 23.248H91.0474C91.2134 22.9648 91.4233 22.728 91.6772 22.5376C91.936 22.3423 92.229 22.1958 92.5562 22.0981C92.8833 21.9956 93.23 21.9443 93.5962 21.9443C94.2407 21.9443 94.7778 22.0469 95.2075 22.252C95.6421 22.457 95.9668 22.7744 96.1816 23.2041C96.4014 23.6338 96.5112 24.1904 96.5112 24.874V30.1035H95.3101V24.9546C95.3101 24.2856 95.1562 23.7852 94.8486 23.4531C94.5459 23.1211 94.0796 22.9551 93.4497 22.9551C92.854 22.9551 92.3779 23.0698 92.0215 23.2993C91.6699 23.5239 91.416 23.856 91.2598 24.2954C91.1084 24.7349 91.0327 25.272 91.0327 25.9067V30.1035H89.8169V18.707H91.0327ZM101.609 29.2539C101.809 29.2539 102.014 29.2368 102.224 29.2026C102.434 29.1685 102.605 29.127 102.737 29.0781V30.0229C102.595 30.0864 102.397 30.1401 102.144 30.1841C101.895 30.228 101.65 30.25 101.411 30.25C100.986 30.25 100.601 30.1768 100.254 30.0303C99.9072 29.8789 99.6289 29.625 99.4189 29.2686C99.2139 28.9121 99.1113 28.4189 99.1113 27.7891V23.0283H97.9688V22.4351L99.1187 21.959L99.6021 20.2158H100.334V22.0762H102.686V23.0283H100.334V27.7524C100.334 28.2554 100.449 28.6313 100.679 28.8804C100.913 29.1294 101.223 29.2539 101.609 29.2539ZM106.956 29.2539C107.156 29.2539 107.361 29.2368 107.571 29.2026C107.781 29.1685 107.952 29.127 108.083 29.0781V30.0229C107.942 30.0864 107.744 30.1401 107.49 30.1841C107.241 30.228 106.997 30.25 106.758 30.25C106.333 30.25 105.947 30.1768 105.601 30.0303C105.254 29.8789 104.976 29.625 104.766 29.2686C104.561 28.9121 104.458 28.4189 104.458 27.7891V23.0283H103.315V22.4351L104.465 21.959L104.949 20.2158H105.681V22.0762H108.032V23.0283H105.681V27.7524C105.681 28.2554 105.796 28.6313 106.025 28.8804C106.26 29.1294 106.57 29.2539 106.956 29.2539ZM113.481 21.9297C114.482 21.9297 115.281 22.2739 115.876 22.9624C116.472 23.6509 116.77 24.686 116.77 26.0679C116.77 26.981 116.633 27.7476 116.36 28.3677C116.086 28.9878 115.701 29.4565 115.203 29.7739C114.709 30.0913 114.126 30.25 113.452 30.25C113.027 30.25 112.654 30.1938 112.332 30.0815C112.009 29.9692 111.733 29.8179 111.504 29.6274C111.274 29.437 111.084 29.2295 110.933 29.0049H110.845C110.859 29.1953 110.876 29.4248 110.896 29.6934C110.92 29.9619 110.933 30.1963 110.933 30.3965V33.6924H109.709V22.0762H110.713L110.874 23.2627H110.933C111.089 23.0186 111.279 22.7964 111.504 22.5962C111.729 22.3911 112.002 22.23 112.324 22.1128C112.651 21.9907 113.037 21.9297 113.481 21.9297ZM113.269 22.9551C112.712 22.9551 112.263 23.0625 111.921 23.2773C111.584 23.4922 111.338 23.8145 111.182 24.2441C111.025 24.6689 110.942 25.2036 110.933 25.8481V26.0825C110.933 26.7612 111.006 27.335 111.152 27.8037C111.304 28.2725 111.55 28.6289 111.892 28.873C112.239 29.1172 112.703 29.2393 113.284 29.2393C113.782 29.2393 114.197 29.105 114.529 28.8364C114.861 28.5679 115.107 28.1943 115.269 27.7158C115.435 27.2324 115.518 26.6782 115.518 26.0532C115.518 25.106 115.332 24.354 114.961 23.7974C114.595 23.2358 114.031 22.9551 113.269 22.9551ZM124.087 27.9062C124.087 28.4189 123.958 28.8511 123.699 29.2026C123.445 29.5493 123.079 29.8105 122.6 29.9863C122.126 30.1621 121.56 30.25 120.901 30.25C120.339 30.25 119.854 30.2061 119.443 30.1182C119.033 30.0303 118.674 29.9058 118.367 29.7446V28.624C118.694 28.7852 119.084 28.9316 119.539 29.0635C119.993 29.1953 120.457 29.2612 120.93 29.2612C121.624 29.2612 122.126 29.1489 122.439 28.9243C122.751 28.6997 122.908 28.3945 122.908 28.0088C122.908 27.7891 122.844 27.5962 122.717 27.4302C122.595 27.2593 122.388 27.0957 122.095 26.9395C121.802 26.7783 121.396 26.6025 120.879 26.4121C120.366 26.2168 119.922 26.0239 119.546 25.8335C119.175 25.6382 118.887 25.4014 118.682 25.123C118.481 24.8447 118.381 24.4834 118.381 24.0391C118.381 23.3604 118.655 22.8403 119.202 22.479C119.753 22.1128 120.476 21.9297 121.37 21.9297C121.853 21.9297 122.305 21.9785 122.725 22.0762C123.149 22.1689 123.545 22.2959 123.911 22.457L123.501 23.4312C123.169 23.2896 122.815 23.1699 122.439 23.0723C122.063 22.9746 121.68 22.9258 121.289 22.9258C120.728 22.9258 120.295 23.0186 119.993 23.2041C119.695 23.3896 119.546 23.6436 119.546 23.9658C119.546 24.2148 119.614 24.4199 119.751 24.5811C119.893 24.7422 120.117 24.8936 120.425 25.0352C120.732 25.1768 121.138 25.3428 121.641 25.5332C122.144 25.7188 122.578 25.9116 122.944 26.1118C123.311 26.3071 123.591 26.5464 123.787 26.8296C123.987 27.1079 124.087 27.4668 124.087 27.9062ZM125.859 29.3418C125.859 29 125.942 28.7583 126.108 28.6167C126.274 28.4702 126.477 28.397 126.716 28.397C126.965 28.397 127.175 28.4702 127.346 28.6167C127.517 28.7583 127.603 29 127.603 29.3418C127.603 29.6787 127.517 29.9253 127.346 30.0815C127.175 30.2329 126.965 30.3086 126.716 30.3086C126.477 30.3086 126.274 30.2329 126.108 30.0815C125.942 29.9253 125.859 29.6787 125.859 29.3418ZM125.859 22.8452C125.859 22.4937 125.942 22.2471 126.108 22.1055C126.274 21.959 126.477 21.8857 126.716 21.8857C126.965 21.8857 127.175 21.959 127.346 22.1055C127.517 22.2471 127.603 22.4937 127.603 22.8452C127.603 23.1772 127.517 23.4189 127.346 23.5703C127.175 23.7217 126.965 23.7974 126.716 23.7974C126.477 23.7974 126.274 23.7217 126.108 23.5703C125.942 23.4189 125.859 23.1772 125.859 22.8452ZM134.041 19.3955L130.056 30.1035H128.855L132.847 19.3955H134.041ZM139.548 19.3955L135.564 30.1035H134.363L138.354 19.3955H139.548Z" fill="#D3D3D3"/>
<path d="M147.532 30.0889L146.104 25.416C146.04 25.2158 145.979 25.0205 145.92 24.8301C145.867 24.6348 145.815 24.4492 145.767 24.2734C145.723 24.0928 145.681 23.9268 145.642 23.7754C145.608 23.6191 145.579 23.4849 145.554 23.3726H145.503C145.483 23.4849 145.457 23.6191 145.422 23.7754C145.388 23.9268 145.347 24.0928 145.298 24.2734C145.254 24.4541 145.205 24.6445 145.151 24.8447C145.098 25.04 145.037 25.2378 144.968 25.438L143.474 30.0889H142.104L139.893 22.0615H141.152L142.31 26.4927C142.388 26.7856 142.461 27.0762 142.529 27.3643C142.603 27.6475 142.664 27.916 142.712 28.1699C142.766 28.4189 142.805 28.6362 142.83 28.8218H142.888C142.917 28.6997 142.949 28.5532 142.983 28.3823C143.022 28.2114 143.064 28.0308 143.108 27.8403C143.157 27.645 143.208 27.4521 143.262 27.2617C143.315 27.0664 143.369 26.8833 143.423 26.7124L144.902 22.0615H146.213L147.642 26.7051C147.715 26.9395 147.786 27.1836 147.854 27.4375C147.927 27.6914 147.993 27.938 148.052 28.1772C148.11 28.4116 148.152 28.6216 148.176 28.8071H148.235C148.254 28.6411 148.291 28.436 148.345 28.1919C148.398 27.9478 148.459 27.6792 148.528 27.3862C148.601 27.0933 148.677 26.7954 148.755 26.4927L149.927 22.0615H151.165L148.945 30.0889H147.532ZM159.163 30.0889L157.734 25.416C157.671 25.2158 157.61 25.0205 157.551 24.8301C157.498 24.6348 157.446 24.4492 157.397 24.2734C157.354 24.0928 157.312 23.9268 157.273 23.7754C157.239 23.6191 157.209 23.4849 157.185 23.3726H157.134C157.114 23.4849 157.087 23.6191 157.053 23.7754C157.019 23.9268 156.978 24.0928 156.929 24.2734C156.885 24.4541 156.836 24.6445 156.782 24.8447C156.729 25.04 156.667 25.2378 156.599 25.438L155.105 30.0889H153.735L151.523 22.0615H152.783L153.94 26.4927C154.019 26.7856 154.092 27.0762 154.16 27.3643C154.233 27.6475 154.294 27.916 154.343 28.1699C154.397 28.4189 154.436 28.6362 154.46 28.8218H154.519C154.548 28.6997 154.58 28.5532 154.614 28.3823C154.653 28.2114 154.695 28.0308 154.739 27.8403C154.788 27.645 154.839 27.4521 154.893 27.2617C154.946 27.0664 155 26.8833 155.054 26.7124L156.533 22.0615H157.844L159.272 26.7051C159.346 26.9395 159.417 27.1836 159.485 27.4375C159.558 27.6914 159.624 27.938 159.683 28.1772C159.741 28.4116 159.783 28.6216 159.807 28.8071H159.866C159.885 28.6411 159.922 28.436 159.976 28.1919C160.029 27.9478 160.09 27.6792 160.159 27.3862C160.232 27.0933 160.308 26.7954 160.386 26.4927L161.558 22.0615H162.795L160.576 30.0889H159.163ZM170.793 30.0889L169.365 25.416C169.302 25.2158 169.241 25.0205 169.182 24.8301C169.128 24.6348 169.077 24.4492 169.028 24.2734C168.984 24.0928 168.943 23.9268 168.904 23.7754C168.87 23.6191 168.84 23.4849 168.816 23.3726H168.765C168.745 23.4849 168.718 23.6191 168.684 23.7754C168.65 23.9268 168.608 24.0928 168.56 24.2734C168.516 24.4541 168.467 24.6445 168.413 24.8447C168.359 25.04 168.298 25.2378 168.23 25.438L166.736 30.0889H165.366L163.154 22.0615H164.414L165.571 26.4927C165.649 26.7856 165.723 27.0762 165.791 27.3643C165.864 27.6475 165.925 27.916 165.974 28.1699C166.028 28.4189 166.067 28.6362 166.091 28.8218H166.15C166.179 28.6997 166.211 28.5532 166.245 28.3823C166.284 28.2114 166.326 28.0308 166.37 27.8403C166.418 27.645 166.47 27.4521 166.523 27.2617C166.577 27.0664 166.631 26.8833 166.685 26.7124L168.164 22.0615H169.475L170.903 26.7051C170.977 26.9395 171.047 27.1836 171.116 27.4375C171.189 27.6914 171.255 27.938 171.313 28.1772C171.372 28.4116 171.414 28.6216 171.438 28.8071H171.497C171.516 28.6411 171.553 28.436 171.606 28.1919C171.66 27.9478 171.721 27.6792 171.79 27.3862C171.863 27.0933 171.938 26.7954 172.017 26.4927L173.188 22.0615H174.426L172.207 30.0889H170.793ZM175.708 29.3418C175.708 29 175.791 28.7583 175.957 28.6167C176.123 28.4702 176.326 28.397 176.565 28.397C176.814 28.397 177.024 28.4702 177.195 28.6167C177.366 28.7583 177.451 29 177.451 29.3418C177.451 29.6787 177.366 29.9253 177.195 30.0815C177.024 30.2329 176.814 30.3086 176.565 30.3086C176.326 30.3086 176.123 30.2329 175.957 30.0815C175.791 29.9253 175.708 29.6787 175.708 29.3418ZM182.424 29.2539C182.625 29.2539 182.83 29.2368 183.04 29.2026C183.25 29.1685 183.42 29.127 183.552 29.0781V30.0229C183.411 30.0864 183.213 30.1401 182.959 30.1841C182.71 30.228 182.466 30.25 182.227 30.25C181.802 30.25 181.416 30.1768 181.069 30.0303C180.723 29.8789 180.444 29.625 180.234 29.2686C180.029 28.9121 179.927 28.4189 179.927 27.7891V23.0283H178.784V22.4351L179.934 21.959L180.417 20.2158H181.15V22.0762H183.501V23.0283H181.15V27.7524C181.15 28.2554 181.265 28.6313 181.494 28.8804C181.729 29.1294 182.039 29.2539 182.424 29.2539ZM186.394 18.707V22.1128C186.394 22.3081 186.389 22.5059 186.379 22.7061C186.37 22.9014 186.353 23.082 186.328 23.248H186.409C186.575 22.9648 186.785 22.728 187.039 22.5376C187.297 22.3423 187.59 22.1958 187.917 22.0981C188.245 21.9956 188.591 21.9443 188.958 21.9443C189.602 21.9443 190.139 22.0469 190.569 22.252C191.003 22.457 191.328 22.7744 191.543 23.2041C191.763 23.6338 191.873 24.1904 191.873 24.874V30.1035H190.671V24.9546C190.671 24.2856 190.518 23.7852 190.21 23.4531C189.907 23.1211 189.441 22.9551 188.811 22.9551C188.215 22.9551 187.739 23.0698 187.383 23.2993C187.031 23.5239 186.777 23.856 186.621 24.2954C186.47 24.7349 186.394 25.272 186.394 25.9067V30.1035H185.178V18.707H186.394ZM197.468 21.9297C198.152 21.9297 198.738 22.0811 199.226 22.3838C199.714 22.6865 200.088 23.1113 200.347 23.6582C200.605 24.2002 200.735 24.835 200.735 25.5625V26.3169H195.19C195.205 27.2593 195.439 27.9771 195.894 28.4702C196.348 28.9634 196.987 29.21 197.812 29.21C198.32 29.21 198.77 29.1636 199.16 29.0708C199.551 28.978 199.956 28.8413 200.376 28.6606V29.73C199.971 29.9106 199.568 30.0425 199.167 30.1255C198.772 30.2085 198.303 30.25 197.761 30.25C196.99 30.25 196.316 30.0938 195.74 29.7812C195.168 29.4639 194.724 29 194.407 28.3896C194.089 27.7793 193.931 27.0322 193.931 26.1484C193.931 25.2842 194.075 24.5371 194.363 23.9072C194.656 23.2725 195.066 22.7842 195.593 22.4424C196.125 22.1006 196.75 21.9297 197.468 21.9297ZM197.454 22.9258C196.804 22.9258 196.287 23.1382 195.901 23.563C195.515 23.9878 195.286 24.5811 195.212 25.3428H199.46C199.456 24.8643 199.38 24.4443 199.233 24.083C199.092 23.7168 198.875 23.4336 198.582 23.2334C198.289 23.0283 197.913 22.9258 197.454 22.9258ZM206.448 21.9297C206.609 21.9297 206.777 21.9395 206.953 21.959C207.129 21.9736 207.285 21.9956 207.422 22.0249L207.268 23.1528C207.136 23.1187 206.99 23.0918 206.829 23.0723C206.667 23.0527 206.516 23.043 206.375 23.043C206.052 23.043 205.747 23.1089 205.459 23.2407C205.176 23.3677 204.927 23.5532 204.712 23.7974C204.497 24.0366 204.329 24.3271 204.207 24.6689C204.084 25.0059 204.023 25.3818 204.023 25.7969V30.1035H202.8V22.0762H203.811L203.943 23.5557H203.994C204.16 23.2578 204.36 22.9868 204.595 22.7427C204.829 22.4937 205.1 22.2959 205.408 22.1494C205.72 22.0029 206.067 21.9297 206.448 21.9297ZM212.029 21.9297C212.712 21.9297 213.298 22.0811 213.787 22.3838C214.275 22.6865 214.648 23.1113 214.907 23.6582C215.166 24.2002 215.295 24.835 215.295 25.5625V26.3169H209.751C209.766 27.2593 210 27.9771 210.454 28.4702C210.908 28.9634 211.548 29.21 212.373 29.21C212.881 29.21 213.33 29.1636 213.721 29.0708C214.111 28.978 214.517 28.8413 214.937 28.6606V29.73C214.531 29.9106 214.128 30.0425 213.728 30.1255C213.333 30.2085 212.864 30.25 212.322 30.25C211.55 30.25 210.876 30.0938 210.3 29.7812C209.729 29.4639 209.285 29 208.967 28.3896C208.65 27.7793 208.491 27.0322 208.491 26.1484C208.491 25.2842 208.635 24.5371 208.923 23.9072C209.216 23.2725 209.626 22.7842 210.154 22.4424C210.686 22.1006 211.311 21.9297 212.029 21.9297ZM212.014 22.9258C211.365 22.9258 210.847 23.1382 210.461 23.563C210.076 23.9878 209.846 24.5811 209.773 25.3428H214.021C214.016 24.8643 213.94 24.4443 213.794 24.083C213.652 23.7168 213.435 23.4336 213.142 23.2334C212.849 23.0283 212.473 22.9258 212.014 22.9258ZM219.126 30.1035L216.079 22.0762H217.383L219.148 26.9321C219.27 27.2642 219.395 27.6304 219.521 28.0308C219.648 28.4312 219.736 28.7534 219.785 28.9976H219.836C219.895 28.7534 219.993 28.4312 220.129 28.0308C220.266 27.6255 220.391 27.2593 220.503 26.9321L222.268 22.0762H223.572L220.518 30.1035H219.126ZM226.077 22.0762V30.1035H224.861V22.0762H226.077ZM225.483 19.0732C225.684 19.0732 225.854 19.1392 225.996 19.271C226.143 19.3979 226.216 19.5981 226.216 19.8716C226.216 20.1401 226.143 20.3403 225.996 20.4722C225.854 20.604 225.684 20.6699 225.483 20.6699C225.273 20.6699 225.098 20.604 224.956 20.4722C224.819 20.3403 224.751 20.1401 224.751 19.8716C224.751 19.5981 224.819 19.3979 224.956 19.271C225.098 19.1392 225.273 19.0732 225.483 19.0732ZM233.848 27.9062C233.848 28.4189 233.718 28.8511 233.459 29.2026C233.206 29.5493 232.839 29.8105 232.361 29.9863C231.887 30.1621 231.321 30.25 230.662 30.25C230.1 30.25 229.614 30.2061 229.204 30.1182C228.794 30.0303 228.435 29.9058 228.127 29.7446V28.624C228.455 28.7852 228.845 28.9316 229.299 29.0635C229.753 29.1953 230.217 29.2612 230.691 29.2612C231.384 29.2612 231.887 29.1489 232.2 28.9243C232.512 28.6997 232.668 28.3945 232.668 28.0088C232.668 27.7891 232.605 27.5962 232.478 27.4302C232.356 27.2593 232.148 27.0957 231.855 26.9395C231.562 26.7783 231.157 26.6025 230.64 26.4121C230.127 26.2168 229.683 26.0239 229.307 25.8335C228.936 25.6382 228.647 25.4014 228.442 25.123C228.242 24.8447 228.142 24.4834 228.142 24.0391C228.142 23.3604 228.416 22.8403 228.962 22.479C229.514 22.1128 230.237 21.9297 231.13 21.9297C231.614 21.9297 232.065 21.9785 232.485 22.0762C232.91 22.1689 233.306 22.2959 233.672 22.457L233.262 23.4312C232.93 23.2896 232.576 23.1699 232.2 23.0723C231.824 22.9746 231.44 22.9258 231.05 22.9258C230.488 22.9258 230.056 23.0186 229.753 23.2041C229.456 23.3896 229.307 23.6436 229.307 23.9658C229.307 24.2148 229.375 24.4199 229.512 24.5811C229.653 24.7422 229.878 24.8936 230.186 25.0352C230.493 25.1768 230.898 25.3428 231.401 25.5332C231.904 25.7188 232.339 25.9116 232.705 26.1118C233.071 26.3071 233.352 26.5464 233.547 26.8296C233.748 27.1079 233.848 27.4668 233.848 27.9062ZM237.019 22.0762V30.1035H235.803V22.0762H237.019ZM236.426 19.0732C236.626 19.0732 236.797 19.1392 236.938 19.271C237.085 19.3979 237.158 19.5981 237.158 19.8716C237.158 20.1401 237.085 20.3403 236.938 20.4722C236.797 20.604 236.626 20.6699 236.426 20.6699C236.216 20.6699 236.04 20.604 235.898 20.4722C235.762 20.3403 235.693 20.1401 235.693 19.8716C235.693 19.5981 235.762 19.3979 235.898 19.271C236.04 19.1392 236.216 19.0732 236.426 19.0732ZM246.519 26.0752C246.519 26.7344 246.433 27.3228 246.262 27.8403C246.091 28.3579 245.845 28.7949 245.522 29.1514C245.2 29.5078 244.81 29.7812 244.351 29.9717C243.896 30.1572 243.381 30.25 242.805 30.25C242.268 30.25 241.775 30.1572 241.326 29.9717C240.881 29.7812 240.496 29.5078 240.168 29.1514C239.846 28.7949 239.595 28.3579 239.414 27.8403C239.238 27.3228 239.15 26.7344 239.15 26.0752C239.15 25.1963 239.299 24.4492 239.597 23.834C239.895 23.2139 240.32 22.7427 240.872 22.4204C241.428 22.0933 242.09 21.9297 242.856 21.9297C243.589 21.9297 244.229 22.0933 244.775 22.4204C245.327 22.7476 245.754 23.2212 246.057 23.8413C246.365 24.4565 246.519 25.2012 246.519 26.0752ZM240.41 26.0752C240.41 26.7197 240.496 27.2788 240.667 27.7524C240.837 28.2261 241.101 28.5923 241.458 28.8511C241.814 29.1099 242.273 29.2393 242.834 29.2393C243.391 29.2393 243.848 29.1099 244.204 28.8511C244.565 28.5923 244.832 28.2261 245.002 27.7524C245.173 27.2788 245.259 26.7197 245.259 26.0752C245.259 25.4355 245.173 24.8838 245.002 24.4199C244.832 23.9512 244.568 23.5898 244.211 23.3359C243.855 23.082 243.394 22.9551 242.827 22.9551C241.992 22.9551 241.379 23.231 240.989 23.7827C240.603 24.3345 240.41 25.0986 240.41 26.0752ZM252.422 21.9297C253.374 21.9297 254.094 22.1641 254.583 22.6328C255.071 23.0967 255.315 23.8438 255.315 24.874V30.1035H254.114V24.9546C254.114 24.2856 253.96 23.7852 253.652 23.4531C253.35 23.1211 252.883 22.9551 252.253 22.9551C251.365 22.9551 250.74 23.2065 250.378 23.7095C250.017 24.2124 249.836 24.9424 249.836 25.8994V30.1035H248.621V22.0762H249.602L249.785 23.2334H249.851C250.022 22.9502 250.239 22.7134 250.503 22.5229C250.767 22.3276 251.062 22.1812 251.389 22.0835C251.716 21.981 252.061 21.9297 252.422 21.9297ZM260.413 29.2539C260.613 29.2539 260.818 29.2368 261.028 29.2026C261.238 29.1685 261.409 29.127 261.541 29.0781V30.0229C261.399 30.0864 261.201 30.1401 260.947 30.1841C260.698 30.228 260.454 30.25 260.215 30.25C259.79 30.25 259.404 30.1768 259.058 30.0303C258.711 29.8789 258.433 29.625 258.223 29.2686C258.018 28.9121 257.915 28.4189 257.915 27.7891V23.0283H256.772V22.4351L257.922 21.959L258.406 20.2158H259.138V22.0762H261.489V23.0283H259.138V27.7524C259.138 28.2554 259.253 28.6313 259.482 28.8804C259.717 29.1294 260.027 29.2539 260.413 29.2539ZM270.088 26.0752C270.088 26.7344 270.002 27.3228 269.832 27.8403C269.661 28.3579 269.414 28.7949 269.092 29.1514C268.77 29.5078 268.379 29.7812 267.92 29.9717C267.466 30.1572 266.951 30.25 266.375 30.25C265.837 30.25 265.344 30.1572 264.895 29.9717C264.451 29.7812 264.065 29.5078 263.738 29.1514C263.416 28.7949 263.164 28.3579 262.983 27.8403C262.808 27.3228 262.72 26.7344 262.72 26.0752C262.72 25.1963 262.869 24.4492 263.167 23.834C263.464 23.2139 263.889 22.7427 264.441 22.4204C264.998 22.0933 265.659 21.9297 266.426 21.9297C267.158 21.9297 267.798 22.0933 268.345 22.4204C268.896 22.7476 269.324 23.2212 269.626 23.8413C269.934 24.4565 270.088 25.2012 270.088 26.0752ZM263.979 26.0752C263.979 26.7197 264.065 27.2788 264.236 27.7524C264.407 28.2261 264.67 28.5923 265.027 28.8511C265.383 29.1099 265.842 29.2393 266.404 29.2393C266.96 29.2393 267.417 29.1099 267.773 28.8511C268.135 28.5923 268.401 28.2261 268.572 27.7524C268.743 27.2788 268.828 26.7197 268.828 26.0752C268.828 25.4355 268.743 24.8838 268.572 24.4199C268.401 23.9512 268.137 23.5898 267.781 23.3359C267.424 23.082 266.963 22.9551 266.396 22.9551C265.562 22.9551 264.949 23.231 264.558 23.7827C264.172 24.3345 263.979 25.0986 263.979 26.0752ZM279.111 26.0752C279.111 26.7344 279.026 27.3228 278.855 27.8403C278.684 28.3579 278.438 28.7949 278.115 29.1514C277.793 29.5078 277.402 29.7812 276.943 29.9717C276.489 30.1572 275.974 30.25 275.398 30.25C274.861 30.25 274.368 30.1572 273.918 29.9717C273.474 29.7812 273.088 29.5078 272.761 29.1514C272.439 28.7949 272.188 28.3579 272.007 27.8403C271.831 27.3228 271.743 26.7344 271.743 26.0752C271.743 25.1963 271.892 24.4492 272.19 23.834C272.488 23.2139 272.913 22.7427 273.464 22.4204C274.021 22.0933 274.683 21.9297 275.449 21.9297C276.182 21.9297 276.821 22.0933 277.368 22.4204C277.92 22.7476 278.347 23.2212 278.65 23.8413C278.958 24.4565 279.111 25.2012 279.111 26.0752ZM273.003 26.0752C273.003 26.7197 273.088 27.2788 273.259 27.7524C273.43 28.2261 273.694 28.5923 274.05 28.8511C274.407 29.1099 274.866 29.2393 275.427 29.2393C275.984 29.2393 276.44 29.1099 276.797 28.8511C277.158 28.5923 277.424 28.2261 277.595 27.7524C277.766 27.2788 277.852 26.7197 277.852 26.0752C277.852 25.4355 277.766 24.8838 277.595 24.4199C277.424 23.9512 277.161 23.5898 276.804 23.3359C276.448 23.082 275.986 22.9551 275.42 22.9551C274.585 22.9551 273.972 23.231 273.582 23.7827C273.196 24.3345 273.003 25.0986 273.003 26.0752ZM282.437 30.1035H281.213V18.707H282.437V30.1035ZM284.824 29.3418C284.824 29 284.907 28.7583 285.073 28.6167C285.239 28.4702 285.442 28.397 285.681 28.397C285.93 28.397 286.14 28.4702 286.311 28.6167C286.482 28.7583 286.567 29 286.567 29.3418C286.567 29.6787 286.482 29.9253 286.311 30.0815C286.14 30.2329 285.93 30.3086 285.681 30.3086C285.442 30.3086 285.239 30.2329 285.073 30.0815C284.907 29.9253 284.824 29.6787 284.824 29.3418ZM292.163 30.25C291.44 30.25 290.803 30.1011 290.251 29.8032C289.7 29.5054 289.27 29.0513 288.962 28.4409C288.655 27.8306 288.501 27.0615 288.501 26.1338C288.501 25.1621 288.662 24.3687 288.984 23.7534C289.312 23.1333 289.761 22.6743 290.332 22.3765C290.903 22.0786 291.553 21.9297 292.28 21.9297C292.681 21.9297 293.066 21.9712 293.438 22.0542C293.813 22.1323 294.121 22.2324 294.36 22.3545L293.994 23.3726C293.75 23.2749 293.467 23.187 293.145 23.1089C292.827 23.0308 292.529 22.9917 292.251 22.9917C291.694 22.9917 291.23 23.1113 290.859 23.3506C290.493 23.5898 290.217 23.9414 290.032 24.4053C289.851 24.8691 289.761 25.4404 289.761 26.1191C289.761 26.7686 289.849 27.3228 290.024 27.7817C290.205 28.2407 290.471 28.5923 290.823 28.8364C291.179 29.0757 291.624 29.1953 292.156 29.1953C292.581 29.1953 292.964 29.1514 293.306 29.0635C293.647 28.9707 293.958 28.8633 294.236 28.7412V29.8252C293.967 29.9619 293.667 30.0669 293.335 30.1401C293.008 30.2134 292.617 30.25 292.163 30.25ZM303.062 26.0752C303.062 26.7344 302.976 27.3228 302.805 27.8403C302.634 28.3579 302.388 28.7949 302.065 29.1514C301.743 29.5078 301.353 29.7812 300.894 29.9717C300.439 30.1572 299.924 30.25 299.348 30.25C298.811 30.25 298.318 30.1572 297.869 29.9717C297.424 29.7812 297.039 29.5078 296.711 29.1514C296.389 28.7949 296.138 28.3579 295.957 27.8403C295.781 27.3228 295.693 26.7344 295.693 26.0752C295.693 25.1963 295.842 24.4492 296.14 23.834C296.438 23.2139 296.863 22.7427 297.415 22.4204C297.971 22.0933 298.633 21.9297 299.399 21.9297C300.132 21.9297 300.771 22.0933 301.318 22.4204C301.87 22.7476 302.297 23.2212 302.6 23.8413C302.908 24.4565 303.062 25.2012 303.062 26.0752ZM296.953 26.0752C296.953 26.7197 297.039 27.2788 297.209 27.7524C297.38 28.2261 297.644 28.5923 298 28.8511C298.357 29.1099 298.816 29.2393 299.377 29.2393C299.934 29.2393 300.391 29.1099 300.747 28.8511C301.108 28.5923 301.375 28.2261 301.545 27.7524C301.716 27.2788 301.802 26.7197 301.802 26.0752C301.802 25.4355 301.716 24.8838 301.545 24.4199C301.375 23.9512 301.111 23.5898 300.754 23.3359C300.398 23.082 299.937 22.9551 299.37 22.9551C298.535 22.9551 297.922 23.231 297.532 23.7827C297.146 24.3345 296.953 25.0986 296.953 26.0752ZM313.879 21.9297C314.763 21.9297 315.43 22.1616 315.879 22.6255C316.328 23.0845 316.553 23.8242 316.553 24.8447V30.1035H315.352V24.9033C315.352 24.2539 315.21 23.7681 314.927 23.4458C314.648 23.1187 314.233 22.9551 313.682 22.9551C312.905 22.9551 312.341 23.1797 311.99 23.6289C311.638 24.0781 311.462 24.7397 311.462 25.6138V30.1035H310.254V24.9033C310.254 24.4688 310.19 24.1074 310.063 23.8193C309.941 23.5312 309.756 23.3164 309.507 23.1748C309.263 23.0283 308.953 22.9551 308.577 22.9551C308.044 22.9551 307.617 23.0649 307.295 23.2847C306.973 23.5044 306.738 23.8315 306.592 24.2661C306.45 24.6958 306.379 25.2256 306.379 25.8555V30.1035H305.164V22.0762H306.145L306.328 23.2114H306.394C306.555 22.9331 306.758 22.6987 307.002 22.5083C307.246 22.3179 307.52 22.1738 307.822 22.0762C308.125 21.9785 308.447 21.9297 308.789 21.9297C309.399 21.9297 309.91 22.0444 310.32 22.2739C310.735 22.4985 311.035 22.8428 311.221 23.3066H311.287C311.55 22.8428 311.912 22.4985 312.371 22.2739C312.83 22.0444 313.333 21.9297 313.879 21.9297Z" fill="#8B8B8B"/>
<g clip-path="url(#clip0_713_6271)">
<path fill-rule="evenodd" clip-rule="evenodd" d="M1084.38 18.2372C1084.42 18.0903 1084.52 17.962 1084.64 17.8709C1084.76 17.7798 1084.91 17.7307 1085.07 17.7307C1085.22 17.7307 1085.37 17.7798 1085.5 17.8709C1085.62 17.962 1085.71 18.0903 1085.76 18.2372L1087.01 22.0737H1091.03C1091.19 22.0677 1091.35 22.114 1091.48 22.2057C1091.61 22.2974 1091.71 22.4294 1091.75 22.5814C1091.8 22.7335 1091.8 22.8973 1091.75 23.0479C1091.69 23.1984 1091.59 23.3274 1091.46 23.4151L1088.19 25.7828L1089.44 29.6259C1089.49 29.7723 1089.49 29.9307 1089.44 30.0778C1089.4 30.225 1089.31 30.3532 1089.18 30.4439C1089.05 30.5345 1088.9 30.5828 1088.75 30.5816C1088.6 30.5805 1088.45 30.53 1088.32 30.4375L1085.05 28.0431L1081.78 30.4174C1081.66 30.5099 1081.51 30.5604 1081.35 30.5615C1081.2 30.5627 1081.05 30.5144 1080.92 30.4237C1080.8 30.3331 1080.71 30.2048 1080.66 30.0577C1080.61 29.9105 1080.61 29.7522 1080.66 29.6058L1081.91 25.7626L1078.64 23.395C1078.51 23.3073 1078.41 23.1783 1078.36 23.0278C1078.3 22.8772 1078.3 22.7134 1078.35 22.5613C1078.4 22.4093 1078.49 22.2773 1078.62 22.1856C1078.76 22.0939 1078.91 22.0476 1079.07 22.0536H1083.1L1084.38 18.2372Z" stroke="#D3D3D3" stroke-width="1.5" stroke-linecap="round" stroke-linejoin="round"/>
</g>
<circle cx="24.1434" cy="24.1454" r="4.02428" fill="#4F9D69"/>
<circle cx="40.2411" cy="24.1454" r="4.02428" fill="#5863F8"/>
<circle cx="56.3368" cy="24.1454" r="4.02428" fill="#373A3A"/>
<g clip-path="url(#clip1_713_6271)">
<path fill-rule="evenodd" clip-rule="evenodd" d="M1174.19 18.3703L1174.25 18.2227C1174.36 17.974 1174.54 17.764 1174.77 17.6202C1175 17.4764 1175.27 17.4056 1175.54 17.4172C1175.81 17.4289 1176.07 17.5223 1176.29 17.6853C1176.5 17.8482 1176.66 18.073 1176.75 18.33L1176.8 18.4843C1176.85 18.6619 1176.95 18.8259 1177.07 18.9657C1177.19 19.1055 1177.34 19.2181 1177.51 19.2964C1177.68 19.3746 1177.87 19.4168 1178.05 19.4202C1178.24 19.4235 1178.42 19.3881 1178.6 19.316L1178.74 19.2556C1178.99 19.1551 1179.27 19.1336 1179.53 19.194C1179.8 19.2543 1180.04 19.3937 1180.22 19.5937C1180.4 19.7936 1180.52 20.0447 1180.56 20.3137C1180.6 20.5827 1180.55 20.8569 1180.43 21.1001L1180.36 21.2409C1180.27 21.4052 1180.22 21.5853 1180.21 21.7698C1180.2 21.9543 1180.23 22.1393 1180.29 22.3131C1180.35 22.4869 1180.45 22.6458 1180.58 22.7799C1180.71 22.914 1180.86 23.0202 1181.03 23.0921L1181.18 23.1525C1181.43 23.2606 1181.64 23.4415 1181.78 23.6713C1181.92 23.9012 1181.99 24.1693 1181.98 24.4402C1181.97 24.7111 1181.88 24.9721 1181.71 25.1888C1181.55 25.4056 1181.33 25.5678 1181.07 25.6542L1180.92 25.7012C1180.74 25.756 1180.57 25.8477 1180.43 25.9703C1180.29 26.0928 1180.17 26.2436 1180.1 26.4129C1180.02 26.5821 1179.97 26.7662 1179.97 26.9532C1179.96 27.1402 1180 27.326 1180.07 27.4987L1180.13 27.6395C1180.23 27.8919 1180.25 28.1689 1180.19 28.4338C1180.13 28.6987 1179.99 28.939 1179.79 29.123C1179.59 29.3069 1179.34 29.4258 1179.07 29.4639C1178.8 29.5021 1178.53 29.4576 1178.29 29.3364L1178.15 29.2627C1177.98 29.1779 1177.8 29.128 1177.62 29.1161C1177.43 29.1042 1177.25 29.1305 1177.07 29.1935C1176.9 29.2565 1176.74 29.3547 1176.61 29.482C1176.47 29.6094 1176.37 29.763 1176.29 29.9334L1176.23 30.0809C1176.13 30.3296 1175.95 30.5397 1175.72 30.6835C1175.49 30.8273 1175.22 30.898 1174.95 30.8864C1174.68 30.8748 1174.41 30.7813 1174.2 30.6184C1173.98 30.4554 1173.82 30.2306 1173.73 29.9736L1173.69 29.8194C1173.63 29.6405 1173.54 29.4752 1173.42 29.3339C1173.29 29.1926 1173.14 29.0785 1172.97 28.9989C1172.8 28.9193 1172.62 28.876 1172.43 28.8718C1172.25 28.8675 1172.06 28.9024 1171.89 28.9743L1171.75 29.0346C1171.49 29.1351 1171.22 29.1566 1170.95 29.0963C1170.69 29.0359 1170.45 28.8965 1170.26 28.6966C1170.08 28.4966 1169.96 28.2456 1169.92 27.9766C1169.88 27.7076 1169.93 27.4333 1170.05 27.1902L1170.12 27.0493C1170.21 26.885 1170.26 26.705 1170.27 26.5205C1170.28 26.336 1170.26 26.151 1170.19 25.9772C1170.13 25.8033 1170.03 25.6444 1169.9 25.5103C1169.78 25.3763 1169.62 25.27 1169.45 25.1981L1169.31 25.1378C1169.06 25.0297 1168.85 24.8488 1168.7 24.6189C1168.56 24.389 1168.49 24.1209 1168.5 23.85C1168.51 23.5791 1168.61 23.3181 1168.77 23.1014C1168.93 22.8847 1169.16 22.7224 1169.41 22.636L1169.57 22.5891C1169.75 22.5342 1169.91 22.4425 1170.05 22.32C1170.19 22.1974 1170.31 22.0467 1170.39 21.8774C1170.47 21.7081 1170.51 21.5241 1170.51 21.3371C1170.52 21.1501 1170.48 20.9643 1170.41 20.7916L1170.35 20.6507C1170.26 20.399 1170.24 20.1241 1170.3 19.8618C1170.36 19.5995 1170.5 19.362 1170.7 19.1803C1170.9 18.9986 1171.15 18.8811 1171.42 18.8431C1171.68 18.8051 1171.95 18.8483 1172.2 18.9672L1172.34 19.041C1172.5 19.1258 1172.68 19.1757 1172.87 19.1876C1173.05 19.1995 1173.24 19.1731 1173.41 19.1101C1173.58 19.0472 1173.74 18.9489 1173.88 18.8216C1174.01 18.6943 1174.12 18.5406 1174.19 18.3703V18.3703Z" stroke="#8B8B8B" stroke-width="1.5" stroke-linecap="round" stroke-linejoin="bevel"/>
<path d="M1175.24 26.7677C1176.69 26.7677 1177.86 25.5936 1177.86 24.1452C1177.86 22.6968 1176.69 21.5227 1175.24 21.5227C1173.79 21.5227 1172.62 22.6968 1172.62 24.1452C1172.62 25.5936 1173.79 26.7677 1175.24 26.7677Z" stroke="#8B8B8B" stroke-width="1.5" stroke-linecap="round" stroke-linejoin="bevel"/>
</g>
<g clip-path="url(#clip2_713_6271)">
<path d="M1137.01 30.8526L1137.54 28.9209C1139.29 22.5491 1146.8 22.5491 1148.55 28.9209L1149.08 30.8526" stroke="#8B8B8B" stroke-width="1.5" stroke-linecap="round" stroke-linejoin="round"/>
<path d="M1143.05 24.1319C1144.9 24.1319 1146.4 22.6305 1146.4 20.7784C1146.4 18.9262 1144.9 17.4248 1143.05 17.4248C1141.2 17.4248 1139.69 18.9262 1139.69 20.7784C1139.69 22.6305 1141.2 24.1319 1143.05 24.1319Z" stroke="#8B8B8B" stroke-width="1.5" stroke-linecap="round" stroke-linejoin="bevel"/>
</g>
<defs>
<clipPath id="clip0_713_6271">
<rect width="16.0971" height="16.0971" fill="white" transform="translate(1077 16.0977)"/>
</clipPath>
<clipPath id="clip1_713_6271">
<rect width="16.0971" height="16.0971" fill="white" transform="translate(1167.19 16.0967)"/>
</clipPath>
<clipPath id="clip2_713_6271">
<rect width="16.0971" height="16.0971" fill="white" transform="translate(1135 16.0967)"/>
</clipPath>
</defs>
</svg>
